<svg xmlns="http://www.w3.org/2000/svg" viewBox="0 0 40 40"><circle fill="var(--icon-color-secondary, #E5F0F8)" cx="12.3" cy="18.005" r="12.3"/><path fill="none" stroke="currentColor" stroke-width="2" stroke-linecap="round" d="M31.9 9.505s3.2 1.8 5.1 3 1.3 3.6-.7 3.6H23.9h-8.4c-2.3 0-2.9-2.3-1-3.6 1.8-1.2 4.9-3 4.9-3"/><path fill="var(--icon-color-primary, #007DFF)" d="M28.8 5.205h-6c-.4 0-.6.2-.8.4-.1.1-.2.3-.2.5v5.5c0 .4.3.7.6.8l3.039 1.162c.232.089.49.087.72-.004l2.941-1.158c.4-.2.6-.5.6-.8v-5.6c0-.4-.4-.8-.9-.8zm-.4 3.9v2.2l-2.6 1-2.6-1V6.605h5.2v2.5z"/><path fill="none" stroke="currentColor" stroke-width="2" stroke-linecap="round" d="M15.4 29.405h-.5c-3.2 0-3.3 4.4 0 4.4h21.9c1.2 0 2.2-.9 2.3-2.1 0-1.2-.9-2.2-2.1-2.3h-.2-17.3c-1.4 0-1.5-1.6-.7-1.9M15.8 17.005v6.2M23.2 17.005v3.7M31.9 17.005v1.2M36.9 20.805s-8.5 5.1-9.3 5.5-1.3.5-1.8-.2-.3-.5-.6-1c-.4-.5-1-.6-1.6-.3l-4.8 2.7M33.2 20.505l3.7.3M35.5 24.305l1.4-3.5"/></svg>