<svg xmlns="http://www.w3.org/2000/svg" viewBox="0 0 40 40"><g transform="translate(-792 -692.396)"><circle fill="var(--icon-color-secondary, #E5F0F8)" cx="804.9" cy="711.5" r="12.9"/><g fill="none" stroke-width="2" stroke-linecap="round" stroke-linejoin="round"><path stroke="currentColor" d="M831 714.3V700c0-1.1-.9-1.9-1.9-1.9h-21c-1.1 0-1.9.9-1.9 1.9v4.8M806.2 703.8H831"/><path stroke="currentColor" d="M802.3 710.5c0-1.1.9-1.9 1.9-1.9h21c1.1 0 1.9.9 1.9 1.9v14.3c0 1.1-.9 1.9-1.9 1.9h-21c-1.1 0-1.9-.9-1.9-1.9v-14.3zM802.3 714.3h24.8"/><path stroke="var(--icon-color-primary, #007DFF)" d="M806.2 720h2.9M819 719.1c-.8-1.1-2.3-1.3-3.3-.5-1.1.8-1.3 2.3-.5 3.3s2.3 1.3 3.3.5c.2-.1.3-.3.5-.5.8 1.1 2.3 1.3 3.3.5 1.1-.8 1.3-2.3.5-3.3s-2.3-1.3-3.3-.5c-.2.1-.3.3-.5.5z"/></g></g></svg>