<svg xmlns="http://www.w3.org/2000/svg" viewBox="0 0 40 40"><g transform="translate(-641 -693.22)"><circle fill="var(--icon-color-secondary, #E5F0F8)" cx="652.8" cy="714.6" r="11.8"/><g fill="none" stroke-width="2" stroke-linecap="round" stroke-linejoin="round"><path stroke="currentColor" d="M669.088 718.485l8.812-.685c1-.1 1.9.7 2 1.7 0 .3 0 .7-.2 1h0c-.2.4-.6.7-1 .9l-12.5 4.7c-.8.3-1.6.3-2.4 0l-9.6-3.2"/><path stroke="currentColor" d="M660.6 719.4h6.9c.7 0 1.3-.4 1.5-1.1h0c.3-.8-.2-1.7-1-2l-7.2-1.9c-.7-.2-1.5-.2-2.3-.1l-4.2.7"/><path stroke="var(--icon-color-primary, #007DFF)" d="M669.8 700.3l-2.2 11"/><path stroke="currentColor" d="M663.2 702.5l-4.4 3.3 4.4 3.3-2.45-1.838 2.45-1.862"/><path stroke="var(--icon-color-primary, #007DFF)" d="M674.1 709.1l4.4-3.3-4.4-3.3 2.45 1.838-2.45 1.862"/></g></g></svg>