<svg xmlns="http://www.w3.org/2000/svg" viewBox="0 0 40 40"><circle fill="var(--icon-color-secondary, #E5F0F8)" cx="11.4" cy="21.535" r="11.4"/><g fill="none" stroke-width="2" stroke-linecap="round" stroke-linejoin="round"><path stroke="currentColor" d="M17.8 12.935c-3.5.1-6.6 3.3-6.6 7.3h0c0 4 3.3 7.3 7.3 7.3h8.2l-6.7 5.2c-.4.3-1 .2-1.3-.2-.1-.2-.2-.4-.2-.6v-4.4"/><path stroke="var(--icon-color-primary, #007DFF)" d="M31.7 12.535v-4.5c0-.5-.4-.9-.9-.9-.2 0-.4.1-.6.2l-6.7 5.2h8.2c4 0 7.3 3.3 7.3 7.3h0c0 3.7-2.7 6.7-6.6 7.3"/></g></svg>