<svg xmlns="http://www.w3.org/2000/svg" viewBox="0 0 40 40"><circle fill="var(--icon-color-secondary, #E5F0F8)" cx="12" cy="21.604" r="12"/><g fill="none" stroke-width="2" stroke-linecap="round" stroke-linejoin="round"><path stroke="var(--icon-color-primary, #007DFF)" d="M38.1 30.004v1.5c0 1.1-.8 2.1-1.9 2.1h-9.7c-1.1-.1-2-1-1.9-2.1v-7.5c-.1-1.1.8-2.1 1.9-2.1h9.7c1.1.1 2 1 1.9 2.1v1.105M36.3 21.804l-1.5-3.1c-.2-.5-.8-.7-1.3-.4h0l-7 3.5"/><path stroke="var(--icon-color-primary, #007DFF)" d="M38 29.904c.5 0 1-.3 1-.9v-2.9c0-.5-.4-1-1-1h0-2.4c-1.3 0-2.4 1.1-2.4 2.4 0 1.3 1.1 2.4 2.4 2.4H38z"/><path stroke="currentColor" d="M17.8 31.304c-6.2-4.2-7.9-12.6-3.7-18.8s12.6-7.9 18.8-3.7c2.6 1.7 4.5 4.3 5.4 7.3.1.2.1.4.2.6"/><path stroke="currentColor" d="M20.5 28.904c-1.5-4.6-1.8-9.5-1.1-14.3.3-2.8 1.13-5.287 2.63-7.687M11.8 19.104h12.7M13.9 12.804h22.907M12.9 25.404h6.7M28.774 6.93c1.2 2 1.926 3.974 2.326 6.274.1.7.3 1.4.3 2.1"/></g></svg>