<svg xmlns="http://www.w3.org/2000/svg" viewBox="0 0 40 40"><circle fill="var(--icon-color-secondary, #E5F0F8)" cx="11.9" cy="21.604" r="11.9"/><path fill="none" stroke="currentColor" stroke-width="2" stroke-linecap="round" stroke-linejoin="round" d="M30 6.604h5.4c1 0 1.8.8 1.8 1.8v10.8M17.4 24.504h-3.6c-1 0-1.8-.8-1.8-1.8v-14.4c0-1 .8-1.8 1.8-1.8h1.8M21 24.504c0-1 .8-1.8 1.8-1.8h14.4c1 0 1.8.8 1.8 1.8v7.2c0 1-.8 1.8-1.8 1.8H22.8c-1 0-1.8-.8-1.8-1.8v-7.2zM23.7 28.104h3.6M25.5 26.304v3.6"/><circle fill="currentColor" cx="33.1" cy="29.4" r="1.4"/><circle fill="currentColor" cx="34.9" cy="26.75" r="1.4"/><g><path fill="none" stroke="var(--icon-color-primary, #007DFF)" stroke-width="2" stroke-linecap="round" stroke-linejoin="round" d="M21 14.604l3.7-2.5c-1.4-2.1-4.2-2.6-6.2-1.2-2.1 1.4-2.6 4.2-1.2 6.2 1.4 2.1 4.2 2.6 6.2 1.2.5-.3.9-.8 1.2-1.2l-3.7-2.5z"/><circle fill="var(--icon-color-primary, #007DFF)" cx="27.8" cy="15.077" r="1.4"/><circle fill="var(--icon-color-primary, #007DFF)" cx="32.217" cy="15.077" r="1.4"/></g></svg>