<svg xmlns="http://www.w3.org/2000/svg" viewBox="0 0 40 40"><g transform="translate(-641 -694.146)"><circle fill="var(--icon-color-secondary, #E5F0F8)" cx="653.1" cy="712" r="12.1"/><g fill="none" stroke-width="2" stroke-linecap="round"><path stroke="currentColor" stroke-linejoin="round" d="M664.9 715.7c-.7-1-1.8-1.5-3-1.5h-3.8c-3.7 0-6.6 3-6.6 6.6 0 3.7 3 6.6 6.6 6.6h19c1.6 0 2.9-1.2 2.9-2.8s-1.2-2.9-2.8-2.9h-5.8c-1.2 0-2.3-.6-3-1.5l-3.5-4.5z"/><path stroke="var(--icon-color-primary, #007DFF)" stroke-linejoin="round" d="M659 719.9l2.8 3.8M669.2 714.1l.7-3.7c.3-1.1 1.3-1.8 2.4-1.8h3.8c2.1 0 3.8-1.8 3.7-3.8 0-2.1-1.7-3.7-3.7-3.7h-7.6"/><path stroke="currentColor" stroke-linejoin="round" d="M653.3 708.5h7.6M656.2 708.5l3.8 5.7"/><path stroke="currentColor" d="M668.3 717.3l-.5 1.6"/></g></g></svg>