<svg xmlns="http://www.w3.org/2000/svg" viewBox="0 0 40 40"><g transform="translate(-641 -694.68)"><circle fill="var(--icon-color-secondary, #E5F0F8)" cx="652.9" cy="715.5" r="11.8"/><g fill="none" stroke-width="2" stroke-linecap="round" stroke-linejoin="round"><path stroke="var(--icon-color-primary, #007DFF)" d="M680 722.3v3.4c0 .9-.8 1.7-1.7 1.7h-3.4"/><path stroke="currentColor" d="M674.9 702h3.4c.9 0 1.7.8 1.7 1.7v3.4"/><path stroke="var(--icon-color-primary, #007DFF)" d="M654.7 707.1v-3.4c0-.9.8-1.7 1.7-1.7 0 0 0 0 0 0h3.4"/><path stroke="currentColor" d="M659.7 727.3h-3.4c-.9 0-1.7-.8-1.7-1.7 0 0 0 0 0 0v-3.4M667.6 715.8c2 0 3.6-1.6 3.6-3.6s-1.6-3.6-3.6-3.6-3.6 1.6-3.6 3.6c.1 2 1.7 3.6 3.6 3.6 0 0 0 0 0 0zM673.1 720.9c-1.1-3-4.4-4.6-7.4-3.6-1.7.6-3 1.9-3.6 3.6M674 704.9h1.9c.5 0 1 .4 1 1v1.9M659.6 724.4h-1.3c-.4 0-.7-.3-.7-.7 0 0 0 0 0 0v-1.3"/></g></g></svg>