<svg xmlns="http://www.w3.org/2000/svg" viewBox="0 0 40 40"><g transform="translate(-753.5 -692.396)"><circle fill="var(--icon-color-secondary, #E5F0F8)" cx="765.5" cy="714" r="12"/><g fill="none" stroke-width="2" stroke-linecap="round" stroke-linejoin="round"><path stroke="currentColor" d="M769.9 720.5v-4.8c0-.3.3-.6.6-.6h18.7c.3 0 .6.3.6.6v4.8M779.8 711.5v9"/><path stroke="currentColor" d="M769.9 725.9c1.5 0 2.7-1.2 2.7-2.7s-1.2-2.7-2.7-2.7-2.7 1.2-2.7 2.7h0c0 1.5 1.2 2.7 2.7 2.7 0 0 0 0 0 0zM779.8 725.9c1.5 0 2.7-1.2 2.7-2.7 0-1.5-1.2-2.7-2.7-2.7s-2.7 1.2-2.7 2.7h0c0 1.5 1.2 2.7 2.7 2.7 0 0 0 0 0 0zM789.8 725.9c1.5 0 2.7-1.2 2.7-2.7 0-1.5-1.2-2.7-2.7-2.7s-2.7 1.2-2.7 2.7h0c0 1.5 1.2 2.7 2.7 2.7 0 0 0 0 0 0z"/><path stroke="var(--icon-color-primary, #007DFF)" d="M779.8 706.1c2 0 3.6-1.6 3.6-3.6s-1.6-3.6-3.6-3.6-3.6 1.6-3.6 3.6h0c0 2 1.6 3.6 3.6 3.6zM785.3 711.5c-.6-3-3.6-5-6.6-4.4-2.2.4-4 2.2-4.4 4.4"/><path stroke="currentColor" d="M786 717.2h1.2c.2 0 .4.2.4.4v1.3M773.7 717.2h-1.2c-.2 0-.4.2-.4.4v1.3"/></g></g></svg>