<svg xmlns="http://www.w3.org/2000/svg" viewBox="0 0 40 40"><circle fill="var(--icon-color-secondary, #E5F0F8)" cx="12.5" cy="20.911" r="12.5"/><g fill="none" stroke-width="2" stroke-linecap="round" stroke-linejoin="round"><path stroke="currentColor" d="M27.1 5.461v28.275M39.1 18.611H15.2"/><path stroke="var(--icon-color-primary, #007DFF)" d="M20.4 16.411v-7.8M33.7 27.2v-6.4"/><path stroke="currentColor" d="M15.2 9.411v9.6c0 6.2 4.4 12.3 10.5 14.5h0c.9.3 1.9.3 2.9 0h0c6.1-2.2 10.5-8.3 10.5-14.5v-9.6c0-.8-.5-1.4-1.1-1.7-6.8-3-14.7-3-21.5 0-.9.3-1.3.9-1.3 1.7z"/><path stroke="var(--icon-color-primary, #007DFF)" d="M12.8 8.511v10.8c0 6.3 2.7 11.9 8.4 14.9M23.2 16.411v-8.4M30.9 29.8v-9"/></g></svg>