<svg xmlns="http://www.w3.org/2000/svg" viewBox="0 0 40 40"><g transform="translate(-641 -692.382)"><circle fill="var(--icon-color-secondary, #E5F0F8)" cx="652.8" cy="711.2" r="11.8"/><g fill="none" stroke-width="2" stroke-linecap="round" stroke-linejoin="round"><path stroke="currentColor" d="M671.1 704.2l-2.7 9.1H661l-1.8-5.5H670M661.5 716c.3 0 .5.2.5.5s-.2.5-.5.5-.5-.2-.5-.5c.1-.3.3-.5.5-.5h0M667.8 716c.3 0 .5.2.5.5s-.2.5-.5.5-.5-.2-.5-.5c.1-.3.3-.5.5-.5h0"/><path stroke="currentColor" d="M668.6 721.5c-6 2.2-12.7-.9-14.9-6.9-2.2-6 .9-12.7 6.9-14.9 6-2.2 12.7.9 14.9 6.9.9 2.4.9 5.1.1 7.6"/><path stroke="var(--icon-color-primary, #007DFF)" d="M671.5 717.4l3.2 8.4 1.9-3.2 3.2-1.9-8.3-3.3h0zM680 725.9l-3.2-3.2"/></g></g></svg>