<svg xmlns="http://www.w3.org/2000/svg" viewBox="0 0 40 40"><circle fill="var(--icon-color-secondary, #E5F0F8)" cx="12" cy="17.554" r="12"/><path fill="none" stroke="currentColor" stroke-width="2" stroke-linecap="round" stroke-linejoin="round" d="M39 33.054l-3.5-5.3v-6.2c0-2.4-4.6-5-6.3-6.3M31.5 23.054l-4.3-3.4c-.6-.6-1.6-.6-2.2 0-.6.6-.6 1.5 0 2.1l4.2 4.7v2.9c0 1.4 2 3.6 2 3.6M29.2 14.554v6.681M18.6 6.554h5.3"/><path fill="none" stroke="currentColor" stroke-width="2" stroke-linecap="round" stroke-linejoin="round" d="M29.2 28.654c-.3 1.5-1.6 2.7-3.2 2.7h-7.7c-1.8 0-3.2-1.4-3.2-3.2h0v-4.7M15.1 25.954h7.1"/><path fill="none" stroke="var(--icon-color-primary, #007DFF)" stroke-width="2" stroke-linecap="round" stroke-linejoin="round" d="M15.7 9.354l3.4 3.4M26.171 10.673L23.5 12.454M15.9 17.454l3.2-1.8"/><circle fill="none" stroke="var(--icon-color-primary, #007DFF)" stroke-width="2" stroke-linecap="round" stroke-linejoin="round" cx="14.2" cy="8.254" r="1.8"/><circle fill="none" stroke="var(--icon-color-primary, #007DFF)" stroke-width="2" stroke-linecap="round" stroke-linejoin="round" cx="14.2" cy="18.054" r="1.8"/><circle fill="none" stroke="var(--icon-color-primary, #007DFF)" stroke-width="2" stroke-linecap="round" stroke-linejoin="round" cx="21.297" cy="14.154" r="2.603"/><circle fill="none" stroke="var(--icon-color-primary, #007DFF)" stroke-width="2" stroke-linecap="round" stroke-linejoin="round" cx="28.397" cy="9.254" r="2.603"/></svg>