<svg xmlns="http://www.w3.org/2000/svg" viewBox="0 0 40 40"><circle fill="var(--icon-color-secondary, #E5F0F8)" cx="12.7" cy="18.754" r="12.7"/><g fill="none" stroke-width="2" stroke-linecap="round" stroke-linejoin="round"><path stroke="currentColor" d="M37.2 16.754v-3.6c0-1-.8-1.8-1.8-1.8H21v-1.8c0-1-.8-1.8-1.8-1.8h-5.4c-1 0-1.8.8-1.8 1.8v21.3c0 1.1 1 2 2.1 2 .9 0 1.7-.6 1.9-1.5l2.8-13.4c.2-.8.9-1.3 1.7-1.3l16.7.1c1 0 1.8.8 1.8 1.8 0 .2 0 .3-.1.5l-2.6 12.6c-.2.8-.927 1.2-1.727 1.2H14.1"/><g stroke="var(--icon-color-primary, #007DFF)"><path d="M29.8 22.454v8.2M28.2 25.654h3.2M28.2 28.954h3.2M31.4 20.854c0 .9-.7 1.6-1.6 1.6-.9 0-1.6-.7-1.6-1.6v-1.6h3.2v1.6h0z"/></g></g></svg>