<svg xmlns="http://www.w3.org/2000/svg" viewBox="0 0 40 40"><circle fill="var(--icon-color-secondary, #E5F0F8)" cx="12" cy="20.831" r="12"/><g fill="none" stroke-width="2" stroke-linecap="round" stroke-linejoin="round"><path stroke="currentColor" d="M37.2 27.531v1.7c0 1.9-1.6 3.5-3.5 3.5H16.3c-1.9 0-3.5-1.6-3.5-3.5v-12.2c0-1.9 1.6-3.5 3.5-3.5h17.4c1.9 0 3.5 1.6 3.5 3.5v1.9"/><path stroke="var(--icon-color-primary, #007DFF)" d="M32.5 11.031l-1.4-2.9c-.4-.9-1.5-1.2-2.3-.8h0l-8.2 4.1"/><path stroke="currentColor" d="M37.2 27.531c1 0 1.7-.8 1.7-1.781v-5.2c0-.919-.8-1.619-1.7-1.619h-4.4c-2.4 0-4.399 1.9-4.399 4.3s1.999 4.3 4.399 4.3h4.4z"/><path stroke="var(--icon-color-primary, #007DFF)" d="M32.8 23.231h0"/></g></svg>