<svg width="697" height="313" fill="none" xmlns="http://www.w3.org/2000/svg"><path d="M98 200v50c0 5.523 4.477 10 10 10s10-4.477 10-10v-50c0-5.523 4.477-10 10-10s10 4.477 10 10v100c0 5.523 4.477 10 10 10s10-4.477 10-10v-70c0-5.523 4.477-10 10-10s10 4.477 10 10v40c0 5.523 4.477 10 10 10s10-4.477 10-10v-70c0-5.523 4.477-10 10-10s10 4.477 10 10v30c0 5.523 4.477 10 10 10s10-4.477 10-10v-50c0-5.523 4.477-10 10-10s10 4.477 10 10v80c0 5.523 4.477 10 10 10s10-4.477 10-10v-50c0-5.523 4.477-10 10-10s10 4.477 10 10v60c0 5.523 4.477 10 10 10s10-4.477 10-10v-70c0-5.523 4.477-10 10-10s10 4.477 10 10v20c0 5.523 4.477 10 10 10s10-4.477 10-10v-50c0-5.523 4.477-10 10-10s10 4.477 10 10v60c0 5.523 4.477 10 10 10s10-4.477 10-10v-30c0-5.523 4.477-10 10-10s10 4.477 10 10v100c0 5.523 4.477 10 10 10s10-4.477 10-10V190c0-5.523 4.477-10 10-10s10 4.477 10 10v90c0 5.523 4.477 10 10 10s10-4.477 10-10v-60c0-5.523 4.477-10 10-10s10 4.477 10 10v50c0 5.523 4.477 10 10 10s10-4.477 10-10V170c0-5.523 4.477-10 10-10s10 4.477 10 10v60c0 5.523 4.477 10 10 10s10-4.477 10-10v-40c0-5.523 4.477-10 10-10s10 4.477 10 10v80c0 5.523 4.477 10 10 10s10-4.477 10-10V150" stroke="#DBDEE5" stroke-width="2" stroke-linecap="round" stroke-dasharray="8 6"/><path d="M339.204 297.5a1 1 0 0 0-1.731-1.002l1.731 1.002Zm2.294-5.027a1 1 0 1 0 1.002 1.731l-1.002-1.731Zm10.002 1.731a1 1 0 0 0 1.001-1.731l-1.001 1.731Zm5.027 2.294a1 1 0 0 0-1.731 1.002l1.731-1.002Zm-1.731 10.002a1 1 0 1 0 1.731 1.002l-1.731-1.002Zm-2.295 5.027a1 1 0 1 0-1.001-1.731l1.001 1.731Zm-10.001-1.731a1 1 0 0 0-1.002 1.731l1.002-1.731Zm-5.028-2.295a1 1 0 0 0 1.732-1.001l-1.732 1.001ZM540 287a1 1 0 1 0-2 0h2Zm-2-5a1 1 0 0 0 2 0h-2Zm2-10a1 1 0 0 0-2 0h2Zm-2-5a1 1 0 0 0 2 0h-2Zm3.204-9.5a1 1 0 1 0-1.731-1.002l1.731 1.002Zm2.294-5.027a1 1 0 1 0 1.002 1.731l-1.002-1.731Zm10.002 1.731a1 1 0 0 0 1.001-1.731l-1.001 1.731Zm5.027 2.294a1 1 0 1 0-1.731 1.002l1.731-1.002ZM558 267a1 1 0 1 0 2 0h-2Zm2 5a1 1 0 0 0-2 0h2Zm-2 10a1 1 0 1 0 2 0h-2Zm2 5a1 1 0 1 0-2 0h2Zm-3.204 9.5a1 1 0 1 0 1.731 1.001l-1.731-1.001Zm-2.295 5.027a1 1 0 0 0-1.001-1.731l1.001 1.731Zm-10.001-1.731a1 1 0 0 0-1.002 1.731l1.002-1.731Zm-5.027-2.295a1 1 0 1 0 1.731-1.001l-1.731 1.001ZM338 268.666a1 1 0 0 0-2 0h2Zm-2-3.333a1 1 0 0 0 2 0h-2Zm2-6.667a1 1 0 0 0-2 0h2Zm-2-3.333a1 1 0 0 0 2 0h-2Zm3.204-7.833a1 1 0 0 0-1.732-1.002l1.732 1.002Zm2.294-5.027a1 1 0 1 0 1.002 1.731l-1.002-1.731Zm10.002 1.731a1 1 0 0 0 1.001-1.731l-1.001 1.731Zm5.027 2.294a1 1 0 1 0-1.731 1.002l1.731-1.002Zm-.527 8.835a1 1 0 1 0 2 0h-2Zm2 3.333a1 1 0 0 0-2 0h2Zm-2 6.667a1 1 0 1 0 2 0h-2Zm2 3.333a1 1 0 0 0-2 0h2Zm-3.204 7.834a1 1 0 1 0 1.731 1.001l-1.731-1.001Zm-2.295 5.027a1 1 0 1 0-1.001-1.731l1.001 1.731Zm-10.001-1.731a.999.999 0 1 0-1.002 1.731l1.002-1.731Zm-5.027-2.295a1 1 0 1 0 1.731-1.001l-1.731 1.001ZM219 268.666a1 1 0 0 0-2 0h2Zm-2-3.333a1 1 0 0 0 2 0h-2Zm3.204-7.833a1 1 0 1 0-1.731-1.002l1.731 1.002Zm2.294-5.027a.999.999 0 1 0 1.002 1.731l-1.002-1.731Zm10.002 1.731a1 1 0 0 0 1.002-1.732l-1.002 1.732Zm5.027 2.294a1 1 0 1 0-1.731 1.002l1.731-1.002Zm-.527 8.835a1 1 0 0 0 2 0h-2Zm2 3.333a1 1 0 0 0-2 0h2Zm-3.204 7.834a1 1 0 1 0 1.731 1.001l-1.731-1.001Zm-2.294 5.027a1 1 0 1 0-1.002-1.731l1.002 1.731Zm-10.002-1.731a.999.999 0 1 0-1.002 1.731l1.002-1.731Zm-5.027-2.295a1 1 0 1 0 1.731-1.001l-1.731 1.001ZM338 302a8.95 8.95 0 0 1 1.204-4.5l-1.731-1.002A10.957 10.957 0 0 0 336 302h2Zm4.5-7.796A8.95 8.95 0 0 1 347 293v-2c-2.003 0-3.883.536-5.502 1.473l1.002 1.731ZM347 293a8.95 8.95 0 0 1 4.5 1.204l1.001-1.731A10.95 10.95 0 0 0 347 291v2Zm7.796 4.5A8.96 8.96 0 0 1 356 302h2c0-2.002-.536-3.882-1.473-5.502l-1.731 1.002ZM356 302a8.96 8.96 0 0 1-1.204 4.5l1.731 1.002c.937-1.62 1.473-3.5 1.473-5.502h-2Zm-4.5 7.796A8.96 8.96 0 0 1 347 311v2a10.95 10.95 0 0 0 5.501-1.473l-1.001-1.731ZM347 311a8.957 8.957 0 0 1-4.5-1.204l-1.002 1.731A10.952 10.952 0 0 0 347 313v-2Zm-7.796-4.5A8.95 8.95 0 0 1 338 302h-2c0 2.002.536 3.882 1.472 5.501l1.732-1.001ZM540 292v-5h-2v5h2Zm0-10v-10h-2v10h2Zm0-15v-5h-2v5h2Zm0-5a8.95 8.95 0 0 1 1.204-4.5l-1.731-1.002A10.954 10.954 0 0 0 538 262h2Zm4.5-7.796A8.947 8.947 0 0 1 549 253v-2c-2.002 0-3.883.536-5.502 1.473l1.002 1.731ZM549 253a8.95 8.95 0 0 1 4.5 1.204l1.001-1.731A10.95 10.95 0 0 0 549 251v2Zm7.796 4.5A8.96 8.96 0 0 1 558 262h2c0-2.002-.536-3.883-1.473-5.502l-1.731 1.002ZM558 262v5h2v-5h-2Zm0 10v10h2v-10h-2Zm0 15v5h2v-5h-2Zm0 5a8.96 8.96 0 0 1-1.204 4.5l1.731 1.001A10.95 10.95 0 0 0 560 292h-2Zm-4.5 7.796A8.96 8.96 0 0 1 549 301v2a10.95 10.95 0 0 0 5.501-1.473l-1.001-1.731ZM549 301a8.957 8.957 0 0 1-4.5-1.204l-1.002 1.731c1.619.937 3.5 1.473 5.502 1.473v-2Zm-7.796-4.5A8.95 8.95 0 0 1 540 292h-2c0 2.002.536 3.882 1.473 5.501l1.731-1.001ZM338 272v-3.334h-2V272h2Zm0-6.667v-6.667h-2v6.667h2Zm0-10V252h-2v3.333h2Zm0-3.333a8.95 8.95 0 0 1 1.204-4.5l-1.732-1.002A10.964 10.964 0 0 0 336 252h2Zm4.5-7.796A8.95 8.95 0 0 1 347 243v-2c-2.003 0-3.883.536-5.502 1.473l1.002 1.731ZM347 243a8.95 8.95 0 0 1 4.5 1.204l1.001-1.731A10.95 10.95 0 0 0 347 241v2Zm7.796 4.5A8.957 8.957 0 0 1 356 252h2c0-2.002-.536-3.883-1.473-5.502l-1.731 1.002ZM356 252v3.333h2V252h-2Zm0 6.666v6.667h2v-6.667h-2Zm0 10V272h2v-3.334h-2Zm0 3.334a8.96 8.96 0 0 1-1.204 4.5l1.731 1.001A10.95 10.95 0 0 0 358 272h-2Zm-4.5 7.796A8.96 8.96 0 0 1 347 281v2a10.95 10.95 0 0 0 5.501-1.473l-1.001-1.731ZM347 281a8.96 8.96 0 0 1-4.5-1.204l-1.002 1.731A10.952 10.952 0 0 0 347 283v-2Zm-7.796-4.5A8.95 8.95 0 0 1 338 272h-2c0 2.002.536 3.882 1.473 5.501l1.731-1.001ZM219 272v-3.334h-2V272h2Zm0-6.667V262h-2v3.333h2Zm0-3.333c0-1.642.438-3.177 1.204-4.5l-1.731-1.002A10.952 10.952 0 0 0 217 262h2Zm4.5-7.796A8.95 8.95 0 0 1 228 253v-2c-2.002 0-3.882.536-5.502 1.473l1.002 1.731ZM228 253a8.95 8.95 0 0 1 4.5 1.204l1.002-1.732A10.967 10.967 0 0 0 228 251v2Zm7.796 4.5A8.957 8.957 0 0 1 237 262h2c0-2.003-.536-3.883-1.473-5.502l-1.731 1.002ZM237 262v3.333h2V262h-2Zm0 6.666V272h2v-3.334h-2Zm0 3.334a8.96 8.96 0 0 1-1.204 4.5l1.731 1.001A10.95 10.95 0 0 0 239 272h-2Zm-4.5 7.796A8.96 8.96 0 0 1 228 281v2c2.002 0 3.882-.536 5.502-1.473l-1.002-1.731ZM228 281a8.96 8.96 0 0 1-4.5-1.204l-1.002 1.731c1.62.937 3.5 1.473 5.502 1.473v-2Zm-7.796-4.5A8.95 8.95 0 0 1 219 272h-2c0 2.002.536 3.882 1.473 5.501l1.731-1.001ZM97 209a1 1 0 0 0 2 0h-2ZM239.133 55a1 1 0 0 0 0-2v2Zm211.918-2a1 1 0 1 0 0 2v-2ZM597 158a1 1 0 0 0 2 0h-2ZM99 209V74h-2v135h2Zm0-135c0-10.493 8.507-19 19-19v-2c-11.598 0-21 9.402-21 21h2Zm19-20 .001 1h121.132v-2H118.001L118 54Zm333.051 1h126.948l.001-1-.001-1H451.051v2ZM578 55c10.493 0 19 8.507 19 19h2c0-11.598-9.402-21-21-21v2Zm19 19v84h2V74h-2Z" fill="#DBDEE5"/><path d="M99 109a1 1 0 0 0 0 2v-2Zm125.047 2a1 1 0 0 0 0-2v2Zm239.914-2a1 1 0 0 0 0 2v-2Zm134.037 2a1 1 0 0 0 0-2v2ZM99 110v1h125.047v-2H99v1Zm364.961 1h134.037v-2H463.961v2ZM159 83a6 6 0 0 1 6-6v-2a8 8 0 0 0-8 8h2Zm6-6a6 6 0 0 1 6 6h2a8 8 0 0 0-8-8v2Zm6 6a6 6 0 0 1-6 6v2a8 8 0 0 0 8-8h-2Zm-6 6a6 6 0 0 1-6-6h-2a8 8 0 0 0 8 8v-2Zm-26-6a6 6 0 0 1 6-6v-2a8 8 0 0 0-8 8h2Zm6-6a6 6 0 0 1 6 6h2a8 8 0 0 0-8-8v2Zm6 6a6 6 0 0 1-6 6v2a8 8 0 0 0 8-8h-2Zm-6 6a6 6 0 0 1-6-6h-2a8 8 0 0 0 8 8v-2Zm-26-6a6 6 0 0 1 6-6v-2a8 8 0 0 0-8 8h2Zm6-6a6 6 0 0 1 6 6h2a8 8 0 0 0-8-8v2Zm6 6a6 6 0 0 1-6 6v2a8 8 0 0 0 8-8h-2Zm-6 6a6 6 0 0 1-6-6h-2a8 8 0 0 0 8 8v-2Zm336.176-14.111a1 1 0 0 0 0 2v-2Zm-8.653 14.222a1 1 0 0 0 0 2v-2Zm-227.913 2a1 1 0 1 0 0-2v2Zm20.125-14.222a1 1 0 1 0 0-2v2Zm216.441 0h107.782v-2H461.176v2Zm107.782 0a6.111 6.111 0 0 1 6.112 6.11h2a8.112 8.112 0 0 0-8.112-8.11v2Zm6.112 6.11a6.111 6.111 0 0 1-6.112 6.112v2A8.112 8.112 0 0 0 577.07 83h-2Zm-6.112 7.112v-1H452.523v2h116.435v-1Zm-344.348-1h-34.565v2h34.565v-2Zm-34.565 0A6.111 6.111 0 0 1 183.934 83h-2a8.11 8.11 0 0 0 8.111 8.11v-2ZM183.934 83a6.111 6.111 0 0 1 6.111-6.111v-2a8.11 8.11 0 0 0-8.111 8.11h2Zm6.111-7.111v1h54.69v-2h-54.69v1Z" fill="#DBDEE5"/><path d="M447 153h1v-14.333h-45.142a22.351 22.351 0 0 1 3.282-9.394 67.681 67.681 0 0 1 8.647-10.473l.001-.002 5.794-5.673.004-.004 6.923-6.861.001-.002c7.186-7.064 12.218-12.992 14.888-17.607a28.081 28.081 0 0 0 4.121-14.036l.001-.011v-.012a22.857 22.857 0 0 0-3.271-11.762l-.003-.004a19.658 19.658 0 0 0-10.182-8.297 39.3 39.3 0 0 0-14.241-2.527h-.014a75.85 75.85 0 0 0-12.984 1.425 63.686 63.686 0 0 0-15.794 5.16l-.563.266-.573.27v14.339l1.411-.636 1.392-.627c4.759-2.145 8.191-3.567 10.229-4.247a55.085 55.085 0 0 1 7.224-1.797l.009-.001.009-.002a40.846 40.846 0 0 1 7.366-.764c3.501-.04 6.93.998 9.823 2.97l.01.007.01.006a8.722 8.722 0 0 1 3.97 7.713l-.001.012v.011a13.99 13.99 0 0 1-1.856 6.665l-.006.011-.006.011c-1.298 2.394-4.092 6.02-8.379 10.81-4.336 4.845-7.163 7.926-8.422 9.185l-.007.007-6.456 6.573-.002.001a158.485 158.485 0 0 0-9.887 11.11 38.742 38.742 0 0 0-6.569 10.862l-.004.01-.005.011a27.914 27.914 0 0 0-1.748 9.275V153h60Z" fill="#E5F0F8" stroke="#007DFF" stroke-width="2"/><path d="M273.978 150.696a1 1 0 0 0 1 1h11.283a1 1 0 0 0 1-1v-25.152h16.277a1 1 0 0 0 1-1v-9.403a1 1 0 0 0-1-1h-16.277V57.195a1 1 0 0 0-1-1h-11.283a1 1 0 0 0-.825.435l-39.728 57.945a1.003 1.003 0 0 0-.175.566v9.403a1 1 0 0 0 1 1h38.728v25.152Zm0-73.262v36.707h-24.911l24.911-36.707Z" fill="#E5F0F8" stroke="#007DFF" stroke-width="2" stroke-linecap="round" stroke-linejoin="round"/><mask id="a" maskUnits="userSpaceOnUse" x="308.707" y="52.375" width="70" height="104" fill="#000"><path fill="#fff" d="M308.707 52.375h70v104h-70z"/><path fill-rule="evenodd" clip-rule="evenodd" d="M319.111 67.804c-5.603 8.953-8.404 20.99-8.404 36.113 0 15.202 2.801 27.269 8.404 36.201 5.602 8.933 13.712 13.4 24.33 13.4 10.617 0 18.718-4.467 24.301-13.4 5.583-8.932 8.375-20.999 8.375-36.201 0-15.123-2.792-27.16-8.375-36.113s-13.684-13.429-24.301-13.429c-10.618 0-18.728 4.477-24.33 13.429Zm3.995 43.899a161.697 161.697 0 0 1-.235-8.433c0-11.44 1.743-20.892 5.23-28.356 3.487-7.463 8.6-11.195 15.339-11.195 2.546 0 5.015.656 7.405 1.968 2.389 1.314 4.622 3.83 6.7 7.552l-32.382 50.718c-1.215-5.172-1.901-9.257-2.057-12.254Zm40.903-8.726c0 10.383-1.607 19.845-4.819 28.385-3.213 8.542-8.639 12.812-16.279 12.812-2.743 0-5.24-.735-7.493-2.204-2.253-1.469-4.241-3.653-5.965-6.553l32.088-51.01c1.645 5.955 2.468 12.145 2.468 18.57Z"/></mask><path fill-rule="evenodd" clip-rule="evenodd" d="M319.111 67.804c-5.603 8.953-8.404 20.99-8.404 36.113 0 15.202 2.801 27.269 8.404 36.201 5.602 8.933 13.712 13.4 24.33 13.4 10.617 0 18.718-4.467 24.301-13.4 5.583-8.932 8.375-20.999 8.375-36.201 0-15.123-2.792-27.16-8.375-36.113s-13.684-13.429-24.301-13.429c-10.618 0-18.728 4.477-24.33 13.429Zm3.995 43.899a161.697 161.697 0 0 1-.235-8.433c0-11.44 1.743-20.892 5.23-28.356 3.487-7.463 8.6-11.195 15.339-11.195 2.546 0 5.015.656 7.405 1.968 2.389 1.314 4.622 3.83 6.7 7.552l-32.382 50.718c-1.215-5.172-1.901-9.257-2.057-12.254Zm40.903-8.726c0 10.383-1.607 19.845-4.819 28.385-3.213 8.542-8.639 12.812-16.279 12.812-2.743 0-5.24-.735-7.493-2.204-2.253-1.469-4.241-3.653-5.965-6.553l32.088-51.01c1.645 5.955 2.468 12.145 2.468 18.57Z" fill="#E5F0F8"/><path d="m319.111 67.804 1.695 1.06-1.695-1.06Zm0 72.314 1.694-1.062-1.694 1.062Zm48.631 0 1.696 1.06-1.696-1.06Zm0-72.314 1.697-1.059-1.697 1.059Zm-44.636 43.899v2a2 2 0 0 0 1.997-2.104l-1.997.104Zm4.995-36.789 1.812.847-1.812-.847Zm22.744-9.227.963-1.752h-.001l-.962 1.752Zm6.7 7.552 1.685 1.076a2 2 0 0 0 .061-2.05l-1.746.974Zm-32.382 50.718-1.947.457a2 2 0 0 0 3.633.619l-1.686-1.076Zm-2.057-12.254v-2a2.002 2.002 0 0 0-1.997 2.104l1.997-.104Zm36.084 19.659 1.872.705v-.001l-1.872-.704Zm-23.772 10.608 1.093-1.675h-.001l-1.092 1.675Zm-5.965-6.553-1.693-1.064c-.4.635-.41 1.441-.026 2.086l1.719-1.022Zm32.088-51.01 1.928-.533a2 2 0 0 0-3.621-.533l1.693 1.065Zm-44.125-17.664c-5.871 9.38-8.709 21.83-8.709 37.174h4c0-14.901 2.763-26.527 8.099-35.052l-3.39-2.122Zm-8.709 37.174c0 15.42 2.837 27.902 8.71 37.264l3.388-2.125c-5.334-8.504-8.098-20.156-8.098-35.139h-4Zm8.71 37.264c5.971 9.521 14.724 14.337 26.024 14.337v-4c-9.935 0-17.402-4.118-22.636-12.462l-3.388 2.125Zm26.024 14.337c11.3 0 20.045-4.816 25.997-14.34l-3.392-2.119c-5.214 8.342-12.671 12.459-22.605 12.459v4Zm25.997-14.34c5.851-9.361 8.679-21.842 8.679-37.261h-4c0 14.984-2.756 26.638-8.071 35.142l3.392 2.119Zm8.679-37.261c0-15.343-2.829-27.792-8.678-37.172l-3.394 2.117c5.317 8.526 8.072 20.153 8.072 35.055h4Zm-8.678-37.172c-5.951-9.542-14.696-14.37-25.998-14.37v4c9.932 0 17.389 4.125 22.604 12.487l3.394-2.117Zm-25.998-14.37c-11.302 0-20.055 4.828-26.025 14.368l3.39 2.122c5.235-8.364 12.702-12.49 22.635-12.49v-4Zm-18.338 59.224a160.174 160.174 0 0 1-.232-8.329h-4c0 2.664.079 5.51.238 8.538l3.994-.209Zm-.232-8.329c0-11.254 1.717-20.393 5.042-27.51l-3.624-1.693c-3.649 7.811-5.418 17.578-5.418 29.203h4Zm5.042-27.51c1.643-3.515 3.603-6.011 5.817-7.627 2.192-1.6 4.735-2.414 7.71-2.414v-4c-3.764 0-7.146 1.05-10.068 3.183-2.899 2.116-5.238 5.218-7.083 9.165l3.624 1.694Zm13.527-10.04c2.186 0 4.326.56 6.442 1.722l1.925-3.507c-2.663-1.462-5.46-2.215-8.367-2.215v4Zm6.442 1.721c1.924 1.058 3.928 3.21 5.916 6.774l3.493-1.95c-2.166-3.88-4.628-6.76-7.483-8.33l-1.926 3.506Zm5.977 4.723-32.382 50.717 3.372 2.153 32.381-50.718-3.371-2.152ZM327.11 123.5c-1.205-5.13-1.86-9.079-2.007-11.9l-3.994.208c.165 3.174.882 7.393 2.107 12.607l3.894-.915Zm-4.004-9.796v-4 4Zm38.903-10.726c0 10.175-1.574 19.394-4.691 27.681l3.744 1.408c3.308-8.794 4.947-18.498 4.947-29.089h-4Zm-4.691 27.681c-1.518 4.036-3.496 6.894-5.844 8.742-2.323 1.828-5.141 2.774-8.563 2.774v4c4.218 0 7.933-1.189 11.037-3.631 3.078-2.423 5.419-5.971 7.114-10.476l-3.744-1.409Zm-14.407 11.516c-2.363 0-4.48-.626-6.4-1.879l-2.186 3.35c2.585 1.686 5.464 2.529 8.586 2.529v-4Zm-6.401-1.879c-1.94-1.266-3.732-3.198-5.338-5.899l-3.438 2.043c1.841 3.098 4.026 5.533 6.592 7.206l2.184-3.35Zm-5.364-3.813 32.088-51.01-3.386-2.13-32.088 51.011 3.386 2.129Zm28.467-51.543c1.596 5.775 2.396 11.786 2.396 18.038h4c0-6.598-.845-12.967-2.54-19.103l-3.856 1.065Zm2.396 18.038h4-4Z" fill="#007DFF" mask="url(#a)"/><path d="M455 8h-16m8-8v16m30-8h-16m8-8v16m30-8h-16m8-8v16m30-8h-16m8-8v16m30-8h-16m8-8v16m-36 14h-16m8-8v16m30-8h-16m8-8v16m30-8h-16m8-8v16m30-8h-16m8-8v16m30-8h-16m8-8v16m74 14h-16m8-8v16m8 14h-16m8-8v16m8 14h-16m8-8v16m-14 14h-16m8-8v16m30-8h-16m8-8v16m30-8h-16m8-8v16m-36 14h-16m8-8v16m30-8h-16m8-8v16m30-8h-16m8-8v16m30-8h-16m8-8v16m-36 14h-16m8-8v16m30-8h-16m8-8v16m30-8h-16m8-8v16m-36 14h-16m8-8v16m30-8h-16m8-8v16m-36 14h-16m8-8v16m8 14h-16m8-8v16M242 8h16m-8-8v16m-30-8h16m-8-8v16m-30-8h16m-8-8v16m-30-8h16m-8-8v16m-30-8h16m-8-8v16m36 14h16m-8-8v16m-30-8h16m-8-8v16m-30-8h16m-8-8v16m-30-8h16m-8-8v16m-30-8h16m-8-8v16M44 52h16m-8-8v16m-8 14h16m-8-8v16m-8 14h16m-8-8v16m14 14h16m-8-8v16m-30-8h16m-8-8v16m-30-8h16m-8-8v16m36 14h16m-8-8v16m-30-8h16m-8-8v16m-30-8h16m-8-8v16m-30-8h16m-8-8v16m36 14h16m-8-8v16m-30-8h16m-8-8v16m-30-8h16m-8-8v16m36 14h16m-8-8v16m-30-8h16m-8-8v16m36 14h16m-8-8v16m-8 14h16m-8-8v16" stroke="#DBDEE5" stroke-width="2"/><path d="M405 38h-16m8-8v16m-168 99h-16m8-8v16m266-15h-16m8-8v16" stroke="#007DFF" stroke-width="2"/></svg>