<svg width="20" height="20" viewBox="0 0 20 20" xmlns="http://www.w3.org/2000/svg">
<path d="M4.59982 8.19964C5.3118 8.19964 6.00778 7.98852 6.59977 7.59297C7.19175 7.19741 7.65316 6.63519 7.92562 5.97741C8.19808 5.31963 8.26937 4.59583 8.13047 3.89753C7.99157 3.19924 7.64872 2.5578 7.14528 2.05436C6.64183 1.55092 6.0004 1.20807 5.30211 1.06917C4.60381 0.930272 3.88001 1.00156 3.22223 1.27402C2.56445 1.54648 2.00224 2.00788 1.60669 2.59987C1.21113 3.19186 1 3.88784 1 4.59982C1.00024 5.55448 1.37957 6.46997 2.05461 7.14501C2.72966 7.82006 3.64516 8.1994 4.59982 8.19964V8.19964Z" stroke="currentColor" stroke-width="2" stroke-linecap="round" stroke-linejoin="round" fill="none"/>
<path d="M4.59982 19.0004C5.3118 19.0004 6.00778 18.7893 6.59977 18.3937C7.19175 17.9982 7.65316 17.436 7.92562 16.7782C8.19808 16.1204 8.26937 15.3966 8.13047 14.6983C7.99157 14 7.64872 13.3586 7.14528 12.8551C6.64183 12.3517 6.0004 12.0089 5.30211 11.87C4.60381 11.7311 3.88001 11.8023 3.22223 12.0748C2.56445 12.3473 2.00224 12.8087 1.60669 13.4007C1.21113 13.9926 1 14.6886 1 15.4006C1.00024 16.3553 1.37957 17.2707 2.05461 17.9458C2.72966 18.6208 3.64516 19.0002 4.59982 19.0004V19.0004Z" stroke="currentColor" stroke-width="2" stroke-linecap="round" stroke-linejoin="round" fill="none"/>
<path d="M15.4006 8.19964C16.1126 8.19964 16.8086 7.98852 17.4005 7.59297C17.9925 7.19741 18.4539 6.63519 18.7264 5.97741C18.9989 5.31963 19.0701 4.59583 18.9312 3.89753C18.7923 3.19924 18.4495 2.5578 17.9461 2.05436C17.4426 1.55092 16.8012 1.20807 16.1029 1.06917C15.4046 0.930272 14.6808 1.00156 14.023 1.27402C13.3652 1.54648 12.803 2.00788 12.4075 2.59987C12.0119 3.19186 11.8008 3.88784 11.8008 4.59982C11.801 5.55448 12.1803 6.46997 12.8554 7.14501C13.5304 7.82006 14.4459 8.1994 15.4006 8.19964V8.19964Z" stroke="currentColor" stroke-width="2" stroke-linecap="round" stroke-linejoin="round" fill="none"/>
<path d="M15.4006 19.0004C16.1126 19.0004 16.8086 18.7893 17.4005 18.3937C17.9925 17.9982 18.4539 17.436 18.7264 16.7782C18.9989 16.1204 19.0701 15.3966 18.9312 14.6983C18.7923 14 18.4495 13.3586 17.9461 12.8551C17.4426 12.3517 16.8012 12.0089 16.1029 11.87C15.4046 11.7311 14.6808 11.8023 14.023 12.0748C13.3652 12.3473 12.803 12.8087 12.4075 13.4007C12.0119 13.9926 11.8008 14.6886 11.8008 15.4006C11.801 16.3553 12.1803 17.2707 12.8554 17.9458C13.5304 18.6208 14.4459 19.0002 15.4006 19.0004V19.0004Z" stroke="currentColor" stroke-width="2" stroke-linecap="round" stroke-linejoin="round" fill="none"/>
</svg>
