<?xml version="1.0" encoding="utf-8"?>
<!-- Generator: Adobe Illustrator 22.0.1, SVG Export Plug-In . SVG Version: 6.00 Build 0)  -->
<svg version="1.1" xmlns="http://www.w3.org/2000/svg" xmlns:xlink="http://www.w3.org/1999/xlink" x="0px" y="0px"
	 viewBox="0 0 20 20" enable-background="new 0 0 20 20" xml:space="preserve">
<g>
	<path fill="none" stroke="#000000" stroke-width="2" stroke-linecap="round" stroke-linejoin="round" d="M5.5,13.8v-6
		c0-0.8,0.7-1.5,1.5-1.5s1.5,0.7,1.5,1.5v6"/>
	<path fill="none" stroke="#000000" stroke-width="2" stroke-linecap="round" stroke-linejoin="round" d="M5.5,10.8h3"/>
	<path fill="none" stroke="#000000" stroke-width="2" stroke-linecap="round" stroke-linejoin="round" d="M11.5,13.8
		c1.7,0,3-1.3,3-3V9.2c0-1.7-1.3-3-3-3V13.8z"/>
</g>
<path fill="none" stroke="#000000" stroke-width="2" stroke-linecap="round" stroke-linejoin="round" d="M1,2.3C1,1.6,1.6,1,2.3,1
	h15.4C18.4,1,19,1.6,19,2.3v15.4c0,0.7-0.6,1.3-1.3,1.3H2.3C1.6,19,1,18.4,1,17.7L1,2.3L1,2.3z"/>
</svg>
