<svg xmlns="http://www.w3.org/2000/svg" viewBox="0 0 20 20" xml:space="preserve"><g fill="none" stroke="currentColor" stroke-width="2" stroke-linecap="round" stroke-linejoin="round"><path d="M17.8 7V2.2c0-.6-.5-1.2-1.1-1.2H2.2C1.6 1 1 1.5 1 2.1v.1h0v13.2c0 .6.5 1.2 1.1 1.2H7M1 4.6h16.8M14.2 15.9c.1.6-.1 1.1-.5 1.5l-1 1c-.8.7-2 .7-2.7-.1h0c-.7-.7-.7-1.9 0-2.6l1-1c.4-.4.9-.6 1.5-.5M15.9 14.2c.6.1 1.1-.1 1.5-.5l1-1c.7-.8.7-2-.1-2.7h0c-.7-.7-1.9-.7-2.6 0l-1 1c-.4.4-.6.9-.5 1.5M12.4 16l3.6-3.6"/></g></svg>
