<?xml version="1.0" encoding="utf-8"?>
<svg version="1.1" id="app-store" xmlns="http://www.w3.org/2000/svg" xmlns:xlink="http://www.w3.org/1999/xlink" x="0px" y="0px"
	 viewBox="0 0 20 20" enable-background="new 0 0 20 20" xml:space="preserve">
<path fill="none" stroke="currentColor" stroke-width="2" stroke-miterlimit="10" d="M5.43291,15.92932l-0.90447,1.50745
	c-0.30149,0.50249-1.00497,0.70348-1.60795,0.40199C2.418,17.53728,2.217,16.8338,2.51849,16.23081
	c0,0,0.40199-0.90447,0.60298-1.10547c0.1005-0.20099,0.60298-0.50249,1.10547-0.50249s1.30646,0.1005,1.40696,0.80398
	C5.6339,15.62783,5.43291,15.92932,5.43291,15.92932z M17.79403,12.00994h-2.71342c-0.20099,0-0.20099,0-0.30149-0.1005l0,0
	l-2.91441-5.02485c0,0-0.70348,0.20099-0.90447,0.40199c-0.90447,0.90447,0.1005,2.61292,0.30149,3.11541l4.01988,7.03479
	c0.30149,0.50249,1.00497,0.70348,1.60795,0.40199c0.50249-0.30149,0.70348-1.00497,0.40199-1.60795l-1.00497-1.70845
	c0,0-0.1005-0.20099,0.20099-0.20099h1.40696C18.49751,14.32137,19,13.81888,19,13.2159
	C19,12.51242,18.49751,12.00994,17.79403,12.00994L17.79403,12.00994z M12.56819,13.61789c0,0,0.1005,0.70348-0.40199,0.70348
	h-0.60298l0,0H2.11651c-0.60298,0-1.10547-0.50249-1.10547-1.10547c-0.1005-0.70348,0.50249-1.20596,1.10547-1.20596h2.61292
	c0.40199,0,0.50249-0.30149,0.50249-0.30149l3.4169-5.82883l0,0c0.1005-0.1005,0-0.20099,0-0.20099L7.44285,3.76919
	C7.14136,3.1662,7.34235,2.46273,7.84483,2.16123c0.50248-0.30149,1.20596-0.1005,1.60795,0.40199L9.95527,3.4677l0.50249-0.90447
	c0.30149-0.50248,1.00497-0.70348,1.60795-0.40199s0.70348,1.00497,0.40199,1.60795c0,0-4.52236,7.83877-4.72336,8.14026
	c-0.1005,0.1005,0,0.1005,0.1005,0.1005h2.81392C10.65875,12.00994,12.3672,12.11044,12.56819,13.61789z"/>
</svg>
