<svg xmlns="http://www.w3.org/2000/svg" viewBox="0 0 20 20"><path fill="none" stroke="currentColor" stroke-width="2" stroke-miterlimit="10" d="M5.433 15.93l-.905 1.507c-.301.502-1.005.703-1.608.402-.502-.302-.703-1.005-.402-1.608 0 0 .402-.905.603-1.106.101-.2.603-.502 1.106-.502s1.306.1 1.407.804c0 .2-.201.502-.201.502zm12.361-3.92h-2.713c-.201 0-.201 0-.302-.1h0l-2.914-5.025s-.704.2-.905.402c-.904.904.1 2.612.302 3.115l4.02 7.035c.301.502 1.005.703 1.608.402.502-.302.703-1.005.402-1.608l-1.005-1.709s-.1-.2.2-.2h1.408c.603 0 1.105-.503 1.105-1.106 0-.704-.502-1.206-1.206-1.206h0zm-5.226 1.608s.1.703-.402.703h-.603 0-9.446a1.115 1.115 0 01-1.106-1.105c-.1-.704.503-1.206 1.106-1.206h2.612c.402 0 .503-.302.503-.302L8.649 5.88h0c.1-.1 0-.201 0-.201l-1.206-1.91c-.302-.603-.1-1.306.402-1.608.502-.301 1.206-.1 1.608.402l.502.905.503-.905c.301-.502 1.005-.703 1.608-.402s.703 1.005.402 1.608c0 0-4.523 7.839-4.724 8.14-.1.1 0 .1.1.1h2.815s1.708.101 1.91 1.609z"/></svg>