<svg viewBox="0 0 20 20"><path fill="none" stroke="currentColor" stroke-width="2" stroke-linecap="round" stroke-linejoin="round" d="M3.7 13.1h4m0 0V6.4M5 13.1v-4m2.1 9.4H2.3c-.7 0-1.3-.6-1.3-1.3V2.3C1 1.6 1.6 1 2.3 1h9.4c.4 0 .7.1.9.4L15.3 4c.2.3.4.6.4 1m-5.5 11.2c0-.4.3-.7.8-.7h5.6c.4 0 .8.3.8.7v2.1c0 .4-.3.8-.8.8H11c-.4 0-.8-.3-.8-.8v-2.1z"/><path fill="none" stroke="currentColor" stroke-width="2" stroke-linecap="round" stroke-linejoin="round" d="M11.8 12.6c0-.4.3-.8.8-.8h5.6c.4 0 .8.3.8.8v2.1c0 .4-.3.8-.8.8h-5.6c-.4 0-.8-.3-.8-.8v-2.1z"/><path fill="none" stroke="currentColor" stroke-width="2" stroke-linecap="round" stroke-linejoin="round" d="M10.7 8.9c0-.4.3-.8.8-.8h5.6c.4 0 .8.3.8.8V11c0 .4-.3.8-.8.8h-5.6c-.4 0-.8-.3-.8-.8V8.9z"/></svg>