<svg viewBox="0 0 20 20"><g stroke="currentColor" stroke-linecap="round" stroke-linejoin="round" stroke-width="2" fill="none"><path d="M7.1 18.5H2.3c-.7 0-1.3-.6-1.3-1.3V2.3C1 1.6 1.6 1 2.3 1h9.4c.4 0 .7.1.9.4L15.3 4c.2.3.4.6.4 1M10.2 16.2c0-.4.3-.7.8-.7h5.6c.4 0 .8.3.8.7v2.1c0 .4-.3.8-.8.8H11c-.4 0-.8-.3-.8-.8z"/><path d="M11.8 12.6c0-.4.3-.8.8-.8h5.6c.4 0 .8.3.8.8v2.1c0 .4-.3.8-.8.8h-5.6c-.4 0-.8-.3-.8-.8z"/><path d="M10.7 8.9c0-.4.3-.8.8-.8h5.6c.4 0 .8.3.8.8V11c0 .4-.3.8-.8.8h-5.6c-.4 0-.8-.3-.8-.8z"/></g></svg>