<?xml version="1.0" encoding="utf-8"?>
<!-- Generator: Adobe Illustrator 25.4.1, SVG Export Plug-In . SVG Version: 6.00 Build 0)  -->
<svg version="1.1" mlns="http://www.w3.org/2000/svg" xmlns:xlink="http://www.w3.org/1999/xlink" x="0px" y="0px"
	 viewBox="0 0 20 20" enable-background="new 0 0 20 20" xml:space="preserve">
<path fill="none" stroke="currentColor" stroke-width="2" stroke-linecap="round" stroke-linejoin="round" d="M3.7,13.1h4"/>
<path fill="none" stroke="currentColor" stroke-width="2" stroke-linecap="round" stroke-linejoin="round" d="M7.7,13.1V6.4"/>
<path fill="none" stroke="currentColor" stroke-width="2" stroke-linecap="round" stroke-linejoin="round" d="M5,13.1v-4"/>
<path fill="none" stroke="currentColor" stroke-width="2" stroke-linecap="round" stroke-linejoin="round" d="M7.1,18.5H2.3
	c-0.7,0-1.3-0.6-1.3-1.3V2.3C1,1.6,1.6,1,2.3,1h9.4c0.4,0,0.7,0.1,0.9,0.4L15.3,4c0.2,0.3,0.4,0.6,0.4,1"/>
<path fill="none" stroke="currentColor" stroke-width="2" stroke-linecap="round" stroke-linejoin="round" d="M10.2,16.2
	c0-0.4,0.3-0.7,0.8-0.7h5.6c0.4,0,0.8,0.3,0.8,0.7v2.1c0,0.4-0.3,0.8-0.8,0.8H11c-0.4,0-0.8-0.3-0.8-0.8V16.2z"/>
<path fill="none" stroke="currentColor" stroke-width="2" stroke-linecap="round" stroke-linejoin="round" d="M11.8,12.6
	c0-0.4,0.3-0.8,0.8-0.8h5.6c0.4,0,0.8,0.3,0.8,0.8v2.1c0,0.4-0.3,0.8-0.8,0.8h-5.6c-0.4,0-0.8-0.3-0.8-0.8V12.6z"/>
<path fill="none" stroke="currentColor" stroke-width="2" stroke-linecap="round" stroke-linejoin="round" d="M10.7,8.9
	c0-0.4,0.3-0.8,0.8-0.8h5.6c0.4,0,0.8,0.3,0.8,0.8V11c0,0.4-0.3,0.8-0.8,0.8h-5.6c-0.4,0-0.8-0.3-0.8-0.8V8.9z"/>
</svg>
