<svg version="1.1" xmlns="http://www.w3.org/2000/svg" xmlns:xlink="http://www.w3.org/1999/xlink" x="0px" y="0px"
	 viewBox="0 0 20 20" enable-background="new 0 0 20 20" xml:space="preserve">
<g>
	<path fill="none" stroke="currentColor" stroke-width="2" stroke-linecap="round" stroke-linejoin="round" d="M14.2,10
		c0,2.3-1.9,4.2-4.2,4.2S5.8,12.3,5.8,10S7.7,5.8,10,5.8S14.2,7.6,14.2,10L14.2,10z"/>
	<path fill="none" stroke="currentColor" stroke-width="2" stroke-linecap="round" stroke-linejoin="round" d="M14.2,10v1.8
		c0,1.3,1.1,2.4,2.4,2.4s2.4-1.1,2.4-2.4l0,0V10c0-5-4-9-9-9s-9,4-9,9s4,9,9,9c1.9,0,3.8-0.6,5.4-1.8"/>
</g>
</svg>
