<svg xmlns="http://www.w3.org/2000/svg" viewBox="0 0 20 20"><g fill="none" stroke="currentColor" stroke-width="2" stroke-linecap="round" stroke-linejoin="round"><path d="M5.146 5.7h-3.54C1.304 5.7 1 5.4 1 5.1V1.6c0-.3.303-.6.607-.6H6.46c.303 0 .606.3.606.6V4M6.966 16v2.4c0 .3-.303.6-.606.6H1.607c-.304-.1-.607-.3-.607-.6v-3.5c0-.3.303-.6.607-.6h3.54M12.933 4V1.6c0-.3.303-.6.606-.6h4.854c.304 0 .607.3.607.6v3.5c0 .3-.303.6-.607.6h-3.64M14.753 14.3h3.64c.304 0 .607.3.607.6v3.5c0 .3-.303.6-.607.6H13.54c-.303 0-.606-.3-.606-.6V16M9.393 2.7h1.113M9.393 17.7h1.113M3.326 8.2v.6M3.326 11.2v.6M16.573 8.2v.6M16.573 11.2v.6"/></g></svg>