<?xml version="1.0" encoding="utf-8"?>
<svg version="1.1" id="blocks-arrow-up" xmlns="http://www.w3.org/2000/svg" xmlns:xlink="http://www.w3.org/1999/xlink" x="0px"
	 y="0px" viewBox="0 0 20 20" enable-background="new 0 0 20 20" xml:space="preserve">
<g>
	<path fill="none" stroke="currentColor" stroke-width="2" stroke-linecap="round" stroke-linejoin="round" d="M15.6,4.15V16.8"/>
	<path fill="none" stroke="currentColor" stroke-width="2" stroke-linecap="round" stroke-linejoin="round" d="M12.2,7.6l3-3.3
		c0.2-0.2,0.6-0.2,0.8,0l0,0l3,3.3"/>
	<path fill="none" stroke="currentColor" stroke-width="2" stroke-linecap="round" stroke-linejoin="round" d="M1,12.9
		c0-0.4,0.3-0.8,0.8-0.8l0,0h5.3c0.4,0,0.8,0.3,0.8,0.8l0,0v5.3c0,0.4-0.3,0.8-0.8,0.8l0,0H1.8C1.4,19,1,18.7,1,18.2l0,0V12.9z"/>
	<path fill="none" stroke="currentColor" stroke-width="2" stroke-linecap="round" stroke-linejoin="round" d="M1,1.8C1,1.4,1.3,1,1.8,1
		l0,0h5.3c0.4,0,0.8,0.3,0.8,0.8l0,0v5.3c0,0.4-0.3,0.8-0.8,0.8l0,0H1.8C1.4,7.9,1,7.6,1,7.2l0,0V1.8z"/>
</g>
</svg>
