<?xml version="1.0" encoding="utf-8"?>
<svg version="1.1" id="blocks-current-round" xmlns="http://www.w3.org/2000/svg" xmlns:xlink="http://www.w3.org/1999/xlink"
	 x="0px" y="0px" viewBox="0 0 20 20" enable-background="new 0 0 20 20" xml:space="preserve">
<g>
	<path fill="none" stroke="currentColor" stroke-width="2" stroke-linecap="round" stroke-linejoin="round" d="M5.14607,5.7H1.60674
		C1.30337,5.7,1,5.4,1,5.1V1.6C1,1.3,1.30337,1,1.60674,1h4.85393c0.30337,0,0.60674,0.3,0.60674,0.6V4"/>
	<path fill="none" stroke="currentColor" stroke-width="2" stroke-linecap="round" stroke-linejoin="round" d="M6.96629,16v2.4
		c0,0.3-0.30337,0.6-0.60674,0.6H1.60674C1.30337,18.9,1,18.7,1,18.4v-3.5c0-0.3,0.30337-0.6,0.60674-0.6h3.53933"/>
	<path fill="none" stroke="currentColor" stroke-width="2" stroke-linecap="round" stroke-linejoin="round" d="M12.93258,4V1.6
		c0-0.3,0.30337-0.6,0.60674-0.6h4.85393C18.69663,1,19,1.3,19,1.6v3.5c0,0.3-0.30337,0.6-0.60674,0.6h-3.64045"/>
	<path fill="none" stroke="currentColor" stroke-width="2" stroke-linecap="round" stroke-linejoin="round" d="M14.75281,14.3h3.64045
		C18.69663,14.3,19,14.6,19,14.9v3.5c0,0.3-0.30337,0.6-0.60674,0.6h-4.85393c-0.30337,0-0.60674-0.3-0.60674-0.6V16"/>
	<path fill="none" stroke="currentColor" stroke-width="2" stroke-linecap="round" stroke-linejoin="round" d="M9.39326,2.7h1.11236"/>
	<path fill="none" stroke="currentColor" stroke-width="2" stroke-linecap="round" stroke-linejoin="round" d="M9.39326,17.7h1.11236"/>
	<path fill="none" stroke="currentColor" stroke-width="2" stroke-linecap="round" stroke-linejoin="round" d="M3.32584,8.2v0.6"/>
	<path fill="none" stroke="currentColor" stroke-width="2" stroke-linecap="round" stroke-linejoin="round" d="M3.32584,11.2v0.6"/>
	<path fill="none" stroke="currentColor" stroke-width="2" stroke-linecap="round" stroke-linejoin="round" d="M16.57303,8.2v0.6"/>
	<path fill="none" stroke="currentColor" stroke-width="2" stroke-linecap="round" stroke-linejoin="round" d="M16.57303,11.2v0.6"/>
</g>
</svg>
