<svg xmlns="http://www.w3.org/2000/svg" viewBox="0 0 20 20"><g fill="none" stroke="currentColor" stroke-width="2" stroke-linecap="round" stroke-linejoin="round"><path d="M5 11.2c-.2 0-.3.2-.3.3s.2.3.3.3.3-.1.3-.3c0-.1-.2-.3-.3-.3h0M5 15.4c-.2 0-.3.2-.3.3 0 .2.2.3.3.3s.3-.1.3-.3c0-.1-.2-.3-.3-.3M10.1 11.2c-.2 0-.3.2-.3.3s.2.3.3.3.3-.1.3-.3c0-.1-.1-.3-.3-.3h0M15.2 11.2c-.2 0-.3.2-.3.3s.2.3.3.3c.2 0 .3-.1.3-.3 0-.1-.1-.3-.3-.3h0M10.1 15.4c-.2 0-.3.2-.3.3s.2.3.3.3.3-.1.3-.3c0-.1-.1-.3-.3-.3h0M15.2 15.4c-.2 0-.3.2-.3.3s.2.3.3.3c.2 0 .3-.1.3-.3 0-.1-.1-.3-.3-.3h0"/><g><path d="M1 4.58c0-.696.5-1.193 1.2-1.193h15.6c.7 0 1.2.497 1.2 1.193h0v13.227c0 .696-.5 1.193-1.2 1.193h0H2.2c-.7-.1-1.2-.597-1.2-1.293h0V4.58zM1 8.16h17.5M5.8 5.177V1M14.3 5.177V1"/></g></g></svg>