<svg xmlns="http://www.w3.org/2000/svg" viewBox="0 0 20 20"><g fill="none" stroke="currentColor" stroke-width="2" stroke-linecap="round" stroke-linejoin="round"><path d="M19 11.2V2.4c0-.7-.5-1.2-1.2-1.2H4.6c-.7 0-1.2.5-1.2 1.2v2.9M3.4 4.7H19"/><path d="M1 8.8c0-.7.5-1.2 1.2-1.2h13.2c.7 0 1.2.5 1.2 1.2v8.8c0 .7-.5 1.2-1.2 1.2H2.2c-.7 0-1.2-.5-1.2-1.2V8.8zM1 11.2h15.6M3.8 14.7h2.4"/><path d="M11.5 14.1c-.5-.6-1.4-.8-2.1-.3-.7.5-.8 1.4-.3 2.1.5.6 1.4.8 2.1.3l.3-.3c.5.7 1.4.8 2.1.3.7-.5.8-1.4.3-2.1-.5-.7-1.4-.8-2.1-.3l-.3.3z"/></g></svg>