<svg version="1.1" xmlns="http://www.w3.org/2000/svg" xmlns:xlink="http://www.w3.org/1999/xlink" x="0px" y="0px"
	 viewBox="0 0 20 20" enable-background="new 0 0 20 20" xml:space="preserve">
<g>
	<path fill="none" stroke="currentColor" stroke-width="2" stroke-linecap="round" stroke-linejoin="round" d="M1,2.2C1,1.5,1.5,1,2.2,1
		l0,0h15.6C18.5,1,19,1.5,19,2.2l0,0v1.2c0,0.7-0.5,1.2-1.2,1.2H2.2C1.5,4.6,1,4.1,1,3.4l0,0V2.2z"/>
	<path fill="none" stroke="currentColor" stroke-width="2" stroke-linecap="round" stroke-linejoin="round" d="M1,9.4
		c0-0.7,0.5-1.2,1.2-1.2l0,0h15.6c0.7,0,1.2,0.5,1.2,1.2l0,0v1.2c0,0.7-0.5,1.2-1.2,1.2H2.2c-0.7,0-1.2-0.5-1.2-1.2l0,0V9.4z"/>
	<path fill="none" stroke="currentColor" stroke-width="2" stroke-linecap="round" stroke-linejoin="round" d="M1,16.6
		c0-0.7,0.5-1.2,1.2-1.2l0,0h15.6c0.7,0,1.2,0.5,1.2,1.2l0,0v1.2c0,0.7-0.5,1.2-1.2,1.2H2.2C1.5,19,1,18.5,1,17.8l0,0V16.6z"/>
</g>
</svg>
