<svg xmlns="http://www.w3.org/2000/svg" viewBox="0 0 20 20"><g fill="none" stroke="currentColor" stroke-width="2" stroke-linecap="round" stroke-linejoin="round"><path d="M1 2.2C1 1.5 1.5 1 2.2 1h15.6c.7 0 1.2.5 1.2 1.2h0v1.2c0 .7-.5 1.2-1.2 1.2H2.2C1.5 4.6 1 4.1 1 3.4h0V2.2zM1 9.4c0-.7.5-1.2 1.2-1.2h15.6c.7 0 1.2.5 1.2 1.2h0v1.2c0 .7-.5 1.2-1.2 1.2H2.2c-.7 0-1.2-.5-1.2-1.2h0V9.4zM1 16.6c0-.7.5-1.2 1.2-1.2h15.6c.7 0 1.2.5 1.2 1.2h0v1.2c0 .7-.5 1.2-1.2 1.2H2.2c-.7 0-1.2-.5-1.2-1.2h0v-1.2z"/></g></svg>