<svg xmlns="http://www.w3.org/2000/svg" viewBox="0 0 21.5 24.5"><style>.category-st0{fill:none;stroke:currentColor;stroke-width:2;stroke-linecap:round;stroke-linejoin:round}</style><g transform="translate(-208.255 -5662.75)"><path class="category-st0" d="M223.5 5686.2h4.5c.4 0 .8-.3.8-.8v-4.9c0-.2-.1-.4-.2-.5l-1.1-1.1c-.1-.1-.3-.2-.5-.2h-3.4c-.4 0-.8.3-.8.8v6c0 .4.3.7.7.7z"/><path class="category-st0" d="M223.5 5672.8h4.5c.4 0 .7-.3.8-.7v-4.9c0-.2-.1-.4-.2-.5l-1.1-1.1c-.1-.1-.3-.2-.5-.2h-3.4c-.4 0-.8.3-.8.8v6c0 .2.3.6.7.6z"/><path class="category-st0" d="M209.3 5663.8v1.5"/><path class="category-st0" d="M209.3 5668.2v3"/><path class="category-st0" d="M209.3 5674.2v3"/><path class="category-st0" d="M209.3 5680.2v1.5c0 .8.7 1.5 1.5 1.5h1.5"/><path class="category-st0" d="M215.3 5683.2h3"/><path class="category-st0" d="M221.3 5683.2h1.5"/><path class="category-st0" d="M209.3 5669.8h3"/><path class="category-st0" d="M215.3 5669.8h3"/><path class="category-st0" d="M221.3 5669.8h1.5"/></g></svg>
