<?xml version="1.0" encoding="utf-8"?>
<svg version="1.1" id="categories" xmlns="http://www.w3.org/2000/svg" xmlns:xlink="http://www.w3.org/1999/xlink" x="0px" y="0px"
	 viewBox="0 0 20 20" enable-background="new 0 0 20 20" xml:space="preserve">
<g>
	<path fill="none" stroke="currentColor" stroke-width="2" d="M2,1h4.3C7,1,7.5,1.5,7.5,2.1v4.3C7.4,7,7,7.4,6.4,7.4H2c-0.6,0-1-0.4-1-1
		V2C1,1.4,1.4,1,2,1z"/>
	<path fill="none" stroke="currentColor" stroke-width="2" d="M2,11.7h4.3c0.6,0,1.1,0.5,1.1,1.1V17c0,0.6-0.5,1.1-1.1,1.1H2
		c-0.6,0-1-0.5-1-1.1v-4.2C1,12.2,1.4,11.7,2,11.7z"/>
	<path fill="none" stroke="currentColor" stroke-width="2" d="M12.8,1H17c0.6,0,1.1,0.5,1.1,1.1v4.3c0,0.5-0.5,0.9-1.1,0.9h-4.2
		c-0.6,0-1.1-0.4-1.1-1V2C11.7,1.4,12.2,1,12.8,1z"/>
	<path fill="none" stroke="currentColor" stroke-width="2" d="M15.8,11.4l2.9,2.9c0.4,0.4,0.4,1.1,0,1.6l-2.9,2.9
		c-0.4,0.4-1.1,0.4-1.5-0.1l-2.9-2.9c-0.4-0.4-0.4-1.1,0-1.4l2.9-2.9C14.7,11,15.3,10.9,15.8,11.4z"/>
</g>
</svg>
