<?xml version="1.0" encoding="utf-8"?>
<!-- Generator: Adobe Illustrator 22.0.1, SVG Export Plug-In . SVG Version: 6.00 Build 0)  -->
<svg version="1.1" id="circle-exclamation-mark" xmlns="http://www.w3.org/2000/svg" xmlns:xlink="http://www.w3.org/1999/xlink"
	 x="0px" y="0px" viewBox="0 0 20 20" enable-background="new 0 0 20 20" xml:space="preserve">
<g>
	<circle fill="none" stroke="#000000" stroke-width="2" stroke-miterlimit="10" cx="10" cy="10" r="9"/>
	<g>
		<path fill="none" stroke="#000000" stroke-width="2" stroke-linecap="round" stroke-linejoin="round" d="M6.5,9.6
			C6.5,9.3,6.8,9,7.1,9h5.8c0.4,0,0.6,0.3,0.6,0.6v4.5c0,0.4-0.3,0.6-0.6,0.6H7.1c-0.4,0-0.6-0.3-0.6-0.6L6.5,9.6L6.5,9.6z"/>
		<path fill="none" stroke="#000000" stroke-width="2" stroke-linecap="round" stroke-linejoin="round" d="M7.8,9V7.4
			c0.1-1.2,1.1-2.2,2.4-2.1c1.2,0.1,2.1,1,2.1,2.1v1.6"/>
		<path fill="none" stroke="#000000" stroke-width="2" stroke-linecap="round" stroke-linejoin="round" d="M10,11.5"/>
		<path fill="none" stroke="#000000" stroke-width="2" stroke-linecap="round" stroke-linejoin="round" d="M10,11.5L10,11.5L10,11.5
			L10,11.5"/>
	</g>
</g>
</svg>
