<svg xmlns="http://www.w3.org/2000/svg" viewBox="0 0 22.404 24.184"><g fill="none"><g stroke-linejoin="round"><path d="M11.202 22.184l-9.2-5.046V7.046L11.202 2l9.2 5.046v10.092z"/><path d="M11.202 22.184l9.202-5.046V7.046L11.202 2 2 7.046v10.092l9.202 5.046m0 2a2 2 0 01-.961-.246l-9.202-5.046A2 2 0 010 17.138V7.046a2 2 0 011.039-1.753L10.241.247a2 2 0 011.923 0l9.202 5.046a2 2 0 011.038 1.753v10.092a2 2 0 01-1.038 1.754l-9.202 5.046c-.3.164-.63.246-.962.246z" fill="currentColor"/></g><path d="M8.904 11.26l-7.3-4.231" stroke="currentColor" stroke-width="2"/><g transform="translate(8.077 8.834)" stroke="currentColor" stroke-width="2"><circle cx="3" cy="3" r="3" stroke="none"/><circle cx="3" cy="3" r="2"/></g><path d="M13.602 11.26l7.3-4.23" stroke="currentColor" stroke-width="2"/></g></svg>