<svg xmlns="http://www.w3.org/2000/svg" viewBox="0 0 20 20"><g fill="none" stroke="currentColor" stroke-width="2" stroke-linecap="round" stroke-linejoin="round"><path d="M4.8 15.2l2.4-1.9m8 1.9l-2.4-1.9M10 7.6V5.3m0 2.8c-1.6 0-2.8 1.3-2.8 2.8 0 1.6 1.3 2.8 2.8 2.8 1.6 0 2.8-1.3 2.8-2.8 0-1.5-1.2-2.8-2.8-2.8zM10 1.5c-1 0-1.9.8-1.9 1.9S9 5.3 10 5.3c1 0 1.9-.8 1.9-1.9S11 1.5 10 1.5zM17.1 14.7c-1 0-1.9.8-1.9 1.9s.8 1.9 1.9 1.9c1 0 1.9-.8 1.9-1.9s-.8-1.9-1.9-1.9zM2.9 14.7c-1 0-1.9.8-1.9 1.9s.8 1.9 1.9 1.9 1.9-.8 1.9-1.9-.9-1.9-1.9-1.9z"/></g></svg>