<?xml version="1.0" encoding="utf-8"?>
<!-- Generator: Adobe Illustrator 22.0.1, SVG Export Plug-In . SVG Version: 6.00 Build 0)  -->
<svg version="1.1" id="Layer_1" xmlns="http://www.w3.org/2000/svg" xmlns:xlink="http://www.w3.org/1999/xlink" x="0px" y="0px"
	 viewBox="0 0 20 20" enable-background="new 0 0 20 20" xml:space="preserve">
<g>
	<path fill="none" stroke="#000001" stroke-width="2" stroke-linecap="round" stroke-linejoin="round" d="M4.8,15.2l2.4-1.9
		 M15.2,15.2l-2.4-1.9 M10,7.6V5.3 M10,8.1c-1.6,0-2.8,1.3-2.8,2.8c0,1.6,1.3,2.8,2.8,2.8c1.6,0,2.8-1.3,2.8-2.8
		C12.8,9.4,11.6,8.1,10,8.1z"/>
	<path fill="none" stroke="#000001" stroke-width="2" stroke-linecap="round" stroke-linejoin="round" d="M10,1.5
		c-1,0-1.9,0.8-1.9,1.9S9,5.3,10,5.3c1,0,1.9-0.8,1.9-1.9S11,1.5,10,1.5z"/>
	<path fill="none" stroke="#000001" stroke-width="2" stroke-linecap="round" stroke-linejoin="round" d="M17.1,14.7
		c-1,0-1.9,0.8-1.9,1.9s0.8,1.9,1.9,1.9c1,0,1.9-0.8,1.9-1.9S18.2,14.7,17.1,14.7z"/>
	<path fill="none" stroke="#000001" stroke-width="2" stroke-linecap="round" stroke-linejoin="round" d="M2.9,14.7
		c-1,0-1.9,0.8-1.9,1.9s0.8,1.9,1.9,1.9s1.9-0.8,1.9-1.9S3.9,14.7,2.9,14.7z"/>
</g>
</svg>
