<?xml version="1.0" encoding="utf-8"?>
<svg version="1.1" id="controller" xmlns="http://www.w3.org/2000/svg" xmlns:xlink="http://www.w3.org/1999/xlink" x="0px" y="0px"
	 viewBox="0 0 20 20" enable-background="new 0 0 20 20" xml:space="preserve">
<g>
	<path fill="none" stroke="currentColor" stroke-width="2" stroke-linecap="round" stroke-linejoin="round" d="M5,3.2h1.4
		c2.4,0,4.3,1.8,4.3,4v1.3"/>
	<path fill="none" stroke="currentColor" stroke-width="2" stroke-linecap="round" stroke-linejoin="round" d="M14.6,8.7H5.3
		c-2.4,0-4.3,1.7-4.3,4s1.9,4,4.3,4.1c1.2,0,2.5-0.5,3.3-1.3h3c1.6,1.6,4.3,1.7,6,0.3c1.7-1.5,1.9-4,0.3-5.6
		C17,9.2,15.9,8.7,14.6,8.7L14.6,8.7z"/>
	<path fill="none" stroke="currentColor" stroke-width="2" stroke-linecap="round" stroke-linejoin="round" d="M5.3,11.3V14"/>
	<path fill="none" stroke="currentColor" stroke-width="2" stroke-linecap="round" stroke-linejoin="round" d="M4,12.7h2.7"/>
	<path fill="none" stroke="currentColor" stroke-width="2" stroke-linecap="round" stroke-linejoin="round" d="M14.1,13.6L14.1,13.6"/>
	<path fill="none" stroke="currentColor" stroke-width="2" stroke-linecap="round" stroke-linejoin="round" d="M15.7,12.1L15.7,12.1"/>
</g>
</svg>
