<svg xmlns="http://www.w3.org/2000/svg" viewBox="0 0 20 20"><g fill="none" stroke="currentColor" stroke-width="2"><path stroke-miterlimit="10" d="M18.134 5.97c0-.3-.1-.602-.402-.702-.301-.201-6.828-3.917-7.23-4.117-.301-.201-.602-.201-.904 0-.3.2-6.929 3.916-7.23 4.117-.301.2-.502.401-.502.803v8.034c0 .3.201.602.402.703.301.2 7.03 4.016 7.23 4.117.2.1.502.1.703 0 .1-.1 7.13-4.017 7.23-4.117.301-.201.602-.402.602-.703.1-1.306.1-6.126.1-8.134z"/><path stroke-miterlimit="10" d="M14.218 7.678c0-.201-.1-.301-.201-.402-.201-.1-3.615-2.109-3.816-2.209-.1-.1-.301-.1-.502 0-.1.1-3.615 2.109-3.816 2.21s-.201.2-.201.4v4.42c0 .2.1.3.2.4.202.101 3.616 2.11 3.817 2.21.1.1.301.1.401 0 .1 0 3.716-2.109 3.816-2.21.1-.1.201-.2.201-.4l.1-4.42z"/><path stroke-linecap="round" d="M9.95 9.887l1.556-.904M9.95 9.887l-.05 1.808"/><path stroke-miterlimit="10" d="M9.95 9.887L6.385 7.979"/></g></svg>