<?xml version="1.0" encoding="utf-8"?>
<svg version="1.1" id="core" xmlns="http://www.w3.org/2000/svg" xmlns:xlink="http://www.w3.org/1999/xlink" x="0px" y="0px"
	 viewBox="0 0 20 20" enable-background="new 0 0 20 20" xml:space="preserve">
<g>
	<path fill="none" stroke="currentColor" stroke-width="2" stroke-miterlimit="10" d="M18.13387,5.97073
		c0-0.30124-0.10043-0.60252-0.40167-0.70294c-0.30126-0.20085-6.82844-3.91631-7.23011-4.11716
		c-0.30126-0.20085-0.60252-0.20085-0.90376,0C9.29708,1.35149,2.66948,5.06694,2.36822,5.26779
		C2.06696,5.46864,1.86613,5.66946,1.86613,6.07113c0,2.00837,0,8.03346,0,8.03346c0,0.30124,0.20083,0.60252,0.40167,0.70294
		c0.30126,0.20085,7.02928,4.01673,7.23011,4.11716c0.20083,0.10042,0.50209,0.10042,0.70292,0
		c0.10042-0.10043,7.1297-4.01673,7.23011-4.11716c0.30126-0.20085,0.60251-0.40167,0.60251-0.70294
		C18.13387,12.79916,18.13387,7.9791,18.13387,5.97073z"/>
	<path fill="none" stroke="currentColor" stroke-width="2" stroke-miterlimit="10" d="M14.21756,7.67785
		c0-0.20085-0.10042-0.30124-0.20083-0.40167c-0.20083-0.10042-3.61506-2.10879-3.8159-2.20921
		c-0.10042-0.10042-0.30126-0.10042-0.50209,0C9.59832,5.1674,6.08368,7.17576,5.88284,7.27619S5.68201,7.47704,5.68201,7.67785
		c0,0.30124,0,4.4184,0,4.4184c0,0.20085,0.10042,0.30124,0.20083,0.40167c0.20083,0.10042,3.61506,2.10879,3.8159,2.20921
		c0.10042,0.10042,0.30126,0.10042,0.40167,0c0.10042,0,3.71547-2.10879,3.8159-2.20921
		c0.10042-0.10042,0.20083-0.20085,0.20083-0.40167L14.21756,7.67785z"/>
	<g>
		
			<line fill="none" stroke="currentColor" stroke-width="2" stroke-linecap="round" x1="9.94979" y1="9.88705" x2="11.50626" y2="8.98328"/>
		
			<line fill="none" stroke="currentColor" stroke-width="2" stroke-linecap="round" x1="9.94979" y1="9.88705" x2="9.89958" y2="11.69458"/>
		
			<line fill="none" stroke="currentColor" stroke-width="2" stroke-miterlimit="10" x1="9.94979" y1="9.88705" x2="6.38494" y2="7.97908"/>
	</g>
</g>
</svg>
