<svg xmlns="http://www.w3.org/2000/svg" viewBox="0 0 20 20"><g fill="none" stroke="currentColor" stroke-width="2" stroke-linecap="round" stroke-linejoin="round"><path d="M11.253 13.635l6.218-.501c.702-.1 1.303.501 1.404 1.203 0 .2 0 .501-.1.702h0c-.1.3-.402.501-.703.602L9.448 18.85c-.5.2-1.103.2-1.604 0l-6.618-2.207"/><path d="M5.538 14.237h4.713c.501 0 .902-.301 1.002-.802h0c.201-.602-.1-1.204-.701-1.404l-4.914-1.304c-.502-.1-1.003-.2-1.605-.1l-2.908.501M7.343 2.504L4.334 4.811l3.009 2.306M14.763 2.504l3.009 2.307-3.009 2.306M11.755 1L10.25 8.721"/></g></svg>