<svg version="1.1" id="exit" xmlns="http://www.w3.org/2000/svg" x="0" y="0" viewBox="0 0 20 20" xml:space="preserve"><g fill="none" stroke="currentColor" stroke-width="2" stroke-linecap="round" stroke-linejoin="round"><path d="M16.6 15.5v1.2c0 .7-.5 1.2-1.2 1.2h-3.6m0-14.4h3.6c.7 0 1.2.5 1.2 1.2h0v1.2M8.7 19l-7.2-1c-.3 0-.5-.3-.5-.6v-14c0-.3.2-.5.5-.6L8.7 1c.3-.1.7.2.7.5v16.8c0 .5-.3.8-.7.7h0zm3.7-8.4H19l-2.4-2.4m2.4 2.4L16.6 13"/><path d="M6.7 9.8c-.1 0-.3.1-.3.3s.1.3.3.3c.1 0 .3-.1.3-.3h0c0-.2-.2-.3-.3-.3"/></g></svg>