<?xml version="1.0" encoding="utf-8"?>
<!-- Generator: Adobe Illustrator 22.0.1, SVG Export Plug-In . SVG Version: 6.00 Build 0)  -->
<svg version="1.1" id="exit" xmlns="http://www.w3.org/2000/svg" xmlns:xlink="http://www.w3.org/1999/xlink" x="0px" y="0px"
	 viewBox="0 0 20 20" enable-background="new 0 0 20 20" xml:space="preserve">
<g>
	<path fill="none" stroke="currentColor" stroke-width="2" stroke-linecap="round" stroke-linejoin="round" d="M16.6,15.5v1.2
		c0,0.7-0.5,1.2-1.2,1.2h-3.6"/>
	<path fill="none" stroke="currentColor" stroke-width="2" stroke-linecap="round" stroke-linejoin="round" d="M11.8,3.5h3.6
		c0.7,0,1.2,0.5,1.2,1.2l0,0v1.2"/>
	<path fill="none" stroke="currentColor" stroke-width="2" stroke-linecap="round" stroke-linejoin="round" d="M8.7,19l-7.2-1
		C1.2,18,1,17.7,1,17.4v-14c0-0.3,0.2-0.5,0.5-0.6L8.7,1C9,0.9,9.4,1.2,9.4,1.5v16.8C9.4,18.8,9.1,19.1,8.7,19L8.7,19z"/>
	<g>
		<path fill="none" stroke="currentColor" stroke-width="2" stroke-linecap="round" stroke-linejoin="round" d="M12.4,10.6H19l-2.4-2.4"
			/>
		<path fill="none" stroke="currentColor" stroke-width="2" stroke-linecap="round" stroke-linejoin="round" d="M19,10.6L16.6,13"/>
	</g>
	<path fill="none" stroke="currentColor" stroke-width="2" stroke-linecap="round" stroke-linejoin="round" d="M6.7,9.8
		c-0.1,0-0.3,0.1-0.3,0.3s0.1,0.3,0.3,0.3c0.1,0,0.3-0.1,0.3-0.3l0,0C7,9.9,6.8,9.8,6.7,9.8"/>
</g>
</svg>
