<?xml version="1.0" encoding="utf-8"?>
<svg version="1.1" id="explorer" xmlns="http://www.w3.org/2000/svg" xmlns:xlink="http://www.w3.org/1999/xlink" x="0px" y="0px"
	 viewBox="0 0 20 20" enable-background="new 0 0 20 20" xml:space="preserve">
<g transform="translate(-497 -502.72)">
	<path fill="none" stroke="currentColor" stroke-width="2" stroke-linecap="round" d="M515.40002,512.70001
		c0,4.79999-3.89999,8.70001-8.70001,8.70001c-4.79999,0-8.70001-3.90002-8.70001-8.70001S501.89999,504,506.70001,504l0,0"/>
	
		<line fill="none" stroke="currentColor" stroke-width="2" stroke-linecap="round" x1="516" y1="520.79999" x2="513.29999" y2="518.79999"/>
	<path fill="none" stroke="currentColor" stroke-width="2" stroke-linecap="round" d="M509.89999,504.70001
		c2.39999,1,4.19998,2.89999,5.00003,5.39999"/>
	<g>
		<path fill="none" stroke="currentColor" stroke-width="2" stroke-linecap="round" d="M502.20001,510.26999l4.39999,2.39999"/>
		<path fill="none" stroke="currentColor" stroke-width="2" stroke-linecap="round" d="M506.60001,512.66998"/>
		
			<line fill="none" stroke="currentColor" stroke-width="2" stroke-linecap="round" x1="506.60001" y1="512.66998" x2="508.74655" y2="511.5965"/>
		<path fill="none" stroke="currentColor" stroke-width="2" stroke-miterlimit="10" d="M511.20001,510.47
			c0-0.20001-0.10001-0.29999-0.20001-0.39999c-0.20001-0.10001-3.79999-2.20001-4-2.29999c-0.10001-0.10001-0.29999-0.10001-0.5,0
			s-3.79999,2.20001-4,2.29999c-0.20001,0.10001-0.29999,0.20001-0.29999,0.39999v4.49997
			c0,0.20001,0.10001,0.29999,0.20001,0.40002c0.20001,0.09998,3.89999,2.20001,4,2.29999s0.29999,0.09998,0.39999,0
			c0.10001,0,3.89999-2.20001,4-2.29999c0.20001-0.09998,0.39999-0.20001,0.39999-0.40002
			C511.20001,514.66998,511.20001,510.47,511.20001,510.47z"/>
		
			<line fill="none" stroke="currentColor" stroke-width="2" stroke-linecap="round" x1="506.60001" y1="515.07001" x2="506.60001" y2="512.66998"/>
	</g>
</g>
</svg>
