<svg xmlns="http://www.w3.org/2000/svg" viewBox="0 0 20 20"><g fill="none" stroke="currentColor" stroke-width="2"><path stroke-linecap="round" d="M18.4 9.98c0 4.8-3.9 8.7-8.7 8.7-4.8 0-8.7-3.9-8.7-8.7s3.9-8.7 8.7-8.7h0M19 18.08l-2.7-2M12.9 1.98c2.4 1 4.2 2.9 5 5.4M5.2 7.55l4.4 2.4M9.6 9.95l2.147-1.074"/><path stroke-miterlimit="10" d="M14.2 7.75c0-.2-.1-.3-.2-.4-.2-.1-3.8-2.2-4-2.3-.1-.1-.3-.1-.5 0s-3.8 2.2-4 2.3c-.2.1-.3.2-.3.4v4.5c0 .2.1.3.2.4.2.1 3.9 2.2 4 2.3s.3.1.4 0c.1 0 3.9-2.2 4-2.3.2-.1.4-.2.4-.4v-4.5z"/><path stroke-linecap="round" d="M9.6 12.35v-2.4"/></g></svg>