<svg xmlns="http://www.w3.org/2000/svg" viewBox="0 0 20 20"><g fill="none" stroke="currentColor" stroke-width="2" stroke-linecap="round" stroke-linejoin="round"><path d="M9.8 16.1c0-.4-.3-.7-.8-.7H3.4c-.4 0-.8.3-.8.7v2.1c0 .4.3.8.8.8H9c.4 0 .8-.3.8-.8v-2.1zM8.2 12.5c0-.4-.3-.8-.8-.8H1.8c-.4 0-.8.3-.8.8v2.1c0 .4.3.8.8.8h5.6c.4 0 .8-.3.8-.8v-2.1h0z"/><path d="M9.3 8.9c0-.4-.3-.8-.8-.8H2.9c-.4 0-.8.3-.8.8V11c0 .4.3.8.8.8h5.6c.4 0 .8-.3.8-.8V8.9h0z"/><path d="M12.2 19h5.3c.9 0 1.5-.8 1.5-1.6V2.6c0-.9-.8-1.6-1.5-1.6h0-7.9c-.4 0-.8.1-1.2.4l-3 3.2C5 5 5 5.4 5 5.8"/></g></svg>