<svg xmlns="http://www.w3.org/2000/svg" viewBox="0 0 32 32"><path d="M27.5 20.9v3.5c0 2.4-.7 4.6-2 6.6-1.3-2-2-4.2-2-6.6 0 2.4-.7 4.6-2 6.6-1.3-2-2-4.2-2-6.6v-3.5M12.3 31c2.2 0 4-1.8 4-4v-2c0-2.2-1.8-4.1-4-4.1V31z" fill="none" stroke="currentColor" stroke-width="2" stroke-linecap="round" stroke-linejoin="round"/><path fill="none" stroke="var(--icon-color-primary, currentColor)" stroke-width="2" stroke-linecap="round" stroke-linejoin="round" d="M8.323 29H5.047C3.921 29 3 28.143 3 27.095V2.905C3 1.857 3.921 1 4.945 1H19.07c.614 0 1.023.19 1.433.571l7.882 7.334c.41.38.614.857.614 1.333v5.714"/></svg>