<?xml version="1.0" encoding="utf-8"?>
<svg version="1.1" id="fire" xmlns="http://www.w3.org/2000/svg" xmlns:xlink="http://www.w3.org/1999/xlink" x="0px" y="0px"
	 viewBox="0 0 20 20" enable-background="new 0 0 20 20" xml:space="preserve">
<g>
	<path fill="none" stroke="currentColor" stroke-width="2" stroke-linecap="round" stroke-linejoin="round" d="M13.8,11.8
		c0.1,1.9-1.4,3.5-3.2,3.6"/>
	<path fill="none" stroke="currentColor" stroke-width="2" stroke-linecap="round" stroke-linejoin="round" d="M10,18.9c-3.6,0-7-2.7-7-6
		c0-2.6,1.7-4.4,3.9-5.8c0.1-0.1,0.3,0,0.4,0.2c0,0,0,0.1,0,0.1c-0.1,1.3,0.3,2.6,1.3,3.4c0.2,0.2,0.6,0.2,0.8,0c1-1,3.7-4.3-1-9.3
		c-0.1-0.1-0.1-0.3,0-0.4C8.5,1.1,8.6,1,8.6,1.1c3.3,0,8.3,5.4,8.3,10.1C17,15.1,14.7,18.9,10,18.9z"/>
</g>
</svg>
