<svg xmlns="http://www.w3.org/2000/svg" viewBox="0 0 20 20"><g fill="none" stroke="currentColor" stroke-width="2" stroke-linecap="round" stroke-linejoin="round"><path d="M7 15.4H2.4M16.6 7V4.6c0-.3-.1-.6-.4-.8-.2-.2-.5-.4-.8-.4H7V2.2c0-.3-.1-.6-.4-.8-.2-.3-.5-.4-.8-.4H2.2c-.3 0-.6.1-.8.4-.3.2-.4.5-.4.8V14c0 .3.1.6.3.9.2.2.5.4.8.4.3 0 .7 0 .9-.2.3-.2.5-.5.6-.8l1.9-6.5c.1-.2.3-.4.5-.6.2-.1.4-.2.7-.2h11.1c.2 0 .4 0 .5.1.2.1.3.2.4.3.2.2.2.4.3.6v.5M10.6 13.2v4.6c0 .3.1.6.4.8.2.2.5.4.8.4h4.8c.3 0 .6-.1.8-.4.2-.2.4-.5.4-.8v-4.6"/><path d="M9.4 14.2L13 11c.3-.3.7-.4 1.2-.4.4 0 .9.2 1.2.4l3.6 3.2"/></g></svg>