<svg viewBox="0 0 20 20"><path fill="none" d="M7 15.4H2.357M16.6 7V4.6a1.2 1.2 0 0 0-1.2-1.2H7V2.2A1.2 1.2 0 0 0 5.8 1H2.2A1.2 1.2 0 0 0 1 2.2v11.84a1.36 1.36 0 0 0 2.669.35l1.88-6.523A1.2 1.2 0 0 1 6.704 7H17.8a1.2 1.2 0 0 1 1.16 1.509m-8.36 4.649v4.64a1.2 1.2 0 0 0 1.2 1.2h4.8a1.2 1.2 0 0 0 1.2-1.2v-4.64" stroke="currentColor" stroke-width="2" stroke-linecap="round" stroke-linejoin="round"/><path fill="none" d="m9.4 14.208 3.615-3.163a1.8 1.8 0 0 1 2.371 0L19 14.208" stroke="currentColor" stroke-width="2" stroke-linecap="round" stroke-linejoin="round"/></svg>