<?xml version="1.0" encoding="utf-8"?>
<svg version="1.1" id="forward" xmlns="http://www.w3.org/2000/svg" xmlns:xlink="http://www.w3.org/1999/xlink" x="0px" y="0px"
	 viewBox="0 0 20 20" enable-background="new 0 0 20 20" xml:space="preserve">
<g>
	<path fill="none" stroke="currentColor" stroke-width="2" stroke-linecap="round" d="M1,3.8v12.4"/>
	<path fill="none" stroke="currentColor" stroke-width="2" stroke-linecap="round" stroke-linejoin="round" d="M8.6,16
		C8,16.3,7,16.1,6.7,15.4c-0.1-0.2-0.1-0.4-0.1-0.6c0-2.4,0-9.5,0-9.5c0-0.8,0.6-1.5,1.5-1.5c0.2,0,0.4,0,0.6,0.1
		c0.7,0.4,9.5,4.8,9.5,4.8c0.7,0.3,1,1.2,0.6,1.9c-0.1,0.2-0.3,0.5-0.6,0.6C16.7,11.9,8.6,16,8.6,16z"/>
</g>
</svg>
