<svg xmlns="http://www.w3.org/2000/svg" viewBox="0 0 20 20"><g fill="none" stroke="currentColor" stroke-width="2" stroke-linecap="round" stroke-linejoin="round"><path d="M8.8 2.3c.5.8 1.6.7 2.2.1l.9-.9c.6-.6 1.6-.6 2.2-.1.5.4.7 1.3.4 2.3-.2.9.8 1.7 1.5 1.6.1 0 1-.1 1.3-.1 1.1.1 1.5.8 1.6 1.5.1 1-.5 1.6-1.3 2-.8.4-.7 1.7-.1 2.3l.9.9c.5.6.6 1.5.1 2.2-.4.5-1 .6-2.3.4-.9-.2-1.6.6-1.6 1.5 0 .1.1 1.3.1 1.3 0 .9-.6 1.7-1.5 1.7-.5 0-.9-.3-1.2-.6l-.8-.8c-.6-.6-1.6-.7-2.2-.1l-1 1c-.6.6-1.6.6-2.2.1-.3-.3-.8-.8-.4-2.3.2-.9-.6-1.6-1.5-1.6-.1 0-1 .1-1.3.1-.9 0-1.6-.8-1.6-1.7 0-.5.2-.9.5-1.2l.8-.8c.7-.5.8-1.5.1-2.2-.2-.2-.9-.8-.9-.8-.6-.6-.7-1.6-.1-2.2.3-.3.8-.5 1.2-.5l1.1.1c.9 0 1.6-.6 1.6-1.5V2.6c0-.7.7-1.5 1.5-1.6.7 0 1.3.2 2 1.3z"/><path d="M10 13.6c2 0 3.6-1.6 3.6-3.6S12 6.4 10 6.4 6.4 8 6.4 10h0c0 2 1.6 3.6 3.6 3.6z"/></g></svg>