<svg xmlns="http://www.w3.org/2000/svg" viewBox="0 0 20 20"><g fill="none" stroke="currentColor" stroke-width="2" stroke-linecap="round" stroke-linejoin="round"><path d="M10.71 18.972a9 9 0 118.182-7.569M7.8 18.73c-1.2-1.8-2-5.136-2-8.736s.8-6.923 2-8.723M17 10h2M1 10h7.049M2.323 14.7h6.73M2.45 5.1h15.1M12.2 1.27c1.109 1.663 1.79 3.383 1.888 6.73"/><path d="M14.28 18.709l.03.065a.428.428 0 00.787-.079l.956-2.642 2.642-.956a.428.428 0 00.08-.787l-7.153-3.275a.448.448 0 00-.587.587l3.245 7.087"/></g></svg>