<svg xmlns="http://www.w3.org/2000/svg" viewBox="0 0 20 20"><g fill="none" stroke="currentColor" stroke-width="2" stroke-linecap="round" stroke-linejoin="round"><path d="M4.97 17.464a9 9 0 1113.784-9.566M6.669 16.218c-.545-1.75-.869-3.933-.869-6.224 0-3.6.8-6.923 2-8.723M1 10h7.381M2.323 14.7h3.952M2.45 5.1h15.1M12.2 1.27c.834 1.253 1.427 3.195 1.71 5.507"/></g><g fill="none" stroke="currentColor" stroke-width="2" stroke-linecap="round" stroke-linejoin="round"><path d="M18.5 16.6v1c0 .7-.5 1.4-1.3 1.4h-6.4c-.7 0-1.3-.7-1.3-1.4v-4.9c0-.7.5-1.4 1.3-1.4h6.4c.7 0 1.3.7 1.3 1.4v.8M17.3 11.3l-1-2c-.2-.3-.5-.4-.9-.3h0l-4.7 2.3"/><path d="M18.4 16.6c.4 0 .6-.3.6-.6v-1.9c0-.3-.3-.6-.6-.6h-1.6c-.9 0-1.6.6-1.6 1.6 0 .9.8 1.5 1.6 1.5h1.6z"/></g></svg>