<?xml version="1.0" encoding="utf-8"?>
<svg version="1.1" id="globe-wallet" xmlns="http://www.w3.org/2000/svg" xmlns:xlink="http://www.w3.org/1999/xlink" x="0px"
	 y="0px" viewBox="0 0 20 20" enable-background="new 0 0 20 20" xml:space="preserve">
<g transform="translate(0.25 0.406)">
	<path fill="none" stroke="currentColor" stroke-width="2" stroke-linecap="round" stroke-linejoin="round" d="M4.71929,17.0578
		C2.32456,15.44055,0.75,12.70115,0.75,9.594c0-4.97056,4.02944-9,9-9c4.24655,0,7.80617,2.94107,8.75307,6.89741"/>
	<path fill="none" stroke="currentColor" stroke-width="2" stroke-linecap="round" stroke-linejoin="round" d="M18.50307,7.49141"/>
	<path fill="none" stroke="currentColor" stroke-width="2" stroke-linecap="round" stroke-linejoin="round" d="M6.41882,15.81159
		C5.87397,14.06255,5.55,11.87891,5.55,9.588c0-3.6,0.8-6.92314,2-8.72314"/>
	
		<line fill="none" stroke="currentColor" stroke-width="2" stroke-linecap="round" stroke-linejoin="round" x1="0.75" y1="9.594" x2="8.13104" y2="9.594"/>
	<path fill="none" stroke="currentColor" stroke-width="2" stroke-linecap="round" stroke-linejoin="round" d="M17.42673,14.294"/>
	
		<line fill="none" stroke="currentColor" stroke-width="2" stroke-linecap="round" stroke-linejoin="round" x1="2.07327" y1="14.294" x2="6.02532" y2="14.294"/>
	
		<line fill="none" stroke="currentColor" stroke-width="2" stroke-linecap="round" stroke-linejoin="round" x1="2.19962" y1="4.694" x2="17.30041" y2="4.694"/>
	<path fill="none" stroke="currentColor" stroke-width="2" stroke-linecap="round" stroke-linejoin="round" d="M11.95,0.86484
		c0.83447,1.25171,1.42716,3.19451,1.7108,5.50616"/>
</g>
<g>
	<path fill="none" stroke="currentColor" stroke-width="2" stroke-linecap="round" stroke-linejoin="round" d="M18.5,16.6v1
		c0,0.7-0.5,1.4-1.3,1.4h-6.4c-0.7,0-1.3-0.7-1.3-1.4v-4.9c0-0.7,0.5-1.4,1.3-1.4h6.4c0.7,0,1.3,0.7,1.3,1.4v0.8"/>
	<path fill="none" stroke="currentColor" stroke-width="2" stroke-linecap="round" stroke-linejoin="round" d="M17.3,11.3l-1-2
		C16.1,9,15.8,8.9,15.4,9l0,0l-4.7,2.3"/>
	<path fill="none" stroke="currentColor" stroke-width="2" stroke-linecap="round" stroke-linejoin="round" d="M18.4,16.6
		c0.4,0,0.6-0.3,0.6-0.6v-1.9c0-0.3-0.3-0.6-0.6-0.6h-1.6c-0.9,0-1.6,0.6-1.6,1.6c0,0.9,0.8,1.5,1.6,1.5
		C17.2,16.6,18.4,16.6,18.4,16.6L18.4,16.6z"/>
</g>
</svg>
