<?xml version="1.0" encoding="utf-8"?>
<!-- Generator: Adobe Illustrator 22.0.1, SVG Export Plug-In . SVG Version: 6.00 Build 0)  -->
<svg version="1.1" xmlns="http://www.w3.org/2000/svg" xmlns:xlink="http://www.w3.org/1999/xlink" x="0px" y="0px"
	 viewBox="0 0 20 20" enable-background="new 0 0 20 20" xml:space="preserve">
<g>
	<path fill="none" stroke="#000000" stroke-width="2" stroke-linecap="round" stroke-linejoin="round" d="M1.1,3.4
		c0-0.6,0.5-1.1,1.2-1.1l0,0h15.5c0.7,0,1.2,0.5,1.2,1.1l0,0v13.3c0,0.6-0.5,1.1-1.2,1.1H2.2c-0.7,0-1.2-0.5-1.2-1.1V3.4z"/>
	<path fill="none" stroke="#000000" stroke-width="2" stroke-linecap="round" stroke-linejoin="round" d="M1.1,5.6h17.9"/>
	<g>
		<path fill="none" stroke="#000000" stroke-width="1.5" stroke-linecap="round" stroke-linejoin="round" d="M12,11.7h1.5
			c0.2,0,0.4,0.2,0.4,0.4c0,0,0,0.1,0,0.1L12,14.9c-0.1,0.2,0,0.4,0.2,0.5c0,0,0.1,0,0.1,0h1.5"/>
		<g>
			<path fill="none" stroke="#000000" stroke-width="1.5" stroke-linecap="round" stroke-linejoin="round" d="M9.7,15.4v-5.2
				c0-1-0.8-1.7-1.7-1.7s-1.7,0.8-1.7,1.7v5.2"/>
			
				<line fill="none" stroke="#000000" stroke-width="1.5" stroke-linecap="round" stroke-linejoin="round" x1="6.2" y1="13" x2="9.7" y2="13"/>
		</g>
	</g>
</g>
</svg>
