<svg xmlns="http://www.w3.org/2000/svg" viewBox="0 0 23 23.6"><g transform="translate(-262.5 -84.796)"><g data-name="Group 2"><g fill="none" stroke="currentColor" stroke-linecap="round" stroke-linejoin="round" stroke-width="2"><path data-name="Rectangle-path 3" d="M263.5 92.056a.5.5 0 01.5-.5h20a.5.5 0 01.5.5v1.88a.5.5 0 01-.5.5h-20a.5.5 0 01-.5-.5z"/><path data-name="Shape 12" d="M283 91.556c0-2.88-4.5-5.76-9-5.76s-9 2.88-9 5.76"/><path data-name="Rectangle-path 4" d="M263.5 102.386a.75.75 0 01.75-.75h19.5a.75.75 0 01.75.75v1.38a.75.75 0 01-.75.75h-19.5a.75.75 0 01-.75-.75z"/><path data-name="Shape 13" d="M263.5 107.4h21"/><path data-name="Shape 14" d="M265 94.436v7.2"/><path data-name="Shape 15" d="M268 94.436v7.2"/><path data-name="Shape 16" d="M271 94.436v7.2"/><path data-name="Shape 17" d="M277 94.436v7.2"/><path data-name="Shape 18" d="M283 94.436v7.2"/><path data-name="Shape 19" d="M280 94.436v7.2"/></g></g></g></svg>
