<svg xmlns="http://www.w3.org/2000/svg" viewBox="0 0 22 22"><g transform="translate(-446.755 -5170.75)"><g transform="translate(447.755 5171.75)"><g fill="none" stroke="currentColor" stroke-width="2" stroke-linecap="round" stroke-linejoin="round"><path d="M0 1.5C0 .7.7 0 1.5 0H3c.8 0 1.5.7 1.5 1.5V3c0 .8-.7 1.5-1.5 1.5H1.5C.7 4.5 0 3.8 0 3V1.5z"/><path d="M7.8 1.5C7.8.7 8.4 0 9.2 0h1.5c.8 0 1.5.7 1.5 1.5V3c0 .8-.7 1.5-1.5 1.5H9.2c-.8 0-1.4-.7-1.4-1.5V1.5z"/><path d="M15.5 1.5c0-.8.7-1.5 1.5-1.5h1.5c.8 0 1.5.7 1.5 1.5V3c0 .8-.7 1.5-1.5 1.5H17c-.8 0-1.5-.7-1.5-1.5V1.5z"/><path d="M0 9.2c0-.8.7-1.5 1.5-1.5H3c.8 0 1.5.7 1.5 1.5v1.5c0 .8-.7 1.5-1.5 1.5H1.5c-.8 0-1.5-.7-1.5-1.5V9.2z"/><path d="M7.8 9.2c0-.8.7-1.5 1.5-1.5h1.5c.8 0 1.5.7 1.5 1.5v1.5c0 .8-.7 1.5-1.5 1.5H9.2c-.8 0-1.5-.7-1.5-1.5V9.2z"/><path d="M15.5 9.2c0-.8.7-1.5 1.5-1.5h1.5c.8 0 1.5.7 1.5 1.5v1.5c0 .8-.7 1.5-1.5 1.5H17c-.8 0-1.5-.7-1.5-1.5V9.2z"/><path d="M0 17c0-.8.7-1.5 1.5-1.5H3c.8 0 1.5.7 1.5 1.5v1.5c0 .8-.7 1.5-1.5 1.5H1.5C.7 20 0 19.3 0 18.5V17z"/><path d="M7.8 17c0-.8.7-1.5 1.5-1.5h1.5c.8 0 1.5.7 1.5 1.5v1.5c0 .8-.7 1.5-1.5 1.5H9.2c-.8 0-1.5-.7-1.5-1.5V17z"/><path d="M15.5 17c0-.8.7-1.5 1.5-1.5h1.5c.8 0 1.5.7 1.5 1.5v1.5c0 .8-.7 1.5-1.5 1.5H17c-.8 0-1.5-.7-1.5-1.5V17z"/></g></g></g></svg>
