<svg xmlns="http://www.w3.org/2000/svg" viewBox="0 0 20 20"><g fill="none" stroke="currentColor" stroke-width="2" stroke-linecap="round" stroke-linejoin="round"><path d="M8 9.3C8 8.6 8.6 8 9.3 8h1.4c.7 0 1.3.6 1.3 1.3v1.4c0 .7-.6 1.3-1.3 1.3H9.3c-.7 0-1.3-.6-1.3-1.3V9.3zM1 9.3C1 8.6 1.6 8 2.3 8h1.4C4.4 8 5 8.6 5 9.3v1.4c0 .7-.6 1.3-1.3 1.3H2.3c-.7 0-1.3-.6-1.3-1.3V9.3zM15 9.3c0-.7.6-1.3 1.3-1.3h1.4c.7 0 1.3.6 1.3 1.3v1.4c0 .7-.6 1.3-1.3 1.3h-1.4c-.7 0-1.3-.6-1.3-1.3V9.3zM8 2.3C8 1.6 8.6 1 9.3 1h1.4c.7 0 1.3.6 1.3 1.3v1.4c0 .7-.6 1.3-1.3 1.3H9.3C8.6 5 8 4.4 8 3.7V2.3zM1 2.3C1 1.6 1.6 1 2.3 1h1.4C4.4 1 5 1.6 5 2.3v1.4C5 4.4 4.4 5 3.7 5H2.3C1.6 5 1 4.4 1 3.7V2.3zM15 2.3c0-.7.6-1.3 1.3-1.3h1.4c.7 0 1.3.6 1.3 1.3v1.4c0 .7-.6 1.3-1.3 1.3h-1.4c-.7 0-1.3-.6-1.3-1.3V2.3zM8 16.3c0-.7.6-1.3 1.3-1.3h1.4c.7 0 1.3.6 1.3 1.3v1.4c0 .7-.6 1.3-1.3 1.3H9.3c-.7 0-1.3-.6-1.3-1.3v-1.4zM1 16.3c0-.7.6-1.3 1.3-1.3h1.4c.7 0 1.3.6 1.3 1.3v1.4c0 .7-.6 1.3-1.3 1.3H2.3c-.7 0-1.3-.6-1.3-1.3v-1.4zM15 16.3c0-.7.6-1.3 1.3-1.3h1.4c.7 0 1.3.6 1.3 1.3v1.4c0 .7-.6 1.3-1.3 1.3h-1.4c-.7 0-1.3-.6-1.3-1.3v-1.4z"/></g></svg>