<?xml version="1.0" encoding="utf-8"?>
<svg version="1.1" id="grid" xmlns="http://www.w3.org/2000/svg" xmlns:xlink="http://www.w3.org/1999/xlink" x="0px" y="0px"
	 viewBox="0 0 20 20" enable-background="new 0 0 20 20" xml:space="preserve">
<g transform="translate(608.25 218.254)">
	<path fill="none" stroke="currentColor" stroke-width="2" stroke-linecap="round" stroke-linejoin="round" d="M-594.79169-217.25398
		h4.08337c0.77777,0,1.45831,0.68054,1.45831,1.45833v4.08331c0,0.77779-0.68054,1.45833-1.45831,1.45833h-4.08337
		c-0.77777,0-1.45831-0.68054-1.45831-1.45833v-4.08331C-596.25-216.57344-595.56946-217.25398-594.79169-217.25398z"/>
	<path fill="none" stroke="currentColor" stroke-width="2" stroke-linecap="round" stroke-linejoin="round" d="M-594.79169-206.25398
		h4.08337c0.77777,0,1.45831,0.68054,1.45831,1.45833v4.08331c0,0.77779-0.68054,1.45833-1.45831,1.45833h-4.08337
		c-0.77777,0-1.45831-0.68054-1.45831-1.45833v-4.08331C-596.25-205.57344-595.56946-206.25398-594.79169-206.25398z"/>
	<path fill="none" stroke="currentColor" stroke-width="2" stroke-linecap="round" stroke-linejoin="round" d="M-605.79169-206.25398
		h4.08337c0.77777,0,1.45831,0.68054,1.45831,1.45833v4.08331c0,0.77779-0.68054,1.45833-1.45831,1.45833h-4.08337
		c-0.77777,0-1.45831-0.68054-1.45831-1.45833v-4.08331C-607.25-205.57344-606.56946-206.25398-605.79169-206.25398z"/>
	<path fill="none" stroke="currentColor" stroke-width="2" stroke-linecap="round" stroke-linejoin="round" d="M-605.79169-217.25398
		h4.08337c0.77777,0,1.45831,0.68056,1.45831,1.45833v4.08334c0,0.77777-0.68054,1.45833-1.45831,1.45833h-4.08337
		c-0.77777,0-1.45831-0.68056-1.45831-1.45833v-4.08334C-607.25-216.57343-606.56946-217.25398-605.79169-217.25398z"/>
</g>
</svg>
