<?xml version="1.0" encoding="utf-8"?>
<svg version="1.1" id="forging" xmlns="http://www.w3.org/2000/svg" xmlns:xlink="http://www.w3.org/1999/xlink" x="0px" y="0px"
	 viewBox="0 0 20 20" enable-background="new 0 0 20 20" xml:space="preserve">
<g>
	<path fill="none" stroke="currentColor" stroke-width="2" stroke-linecap="round" stroke-linejoin="round" d="M14.21017,19
		C16.80466,19,19,16.8,19,14.2s-2.19534-4.8-4.78983-4.8s-4.78983,2.2-4.78983,4.8C9.32055,16.9,11.51589,19,14.21017,19
		L14.21017,19z"/>
	<path fill="none" stroke="currentColor" stroke-width="2" stroke-linecap="round" stroke-linejoin="round" d="M9.71971,6.4l-6.08707,7
		c-0.69852,0.7-1.79619,0.5-2.19534,0c-0.59873-0.6-0.59873-1.6,0.09979-2.2l6.98517-6.1"/>
	<path fill="none" stroke="currentColor" stroke-width="2" stroke-linecap="round" stroke-linejoin="round" d="M13.1125,6.9
		c-0.69852-1.2-1.39703-2-2.19534-2.9C8.82161,1.9,7.02543,1.8,3.83221,1c2.59449,2.1,4.98941,4.3,7.28453,6.7"/>
</g>
</svg>
