<?xml version="1.0" encoding="utf-8"?>
<svg version="1.1" id="hands-holding-document" xmlns="http://www.w3.org/2000/svg" xmlns:xlink="http://www.w3.org/1999/xlink"
	 x="0px" y="0px" viewBox="0 0 20 20" enable-background="new 0 0 20 20" xml:space="preserve">
<g>
	<path fill="none" stroke="currentColor" stroke-width="2" stroke-linecap="round" stroke-linejoin="round" d="M1.2,2.3l1.2,1.5v3.5
		c0,1.4,1.5,2.6,2.9,3.7"/>
	<path fill="none" stroke="currentColor" stroke-width="2" stroke-linecap="round" stroke-linejoin="round" d="M4.7,6.3l1.4,1.4
		c0.4,0.4,1,0.4,1.4,0s0.4-1,0-1.4L5.3,4.2V3C5.2,2.3,4.9,1.6,4.5,1"/>
	<path fill="none" stroke="currentColor" stroke-width="2" stroke-linecap="round" stroke-linejoin="round" d="M5.3,7v9.5
		c0,0.7,0.5,1.2,1.2,1.2h5.3"/>
	<path fill="none" stroke="currentColor" stroke-width="2" stroke-linecap="round" stroke-linejoin="round" d="M18.8,17.7l-1.2-1.5v-3.5
		c0-1.2-0.7-1.9-2-2.9"/>
	<path fill="none" stroke="currentColor" stroke-width="2" stroke-linecap="round" stroke-linejoin="round" d="M8.2,3.6h5.9
		c0.7,0,1.2,0.5,1.2,1.2v8.9l-1.4-1.4c-0.4-0.4-1-0.4-1.4,0s-0.4,1,0,1.4l2.2,2.2V17c0.1,0.7,0.4,1.4,0.8,2"/>
</g>
</svg>
