<?xml version="1.0" encoding="utf-8"?>
<svg version="1.1" id="hand" xmlns="http://www.w3.org/2000/svg" xmlns:xlink="http://www.w3.org/1999/xlink" x="0px" y="0px"
	 viewBox="0 0 20 20" enable-background="new 0 0 20 20" xml:space="preserve">
<g transform="translate(-8.29 -8.151)">
	<path fill="none" stroke="currentColor" stroke-width="2" stroke-linecap="round" stroke-linejoin="round" d="M23.90008,10.66825
		L19.8799,9.36169c-2.01009-0.70353-4.4222,0.40202-5.12574,2.61312c0,0.40202,0,0.70353,0,1.10555v6.03028l-2.41211-1.80908
		c-0.70353-0.50252-1.70858-0.60303-2.2111,0.20101c-0.30151,0.50252-0.40202,1.30656,0,1.80908l3.51766,5.12573
		c1.10555,1.60807,3.11564,2.71362,5.12573,2.71362h2.91463c1.30656,0,2.61312-0.50252,3.51766-1.50757l0,0
		c0.90454-0.90454,1.50757-2.2111,1.50757-3.51766v-7.73885C26.6137,12.67834,25.60866,11.17077,23.90008,10.66825z"/>
</g>
</svg>
