<svg viewBox="0 0 17 20" xmlns="http://www.w3.org/2000/svg"><path d="M12.883 8.714a1.275 1.275 0 0 1 2.183-.91c.239.242.374.57.374.91v5.897c0 1.164-.46 2.28-1.279 3.103A4.351 4.351 0 0 1 11.075 19H8.587a5.107 5.107 0 0 1-4.255-2.289L1.22 12.02a1.324 1.324 0 0 1 0-1.464 1.311 1.311 0 0 1 1.91-.298l2.08 1.672V2.286C5.21 1.576 5.783 1 6.489 1c.707 0 1.279.576 1.279 1.286V8.07m5.115.643V8.07c0-.71-.573-1.285-1.28-1.285-.705 0-1.278.575-1.278 1.285m2.558.643v1.543M10.325 8.07c0-.71-.572-1.285-1.278-1.285-.707 0-1.279.575-1.279 1.285m2.557 0v2.186M7.768 8.071v2.186" stroke="currentColor" fill="none" stroke-width="2" stroke-linecap="round" stroke-linejoin="round"/></svg>