<svg xmlns="http://www.w3.org/2000/svg" viewBox="0 0 20 20"><g fill="none" stroke="currentColor" stroke-width="2" stroke-linecap="round" stroke-linejoin="round"><path d="M15 14.4c-.2 0-.3.1-.3.3s.1.3.3.3.3-.1.3-.3h0c0-.2-.1-.3-.3-.3M12.3 14.4c-.2 0-.3.1-.3.3s.1.3.3.3.3-.1.3-.3h0c0-.1 0-.3-.3-.3"/><path d="M19 14.8c0 2-1.5 3.6-3.5 3.6H4.6c-2 0-3.6-1.6-3.6-3.6s1.6-3.6 3.6-3.6h10.8c2 0 3.6 1.5 3.6 3.5v.1z"/><path d="M18.9 14L16.4 3.5c-.2-1.1-1.2-1.8-2.3-1.8H5.9c-1.1 0-2.1.8-2.3 1.8L1.1 14M4.6 14.8h2.9"/></g></svg>