<svg xmlns="http://www.w3.org/2000/svg" viewBox="0 0 20 20" xml:space="preserve"><g fill="none" stroke="currentColor" stroke-width="2" stroke-linecap="round" stroke-linejoin="round"><path d="M17.5 16.9c0 .6-.5 1.1-1.1 1.1H3.7c-.6 0-1.1-.5-1.1-1.1h0V3.1c0-.6.5-1.1 1.1-1.1h10.7c.3 0 .5.1.7.3l2.1 2c.2.2.3.5.3.8-.1 0-.1 11.8 0 11.8z"/><path d="M7.2 6.2c.1 0 .3.1.3.3 0 .1-.1.3-.2.3h-.1c-.2 0-.2-.2-.2-.3s.1-.3.2-.3h0M14.9 10.3l-1.8-2.8c-.1-.3-.5-.5-.8-.3-.1 0-.1.1-.2.1l-.2.2-2 2.9-1.3-1c-.3-.3-.9-.2-1.1.1h0l-2 4.2h6.1"/></g></svg>
