<svg viewBox="0 0 16 16" xmlns="http://www.w3.org/2000/svg"><path fill="none" clip-rule="evenodd" d="M.8 4A3.2 3.2 0 0 1 4 .8h8A3.2 3.2 0 0 1 15.2 4v8a3.2 3.2 0 0 1-3.2 3.2H4A3.2 3.2 0 0 1 .8 12V4Z" stroke="currentColor" stroke-width="1.6" stroke-linecap="round" stroke-linejoin="round"/><path d="M4.4 5.231a.277.277 0 1 0 .001 0M13.998 14l-3.877-5.677A.756.756 0 0 0 9.504 8a.757.757 0 0 0-.623.313l-1.999 2.773-1.239-.962a.768.768 0 0 0-1.094.165L2 13.999" fill="none" stroke="currentColor" stroke-width="1.6" stroke-linecap="round" stroke-linejoin="round"/></svg>