<svg viewBox="0 0 16 16" xmlns="http://www.w3.org/2000/svg">
<path fill-rule="evenodd" fill="none" clip-rule="evenodd" d="M0.799194 4.00017C0.799194 2.23286 2.23188 0.800171 3.99919 0.800171H11.9992C13.7665 0.800171 15.1992 2.23286 15.1992 4.00017V12.0002C15.1992 13.7675 13.7665 15.2002 11.9992 15.2002H3.9992C2.23188 15.2002 0.799194 13.7675 0.799194 12.0002V4.00017Z" stroke="currentColor" stroke-width="1.6" stroke-linecap="round" stroke-linejoin="round"/>
<path d="M4.40039 5.23108C4.24755 5.23149 4.12394 5.35565 4.12421 5.50849C4.12448 5.66134 4.24853 5.78506 4.40138 5.78492C4.55422 5.78479 4.67805 5.66085 4.67805 5.508C4.67805 5.35506 4.55407 5.23108 4.40113 5.23108" fill="none" stroke="currentColor" stroke-width="1.6" stroke-linecap="round" stroke-linejoin="round"/>
<path d="M13.9984 13.9999L10.1213 8.32314C9.98321 8.12286 9.75204 8.00185 9.50382 7.9999C9.25559 7.99796 9.02244 8.11533 8.88103 8.31341L6.88237 11.0856L5.6431 10.1236C5.47863 9.99612 5.26662 9.94142 5.05866 9.97286C4.8507 10.0043 4.66585 10.119 4.54909 10.289L1.99841 13.9999" fill="none" stroke="currentColor" stroke-width="1.6" stroke-linecap="round" stroke-linejoin="round"/>
</svg>
