<svg xmlns="http://www.w3.org/2000/svg" viewBox="0 0 20 20" xml:space="preserve"><g fill="none" stroke="currentColor" stroke-width="2" stroke-linecap="round" stroke-linejoin="round"><path d="M7.3 17.2H2.5c-.7 0-1.3-.6-1.3-1.3V2.5c0-.7.6-1.3 1.3-1.3h8.6c.3 0 .7.1.9.4l2.3 2.3c.2.2.4.6.4.9v2.5"/><path d="M4.9 5.2c.2 0 .3.1.3.3 0 .1-.1.3-.2.3h-.1c-.1 0-.3-.1-.3-.2v-.1c0-.1.1-.3.3-.3-.1 0 0 0 0 0h0M11.2 9.6 9.8 7.3c-.2-.2-.6-.3-.9-.1h0c-.1 0-.1.1-.2.2L7.2 9.7l-1-.8c-.2-.2-.6-.2-.8 0l-.1.1h0l-1.6 3.2h4.9"/></g><g fill="none" stroke="currentColor" stroke-width="1.8" stroke-linecap="round" stroke-linejoin="round"><path d="M14.3 16c.1.6-.1 1.1-.5 1.5l-1 1c-.7.7-2 .7-2.7-.1-.7-.7-.7-1.9 0-2.6l1-1c.4-.4.9-.6 1.5-.5M16 14.3c.6.1 1.1-.1 1.5-.5l1-1c.7-.7.7-2-.1-2.7-.7-.7-1.8-.7-2.5 0l-1 1c-.4.4-.6.9-.5 1.5M12.5 16.1l3.5-3.5"/></g></svg>
