<?xml version="1.0" encoding="utf-8"?>
<svg version="1.1" id="ledger" xmlns="http://www.w3.org/2000/svg" xmlns:xlink="http://www.w3.org/1999/xlink" x="0px" y="0px"
	 viewBox="0 0 20 20" enable-background="new 0 0 20 20" xml:space="preserve">
<path fill="currentColor" d="M15,20v-5h5v1.25c0,2.125-1.625,3.75-3.75,3.75H15z M7.5,20v-5h5v5H7.5z M3.75,20C1.625,20,0,18.375,0,16.25V15h5v5H3.75z
	 M7.5,12.5V0h8.75C18.375,0,20,1.625,20,3.75v8.75H7.5z M0,12.5v-5h5v5H0z M0,5V3.75C0,1.625,1.625,0,3.75,0H5v5H0z"/>
</svg>
