<?xml version="1.0" encoding="utf-8"?>
<!-- Generator: Adobe Illustrator 22.0.1, SVG Export Plug-In . SVG Version: 6.00 Build 0)  -->
<svg version="1.1" id="icon" xmlns="http://www.w3.org/2000/svg" xmlns:xlink="http://www.w3.org/1999/xlink" x="0px" y="0px"
	 viewBox="0 0 20 20" enable-background="new 0 0 20 20" xml:space="preserve">
<title>list-numbers</title>
<g>
	
		<line fill="none" stroke="#000000" stroke-width="2" stroke-linecap="round" stroke-linejoin="round" x1="7" y1="3.4" x2="19" y2="3.4"/>
	
		<line fill="none" stroke="#000000" stroke-width="2" stroke-linecap="round" stroke-linejoin="round" x1="7" y1="10.6" x2="19" y2="10.6"/>
	
		<line fill="none" stroke="#000000" stroke-width="2" stroke-linecap="round" stroke-linejoin="round" x1="7" y1="17.8" x2="19" y2="17.8"/>
	<path fill="none" stroke="#000000" stroke-width="2" stroke-linecap="round" stroke-linejoin="round" d="M1.1,15.1
		c0.2-0.6,0.8-1,1.5-0.8c0.6,0.2,1,0.8,0.8,1.5c-0.1,0.5-0.6,0.9-1.2,0.9c0.7,0,1.2,0.5,1.2,1.2S2.9,19,2.2,19c-0.5,0-1-0.4-1.2-0.9
		"/>
	<path fill="none" stroke="#000000" stroke-width="2" stroke-linecap="round" stroke-linejoin="round" d="M1,9.4
		c0-0.7,0.5-1.2,1.2-1.2l0,0c0.7,0,1.2,0.5,1.2,1.2l0,0c0,0.4-0.1,0.8-0.4,1.1l-2,1.3h2.4"/>
	<path fill="none" stroke="#000000" stroke-width="2" stroke-linecap="round" stroke-linejoin="round" d="M1,1h0.6
		C2,1,2.2,1.3,2.2,1.6v4.2"/>
	
		<line fill="none" stroke="#000000" stroke-width="2" stroke-linecap="round" stroke-linejoin="round" x1="1" y1="5.8" x2="3.4" y2="5.8"/>
</g>
</svg>
