<?xml version="1.0" encoding="utf-8"?>
<svg version="1.1" id="list" xmlns="http://www.w3.org/2000/svg" xmlns:xlink="http://www.w3.org/1999/xlink" x="0px" y="0px"
	 viewBox="0 0 20 20" enable-background="new 0 0 20 20" xml:space="preserve">
<g>
	<g>
		<path fill="none" stroke="currentColor" stroke-width="2" stroke-linecap="round" stroke-linejoin="round" d="M17.49893,19H9.50107
			C8.67548,19,8,18.32452,8,17.49893v-0.99787C8,15.67548,8.67548,15,9.50107,15h7.99787C18.32452,15,19,15.67548,19,16.50107
			v0.99787C19,18.32452,18.32452,19,17.49893,19z"/>
		<path fill="none" stroke="currentColor" stroke-width="2" stroke-linecap="round" stroke-linejoin="round" d="M3.49818,19H2.50182
			C1.67582,19,1,18.32418,1,17.49818v-0.99636C1,15.67582,1.67582,15,2.50182,15h0.99636C4.32418,15,5,15.67582,5,16.50182v0.99636
			C5,18.32418,4.32418,19,3.49818,19z"/>
	</g>
	<g>
		<path fill="none" stroke="currentColor" stroke-width="2" stroke-linecap="round" stroke-linejoin="round" d="M17.49893,5H9.50107
			C8.67548,5,8,4.32452,8,3.49893V2.50107C8,1.67548,8.67548,1,9.50107,1h7.99787C18.32452,1,19,1.67548,19,2.50107v0.99787
			C19,4.32452,18.32452,5,17.49893,5z"/>
		<path fill="none" stroke="currentColor" stroke-width="2" stroke-linecap="round" stroke-linejoin="round" d="M3.49818,5H2.50182
			C1.67582,5,1,4.32418,1,3.49818V2.50182C1,1.67582,1.67582,1,2.50182,1h0.99636C4.32418,1,5,1.67582,5,2.50182v0.99636
			C5,4.32418,4.32418,5,3.49818,5z"/>
	</g>
	<g>
		<path fill="none" stroke="currentColor" stroke-width="2" stroke-linecap="round" stroke-linejoin="round" d="M17.49893,12H9.50107
			C8.67548,12,8,11.32452,8,10.49893V9.50107C8,8.67548,8.67548,8,9.50107,8h7.99787C18.32452,8,19,8.67548,19,9.50107v0.99787
			C19,11.32452,18.32452,12,17.49893,12z"/>
		<path fill="none" stroke="currentColor" stroke-width="2" stroke-linecap="round" stroke-linejoin="round" d="M3.49818,12H2.50182
			C1.67582,12,1,11.32418,1,10.49818V9.50182C1,8.67582,1.67582,8,2.50182,8h0.99636C4.32418,8,5,8.67582,5,9.50182v0.99636
			C5,11.32418,4.32418,12,3.49818,12z"/>
	</g>
</g>
</svg>
