<?xml version="1.0" encoding="utf-8"?>
<svg version="1.1" id="lock" xmlns="http://www.w3.org/2000/svg" xmlns:xlink="http://www.w3.org/1999/xlink" x="0px" y="0px"
	 viewBox="0 0 20 20" enable-background="new 0 0 20 20" xml:space="preserve">
<g>
	<path fill="none" stroke="currentColor" stroke-width="2" stroke-linecap="round" stroke-linejoin="round" d="M3.4,9.3
		c0-0.7,0.5-1.2,1.2-1.2h10.9c0.7,0,1.2,0.5,1.2,1.2v8.5c0,0.7-0.5,1.2-1.2,1.2h-11c-0.7,0-1.2-0.6-1.2-1.2L3.4,9.3L3.4,9.3z"/>
	<path fill="none" stroke="currentColor" stroke-width="2" stroke-linecap="round" stroke-linejoin="round" d="M5.8,8.1V5
		c0.1-2.3,2.1-4.2,4.5-4c2.2,0.1,3.9,1.9,4,4v3"/>
	<path fill="none" stroke="currentColor" stroke-width="2" stroke-linecap="round" stroke-linejoin="round" d="M10,12.9"/>
	<path fill="none" stroke="currentColor" stroke-width="2" stroke-linecap="round" stroke-linejoin="round" d="M10,12.9L10,12.9L10,12.9
		L10,12.9"/>
</g>
</svg>
