<?xml version="1.0" encoding="utf-8"?>
<!-- Generator: Adobe Illustrator 24.0.1, SVG Export Plug-In . SVG Version: 6.00 Build 0)  -->
<svg version="1.1" id="magnifying-glass-id" xmlns="http://www.w3.org/2000/svg" xmlns:xlink="http://www.w3.org/1999/xlink"
	 x="0px" y="0px" viewBox="0 0 20 20" enable-background="new 0 0 20 20" xml:space="preserve">
<g>
	<g>
		<line fill="none" stroke="currentColor" stroke-width="2" stroke-linecap="round" stroke-linejoin="round" x1="19" y1="17" x2="15.82817" y2="13.82817"/>
		<circle fill="none" stroke="currentColor" stroke-width="2" stroke-linecap="round" stroke-linejoin="round" cx="13" cy="11" r="4"/>
	</g>
	<path fill="currentColor" d="M4.00244,8C3.4502,8,2.99756,7.55273,2.99756,7s0.44238-1,0.99463-1h0.01025c0.55225,0,1,0.44727,1,1S4.55469,8,4.00244,8z
		"/>
	<path fill="currentColor" d="M7.00244,8C6.4502,8,5.99756,7.55273,5.99756,7s0.44238-1,0.99463-1h0.01025c0.55225,0,1,0.44727,1,1S7.55469,8,7.00244,8z
		"/>
	<path fill="none" stroke="currentColor" stroke-width="2" stroke-linecap="round" stroke-linejoin="round" d="M18,5V4
		c0-0.55228-0.44772-1-1-1H2C1.44772,3,1,3.44772,1,4v6c0,0.55229,0.44772,1,1,1h4"/>
</g>
</svg>
