<?xml version="1.0" encoding="utf-8"?>
<svg version="1.1" id="message-question-mark" xmlns="http://www.w3.org/2000/svg" xmlns:xlink="http://www.w3.org/1999/xlink" x="0px" y="0px"
	 viewBox="0 0 20 20" enable-background="new 0 0 20 20" xml:space="preserve">
<g>
	<path fill="none" stroke="currentColor" stroke-width="2" stroke-linecap="round" stroke-linejoin="round" d="M17.8,15.4H9.4L4.6,19
		v-3.6H2.2c-0.7,0-1.2-0.5-1.2-1.2l0,0v-12C1,1.5,1.5,1,2.2,1l0,0h15.6C18.5,1,19,1.5,19,2.2v12C19,14.9,18.5,15.4,17.8,15.4z"/>
	<path fill="none" stroke="currentColor" stroke-width="2" stroke-linecap="round" stroke-linejoin="round" d="M7.6,5.8
		c0-1.3,1.1-2.4,2.4-2.4s2.4,1.1,2.4,2.4c0,1-0.6,1.9-1.6,2.3C10.3,8.2,10,8.7,10,9.2v0.2"/>
	<path fill="none" stroke="currentColor" stroke-width="2" stroke-linecap="round" stroke-linejoin="round" d="M10,12.2
		C9.9,12.2,9.9,12.2,10,12.2c0,0.1,0,0.1,0,0.1S10,12.3,10,12.2L10,12.2L10,12.2L10,12.2"/>
</g>
</svg>
