<?xml version="1.0" encoding="utf-8"?>
<svg version="1.1" id="message-ellipsis" xmlns="http://www.w3.org/2000/svg" xmlns:xlink="http://www.w3.org/1999/xlink" x="0px" y="0px"
	 viewBox="0 0 20 20" enable-background="new 0 0 20 20" xml:space="preserve">
<g>
	<path fill="none" stroke="currentColor" stroke-width="2" stroke-linecap="round" stroke-linejoin="round" d="M17.8,15.4H9.4L4.6,19
		v-3.6H2.2c-0.7,0-1.2-0.5-1.2-1.2v-12C1,1.5,1.5,1,2.2,1h15.6C18.5,1,19,1.5,19,2.2v12C19,14.9,18.5,15.4,17.8,15.4z"/>
	<path fill="none" stroke="currentColor" stroke-width="2" stroke-linecap="round" stroke-linejoin="round" d="M6.4,7.9
		C6.2,7.9,6.1,8,6.1,8.2s0.1,0.3,0.3,0.3c0.2,0,0.3-0.1,0.3-0.3l0,0C6.7,8,6.6,7.9,6.4,7.9"/>
	<path fill="none" stroke="currentColor" stroke-width="2" stroke-linecap="round" stroke-linejoin="round" d="M10,7.9
		C9.8,7.9,9.7,8,9.7,8.2S9.8,8.5,10,8.5s0.3-0.1,0.3-0.3l0,0C10.3,8,10.2,7.9,10,7.9"/>
	<path fill="none" stroke="currentColor" stroke-width="2" stroke-linecap="round" stroke-linejoin="round" d="M13.6,7.9
		c-0.2,0-0.3,0.1-0.3,0.3s0.1,0.3,0.3,0.3s0.3-0.1,0.3-0.3l0,0C13.9,8,13.8,7.9,13.6,7.9"/>
</g>
</svg>
