<svg xmlns="http://www.w3.org/2000/svg" viewBox="0 0 20 20"><g fill="none" stroke="currentColor" stroke-width="2" stroke-linecap="round" stroke-linejoin="round"><path d="M17.8 15.4H9.4L4.6 19v-3.6H2.2c-.7 0-1.2-.5-1.2-1.2v-12C1 1.5 1.5 1 2.2 1h15.6c.7 0 1.2.5 1.2 1.2v12c0 .7-.5 1.2-1.2 1.2z"/><path d="M6.4 7.9c-.2 0-.3.1-.3.3s.1.3.3.3c.2 0 .3-.1.3-.3h0c0-.2-.1-.3-.3-.3M10 7.9c-.2 0-.3.1-.3.3s.1.3.3.3.3-.1.3-.3h0c0-.2-.1-.3-.3-.3M13.6 7.9c-.2 0-.3.1-.3.3s.1.3.3.3.3-.1.3-.3h0c0-.2-.1-.3-.3-.3"/></g></svg>