<?xml version="1.0" encoding="utf-8"?>
<!-- Generator: Adobe Illustrator 22.0.1, SVG Export Plug-In . SVG Version: 6.00 Build 0)  -->
<svg version="1.1" xmlns="http://www.w3.org/2000/svg" xmlns:xlink="http://www.w3.org/1999/xlink" x="0px" y="0px"
	 viewBox="0 0 20 20" enable-background="new 0 0 20 20" xml:space="preserve">
<g>
	<path fill="none" stroke="#000000" stroke-width="2" stroke-linecap="round" stroke-linejoin="round" d="M16.3,15L9.4,9.8L8.4,7
		l3,0.2l6.9,5.2c0.7,0.6,0.9,1.6,0.3,2.4l0,0C18.1,15.5,17,15.6,16.3,15C16.3,15,16.3,15,16.3,15L16.3,15z"/>
	<g transform="translate(0 -0.001)">
		<path fill="none" stroke="#000000" stroke-width="2" stroke-linecap="round" stroke-linejoin="round" d="M13,5.2V2.8
			c0-0.7-0.5-1.2-1.2-1.2H2.2C1.6,1.6,1,2.2,1,2.8v12C1,15.4,1.6,16,2.2,16h5.6l2.8,2.4V16h1.2c0.5,0,0.9-0.3,1.1-0.7"/>
		<path fill="none" stroke="#000000" stroke-width="2" stroke-linecap="round" stroke-linejoin="round" d="M3.4,4H7"/>
		<path fill="none" stroke="#000000" stroke-width="2" stroke-linecap="round" stroke-linejoin="round" d="M5.2,4v3.6"/>
		<path fill="none" stroke="#000000" stroke-width="2" stroke-linecap="round" stroke-linejoin="round" d="M3.4,10.6h3"/>
		<path fill="none" stroke="#000000" stroke-width="2" stroke-linecap="round" stroke-linejoin="round" d="M3.4,13h4.8"/>
	</g>
</g>
</svg>
