<?xml version="1.0" encoding="utf-8"?>
<svg version="1.1" id="microchip-long" xmlns="http://www.w3.org/2000/svg" xmlns:xlink="http://www.w3.org/1999/xlink" x="0px"
	 y="0px" viewBox="0 0 20 20" enable-background="new 0 0 20 20" xml:space="preserve">
<g transform="translate(-1.2 0.2)">
	<path fill="none" stroke="currentColor" stroke-width="2" stroke-linecap="round" stroke-linejoin="round" d="M7.1,0.8h8.4
		c0.7,0,1.2,0.5,1.2,1.2v15.6c0,0.7-0.5,1.2-1.2,1.2H7.1c-0.7,0-1.2-0.5-1.2-1.2V1.9C5.8,1.3,6.3,0.8,7.1,0.8z"/>
	
		<line fill="none" stroke="currentColor" stroke-width="2" stroke-linecap="round" stroke-linejoin="round" x1="3.4" y1="8.1" x2="5.8" y2="8.1"/>
	
		<line fill="none" stroke="currentColor" stroke-width="2" stroke-linecap="round" stroke-linejoin="round" x1="3.4" y1="4.5" x2="5.8" y2="4.5"/>
	
		<line fill="none" stroke="currentColor" stroke-width="2" stroke-linecap="round" stroke-linejoin="round" x1="3.4" y1="11.7" x2="5.8" y2="11.7"/>
	
		<line fill="none" stroke="currentColor" stroke-width="2" stroke-linecap="round" stroke-linejoin="round" x1="3.4" y1="15.3" x2="5.8" y2="15.3"/>
	
		<line fill="none" stroke="currentColor" stroke-width="2" stroke-linecap="round" stroke-linejoin="round" x1="17" y1="8.1" x2="19" y2="8.1"/>
	
		<line fill="none" stroke="currentColor" stroke-width="2" stroke-linecap="round" stroke-linejoin="round" x1="17" y1="4.5" x2="19" y2="4.5"/>
	
		<line fill="none" stroke="currentColor" stroke-width="2" stroke-linecap="round" stroke-linejoin="round" x1="17" y1="11.7" x2="19" y2="11.7"/>
	
		<line fill="none" stroke="currentColor" stroke-width="2" stroke-linecap="round" stroke-linejoin="round" x1="17" y1="15.3" x2="19" y2="15.3"/>
	
		<line fill="none" stroke="currentColor" stroke-width="2" stroke-linecap="round" stroke-linejoin="round" x1="14.2" y1="16.3" x2="13" y2="16.3"/>
</g>
</svg>
