<svg xmlns="http://www.w3.org/2000/svg" viewBox="0 0 20 20"><g fill="none" stroke="currentColor" stroke-width="2" stroke-linecap="round" stroke-linejoin="round"><path d="M2.9 4.1c0-.7.6-1.3 1.3-1.3h11.6c.7 0 1.3.6 1.3 1.3v11.6c0 .7-.6 1.3-1.3 1.3H4.2c-.7 0-1.3-.6-1.3-1.3V4.1zM10 2.5V1M5.5 2.5V1M14.4 2.5V1M10 19v-1.9M5.5 19v-1.9M14.4 19v-1.9M19 10h-1.9M19 14.4h-1.9M19 5.5h-1.9M2.9 10H1M2.9 14.4H1M2.9 5.5H1"/><path d="M5.5 6.7c0-.7.6-1.3 1.3-1.3h6.4c.7 0 1.3.6 1.3 1.3v6.4c0 .7-.6 1.3-1.3 1.3H6.8c-.7 0-1.3-.6-1.3-1.3V6.7zM11.8 11.8H10"/></g></svg>