<?xml version="1.0" encoding="utf-8"?>
<svg version="1.1" id="money-coin-swap" xmlns="http://www.w3.org/2000/svg" xmlns:xlink="http://www.w3.org/1999/xlink" x="0px"
	 y="0px" viewBox="0 0 20 20" enable-background="new 0 0 20 20" xml:space="preserve">
<g>
	<path fill="none" stroke="currentColor" stroke-width="2" stroke-linecap="round" stroke-linejoin="round" d="M14.7,9.64804
		c2.4,0,4.3-2.01117,4.3-4.32402S17,1,14.7,1c-2.4,0-4.3,2.01117-4.3,4.32402S12.2,9.64804,14.7,9.64804L14.7,9.64804z"/>
	<path fill="none" stroke="currentColor" stroke-width="2" stroke-linecap="round" stroke-linejoin="round" d="M5.4,19
		c2.4,0,4.4-2.01117,4.4-4.42458s-2-4.42458-4.4-4.42458S1,12.16201,1,14.57542S2.9,19,5.4,19L5.4,19z"/>
	<g>
		<path fill="none" stroke="currentColor" stroke-width="2" stroke-linecap="round" stroke-linejoin="round" d="M1,3.9162l1.8,3.01676
			l3-1.81006"/>
		<path fill="none" stroke="currentColor" stroke-width="2" stroke-linecap="round" stroke-linejoin="round" d="M7,1
			C4.8,1.80447,2.6,4.51955,2.8,6.93296"/>
	</g>
	<g>
		<path fill="none" stroke="currentColor" stroke-width="2" stroke-linecap="round" stroke-linejoin="round" d="M19,16.0838l-1.8-3.01676
			l-3,1.81006"/>
		<path fill="none" stroke="currentColor" stroke-width="2" stroke-linecap="round" stroke-linejoin="round" d="M13,19
			c2.2-0.80447,4.4-3.51955,4.2-5.93296"/>
	</g>
</g>
</svg>
