<?xml version="1.0" encoding="utf-8"?>
<svg version="1.1" id="money-coins" xmlns="http://www.w3.org/2000/svg" xmlns:xlink="http://www.w3.org/1999/xlink" x="0px" y="0px"
	 viewBox="0 0 20 20" enable-background="new 0 0 20 20" xml:space="preserve">
<g>
	<path fill="none" stroke="currentColor" stroke-width="2" stroke-linecap="round" stroke-linejoin="round" d="M14.8,16.3
		c2.2,0,4.1-1.8,4.1-4.1C19,9.9,17.2,8,14.8,8c-2.2,0-4.1,1.8-4.1,4.1S12.6,16.3,14.8,16.3L14.8,16.3z"/>
	<path fill="none" stroke="currentColor" stroke-width="2" stroke-linecap="round" stroke-linejoin="round" d="M7.2,13.7H2.9
		c-0.4,0-0.6,0.3-0.6,0.6v2.5c0,0.4,0.3,0.6,0.6,0.6h6.2"/>
	<path fill="none" stroke="currentColor" stroke-width="2" stroke-linecap="round" stroke-linejoin="round" d="M3.5,10.6v2.5"/>
	<path fill="none" stroke="currentColor" stroke-width="2" stroke-linecap="round" stroke-linejoin="round" d="M9.7,6.2h-8
		C1.3,6.2,1,6.6,1,6.9v2.5C1,9.7,1.3,10,1.7,10h6.2"/>
	<path fill="none" stroke="currentColor" stroke-width="2" stroke-linecap="round" stroke-linejoin="round" d="M12.2,5.7V3.2
		c0-0.4-0.3-0.6-0.6-0.6H2.9c-0.4,0-0.6,0.3-0.6,0.6v2.5"/>
</g>
</svg>
