<svg viewBox="0 0 16 16" fill="none" xmlns="http://www.w3.org/2000/svg"><path clip-rule="evenodd" d="M12.43 5.785c-.006 1.739.843 2.727 2.77 2.769-1.79-.007-2.678.953-2.77 2.77-.015-1.714-.782-2.772-2.768-2.77 1.777-.025 2.762-.883 2.769-2.77ZM6.363.8c-.01 2.45 1.185 3.84 3.9 3.901-2.52-.01-3.772 1.343-3.9 3.9-.022-2.412-1.103-3.903-3.901-3.9C4.965 4.666 6.353 3.458 6.362.8Z" stroke="currentColor" stroke-width="1.28" stroke-linecap="round" stroke-linejoin="round"/><path d="M10.29 13.069A5.261 5.261 0 0 1 .8 9.999a5.142 5.142 0 0 1 .879-2.885" stroke="currentColor" stroke-width="1.28" stroke-linecap="round" stroke-linejoin="round"/></svg>