<svg width="20" height="20" fill="none" xmlns="http://www.w3.org/2000/svg"><path d="M19 5v12.07c0 1.066-.806 1.93-1.8 1.93H2.8c-.994 0-1.8-.864-1.8-1.93V2.286C1 1.576 1.537 1 2.2 1h11.6c.663 0 1.2.576 1.2 1.286V14.07M5 14h6" stroke="currentColor" stroke-width="2" stroke-linecap="round" stroke-linejoin="round"/><path clip-rule="evenodd" d="M5 5.357a.5.5 0 0 1 .5-.5h5a.5.5 0 0 1 .5.5v5a.5.5 0 0 1-.5.5h-5a.5.5 0 0 1-.5-.5v-5Z" stroke="currentColor" stroke-width="2" stroke-linecap="round" stroke-linejoin="round"/></svg>