<svg width="20" height="20" fill="none" xmlns="http://www.w3.org/2000/svg"><path d="M19 5V17.07C19 18.136 18.194 19 17.2 19H2.8C1.806 19 1 18.136 1 17.07V2.286C1 1.576 1.537 1 2.2 1h11.6c.663 0 1.2.576 1.2 1.286V14.07M5 14h6" stroke="#637282" stroke-width="2" stroke-linecap="round" stroke-linejoin="round"/><path clip-rule="evenodd" d="M5 5.357a.5.5 0 0 1 .5-.5h5a.5.5 0 0 1 .5.5v5a.5.5 0 0 1-.5.5h-5a.5.5 0 0 1-.5-.5v-5Z" stroke="#637282" stroke-width="2" stroke-linecap="round" stroke-linejoin="round"/></svg>