<svg viewBox="0 0 279 111" xmlns="http://www.w3.org/2000/svg"><path d="M236 111V97h-38v14h-2V97h-11v-2h11V84h2v11h38V57h-36v-2h36V17h-38v10h-2V17h-21v-2h21V0h2v15h38V0h2v15h41v2h-41v38h21v2h-21v38h11v2h-11v14h-2zm-158 0V97H40v14h-2V97h-8v-2h8V58H20v-2h18V17H0v-2h38V0h2v15h38V0h2v15h30v2H80v10h-2V17H40v39h35v2H40v37h38V84h2v11h10v2H80v14h-2zm185-10v-4h-4v-2h4v-4h2v4h4v2h-4v4h-2zM78 78v-4h-4v-2h4v-4h2v4h4v2h-4v4h-2zM4 62v-4H0v-2h4v-4h2v4h4v2H6v4H4zm192-15v-4h-4v-2h4v-4h2v4h4v2h-4v4h-2z" fill="var(--icon-color-secondary-300, #DBDEE5)"/><path d="M102.831 79.275s-4.1 1.7-6.7 3c-2.7 1.3-2.8 6.7 2.2 6.7h78.1c3.1 0 3.8-4.2.6-5.9-3.2-1.7-4.3-2.2-5.9-3-2-1.1-4.4-1.6-6.7-1.5h-55.6c-2 0-3-.7-3-3v-24.5c0-16.4 13.3-29.7 29.7-29.7h1.5c.7 0 1.5 0 2.2.1m27.4 29.6v20.8c0 3-5.2 3.3-5.2 0v-18.5m-25-26.2c-13.1-.1-23.8 10.5-23.9 23.7v21" stroke="var(--icon-color-secondary-900, currentColor)" stroke-width="2" stroke-linecap="round" fill="none"/><path d="M130.332 21.377v-3c0-1.5.1-7.4 6.1-7.4s5.8 6.2 5.8 7.4" stroke="var(--icon-color-secondary-900, currentColor)" stroke-width="2" stroke-linecap="round" fill="none"/><path d="M157.832 49.375c9.389 0 17-7.611 17-17s-7.611-17-17-17-17 7.611-17 17 7.611 17 17 17z" stroke="var(--icon-color-secondary-300, #DBDEE5)" stroke-width="2" fill="none"/><path d="M157.83 40.578c-1.1 0-2.1-.3-3-1-.9-.7-1.6-1.7-1.9-2.8-.5-1.4-.7-2.9-.7-4.5 0-1.5.2-3 .7-4.4.4-1.1 1-2.1 1.9-2.8.9-.7 1.9-1 3-1s2.1.3 3 1c.9.7 1.6 1.7 1.9 2.8.5 1.4.7 2.9.7 4.4 0 1.5-.2 3-.7 4.5-.3 1.1-1 2.1-1.9 2.8-.8.7-1.9 1.1-3 1zm0-1.7c1.2 0 2.2-.6 2.7-1.7.7-1.5 1.1-3.2 1-4.8 0-1.2-.1-2.4-.4-3.5-.2-.8-.7-1.6-1.3-2.2-.5-.5-1.2-.8-2-.8-1.2 0-2.2.7-2.7 1.7-.7 1.5-1.1 3.2-1 4.8 0 1.2.1 2.4.4 3.5.2.8.7 1.6 1.3 2.2.6.6 1.3.8 2 .8z" fill="#007DFF"/><path d="M148.132 89.578c0 5.7-4.6 10.4-10.4 10.4-5.7 0-10.4-4.6-10.4-10.4 5.8.2 20.8 0 20.8 0z" fill="var(--icon-color-secondary-200, #EEF3F5)"/><path d="M148.132 89.578c0 5.7-4.6 10.4-10.4 10.4-5.7 0-10.4-4.6-10.4-10.4" stroke="var(--icon-color-secondary-900, currentColor)" stroke-width="2" stroke-linecap="round" fill="none"/></svg>