<?xml version="1.0" encoding="utf-8"?>
<!-- Generator: Adobe Illustrator 22.0.1, SVG Export Plug-In . SVG Version: 6.00 Build 0)  -->
<svg version="1.1" id="icon" xmlns="http://www.w3.org/2000/svg" xmlns:xlink="http://www.w3.org/1999/xlink" x="0px" y="0px"
	 viewBox="0 0 20 20" enable-background="new 0 0 20 20" xml:space="preserve">
<g>
	<path fill="none" stroke="#000000" stroke-width="2" stroke-linecap="round" d="M11.9,17.1c1-0.6,2.5-1.5,3.8-2.2"/>
	<path fill="none" stroke="#000000" stroke-width="2" stroke-linecap="round" d="M3,7.9v4.9 M4.2,14.9L4.4,15C5,15.4,6,16.1,7,16.6
		 M17,10.7V7.9 M15.8,5.4c-1.1-0.6-3.7-2.2-4.9-2.8 M8.5,2.9C7.6,3.4,5.6,4.6,4.2,5.4"/>
	<path fill="none" stroke="#000000" stroke-width="2" stroke-linecap="round" d="M7.6,8.3L10,9.7v1.2"/>
	<line fill="none" stroke="#000000" stroke-width="2" stroke-linecap="round" x1="10.3" y1="9.6" x2="10.8" y2="9.4"/>
	<circle fill="none" stroke="#000000" stroke-width="2" cx="9.6" cy="2.1" r="1.1"/>
	<circle fill="none" stroke="#000000" stroke-width="2" cx="16.8" cy="6.4" r="1.1"/>
	<circle fill="none" stroke="#000000" stroke-width="2" cx="3.2" cy="6.4" r="1.1"/>
	<circle fill="none" stroke="#000000" stroke-width="2" cx="3.2" cy="14.3" r="1.1"/>
	<circle fill="none" stroke="#000000" stroke-width="2" cx="10.4" cy="17.9" r="1.1"/>
	<circle fill="none" stroke="#000000" stroke-width="2" cx="16.8" cy="14.3" r="1.1"/>
</g>
<polygon fill="none" stroke="#000000" stroke-width="2" stroke-linejoin="round" stroke-miterlimit="10" points="6.7,8.1 6.7,12 
	10.1,13.9 13.5,11.9 13.4,8 10,6.1 "/>
</svg>
