<svg xmlns="http://www.w3.org/2000/svg" viewBox="0 0 20 20"><g fill="none" stroke="currentColor" stroke-width="2"><path stroke-linecap="round" d="M11.9 17.1c1-.6 2.5-1.5 3.8-2.2M3 7.9v4.9m1.2 2.1l.2.1c.6.4 1.6 1.1 2.6 1.6m10-5.9V7.9m-1.2-2.5c-1.1-.6-3.7-2.2-4.9-2.8m-2.4.3c-.9.5-2.9 1.7-4.3 2.5M7.6 8.3L10 9.7v1.2M10.3 9.6l.5-.2"/><circle cx="9.6" cy="2.1" r="1.1"/><circle cx="16.8" cy="6.4" r="1.1"/><circle cx="3.2" cy="6.4" r="1.1"/><circle cx="3.2" cy="14.3" r="1.1"/><circle cx="10.4" cy="17.9" r="1.1"/><circle cx="16.8" cy="14.3" r="1.1"/></g><path fill="none" stroke="currentColor" stroke-width="2" stroke-linejoin="round" stroke-miterlimit="10" d="M6.7 8.1V12l3.4 1.9 3.4-2-.1-3.9L10 6.1z"/></svg>