<?xml version="1.0" encoding="utf-8"?>
<svg version="1.1" id="pencil-bracket" xmlns="http://www.w3.org/2000/svg" xmlns:xlink="http://www.w3.org/1999/xlink" x="0px"
	 y="0px" viewBox="0 0 20 20" enable-background="new 0 0 20 20" xml:space="preserve">
<g>
	<path fill="none" stroke="currentColor" stroke-width="2" stroke-linecap="round" stroke-linejoin="round" d="M10.6,13.4625l-3,0.4
		l0.4-2.9l7.6-7.6c0.7-0.7,1.8-0.7,2.5,0s0.7,1.8,0,2.5L10.6,13.4625z"/>
	<path fill="none" stroke="currentColor" stroke-width="2" stroke-linecap="round" stroke-linejoin="round" d="M4.6,12.3625H2.2
		c-0.7,0-1.2,0.5-1.2,1.2l0,0v2.4c0,0.7,0.5,1.2,1.2,1.2l0,0h15.6c0.7,0,1.2-0.5,1.2-1.2l0,0v-2.4c0-0.7-0.5-1.2-1.2-1.2l0,0h-2.4"
		/>
</g>
</svg>
