<?xml version="1.0" encoding="utf-8"?>
<svg version="1.1" id="pencil-ruler" xmlns="http://www.w3.org/2000/svg" xmlns:xlink="http://www.w3.org/1999/xlink" x="0px" y="0px"
	 viewBox="0 0 20 20" enable-background="new 0 0 20 20" xml:space="preserve">
<g>
	<path fill="none" stroke="currentColor" stroke-width="2" stroke-linecap="round" stroke-linejoin="round" d="M4.6,19L4.6,19
		c-1.3,0-2.4-1.1-2.4-2.4l0,0V6.4c0-0.4,0.1-0.7,0.3-1.1l1.6-3.2c0.1-0.2,0.2-0.4,0.6-0.4c0.2,0,0.4,0.2,0.4,0.4l1.6,3.2
		C6.9,5.6,7,6,7,6.4v10.2C7,17.9,5.9,19,4.6,19z"/>
	<path fill="none" stroke="currentColor" stroke-width="2" stroke-linecap="round" stroke-linejoin="round" d="M2.3,5.8h4.6"/>
	<path fill="none" stroke="currentColor" stroke-width="2" stroke-linecap="round" stroke-linejoin="round" d="M2.2,16H7"/>
	<path fill="none" stroke="currentColor" stroke-width="2" stroke-linecap="round" stroke-linejoin="round" d="M10.6,2.2
		c0-0.7,0.6-1.2,1.2-1.2l0,0h4.8c0.6,0,1.2,0.5,1.2,1.2l0,0v15.6c0,0.6-0.6,1.2-1.2,1.2l0,0h-4.8c-0.6,0-1.2-0.6-1.2-1.2l0,0
		C10.6,17.8,10.6,2.2,10.6,2.2z"/>
	<path fill="none" stroke="currentColor" stroke-width="2" stroke-linecap="round" stroke-linejoin="round" d="M10.6,4.6H13"/>
	<path fill="none" stroke="currentColor" stroke-width="2" stroke-linecap="round" stroke-linejoin="round" d="M10.6,8.2H13"/>
	<path fill="none" stroke="currentColor" stroke-width="2" stroke-linecap="round" stroke-linejoin="round" d="M10.6,11.8H13"/>
	<path fill="none" stroke="currentColor" stroke-width="2" stroke-linecap="round" stroke-linejoin="round" d="M10.6,15.4H13"/>
</g>
</svg>
