<svg xmlns="http://www.w3.org/2000/svg" viewBox="0 0 20 20"><g fill="none" stroke="currentColor" stroke-width="2" stroke-linecap="round"><path stroke-linejoin="round" d="M9.7 13c1.2-.7 1.4-2.3.8-3.4-.7-1.2-2.2-1.6-3.4-1h0l-1.7 1L8 13.9l1.7-.9zM5.9 10.4l-1.4.8M7.4 13l-1.4.9M12.3 8.2c1.1-.7 2.6-.4 3.4.7s.5 2.6-.6 3.4l-2.2 1.4c-.8.5-1 1.4-.5 2.2.5.7 1.4.9 2.1.5.2-.1.7-.4.7-.4"/><path d="M15.2 16c1.2-.7 2.5-1.5 2.7-1.6.3-.2.5-.4.5-.7V5.8c0-.3 0-.5-.3-.7l-7.7-3.9c-.3-.2-.5-.2-.8 0L8.3 2M5.9 3.4c-1.6 1-3.5 2.1-3.7 2.2-.4.2-.6.4-.6.7v7.9c0 .3.1.5.4.7l7.6 3.9c.3.2.5.2.8 0l.6-.4"/></g></svg>