<?xml version="1.0" encoding="utf-8"?>
<svg version="1.1" id="icon" xmlns="http://www.w3.org/2000/svg" xmlns:xlink="http://www.w3.org/1999/xlink" x="0px" y="0px"
	 viewBox="0 0 20 20" enable-background="new 0 0 20 20" xml:space="preserve">
<g>
	<path fill="none" stroke="currentColor" stroke-width="2" stroke-linecap="round" stroke-linejoin="round" d="M9.7,13
		c1.2-0.7,1.4-2.3,0.8-3.4C9.8,8.4,8.3,8,7.1,8.6l0,0l-1.7,1L8,13.9L9.7,13z"/>
	<path fill="none" stroke="currentColor" stroke-width="2" stroke-linecap="round" stroke-linejoin="round" d="M5.9,10.4l-1.4,0.8"/>
	<path fill="none" stroke="currentColor" stroke-width="2" stroke-linecap="round" stroke-linejoin="round" d="M7.4,13L6,13.9"/>
	<path fill="none" stroke="currentColor" stroke-width="2" stroke-linecap="round" stroke-linejoin="round" d="M12.3,8.2
		c1.1-0.7,2.6-0.4,3.4,0.7s0.5,2.6-0.6,3.4l-2.2,1.4c-0.8,0.5-1,1.4-0.5,2.2c0.5,0.7,1.4,0.9,2.1,0.5c0.2-0.1,0.7-0.4,0.7-0.4"/>
	<path fill="none" stroke="currentColor" stroke-width="2" stroke-linecap="round" d="M15.2,16c1.2-0.7,2.5-1.5,2.7-1.6
		c0.3-0.2,0.5-0.4,0.5-0.7s0-7.6,0-7.9s0-0.5-0.3-0.7l-7.7-3.9C10.1,1,9.9,1,9.6,1.2L8.3,2"/>
	<path fill="none" stroke="currentColor" stroke-width="2" stroke-linecap="round" d="M5.9,3.4c-1.6,1-3.5,2.1-3.7,2.2
		C1.8,5.8,1.6,6,1.6,6.3s0,7.6,0,7.9s0.1,0.5,0.4,0.7l7.6,3.9c0.3,0.2,0.5,0.2,0.8,0l0.6-0.4"/>
</g>
</svg>
