<svg xmlns="http://www.w3.org/2000/svg" viewBox="0 0 20 20" xml:space="preserve"><path d="M17.4 18.6c.9 0 1.6-.7 1.6-1.6s-.7-1.6-1.6-1.6c-.9 0-1.6.7-1.6 1.6s.8 1.6 1.6 1.6zm-1.5-2.7-1.4-1 1.4 1zM2.6 18.6c-.9 0-1.6-.7-1.6-1.6s.7-1.6 1.6-1.6 1.6.7 1.6 1.6-.8 1.6-1.6 1.6zm1.5-2.7 1.4-1-1.4 1zm5.9-1.4c.2 0 .2.1.2.2 0 .2-.1.2-.2.2s-.2-.1-.2-.2c0 0 0-.2.2-.2M7.9 8c0-1.1.8-2 1.9-2.1 1.1-.2 2 .5 2.3 1.6.2 1-.3 2.1-1.3 2.4-.4.2-.7.5-.7 1v.5m7.3-10c.9 0 1.6.7 1.6 1.6s-.7 1.6-1.6 1.6c-.9 0-1.6-.7-1.6-1.6s.8-1.6 1.6-1.6zm-1.5 2.7-1.4 1 1.4-1zM2.6 1.4C1.7 1.4 1 2.1 1 3s.7 1.6 1.6 1.6S4.1 3.8 4.1 3s-.7-1.6-1.5-1.6zm1.5 2.7 1.4 1-1.4-1z" fill="none" stroke="currentColor" stroke-width="2" stroke-linecap="round" stroke-linejoin="round"/></svg>
