<?xml version="1.0" encoding="utf-8"?>
<!-- Generator: Adobe Illustrator 26.0.1, SVG Export Plug-In . SVG Version: 6.00 Build 0)  -->
<svg version="1.1" xmlns="http://www.w3.org/2000/svg" xmlns:xlink="http://www.w3.org/1999/xlink" x="0px" y="0px"
	 viewBox="0 0 17 18" enable-background="new 0 0 17 18" xml:space="preserve">
<path fill="none" stroke="#637282" stroke-width="1.7" stroke-linecap="round" stroke-linejoin="round" d="M6.5,6.9
	c0-1,0.8-1.9,1.8-2c1-0.1,2,0.6,2.2,1.6c0.2,1-0.3,2-1.3,2.4C8.8,9,8.5,9.4,8.5,9.8V10"/>
<path fill="none" stroke="#637282" stroke-width="1.7" stroke-linecap="round" stroke-linejoin="round" d="M8.5,12
	c-0.1,0-0.3,0.1-0.3,0.3c0,0.1,0.1,0.3,0.3,0.3c0.1,0,0.3-0.1,0.3-0.3C8.8,12.2,8.6,12,8.5,12L8.5,12"/>
<path fill="none" stroke="#637282" stroke-width="1.7" stroke-linecap="round" stroke-linejoin="round" d="M0.8,2.6
	c0-0.7,0.6-1.3,1.3-1.3h12.7c0.7,0,1.3,0.6,1.3,1.3v12.7c0,0.7-0.6,1.3-1.3,1.3H2.1c-0.7,0-1.3-0.6-1.3-1.3V2.6z"/>
</svg>
