<svg xmlns="http://www.w3.org/2000/svg" viewBox="0 0 20 20"><path fill="none" stroke="currentColor" stroke-width="1.7" stroke-linecap="round" stroke-linejoin="round" d="M6.5 6.9c0-1 .8-1.9 1.8-2 1-.1 2 .6 2.2 1.6.2 1-.3 2-1.3 2.4-.4.1-.7.5-.7.9v.2m0 2c-.1 0-.3.1-.3.3 0 .1.1.3.3.3.1 0 .3-.1.3-.3 0-.1-.2-.3-.3-.3h0"/><path fill="none" stroke="currentColor" stroke-width="1.7" stroke-linecap="round" stroke-linejoin="round" d="M.8 2.6c0-.7.6-1.3 1.3-1.3h12.7c.7 0 1.3.6 1.3 1.3v12.7c0 .7-.6 1.3-1.3 1.3H2.1c-.7 0-1.3-.6-1.3-1.3V2.6z"/></svg>