<svg xmlns="http://www.w3.org/2000/svg" viewBox="0 0 20 20"><g fill="none" stroke="currentColor" stroke-width="2" stroke-linecap="round" stroke-linejoin="round"><path d="M18.624 6.859L6.791 18.626a1.276 1.276 0 01-1.805 0h0l-3.61-3.59a1.26 1.26 0 010-1.795h0L6.39 8.255s.902.2 1.504-.499c.602-.598.301-1.396.301-1.396l5.014-4.986a1.276 1.276 0 011.805 0h0l3.61 3.69a1.26 1.26 0 010 1.795z"/><path d="M4.986 14.936l.903.898 1.805-1.795-.903-.898M13.209 6.859l.902.897 1.906-1.795-1.003-.897M8.696 11.346l.903.898 2.707-2.693-.902-.897M2.279 12.343l.902.898M4.184 10.548l.802.798M10.401 4.166l.903.898M12.306 2.371l.903.898"/></g></svg>