<svg xmlns="http://www.w3.org/2000/svg" viewBox="0 0 20 20"><g fill="none" stroke="currentColor" stroke-width="2"><path d="M2.417 2.5h15.176c.804 0 1.407.6 1.407 1.4v12.2c0 .8-.603 1.4-1.407 1.4H2.417c-.804 0-1.407-.6-1.407-1.4V3.9c-.1-.8.603-1.4 1.407-1.4z"/><g stroke-linecap="round" stroke-linejoin="round"><path d="M6.537 7.6H5.231c-.603 0-1.106.4-1.206 1 0 1.5 2.412 1.5 2.412 2.9-.1.6-.603 1-1.206 1H4.025M8.748 12.4c1.207.1 2.312-.7 2.413-1.9v-1c0-1.2-1.206-2-2.413-1.9v4.8zM13.372 12.4V7.6M15.985 12.4l-1.757-3.085M15.583 7.6l-2.211 2.8"/></g></g></svg>