<svg width="20" height="20" viewBox="0 0 20 20" xmlns="http://www.w3.org/2000/svg">
<g clip-path="url(#clip0_1647_41977)">
<path d="M4.6596 4.30078C4.60022 4.30078 4.54217 4.31841 4.4928 4.3514C4.44342 4.38439 4.40495 4.43127 4.38223 4.48613C4.3595 4.54099 4.35356 4.60137 4.36514 4.65961C4.37673 4.71784 4.40531 4.77134 4.4473 4.81332C4.48929 4.85531 4.5428 4.88387 4.60104 4.89545C4.65927 4.90704 4.71964 4.90112 4.7745 4.8784C4.82936 4.85568 4.87625 4.81722 4.90925 4.76784C4.94224 4.71847 4.95983 4.66037 4.95983 4.60099C4.95983 4.52136 4.92821 4.44501 4.87191 4.38871C4.8156 4.3324 4.73922 4.30078 4.6596 4.30078V4.30078Z" stroke="currentColor" stroke-width="2" stroke-linecap="round" stroke-linejoin="round" stroke-dasharray="4 4" fill="none"/>
<path d="M4.6596 11.5C4.60022 11.5 4.54217 11.5176 4.4928 11.5506C4.44342 11.5836 4.40495 11.6305 4.38223 11.6853C4.3595 11.7402 4.35356 11.8006 4.36514 11.8588C4.37673 11.9171 4.40531 11.9706 4.4473 12.0125C4.48929 12.0545 4.5428 12.0831 4.60104 12.0947C4.65927 12.1063 4.71964 12.1003 4.7745 12.0776C4.82936 12.0549 4.87625 12.0164 4.90925 11.9671C4.94224 11.9177 4.95983 11.8596 4.95983 11.8002C4.95983 11.7206 4.92821 11.6442 4.87191 11.5879C4.8156 11.5316 4.73922 11.5 4.6596 11.5V11.5Z" stroke="currentColor" stroke-width="2" stroke-linecap="round" stroke-linejoin="round" stroke-dasharray="4 4" fill="none"/>
<path d="M12.456 8.19973H4.65714C4.17963 8.2073 3.70538 8.1198 3.26202 7.9423C2.81866 7.7648 2.41505 7.50082 2.07469 7.16581C1.73433 6.8308 1.46403 6.43142 1.27952 5.99093C1.09502 5.55043 1 5.07769 1 4.60012C1 4.12255 1.09502 3.64975 1.27952 3.20925C1.46403 2.76876 1.73433 2.36938 2.07469 2.03437C2.41505 1.69936 2.81866 1.43538 3.26202 1.25788C3.70538 1.08038 4.17963 0.992883 4.65714 1.00045H14.2565C17.0128 1.00045 19.0494 4.09953 17.0599 6.99967" stroke="currentColor" stroke-width="2" stroke-linecap="round" stroke-linejoin="round" fill="none"/>
<path d="M9.45727 15.3989H4.65715C4.17964 15.4065 3.70538 15.319 3.26202 15.1415C2.81866 14.964 2.41505 14.7 2.07469 14.365C1.73433 14.03 1.46403 13.6306 1.27952 13.1901C1.09502 12.7497 1 12.2769 1 11.7993C1 11.3218 1.09502 10.849 1.27952 10.4085C1.46403 9.96798 1.73433 9.5686 2.07469 9.23359C2.41505 8.89858 2.81866 8.6346 3.26202 8.4571C3.70538 8.2796 4.17964 8.1921 4.65715 8.19967H12.456" stroke="currentColor" stroke-width="2" stroke-linecap="round" stroke-linejoin="round" fill="none"/>
<path d="M8.85547 4.60059H14.2551" stroke="currentColor" stroke-width="2" stroke-linecap="round" stroke-linejoin="round" fill="none"/>
<path d="M8.85547 11.7998H10.0555" stroke="currentColor" stroke-width="2" stroke-linecap="round" stroke-linejoin="round" fill="none"/>
<path d="M11.8555 14.2001C11.8555 13.8818 11.9819 13.5765 12.2069 13.3515C12.432 13.1264 12.7372 13 13.0555 13H17.8556C18.1739 13 18.4791 13.1264 18.7042 13.3515C18.9292 13.5765 19.0556 13.8818 19.0556 14.2001V17.8001C19.0556 18.1184 18.9292 18.4236 18.7042 18.6487C18.4791 18.8737 18.1739 19.0002 17.8556 19.0002H13.0555C12.7372 19.0002 12.432 18.8737 12.2069 18.6487C11.9819 18.4236 11.8555 18.1184 11.8555 17.8001V14.2001Z" stroke="currentColor" stroke-width="2" stroke-linecap="round" stroke-linejoin="round" fill="none"/>
<path d="M15.4547 9.39941C14.8182 9.39941 14.2078 9.65228 13.7577 10.1024C13.3076 10.5525 13.0547 11.1629 13.0547 11.7995V12.9995H17.8548V11.7959C17.8538 11.16 17.6006 10.5504 17.1506 10.1011C16.7006 9.65179 16.0906 9.39941 15.4547 9.39941V9.39941Z" stroke="currentColor" stroke-width="2" stroke-linecap="round" stroke-linejoin="round" fill="none"/>
<path d="M15.4565 15.7227C15.3971 15.7227 15.339 15.7403 15.2897 15.7733C15.2403 15.8063 15.2018 15.8531 15.1791 15.908C15.1564 15.9629 15.1504 16.0232 15.162 16.0815C15.1736 16.1397 15.2022 16.1932 15.2442 16.2352C15.2862 16.2772 15.3397 16.3058 15.3979 16.3174C15.4561 16.329 15.5165 16.323 15.5714 16.3003C15.6262 16.2776 15.6731 16.2391 15.7061 16.1897C15.7391 16.1403 15.7567 16.0823 15.7567 16.0229C15.7567 15.9433 15.7251 15.8669 15.6688 15.8106C15.6125 15.7543 15.5361 15.7227 15.4565 15.7227V15.7227Z" stroke="currentColor" stroke-width="2" stroke-linecap="round" stroke-linejoin="round" stroke-dasharray="4 4" fill="none"/>
</g>
<defs>
<clipPath id="clip0_1647_41977">
<rect width="20" height="20" fill="white"/>
</clipPath>
</defs>
</svg>
