<svg xmlns="http://www.w3.org/2000/svg" viewBox="0 0 20 20"><path fill="none" stroke="currentColor" stroke-width="2" stroke-linecap="round" stroke-linejoin="round" d="M4 6.3c-.2 0-.3.1-.3.3 0 .2.1.3.3.3s.3-.1.3-.3c0-.2-.1-.3-.3-.3h0m0 7.2c-.2 0-.3.1-.3.3s.1.3.3.3.3-.1.3-.3-.1-.3-.3-.3h0"/><path fill="none" stroke="currentColor" stroke-width="2" stroke-linecap="round" stroke-linejoin="round" d="M15.4 3c2 0 3.6 1.6 3.6 3.6s-1.6 3.6-3.6 3.6H4.6c-2 0-3.6-1.6-3.6-3.6S2.6 3 4.6 3h10.8zm0 7.2c2 0 3.6 1.6 3.6 3.6s-1.6 3.6-3.6 3.6H4.6c-2 0-3.6-1.6-3.6-3.6s1.6-3.6 3.6-3.6h10.8zM8.8 6.6h6.6m-6.6 7.2h6.6"/></svg>