<svg xmlns="http://www.w3.org/2000/svg" viewBox="0 0 20 20"><g stroke="currentColor" stroke-width="2" stroke-linecap="round" stroke-linejoin="round" fill="none"><path d="M4.66 4.3a.3.3 0 100 .601.3.3 0 000-.6v0zm0 7.2a.3.3 0 100 .6.3.3 0 000-.6v0z" stroke-dasharray="4 4"/><path d="M12.456 8.2H4.657a3.6 3.6 0 110-7.2h9.6c2.756 0 4.792 3.1 2.803 6"/><path d="M9.457 15.399h-4.8a3.6 3.6 0 110-7.2h7.799M8.855 4.6h5.4m-5.4 7.2h1.2m1.8 2.4a1.2 1.2 0 011.2-1.2h4.8a1.2 1.2 0 011.2 1.2v3.6a1.2 1.2 0 01-1.2 1.2h-4.8a1.2 1.2 0 01-1.2-1.2v-3.6zm3.6-4.8a2.4 2.4 0 00-2.4 2.4V13h4.8v-1.204a2.4 2.4 0 00-2.4-2.397v0z"/><path d="M15.457 15.723a.3.3 0 100 .6.3.3 0 000-.6v0z" stroke-dasharray="4 4"/></g></svg>