<?xml version="1.0" encoding="utf-8"?>
<svg version="1.1" id="sliders" xmlns="http://www.w3.org/2000/svg" xmlns:xlink="http://www.w3.org/1999/xlink" x="0px" y="0px"
	 viewBox="0 0 20 20" enable-background="new 0 0 20 20" xml:space="preserve">
<g transform="translate(174.9 104.2)">
	
		<line fill="none" stroke="currentColor" stroke-width="2" stroke-linecap="round" stroke-linejoin="round" x1="-163.89999" y1="-89.2" x2="-155.89999" y2="-89.2"/>
	
		<line fill="none" stroke="currentColor" stroke-width="2" stroke-linecap="round" stroke-linejoin="round" x1="-173.89999" y1="-89.2" x2="-169.89999" y2="-89.2"/>
	<path fill="none" stroke="currentColor" stroke-width="2" stroke-linecap="round" stroke-linejoin="round" d="M-166.89999-86.2
		c-1.7,0-3-1.39999-3-3c0-1.7,1.39999-3,3-3c1.59999,0,3,1.2,3,3l0,0C-163.89999-87.5-165.2-86.2-166.89999-86.2L-166.89999-86.2z"
		/>
	
		<line fill="none" stroke="currentColor" stroke-width="2" stroke-linecap="round" stroke-linejoin="round" x1="-162" y1="-99.2" x2="-173.89999" y2="-99.2"/>
	<path fill="none" stroke="currentColor" stroke-width="2" stroke-linecap="round" stroke-linejoin="round" d="M-158.89999-96.2
		c1.7,0,3-1.39999,3-3s-1.40001-3-3-3c-1.7,0-3,1.39999-3,3C-161.89999-97.60001-160.59999-96.2-158.89999-96.2
		C-159-96.2-158.89999-96.2-158.89999-96.2z"/>
</g>
</svg>
