<svg xmlns="http://www.w3.org/2000/svg" viewBox="0 0 20 20" xml:space="preserve"><g fill="none" stroke="currentColor" stroke-linecap="round" stroke-linejoin="round"><path stroke-width="2" d="M17 6.8V5.2c0-1.3-1-2.4-2.4-2.4H3.5C2.2 2.7 1 3.8 1 5.2v.1h0v6.5c0 1.3 1 2.5 2.4 2.5h5.2m-1.4-3V5.2L12 8.3l-4.8 3z"/><path d="M14.815 14.636c.1.5-.1 1-.5 1.3l-1 1c-.6.6-1.7.6-2.3 0v-.1h0c-.7-.6-.7-1.7 0-2.4l.9-.9c.4-.3.9-.5 1.4-.4m3 0c.5.1 1-.1 1.3-.5l.9-.9c.7-.7.6-1.8 0-2.5-.7-.6-1.8-.6-2.4 0l-1 1c-.3.4-.4.9-.3 1.4m-1.7 3.1 3.2-3.2" stroke-width="1.8"/></g></svg>
