<svg xmlns="http://www.w3.org/2000/svg" viewBox="0 0 20 20" xml:space="preserve"><g fill="none" stroke="currentColor" stroke-linecap="round" stroke-linejoin="round"><path stroke-width="2" d="M16.5 7.3c.1-.3 0-.2 0-.4v-.7L18.1 5l-1.6-.7.8-1.8-1.9.6c-.6-.6-1.4-.9-2.3-.9-1.8 0-3.4 1.5-3.4 3.3h0v.8C7 6.9 4.6 5.5 2.4 3c-.4 2 0 3.5 1.1 4.6l-2.3-.4c.2 1.7 1.5 2.9 3.2 3l-2.2.8c.8 1.5 2.1 1.8 4 1.8-1.5 1.1-3.3 1.6-5.1 1.5 2.2 1.1 4.8 1.6 7.2 1.3"/><g stroke-width="1.8"><path d="M14.583 15.049c.1.5-.1 1-.4 1.4l-.9.9c-.7.7-1.6.7-2.3 0l-.1-.1h0c-.7-.6-.7-1.6-.1-2.2l.1-.1.9-.9c.4-.4.9-.5 1.3-.4M16.183 13.549c.5.1 1-.1 1.4-.4l.9-.9c.6-.7.6-1.7-.1-2.4-.6-.7-1.6-.7-2.2-.1l-.1.1-1 .9c-.3.3-.5.8-.4 1.3M13.083 15.049l3.2-3.1"/></g></g></svg>
