<svg xmlns="http://www.w3.org/2000/svg" viewBox="0 0 20 20"><g fill="none" stroke="currentColor" stroke-width="1.582" stroke-linecap="round" stroke-linejoin="round"><path d="M5.1 1.1h3.1M13.5 18.7s-1.3-1.5-1.3-2.4v-2l-2.8-3.1c-.4-.4-.4-1 0-1.4s1.1-.4 1.5 0l3 2.4-1.7-1.4V6.5v.6c1.2.9 4.4 2.6 4.4 4.2v4.1l2.4 3.5"/><path d="M7.5 14.1H2.6v-1.7 3.1h0c0 1.1 1 2.1 2.2 2.1H10c1.1 0 2-.8 2.2-1.8M3.1 3.1l2.5 2.4M10.2 3.9L8.4 5.1l1.8-1.2zM3.4 8.4l2.1-1.3"/><circle cx="2.2" cy="2.3" r="1.2"/><circle cx="2.2" cy="8.8" r="1.2"/><circle cx="7.2" cy="6.5" r="1.8"/><circle cx="11.7" cy="2.9" r="1.8"/></g></svg>