<svg xmlns="http://www.w3.org/2000/svg" viewBox="0 0 20 20" xml:space="preserve"><g transform="translate(-1.649 .296)" fill="none" stroke="currentColor" stroke-linecap="round" stroke-linejoin="round"><path stroke-width="2" d="M6.8 10.5c-1.4-2.2-.7-5 1.5-6.4s5.2-.7 6.6 1.4c.4.6.7 1.3.7 2"/><path stroke-width="2" d="M5.1 13.2c-2.8-3.1-2.6-7.9.7-10.6C9-.1 13.8.1 16.7 3c1 1.1 1.8 2.4 2 4m-6.2 4.7H9.8c-.9 0-1.7.7-1.7 1.6h0v.2l.3 1.4"/><ellipse stroke-width="2" cx="10.9" cy="8.1" rx="2" ry="1.9"/><path d="M15.029 15.598c.1.5-.1 1-.4 1.5l-1.2 1.1c-.7.7-2 .7-2.7 0l-.1-.1h0c-.7-.7-.7-1.9 0-2.6l1.1-1.1c.5-.4 1-.5 1.6-.4m3.6-.1c.6.1 1.1-.1 1.6-.4l1.1-1.1c.7-.8.7-2-.1-2.7-.7-.7-2-.7-2.7 0l-1.1 1c-.5.4-.7 1-.6 1.5m-1.8 3.4 3.7-3.5" stroke-width="1.8"/></g></svg>
