<svg viewBox="0 0 20 20" xmlns="http://www.w3.org/2000/svg"><path fill="none" clip-rule="evenodd" d="M.999 2.999a2 2 0 0 1 2-2h14a2 2 0 0 1 2 2v14a2 2 0 0 1-2 2h-14a2 2 0 0 1-2-2v-14Z" stroke="currentColor" stroke-width="2" stroke-linecap="round" stroke-linejoin="round"/><path fill="none" clip-rule="evenodd" d="M8.59 12.927a.685.685 0 0 1-.99-.612v-4.63a.685.685 0 0 1 .99-.614l4.631 2.316a.684.684 0 0 1 0 1.224L8.59 12.927Z" stroke="currentColor" stroke-width="2" stroke-linecap="round" stroke-linejoin="round"/></svg>
