<?xml version="1.0" encoding="utf-8"?>
<svg version="1.1" id="stars" xmlns="http://www.w3.org/2000/svg" xmlns:xlink="http://www.w3.org/1999/xlink" x="0px" y="0px"
	 viewBox="0 0 20 20" enable-background="new 0 0 20 20" xml:space="preserve">
<g transform="translate(0.269 -0.871)">
	<path fill="none" stroke="currentColor" stroke-width="2" stroke-linecap="round" stroke-linejoin="round" d="M15.2,11.2l1,1.8h2
		c0.5,0,0.8,0.4,0.3,0.9l-1.8,2l1,2.3c0.4,0.9-0.3,1-0.8,0.7l-2.4-1.4l-2.3,1.3c-0.7,0.4-1-0.1-0.7-0.7l1-2.2"/>
	<path fill="none" stroke="currentColor" stroke-width="2" stroke-linecap="round" stroke-linejoin="round" d="M4.3,11.2l-1,1.8h-2
		c-0.5,0-0.7,0.3-0.3,0.9l1.8,2l-1,2.3c-0.2,0.6,0.2,1.1,0.8,0.7L5,17.4l2.5,1.5c0.5,0.3,1.1,0.2,0.7-0.7l-1-2.2"/>
	<path fill="none" stroke="currentColor" stroke-width="2" stroke-linecap="round" stroke-linejoin="round" d="M11.6,6.1l3,0.3
		c0.5,0,0.4,0.4,0.2,0.6l-2.5,2.5l0.9,3.4c0.1,0.5-0.1,0.7-0.6,0.5l-2.9-1.4l-3.1,1.5c-0.4,0.2-0.6,0-0.5-0.5L7,9.6L4.5,7.2
		C4.1,6.8,4,6.6,4.7,6.5l3-0.3c0,0,1.3-2.4,1.7-3.2C9.6,2.5,9.9,2.8,10,3C10.4,3.8,11.6,6.1,11.6,6.1z"/>
</g>
</svg>
