<svg xmlns="http://www.w3.org/2000/svg" viewBox="0 0 20 20"><g fill="none" stroke="currentColor" stroke-width="2" stroke-linecap="round" stroke-linejoin="round"><path d="M15.469 10.329l1 1.8h2c.5 0 .8.4.3.9l-1.8 2 1 2.3c.4.9-.3 1-.8.7l-2.4-1.4-2.3 1.3c-.7.4-1-.1-.7-.7l1-2.2M4.569 10.329l-1 1.8h-2c-.5 0-.7.3-.3.9l1.8 2-1 2.3c-.2.6.2 1.1.8.7l2.4-1.5 2.5 1.5c.5.3 1.1.2.7-.7l-1-2.2M11.869 5.229l3 .3c.5 0 .4.4.2.6l-2.5 2.5.9 3.4c.1.5-.1.7-.6.5l-2.9-1.4-3.1 1.5c-.4.2-.6 0-.5-.5l.9-3.4-2.5-2.4c-.4-.4-.5-.6.2-.7l3-.3s1.3-2.4 1.7-3.2c.2-.5.5-.2.6 0 .4.8 1.6 3.1 1.6 3.1z"/></g></svg>