<svg xmlns="http://www.w3.org/2000/svg" viewBox="0 0 24.511 23"><g transform="translate(-579.75 -674.5)"><g data-name="Group 117"><g fill="none" stroke="currentColor" stroke-linecap="round" stroke-linejoin="round" stroke-width="2"><path data-name="Shape 467" d="M601.75 683v-3a1.5 1.5 0 00-1.5-1.5h-12V677a1.5 1.5 0 00-1.5-1.5h-4.5a1.5 1.5 0 00-1.5 1.5v17.8a1.7 1.7 0 003.336.438l2.351-11.154a1.5 1.5 0 011.442-1.084h13.871a1.5 1.5 0 011.45 1.886l-2.2 10.5a1.5 1.5 0 01-1.45 1.114h-17.1"/><path data-name="Shape 468" d="M595.75 687.5v9"/><path data-name="Shape 469" d="M594.25 690.5h3"/><path data-name="Shape 470" d="M594.25 693.5h3"/><path data-name="Shape 471" d="M597.25 686a1.5 1.5 0 01-3 0v-3h3z"/></g></g></g></svg>
