<svg xmlns="http://www.w3.org/2000/svg" viewBox="0 0 20 20"><g fill="none" stroke="currentColor" stroke-width="2" stroke-linecap="round" stroke-linejoin="round"><path d="M17.8 7.7V5.4c0-.6-.5-1.2-1.2-1.2H6.9V3c0-.6-.5-1.2-1.2-1.2H2.2C1.5 1.8 1 2.3 1 3v13.9c0 .7.6 1.3 1.4 1.3.6 0 1.1-.4 1.3-1l1.9-8.7c.1-.5.6-.8 1.2-.8h11c.7 0 1.2.5 1.2 1.2v.3c-.2 2.1-1.8 8.2-1.8 8.2-.1.5-.5.8-1.1.8H2.4M13 11.2v7M11.8 13.5h2.4M11.8 15.9h2.4"/><path d="M14.2 10c0 .6-.5 1.2-1.2 1.2s-1.2-.6-1.2-1.2V7.7h2.4V10z"/></g></svg>