<svg viewBox="0 0 17 16" xmlns="http://www.w3.org/2000/svg"><path fill="none" clip-rule="evenodd" d="M3.681 14.24c.338.005.673.054.997.147l2.326.664c.343.098.698.148 1.054.148h3.127a3.84 3.84 0 0 0 3.82-3.456l.192-3.264a2.88 2.88 0 0 0-2.176-2.94l-.93-.203a.96.96 0 0 1-.73-.932V2.24a1.44 1.44 0 1 0-2.88 0v.995a4.8 4.8 0 0 1-4.8 4.8v6.207Z" stroke="currentColor" stroke-width="1.6" stroke-linecap="round" stroke-linejoin="round"/><path fill="none" clip-rule="evenodd" d="M3.682 15.2H.802V6.56h2.88v8.64Z" stroke="currentColor" stroke-width="1.6" stroke-linecap="round" stroke-linejoin="round"/></svg>