<svg xmlns="http://www.w3.org/2000/svg" viewBox="0 0 20 20"><g fill="none" stroke="currentColor" stroke-width="2" stroke-linecap="round" stroke-linejoin="round"><path d="M8.24 16c0-.3.302-.6.604-.6h9.553c.301 0 .603.3.603.6h0v2.4c0 .3-.302.6-.603.6h0-9.553c-.302 0-.604-.3-.604-.6h0V16h0zM8.24 10c0-.3.302-.6.604-.6h9.553c.301 0 .603.3.603.6h0v2.4c0 .3-.302.6-.603.6h0-9.553c-.302 0-.604-.3-.604-.6h0V10h0zM1 1.7c0-.4.302-.7.603-.7h9.553c.302 0 .604.3.604.6h0V4c0 .3-.302.6-.604.6h0-9.452C1.302 4.7 1 4.4 1 4.1h0V1.7z"/><path d="M5.827 4.62V5.8c0 .6.503 1.2 1.207 1.2h3.62c.704 0 1.206.5 1.206 1.2v1.2M14.173 13v2.4"/></g></svg>