<svg xmlns="http://www.w3.org/2000/svg" x="0px" y="0px"
	 viewBox="0 0 20 20" enable-background="new 0 0 20 20" xml:space="preserve">
<path fill="none" stroke="currentColor" stroke-width="2" stroke-linecap="round" stroke-linejoin="round" d="M1,19h18"/>
<path fill="none" stroke="currentColor" stroke-width="2" stroke-linecap="round" stroke-linejoin="round" d="M10,2.6V1.4"/>
<path fill="none" stroke="currentColor" stroke-width="2" stroke-linecap="round" stroke-linejoin="round" d="M15.5,4.9l0.8-0.8"/>
<path fill="none" stroke="currentColor" stroke-width="2" stroke-linecap="round" stroke-linejoin="round" d="M17.8,10.4H19"/>
<path fill="none" stroke="currentColor" stroke-width="2" stroke-linecap="round" stroke-linejoin="round" d="M2.2,10.4H1"/>
<path fill="none" stroke="currentColor" stroke-width="2" stroke-linecap="round" stroke-linejoin="round" d="M4.5,4.9L3.7,4.1"/>
<path fill="none" stroke="currentColor" stroke-width="2" stroke-linecap="round" stroke-linejoin="round" d="M13.5,14.5
	c0.7-0.7,1.2-1.6,1.4-2.6s0.1-2-0.3-2.9c-0.4-0.9-1-1.7-1.8-2.2C12,6.3,11,6,10,6S8,6.3,7.2,6.8C6.4,7.4,5.8,8.2,5.4,9.1
	C5,10,4.9,11,5.1,12s0.7,1.9,1.4,2.6"/>
</svg>
