<svg viewBox="0 0 20 20" fill="none" xmlns="http://www.w3.org/2000/svg">
    <path d="M11.688 16.75a1.687 1.687 0 100-3.375 1.687 1.687 0 000 3.375zM17.313 19a1.687 1.687 0 100-3.375 1.687 1.687 0 000 3.375zm0-5.625a1.687 1.687 0 100-3.375 1.687 1.687 0 000 3.375zm-4.182.822l2.738-1.642m-2.617 3.135l2.493.996M10 9a4 4 0 100-8 4 4 0 000 8zM2 19c0-4.899 3.544-9 8-9 1.05 0 2.06.232 2.986.655"
          fill="none" stroke="currentColor" stroke-width="2" stroke-linecap="round" stroke-linejoin="round"/>
</svg>