<svg xmlns="http://www.w3.org/2000/svg" viewBox="0 0 20 20"><g fill="none" stroke="currentColor" stroke-width="2" stroke-linecap="round" stroke-linejoin="round"><path d="M11.7 16.8c.9 0 1.7-.8 1.7-1.7s-.8-1.7-1.7-1.7-1.7.7-1.7 1.7.8 1.7 1.7 1.7zM17.3 19c.9 0 1.7-.8 1.7-1.7s-.8-1.7-1.7-1.7-1.7.8-1.7 1.7.8 1.7 1.7 1.7zM17.3 13.4c.9 0 1.7-.8 1.7-1.7s-.8-1.7-1.7-1.7-1.7.8-1.7 1.7.8 1.7 1.7 1.7zM13.1 14.2l2.7-1.6M13.2 15.7l2.5 1M10 9c2.2 0 4-1.8 4-4s-1.8-4-4-4-4 1.8-4 4 1.8 4 4 4zM2 19c0-4.9 3.5-9 8-9 1.1 0 2.1.2 3 .7"/></g></svg>