<?xml version="1.0" encoding="utf-8"?>
<!-- Generator: Adobe Illustrator 22.0.1, SVG Export Plug-In . SVG Version: 6.00 Build 0)  -->
<svg version="1.1" id="Layer_1" xmlns="http://www.w3.org/2000/svg" xmlns:xlink="http://www.w3.org/1999/xlink" x="0px" y="0px"
	 viewBox="0 0 20 20" enable-background="new 0 0 20 20" xml:space="preserve">
<g>
	<path fill="none" stroke="#212225" stroke-width="2" stroke-linecap="round" stroke-linejoin="round" d="M11.7,16.8
		c0.9,0,1.7-0.8,1.7-1.7s-0.8-1.7-1.7-1.7S10,14.1,10,15.1S10.8,16.8,11.7,16.8z"/>
	<path fill="none" stroke="#212225" stroke-width="2" stroke-linecap="round" stroke-linejoin="round" d="M17.3,19
		c0.9,0,1.7-0.8,1.7-1.7s-0.8-1.7-1.7-1.7s-1.7,0.8-1.7,1.7S16.4,19,17.3,19z"/>
	<path fill="none" stroke="#212225" stroke-width="2" stroke-linecap="round" stroke-linejoin="round" d="M17.3,13.4
		c0.9,0,1.7-0.8,1.7-1.7S18.2,10,17.3,10s-1.7,0.8-1.7,1.7S16.4,13.4,17.3,13.4z"/>
	<path fill="none" stroke="#212225" stroke-width="2" stroke-linecap="round" stroke-linejoin="round" d="M13.1,14.2l2.7-1.6"/>
	<path fill="none" stroke="#212225" stroke-width="2" stroke-linecap="round" stroke-linejoin="round" d="M13.2,15.7l2.5,1"/>
	<path fill="none" stroke="#212225" stroke-width="2" stroke-linecap="round" stroke-linejoin="round" d="M10,9c2.2,0,4-1.8,4-4
		s-1.8-4-4-4C7.8,1,6,2.8,6,5S7.8,9,10,9z"/>
	<path fill="none" stroke="#212225" stroke-width="2" stroke-linecap="round" stroke-linejoin="round" d="M2,19c0-4.9,3.5-9,8-9
		c1.1,0,2.1,0.2,3,0.7"/>
</g>
</svg>
