<svg viewBox="0 0 17 17" xmlns="http://www.w3.org/2000/svg"><path fill="none" d="m11.302 6.666-2.546 3.397a.48.48 0 0 1-.723.051L6.505 8.586" stroke="currentColor" stroke-width="1.6" stroke-linecap="round" stroke-linejoin="round"/><path fill="none" clip-rule="evenodd" d="M8.092 1.296a1.042 1.042 0 0 1 1.624 0l.968 1.203c.222.278.57.423.924.384l1.536-.167a1.042 1.042 0 0 1 1.151 1.152l-.167 1.536c-.038.354.106.703.384.926l1.203.967a1.043 1.043 0 0 1 0 1.626l-1.207.963a1.045 1.045 0 0 0-.384.926l.167 1.536A1.043 1.043 0 0 1 13.14 13.5l-1.535-.167a1.041 1.041 0 0 0-.925.384l-.964 1.2a1.042 1.042 0 0 1-1.624 0l-.967-1.204a1.043 1.043 0 0 0-.926-.384l-1.535.167a1.041 1.041 0 0 1-1.151-1.152l.167-1.536a1.044 1.044 0 0 0-.384-.926l-1.202-.967a1.043 1.043 0 0 1 0-1.625l1.202-.968c.278-.223.422-.572.384-.925L3.513 3.86a1.043 1.043 0 0 1 1.151-1.152l1.535.167c.354.038.703-.107.926-.384l.967-1.196Z" stroke="currentColor" stroke-width="1.6" stroke-linecap="round" stroke-linejoin="round"/></svg>
