<svg xmlns="http://www.w3.org/2000/svg" viewBox="0 0 20 20"><g fill="none" stroke="currentColor" stroke-width="2" stroke-linecap="round" stroke-linejoin="round"><path d="M18.793 5.8H1V2.2C1 1.6 1.517 1 2.241 1H17.76C18.379 1 19 1.6 19 2.2l-.207 3.6zM1 8.2v8.4c0 .6.517 1.2 1.241 1.2H5.76M19 9.4V8.2M6.897 1L5.759 5.8M14.034 1l-1.24 4.8M13.828 15l-3.621-2.8c-.31-.1-.517-.2-.828 0-.207.1-.413.4-.413.6v5.5c0 .3.103.5.413.6.207.1.518.1.724-.1l3.621-2.8c.31-.2.414-.7.104-1 0 .1 0 0 0 0h0zM16.62 12.4c0-.3.311-.6.621-.6h1.138c.31 0 .621.3.621.6h0v6c0 .3-.31.6-.62.6h0-1.139c-.31 0-.62-.3-.62-.6h0v-6z"/></g></svg>