<?xml version="1.0" encoding="utf-8"?>
<svg version="1.1" id="video" xmlns="http://www.w3.org/2000/svg" xmlns:xlink="http://www.w3.org/1999/xlink" x="0px" y="0px"
	 viewBox="0 0 20 20" enable-background="new 0 0 20 20" xml:space="preserve">
<g>
	<path fill="none" stroke="currentColor" stroke-width="2" stroke-linecap="round" stroke-linejoin="round" d="M18.7931,5.8H1V2.2
		C1,1.6,1.51724,1,2.24138,1h15.51724C18.37931,1,19,1.6,19,2.2L18.7931,5.8z"/>
	<path fill="none" stroke="currentColor" stroke-width="2" stroke-linecap="round" stroke-linejoin="round" d="M1,8.2v8.4
		c0,0.6,0.51724,1.2,1.24138,1.2h3.51724"/>
	<path fill="none" stroke="currentColor" stroke-width="2" stroke-linecap="round" stroke-linejoin="round" d="M19,9.4V8.2"/>
	<path fill="none" stroke="currentColor" stroke-width="2" stroke-linecap="round" stroke-linejoin="round" d="M6.89655,1L5.75862,5.8"/>
	<path fill="none" stroke="currentColor" stroke-width="2" stroke-linecap="round" stroke-linejoin="round" d="M14.03448,1L12.7931,5.8"
		/>
	<path fill="none" stroke="currentColor" stroke-width="2" stroke-linecap="round" stroke-linejoin="round" d="M13.82759,15l-3.62069-2.8
		c-0.31035-0.1-0.51724-0.2-0.82759,0c-0.2069,0.1-0.41379,0.4-0.41379,0.6v5.5c0,0.3,0.10345,0.5,0.41379,0.6
		c0.2069,0.1,0.51724,0.1,0.72414-0.1l3.62069-2.8C14.03448,15.8,14.13793,15.3,13.82759,15C13.82759,15.1,13.82759,15,13.82759,15
		L13.82759,15z"/>
	<path fill="none" stroke="currentColor" stroke-width="2" stroke-linecap="round" stroke-linejoin="round" d="M16.62069,12.4
		c0-0.3,0.31034-0.6,0.62069-0.6l0,0h1.13793C18.68966,11.8,19,12.1,19,12.4l0,0v6c0,0.3-0.31034,0.6-0.62069,0.6l0,0h-1.13793
		c-0.31034,0-0.62069-0.3-0.62069-0.6l0,0V12.4z"/>
</g>
</svg>
