<?xml version="1.0" encoding="utf-8"?>
<svg version="1.1" id="wallet" xmlns="http://www.w3.org/2000/svg" xmlns:xlink="http://www.w3.org/1999/xlink" x="0px" y="0px"
	 viewBox="0 0 20 20" enable-background="new 0 0 20 20" xml:space="preserve">
<g>
	<path fill="none" stroke="currentColor" stroke-width="2" stroke-linecap="round" stroke-linejoin="round" d="M17.8,15.2v1.2
		c0,1.3-1,2.4-2.4,2.4l0,0h-12c-1.3,0-2.4-1-2.4-2.4l0,0V7.9c0-1.3,1-2.4,2.4-2.4l0,0h11.9c1.3,0,2.4,1,2.4,2.4l0,0v1.2"/>
	<path fill="none" stroke="currentColor" stroke-width="2" stroke-linecap="round" stroke-linejoin="round" d="M15.3,5.5l-1.8-3.7
		c-0.3-0.6-1-0.8-1.6-0.5l0,0L3.4,5.5"/>
	<path fill="none" stroke="currentColor" stroke-width="2" stroke-linecap="round" stroke-linejoin="round" d="M17.8,15.2
		c0.6,0,1.2-0.5,1.2-1.2v-3.6c0-0.6-0.5-1.2-1.2-1.2h-3c-1.7,0-3,1.3-3,3s1.3,3,3,3H17.8L17.8,15.2z"/>
	<path fill="none" stroke="currentColor" stroke-width="2" stroke-linecap="round" stroke-linejoin="round" d="M14.8,11.9
		c0.2,0,0.3,0.2,0.3,0.3c0,0.1-0.1,0.3-0.3,0.3c-0.2,0-0.3-0.2-0.3-0.3C14.5,12.1,14.6,11.9,14.8,11.9L14.8,11.9"/>
</g>
</svg>
