<svg xmlns="http://www.w3.org/2000/svg" viewBox="0 0 20 20"><g fill="none" stroke="currentColor" stroke-width="2" stroke-linecap="round" stroke-linejoin="round"><path d="M17.8 15.2v1.2c0 1.3-1 2.4-2.4 2.4h0-12c-1.3 0-2.4-1-2.4-2.4h0V7.9c0-1.3 1-2.4 2.4-2.4h11.9c1.3 0 2.4 1 2.4 2.4h0v1.2M15.3 5.5l-1.8-3.7c-.3-.6-1-.8-1.6-.5h0L3.4 5.5"/><path d="M17.8 15.2c.6 0 1.2-.5 1.2-1.2v-3.6c0-.6-.5-1.2-1.2-1.2h-3c-1.7 0-3 1.3-3 3s1.3 3 3 3h3z"/><path d="M14.8 11.9c.2 0 .3.2.3.3 0 .1-.1.3-.3.3-.2 0-.3-.2-.3-.3 0-.1.1-.3.3-.3h0"/></g></svg>