<svg xmlns="http://www.w3.org/2000/svg" viewBox="0 0 20 20"><g transform="translate(-1114 -301)" fill="none" stroke="currentColor" stroke-width="2"><path stroke-linecap="round" d="M1127.5 317.1v1.4c0 .8-.7 1.5-1.5 1.5h-9c-.8 0-1.5-.7-1.5-1.5h0v-15c0-.8.7-1.5 1.5-1.5h9c.8 0 1.5.7 1.5 1.5v1.2"/><path stroke-linecap="round" d="M1123.6 302.1v.3c0 .3-.3.6-.6.6h0-2.7c-.3 0-.6-.3-.6-.6h0v-.3M1127 308.1c1.7-1 3.9-.5 4.9 1.2s.5 3.9-1.2 4.9c-1.2.7-2.6.7-3.8 0"/><circle cx="1121.9" cy="311.2" r="3.6"/></g></svg>