<?xml version="1.0" encoding="utf-8"?>
<svg version="1.1" id="wallet-mobile" xmlns="http://www.w3.org/2000/svg" xmlns:xlink="http://www.w3.org/1999/xlink" x="0px"
	 y="0px" viewBox="0 0 20 20" enable-background="new 0 0 20 20" xml:space="preserve">
<g transform="translate(-1114 -301)">
	<path fill="none" stroke="currentColor" stroke-width="2" stroke-linecap="round" d="M1127.5,317.10001V318.5
		c0,0.79999-0.69995,1.5-1.5,1.5h-9c-0.80005,0-1.5-0.70001-1.5-1.5l0,0v-15c0-0.79999,0.69995-1.5,1.5-1.5l0,0h9
		c0.80005,0,1.5,0.70001,1.5,1.5v1.20001"/>
	<path fill="none" stroke="currentColor" stroke-width="2" stroke-linecap="round" d="M1123.59998,302.10001v0.29999
		c0,0.29999-0.30005,0.60001-0.59998,0.60001l0,0h-2.69995c-0.30005,0-0.59998-0.29999-0.59998-0.60001l0,0v-0.29999"/>
	<path fill="none" stroke="currentColor" stroke-width="2" stroke-linecap="round" d="M1127,308.10001
		c1.69995-1,3.90002-0.5,4.90002,1.20001s0.5,3.89999-1.19995,4.89999c-1.19995,0.70001-2.59998,0.70001-3.80005,0"/>
	<circle fill="none" stroke="currentColor" stroke-width="2" cx="1121.90002" cy="311.20001" r="3.59999"/>
</g>
</svg>
