<svg viewBox="0 0 301 111" xmlns="http://www.w3.org/2000/svg"><path fill-rule="evenodd" clip-rule="evenodd" d="M258 111V97h-38v14h-2V97h-21v-2h21V84h2v11h38V57h-36v-2h36V17h-38v10h-2V17h-31v-2h31V0h2v15h38V0h2v15h41v2h-41v38h21v2h-21v38h11v2h-11v14h-2zm-180 0V97H40v14h-2V97h-8v-2h8V58H20v-2h18V17H0v-2h38V0h2v15h38V0h2v15h30v2H80v10h-2V17H40v39h35v2H40v37h38V84h2v11h20v2H80v14h-2zm207-10v-4h-4v-2h4v-4h2v4h4.001v2H287v4h-2zM78 78v-4h-4v-2h4v-4h2v4h4v2h-4v4h-2zM4 62v-4H0v-2h4v-4h2v4h4v2H6v4H4zm214-15v-4h-4v-2h4v-4h2v4h4v2h-4v4h-2z" fill="var(--icon-color-secondary-300, #DBDEE5)"/><path d="M119.713 83.343a1 1 0 000-2v2zm58.471-40.859a1 1 0 000-2v2zm21.485-2a1 1 0 000 2v-2zm-7.895 40.86a1 1 0 000 2v-2zm-72.061 0H97.295v2h22.418v-2zm-22.419 0a4.837 4.837 0 01-4.837-4.838h-2a6.837 6.837 0 006.837 6.837v-2zm-4.837-4.838V47.321h-2v29.185h2zm0-29.185a4.837 4.837 0 014.837-4.837v-2a6.837 6.837 0 00-6.837 6.837h2zm4.837-5.837v1h80.891v-2H97.294v1zm102.375 1h3.274v-2h-3.274v2zm3.274 0a4.837 4.837 0 014.837 4.837h2a6.837 6.837 0 00-6.837-6.837v2zm4.837 4.837v29.185h2V47.321h-2zm0 29.185a4.837 4.837 0 01-4.837 4.837v2a6.837 6.837 0 006.837-6.837h-2zm-4.837 5.837v-1h-11.169v2h11.169v-1z" fill="var(--icon-color-secondary-300, #DBDEE5)"/><path d="M123.165 78.55c5.23 9.004 14.26 17.067 29.353 22.296a3.175 3.175 0 002.088 0c38.163-13.221 37.565-44.551 37.128-67.427-.047-2.458-.092-4.78-.092-7.027a3.187 3.187 0 00-3.188-3.186c-13.635 0-24.016-3.917-32.669-12.327a3.188 3.188 0 00-4.445 0c-8.652 8.41-19.032 12.327-32.666 12.327a3.187 3.187 0 00-3.188 3.186c0 2.247-.044 5.738-.091 8.196" stroke="var(--icon-color-secondary-900, #212225)" stroke-width="2" stroke-linecap="round" fill="none"/><path d="M133.01 79.873c4.006 4.736 10.191 9.117 19.096 12.219a2.459 2.459 0 001.62 0c29.611-10.316 29.147-34.76 28.808-52.607-.036-1.918-.071-3.73-.071-5.482a2.48 2.48 0 00-2.473-2.486c-10.58 0-18.635-3.056-25.349-9.618a2.464 2.464 0 00-3.449 0c-6.714 6.562-14.768 9.617-25.346 9.617a2.48 2.48 0 00-2.474 2.487c0 1.753-.035.915-.071 2.833" stroke="#007DFF" stroke-width="2" stroke-linecap="round" fill="none"/><path d="M132.273 72.928c-2.772 0-5.019-2.233-5.019-4.988V55.113c0-2.755 2.247-4.988 5.019-4.988h8.603c2.772 0 5.019 2.233 5.019 4.988V67.94c0 2.755-2.247 4.988-5.019 4.988h-8.603zm24 0c-2.772 0-5.019-2.233-5.019-4.988V55.113c0-2.755 2.247-4.988 5.019-4.988h8.603c2.772 0 5.019 2.233 5.019 4.988V67.94c0 2.755-2.247 4.988-5.019 4.988h-8.603z" stroke="var(--icon-color-secondary-300, #DBDEE5)" stroke-width="2" fill="none"/><path d="M107.894 72.928c-2.772 0-5.019-2.233-5.019-4.988V55.113c0-2.755 2.247-4.988 5.019-4.988h8.604c2.771 0 5.018 2.233 5.018 4.988V67.94c0 2.755-2.247 4.988-5.018 4.988h-8.604z" fill="var(--icon-color-primary-100, #E5F0F8)" stroke="#007DFF" stroke-width="2"/><path d="M116.439 57.785l-5.369 7.612a.754.754 0 01-.63.353.864.864 0 01-.64-.31l-1.362-1.813" stroke="#007DFF" stroke-width="2" stroke-linecap="round" stroke-linejoin="round" fill="none"/></svg>