<?xml version="1.0" encoding="utf-8"?>
<svg version="1.1" id="business" xmlns="http://www.w3.org/2000/svg" xmlns:xlink="http://www.w3.org/1999/xlink" x="0px" y="0px"
	 viewBox="0 0 40 40" enable-background="new 0 0 40 40" xml:space="preserve">
<circle fill="#E5F0F8" cx="12.29999" cy="18.005" r="12.29999"/>
<path fill="none" stroke="#212225" stroke-width="2" stroke-linecap="round" d="M31.90002,9.505c0,0,3.20001,1.79999,5.09998,3
	s1.29999,3.59998-0.70001,3.59998H27.5h-3.59998c0,0-6,0-8.40002,0c-2.29999,0-2.90002-2.29999-1-3.59998
	c1.79999-1.20001,4.90002-3,4.90002-3"/>
<path fill="#007DFF" d="M28.79999,5.20496h-6c-0.39996,0-0.59998,0.20001-0.79999,0.40002
	c-0.10004,0.09998-0.20001,0.29999-0.20001,0.5v2.79999v1.70001v1c0,0.39996,0.29999,0.70001,0.59998,0.79999l3.03882,1.16187
	c0.23236,0.08887,0.48956,0.08759,0.72101-0.0036l2.94025-1.15826c0.39996-0.20001,0.59998-0.5,0.59998-0.79999v-0.90002V9.00494v-3
	C29.70001,5.60498,29.29999,5.20496,28.79999,5.20496z M28.39996,9.10498v1.70001v0.5l-2.59998,1l-2.60004-1v-0.59998V9.005V6.60498
	h5.20001V9.10498z"/>
<path fill="none" stroke="#212225" stroke-width="2" stroke-linecap="round" d="M15.40002,29.40497h-0.5
	c-3.20001,0-3.29999,4.40002,0,4.40002h21.90002c1.20001,0,2.20001-0.90002,2.29999-2.09998
	c0-1.20001-0.90002-2.20001-2.09998-2.29999c-0.09998,0-0.09998,0-0.20001,0c0,0-10.90002,0-17.29999,0
	c-1.40002,0-1.49994-1.60004-0.69995-1.90002"/>
<line fill="none" stroke="#212225" stroke-width="2" stroke-linecap="round" x1="15.79999" y1="17.005" x2="15.79999" y2="23.20496"/>
<line fill="none" stroke="#212225" stroke-width="2" stroke-linecap="round" x1="23.20001" y1="17.005" x2="23.20001" y2="20.70496"/>
<line fill="none" stroke="#212225" stroke-width="2" stroke-linecap="round" x1="31.90002" y1="17.005" x2="31.90002" y2="18.20496"/>
<path fill="none" stroke="#212225" stroke-width="2" stroke-linecap="round" d="M36.90002,20.80499c0,0-8.5,5.09998-9.29999,5.5
	s-1.29999,0.5-1.79999-0.20001s-0.29999-0.5-0.59998-1c-0.40002-0.5-1-0.59998-1.59998-0.29999L18.80011,27.505"/>
<line fill="none" stroke="#212225" stroke-width="2" stroke-linecap="round" x1="33.20001" y1="20.505" x2="36.90002" y2="20.80499"/>
<line fill="none" stroke="#212225" stroke-width="2" stroke-linecap="round" x1="35.5" y1="24.30499" x2="36.90002" y2="20.80499"/>
</svg>
