<?xml version="1.0" encoding="utf-8"?>
<svg version="1.1" id="developer-tools" xmlns="http://www.w3.org/2000/svg" xmlns:xlink="http://www.w3.org/1999/xlink" x="0px"
	 y="0px" viewBox="0 0 40 40" enable-background="new 0 0 40 40" xml:space="preserve">
<g transform="translate(-641 -693.22)">
	<circle fill="#E5F0F8" cx="652.79999" cy="714.59998" r="11.79999"/>
	<g>
		<path fill="none" stroke="#212225" stroke-width="2" stroke-linecap="round" stroke-linejoin="round" d="M669.08801,718.48535
			l8.81201-0.68536c1-0.09998,1.90002,0.70001,2,1.70001c0,0.29999,0,0.70001-0.20001,1l0,0
			c-0.20001,0.40002-0.59998,0.70001-1,0.90002l-12.5,4.70001c-0.79999,0.29999-1.59998,0.29999-2.40002,0l-9.59998-3.20001"/>
		<path fill="none" stroke="#212225" stroke-width="2" stroke-linecap="round" stroke-linejoin="round" d="M660.59998,719.40002
			H667.5c0.70001,0,1.29999-0.40002,1.5-1.09998l0,0c0.29999-0.79999-0.20001-1.70001-1-2l-7.19995-1.90002
			c-0.70001-0.20001-1.5-0.20001-2.29999-0.09998l-4.20001,0.70001"/>
		<path fill="none" stroke="#007DFF" stroke-width="2" stroke-linecap="round" stroke-linejoin="round" d="M669.79999,700.29999
			l-2.20001,11"/>
		<path fill="none" stroke="#212225" stroke-width="2" stroke-linecap="round" stroke-linejoin="round" d="M663.20001,702.5
			l-4.40002,3.29999l4.40002,3.29999l-2.45032-1.83771l2.45032-1.86224"/>
		<path fill="none" stroke="#007DFF" stroke-width="2" stroke-linecap="round" stroke-linejoin="round" d="M674.09998,709.09998
			l4.40002-3.29999L674.09998,702.5l2.45032,1.83771l-2.45032,1.86224"/>
	</g>
</g>
</svg>
