<?xml version="1.0" encoding="utf-8"?>
<svg version="1.1" id="finance" xmlns="http://www.w3.org/2000/svg" xmlns:xlink="http://www.w3.org/1999/xlink" x="0px" y="0px"
	 viewBox="0 0 40 40" enable-background="new 0 0 40 40" xml:space="preserve">
<circle fill="#E5F0F8" cx="12" cy="21.604" r="12"/>
<g>
	<path fill="none" stroke="#007DFF" stroke-width="2" stroke-linecap="round" stroke-linejoin="round" d="M38.09998,30.00403v1.5
		c0,1.09998-0.79999,2.09998-1.90002,2.09998h-9.70001c-1.09998-0.09998-2-1-1.90002-2.09998v-7.5
		c-0.09998-1.09998,0.79999-2.09998,1.90002-2.09998h9.70001c1.09998,0.09998,2,1,1.90002,2.09998v1.10482"/>
	<path fill="none" stroke="#007DFF" stroke-width="2" stroke-linecap="round" stroke-linejoin="round" d="M36.29999,21.80402
		l-1.5-3.09998C34.59998,18.20404,34,18.00403,33.5,18.30402l0,0l-7,3.5"/>
	<path fill="none" stroke="#007DFF" stroke-width="2" stroke-linecap="round" stroke-linejoin="round" d="M38,29.90405
		c0.5,0,1-0.30005,1-0.90002V26.104c0-0.5-0.40002-1-1-1l0,0h-2.40002c-1.29999,0-2.40002,1.09998-2.40002,2.40002
		c0,1.29999,1.09998,2.40002,2.40002,2.40002H38z"/>
	<path fill="none" stroke="#212225" stroke-width="2" stroke-linecap="round" stroke-linejoin="round" d="M17.79999,31.30402
		c-6.20001-4.20001-7.90002-12.59998-3.70001-18.79999S26.69995,4.604,32.89996,8.80402
		c2.59998,1.70001,4.5,4.29999,5.40002,7.29999c0.09998,0.20001,0.09998,0.40002,0.20001,0.59998"/>
	<path fill="none" stroke="#212225" stroke-width="2" stroke-linecap="round" stroke-linejoin="round" d="M20.5,28.90399
		c-1.5-4.59998-1.79999-9.5-1.09998-14.29999c0.29999-2.79999,1.12967-5.28658,2.62967-7.68654"/>
	<path fill="none" stroke="#212225" stroke-width="2" stroke-linecap="round" stroke-linejoin="round" d="M11.79999,19.104H24.5"/>
	<path fill="none" stroke="#212225" stroke-width="2" stroke-linecap="round" stroke-linejoin="round" d="M13.90002,12.80402
		h22.90663"/>
	<path fill="none" stroke="#212225" stroke-width="2" stroke-linecap="round" stroke-linejoin="round" d="M12.90002,25.40399
		h6.70001"/>
	<path fill="none" stroke="#212225" stroke-width="2" stroke-linecap="round" stroke-linejoin="round" d="M28.77416,6.92905
		c1.20001,2,1.92585,3.97494,2.32588,6.27499c0.09998,0.70001,0.29999,1.40002,0.29999,2.09998"/>
</g>
</svg>
