<svg xmlns="http://www.w3.org/2000/svg" viewBox="0 0 40 40"><g transform="translate(-792 -693.146)"><circle fill="var(--icon-color-secondary, #E5F0F8)" cx="805" cy="712.4" r="13"/><g fill="none" stroke-width="2" stroke-linecap="round"><path stroke="currentColor" stroke-linejoin="round" d="M804.2 710.3c0-.4.3-.6.6-.6h25.5c.4 0 .6.3.6.6v2.4c0 .4-.3.6-.6.6h-25.5c-.4 0-.6-.3-.6-.6v-2.4z"/><path stroke="var(--icon-color-primary, #007DFF)" stroke-linejoin="round" d="M829 706.7c0-3.7-5.7-7.3-11.5-7.3-5.7 0-11.5 3.7-11.5 7.3"/><path stroke="currentColor" stroke-linejoin="round" d="M804.2 720.5c0-.5.4-1 1-1H830c.5 0 1 .4 1 1v1.8c0 .5-.4 1-1 1h-24.8c-.5 0-1-.4-1-1v-1.8z"/><path stroke="var(--icon-color-primary, #007DFF)" stroke-linejoin="round" d="M804.2 726.9H831"/><path stroke="currentColor" stroke-linejoin="round" d="M806.1 713.7v5.8M809.9 713.7v5.8M813.8 713.7v5.8M821.4 713.7v5.8M829 713.7v5.8M825.2 713.7v5.8"/><path stroke="var(--icon-color-primary, #007DFF)" d="M806.2 706.8H829"/></g></g></svg>