<?xml version="1.0" encoding="utf-8"?>
<svg version="1.1" id="governance" xmlns="http://www.w3.org/2000/svg" xmlns:xlink="http://www.w3.org/1999/xlink" x="0px" y="0px"
	 viewBox="0 0 40 40" enable-background="new 0 0 40 40" xml:space="preserve">
<g transform="translate(-792 -693.146)">
	<circle fill="#E5F0F8" cx="805" cy="712.4" r="13"/>
	<g>
		<path fill="none" stroke="#212225" stroke-width="2" stroke-linecap="round" stroke-linejoin="round" d="M804.2,710.3
			c0-0.4,0.3-0.6,0.6-0.6h25.5c0.4,0,0.6,0.3,0.6,0.6v2.4c0,0.4-0.3,0.6-0.6,0.6h-25.5c-0.4,0-0.6-0.3-0.6-0.6V710.3z"/>
		<path fill="none" stroke="#077EFB" stroke-width="2" stroke-linecap="round" stroke-linejoin="round" d="M829,706.7
			c0-3.7-5.7-7.3-11.5-7.3c-5.7,0-11.5,3.7-11.5,7.3"/>
		<path fill="none" stroke="#212225" stroke-width="2" stroke-linecap="round" stroke-linejoin="round" d="M804.2,720.5
			c0-0.5,0.4-1,1-1H830c0.5,0,1,0.4,1,1v1.8c0,0.5-0.4,1-1,1h-24.8c-0.5,0-1-0.4-1-1V720.5z"/>
		<path fill="none" stroke="#007DFF" stroke-width="2" stroke-linecap="round" stroke-linejoin="round" d="M804.2,726.9H831"/>
		<path fill="none" stroke="#212225" stroke-width="2" stroke-linecap="round" stroke-linejoin="round" d="M806.1,713.7v5.8"/>
		<path fill="none" stroke="#212225" stroke-width="2" stroke-linecap="round" stroke-linejoin="round" d="M809.9,713.7v5.8"/>
		<path fill="none" stroke="#212225" stroke-width="2" stroke-linecap="round" stroke-linejoin="round" d="M813.8,713.7v5.8"/>
		<path fill="none" stroke="#212225" stroke-width="2" stroke-linecap="round" stroke-linejoin="round" d="M821.4,713.7v5.8"/>
		<path fill="none" stroke="#212225" stroke-width="2" stroke-linecap="round" stroke-linejoin="round" d="M829,713.7v5.8"/>
		<path fill="none" stroke="#212225" stroke-width="2" stroke-linecap="round" stroke-linejoin="round" d="M825.2,713.7v5.8"/>
		<path fill="none" stroke="#077EFB" stroke-width="2" stroke-linecap="round" d="M806.2,706.8H829"/>
	</g>
</g>
</svg>
