<?xml version="1.0" encoding="utf-8"?>
<svg version="1.1" id="health-fitness" xmlns="http://www.w3.org/2000/svg" xmlns:xlink="http://www.w3.org/1999/xlink" x="0px" y="0px"
	 viewBox="0 0 40 40" enable-background="new 0 0 40 40" xml:space="preserve">
<g transform="translate(-641 -694.146)">
	<circle fill="#E5F0F8" cx="653.1" cy="712" r="12.1"/>
	<g>
		<path fill="none" stroke="#212225" stroke-width="2" stroke-linecap="round" stroke-linejoin="round" d="M664.9,715.7
			c-0.7-1-1.8-1.5-3-1.5h-3.8c-3.7,0-6.6,3-6.6,6.6c0,3.7,3,6.6,6.6,6.6h19c1.6,0,2.9-1.2,2.9-2.8s-1.2-2.9-2.8-2.9c0,0-0.1,0-0.1,0
			h-5.7c-1.2,0-2.3-0.6-3-1.5L664.9,715.7z"/>
		<path fill="none" stroke="#007DFF" stroke-width="2" stroke-linecap="round" stroke-linejoin="round" d="M659,719.9l2.8,3.8"/>
		<path fill="none" stroke="#007DFF" stroke-width="2" stroke-linecap="round" stroke-linejoin="round" d="M669.2,714.1l0.7-3.7
			c0.3-1.1,1.3-1.8,2.4-1.8h3.8c2.1,0,3.8-1.8,3.7-3.8c0-2.1-1.7-3.7-3.7-3.7h-7.6"/>
		<path fill="none" stroke="#212225" stroke-width="2" stroke-linecap="round" stroke-linejoin="round" d="M653.3,708.5h7.6"/>
		<path fill="none" stroke="#212225" stroke-width="2" stroke-linecap="round" stroke-linejoin="round" d="M656.2,708.5l3.8,5.7"/>
		<path fill="none" stroke="#212225" stroke-width="2" stroke-linecap="round" d="M668.3,717.3l-0.5,1.6"/>
	</g>
</g>
</svg>
