<?xml version="1.0" encoding="utf-8"?>
<svg version="1.1" id="identity" xmlns="http://www.w3.org/2000/svg" xmlns:xlink="http://www.w3.org/1999/xlink" x="0px" y="0px"
	 viewBox="0 0 40 40" enable-background="new 0 0 40 40" xml:space="preserve">
<g transform="translate(-641 -694.68)">
	<circle fill="#E5F0F8" cx="652.9" cy="715.5" r="11.8"/>
	<g>
		<path fill="none" stroke="#007DFF" stroke-width="2" stroke-linecap="round" stroke-linejoin="round" d="M680,722.3v3.4
			c0,0.9-0.8,1.7-1.7,1.7h-3.4"/>
		<path fill="none" stroke="#212225" stroke-width="2" stroke-linecap="round" stroke-linejoin="round" d="M674.9,702h3.4
			c0.9,0,1.7,0.8,1.7,1.7v3.4"/>
		<path fill="none" stroke="#007DFF" stroke-width="2" stroke-linecap="round" stroke-linejoin="round" d="M654.7,707.1v-3.4
			c0-0.9,0.8-1.7,1.7-1.7c0,0,0,0,0,0h3.4"/>
		<path fill="none" stroke="#212225" stroke-width="2" stroke-linecap="round" stroke-linejoin="round" d="M659.7,727.3h-3.4
			c-0.9,0-1.7-0.8-1.7-1.7c0,0,0,0,0,0v-3.4"/>
		<path fill="none" stroke="#212225" stroke-width="2" stroke-linecap="round" stroke-linejoin="round" d="M667.6,715.8
			c2,0,3.6-1.6,3.6-3.6c0-2-1.6-3.6-3.6-3.6c-2,0-3.6,1.6-3.6,3.6C664.1,714.2,665.7,715.8,667.6,715.8
			C667.6,715.8,667.6,715.8,667.6,715.8z"/>
		<path fill="none" stroke="#212225" stroke-width="2" stroke-linecap="round" stroke-linejoin="round" d="M673.1,720.9
			c-1.1-3-4.4-4.6-7.4-3.6c-1.7,0.6-3,1.9-3.6,3.6"/>
		<path fill="none" stroke="#212225" stroke-width="2" stroke-linecap="round" stroke-linejoin="round" d="M674,704.9h1.9
			c0.5,0,1,0.4,1,1v1.9"/>
		<path fill="none" stroke="#212225" stroke-width="2" stroke-linecap="round" stroke-linejoin="round" d="M659.6,724.4h-1.3
			c-0.4,0-0.7-0.3-0.7-0.7c0,0,0,0,0,0v-1.3"/>
	</g>
</g>
</svg>
