<?xml version="1.0" encoding="utf-8"?>
<svg version="1.1" id="organizations" xmlns="http://www.w3.org/2000/svg" xmlns:xlink="http://www.w3.org/1999/xlink" x="0px" y="0px"
	 viewBox="0 0 40 40" enable-background="new 0 0 40 40" xml:space="preserve">
<g transform="translate(-753.5 -692.396)">
	<circle fill="#E5F0F8" cx="765.5" cy="714" r="12"/>
	<g>
		<path fill="none" stroke="#212225" stroke-width="2" stroke-linecap="round" stroke-linejoin="round" d="M769.9,720.5v-4.8
			c0-0.3,0.3-0.6,0.6-0.6h18.7c0.3,0,0.6,0.3,0.6,0.6v4.8"/>
		<path fill="none" stroke="#212225" stroke-width="2" stroke-linecap="round" stroke-linejoin="round" d="M779.8,711.5v9"/>
		<path fill="none" stroke="#212225" stroke-width="2" stroke-linecap="round" stroke-linejoin="round" d="M769.9,725.9
			c1.5,0,2.7-1.2,2.7-2.7s-1.2-2.7-2.7-2.7s-2.7,1.2-2.7,2.7l0,0C767.2,724.7,768.4,725.9,769.9,725.9
			C769.9,725.9,769.9,725.9,769.9,725.9z"/>
		<path fill="none" stroke="#212225" stroke-width="2" stroke-linecap="round" stroke-linejoin="round" d="M779.8,725.9
			c1.5,0,2.7-1.2,2.7-2.7c0-1.5-1.2-2.7-2.7-2.7s-2.7,1.2-2.7,2.7l0,0C777.1,724.7,778.3,725.9,779.8,725.9
			C779.8,725.9,779.8,725.9,779.8,725.9z"/>
		<path fill="none" stroke="#212225" stroke-width="2" stroke-linecap="round" stroke-linejoin="round" d="M789.8,725.9
			c1.5,0,2.7-1.2,2.7-2.7c0-1.5-1.2-2.7-2.7-2.7s-2.7,1.2-2.7,2.7l0,0C787.1,724.7,788.3,725.9,789.8,725.9
			C789.8,725.9,789.8,725.9,789.8,725.9z"/>
		<path fill="none" stroke="#007DFF" stroke-width="2" stroke-linecap="round" stroke-linejoin="round" d="M779.8,706.1
			c2,0,3.6-1.6,3.6-3.6c0-2-1.6-3.6-3.6-3.6s-3.6,1.6-3.6,3.6l0,0C776.2,704.5,777.8,706.1,779.8,706.1z"/>
		<path fill="none" stroke="#007DFF" stroke-width="2" stroke-linecap="round" stroke-linejoin="round" d="M785.3,711.5
			c-0.6-3-3.6-5-6.6-4.4c-2.2,0.4-4,2.2-4.4,4.4"/>
		<path fill="none" stroke="#212225" stroke-width="2" stroke-linecap="round" stroke-linejoin="round" d="M786,717.2h1.2
			c0.2,0,0.4,0.2,0.4,0.4v1.3"/>
		<path fill="none" stroke="#212225" stroke-width="2" stroke-linecap="round" stroke-linejoin="round" d="M773.7,717.2h-1.2
			c-0.2,0-0.4,0.2-0.4,0.4v1.3"/>
	</g>
</g>
</svg>
