<?xml version="1.0" encoding="utf-8"?>
<svg version="1.1" id="security" xmlns="http://www.w3.org/2000/svg" xmlns:xlink="http://www.w3.org/1999/xlink" x="0px" y="0px"
	 viewBox="0 0 40 40" enable-background="new 0 0 40 40" xml:space="preserve">
<circle fill="#E5F0F8" cx="12.5" cy="20.91101" r="12.5"/>
<g>
	<path fill="none" stroke="#212225" stroke-width="2" stroke-linecap="round" stroke-linejoin="round" d="M27.09998,5.46145
		v28.27448"/>
	<path fill="none" stroke="#212225" stroke-width="2" stroke-linecap="round" stroke-linejoin="round" d="M39.10004,18.61102
		H15.20001"/>
	<path fill="none" stroke="#007DFF" stroke-width="2" stroke-linecap="round" stroke-linejoin="round" d="M20.40002,16.41101v-7.8"
		/>
	<path fill="none" stroke="#007DFF" stroke-width="2" stroke-linecap="round" stroke-linejoin="round" d="M33.70001,27.2v-6.4"/>
	<path fill="none" stroke="#212225" stroke-width="2" stroke-linecap="round" stroke-linejoin="round" d="M15.20001,9.41101v9.59998
		c0,6.20001,4.40002,12.29999,10.5,14.5l0,0c0.90002,0.29999,1.90002,0.29999,2.90002,0l0,0c6.09998-2.20001,10.5-8.29999,10.5-14.5
		V9.41101c0-0.79999-0.5-1.40002-1.09998-1.70001c-6.79999-3-14.70001-3-21.5,0C15.59998,8.01105,15.20001,8.61102,15.20001,9.41101
		z"/>
	<path fill="none" stroke="#007DFF" stroke-width="2" stroke-linecap="round" stroke-linejoin="round" d="M12.79999,8.51105
		v10.79999c0,6.29999,2.70001,11.90002,8.40002,14.90002"/>
	<path fill="none" stroke="#007DFF" stroke-width="2" stroke-linecap="round" stroke-linejoin="round" d="M23.20001,16.41101v-8.4"
		/>
	<path fill="none" stroke="#007DFF" stroke-width="2" stroke-linecap="round" stroke-linejoin="round" d="M30.90002,29.79999v-9"/>
</g>
</svg>
