<?xml version="1.0" encoding="utf-8"?>
<svg version="1.1" id="shops" xmlns="http://www.w3.org/2000/svg" xmlns:xlink="http://www.w3.org/1999/xlink" x="0px" y="0px"
	 viewBox="0 0 40 40" enable-background="new 0 0 40 40" xml:space="preserve">
<g transform="translate(-641 -692.382)">
	<circle fill="#E5F0F8" cx="652.8" cy="711.2" r="11.8"/>
	<g>
		<path fill="none" stroke="#212225" stroke-width="2" stroke-linecap="round" stroke-linejoin="round" d="M671.1,704.2l-2.7,9.1
			H661l-1.8-5.5H670"/>
		<path fill="none" stroke="#212225" stroke-width="2" stroke-linecap="round" stroke-linejoin="round" d="M661.5,716
			c0.3,0,0.5,0.2,0.5,0.5c0,0.3-0.2,0.5-0.5,0.5s-0.5-0.2-0.5-0.5C661.1,716.2,661.3,716,661.5,716L661.5,716"/>
		<path fill="none" stroke="#212225" stroke-width="2" stroke-linecap="round" stroke-linejoin="round" d="M667.8,716
			c0.3,0,0.5,0.2,0.5,0.5c0,0.3-0.2,0.5-0.5,0.5c-0.3,0-0.5-0.2-0.5-0.5C667.4,716.2,667.6,716,667.8,716L667.8,716"/>
		<path fill="none" stroke="#212225" stroke-width="2" stroke-linecap="round" stroke-linejoin="round" d="M668.6,721.5
			c-6,2.2-12.7-0.9-14.9-6.9c-2.2-6,0.9-12.7,6.9-14.9c6-2.2,12.7,0.9,14.9,6.9c0.9,2.4,0.9,5.1,0.1,7.6"/>
		<path fill="none" stroke="#007DFF" stroke-width="2" stroke-linecap="round" stroke-linejoin="round" d="M671.5,717.4l3.2,8.4
			l1.9-3.2l3.2-1.9L671.5,717.4L671.5,717.4z"/>
		<path fill="none" stroke="#007DFF" stroke-width="2" stroke-linecap="round" stroke-linejoin="round" d="M680,725.9l-3.2-3.2"/>
	</g>
</g>
</svg>
