<?xml version="1.0" encoding="utf-8"?>
<svg version="1.1" id="storage" xmlns="http://www.w3.org/2000/svg" xmlns:xlink="http://www.w3.org/1999/xlink" x="0px" y="0px"
	 viewBox="0 0 40 40" enable-background="new 0 0 40 40" xml:space="preserve">
<circle fill="#E5F0F8" cx="12.70001" cy="18.75403" r="12.70001"/>
<g>
	<path fill="none" stroke="#212225" stroke-width="2" stroke-linecap="round" stroke-linejoin="round" d="M37.20001,16.75403
		v-3.59998c0-1-0.79999-1.79999-1.79999-1.79999H21V9.55408c0-1-0.79999-1.79999-1.79999-1.79999h-5.40002
		c-1,0-1.79999,0.79999-1.79999,1.79999V30.854c0,1.09998,1,2,2.09998,2c0.90002,0,1.70001-0.59998,1.90002-1.5l2.79999-13.40002
		C19,17.15399,19.70001,16.65399,20.5,16.65399L37.20001,16.75403c1,0,1.79999,0.79999,1.79999,1.79999
		c0,0.20001,0,0.29999-0.09998,0.5l-2.59998,12.59998c-0.20001,0.79999-0.92731,1.20001-1.72729,1.20001H14.09998"/>
	<g>
		<path fill="none" stroke="#007DFF" stroke-width="2" stroke-linecap="round" stroke-linejoin="round" d="M29.79999,22.45398
			v8.20001"/>
		<path fill="none" stroke="#007DFF" stroke-width="2" stroke-linecap="round" stroke-linejoin="round" d="M28.20001,25.65399
			h3.20001"/>
		<path fill="none" stroke="#007DFF" stroke-width="2" stroke-linecap="round" stroke-linejoin="round" d="M28.20001,28.95398
			h3.20001"/>
		<path fill="none" stroke="#007DFF" stroke-width="2" stroke-linecap="round" stroke-linejoin="round" d="M31.40002,20.854
			c0,0.90002-0.70001,1.59998-1.59998,1.59998c-0.90002,0-1.59998-0.70001-1.59998-1.59998v-1.59998h3.20001V20.854H31.40002z"/>
	</g>
</g>
</svg>
