<svg xmlns="http://www.w3.org/2000/svg" viewBox="0 0 40 40"><circle fill="var(--icon-color-secondary, #E5F0F8)" cx="11.7" cy="18.606" r="11.7"/><g fill="none" stroke-width="2" stroke-linecap="round" stroke-linejoin="round"><path stroke="currentColor" d="M11.9 33.506c0-7.5 6.1-13.5 13.5-13.5 7.5 0 13.5 6.1 13.5 13.5"/><path stroke="var(--icon-color-primary, #007DFF)" d="M21.9 33.506l-.3-1c-.2-.6-.7-1.1-1.4-1.1h-4.886M33.948 27.206H30.2c-.6 0-1.2.4-1.4 1.1l-.7 2.8c-.2.7.3 1.5 1 1.7h1.8l.1.7"/><path stroke="currentColor" d="M25.4 10.106v-3.6M20 10.106h11.7v5.4H20l-2.7-2.7 2.7-2.7h0zM25.4 20.006v-4.5"/><path stroke="var(--icon-color-primary, #007DFF)" d="M15.1 33.506c0-5.8 4.8-10.5 10.6-10.4 5.7 0 10.4 4.7 10.4 10.4"/></g></svg>