<svg xmlns="http://www.w3.org/2000/svg" viewBox="0 0 20 20"><path fill="currentColor" d="M9.99 20c-1.407 0-2.81-.296-4.127-.883A9.767 9.767 0 01.631 13.54C-1.29 8.323 1.325 2.538 6.46.645c3.712-1.36 7.715-.535 10.49 2.148v-.87a1.129 1.129 0 112.26 0V5.52a1.13 1.13 0 01-.28.742h-.002a1.123 1.123 0 01-.775.382l-.08.003h-3.587a1.129 1.129 0 110-2.259h.864c-2.148-2.05-5.238-2.674-8.111-1.622C3.275 4.227 1.26 8.71 2.75 12.76a7.521 7.521 0 004.033 4.294 7.86 7.86 0 005.96.191 7.656 7.656 0 004.31-3.998 1.129 1.129 0 112.056.938 9.94 9.94 0 01-5.588 5.18A10.193 10.193 0 019.99 20z"/></svg>