<?xml version="1.0" encoding="utf-8"?>
<svg version="1.1" id="arrow-rotate-right" xmlns="http://www.w3.org/2000/svg" xmlns:xlink="http://www.w3.org/1999/xlink" x="0px"
	 y="0px" viewBox="0 0 20 20" enable-background="new 0 0 20 20" xml:space="preserve">
<g>
	<g>
		<path fill="currentColor" d="M9.98973,20c-1.40719,0-2.80941-0.29555-4.12672-0.88335c-2.4532-1.09509-4.31144-3.07574-5.23228-5.57581
			C-1.29037,8.32289,1.3255,2.53755,6.46129,0.64457C10.17279-0.71464,14.176,0.11026,16.95177,2.7934V1.92328
			c0-0.62364,0.50509-1.12928,1.12928-1.12928c0.62419,0,1.12928,0.50564,1.12928,1.12928v3.59296c0,0.0011,0,0.00276,0,0.00276
			c-0.0011,0.28452-0.10697,0.54424-0.28011,0.74219c-0.0011,0-0.0011,0.00055-0.0011,0.00055l0,0
			c-0.04632,0.05294-0.09815,0.10201-0.15439,0.14557c-0.17314,0.13509-0.38709,0.22111-0.62088,0.236
			c-0.02647,0.00165-0.04411,0.0011-0.08051,0.00221h-3.58634c-0.62419,0-1.12928-0.50564-1.12928-1.12928
			s0.50509-1.12928,1.12928-1.12928h0.8635c-2.14717-2.05012-5.23725-2.67432-8.11062-1.62223
			c-3.96516,1.46178-5.98054,5.9458-4.48954,9.99532c0.70856,1.9244,2.14055,3.44959,4.03298,4.29434
			c1.88967,0.84365,4.00486,0.91202,5.95904,0.19079c1.90014-0.69477,3.47054-2.15158,4.31089-3.99769
			c0.25916-0.56795,0.92746-0.81829,1.49651-0.55912c0.56684,0.25916,0.81718,0.92857,0.55913,1.49651
			c-1.09068,2.39089-3.12647,4.28001-5.58794,5.181C12.3729,19.78936,11.17966,20,9.98973,20z"/>
	</g>
</g>
</svg>
