<svg viewBox="0 0 14 15" fill="none" xmlns="http://www.w3.org/2000/svg">
    <path fill-rule="evenodd" clip-rule="evenodd"
        d="M6.25402 11.1931C8.46709 10.803 10.2785 9.21244 10.9512 7.06835C11.624 4.92425 11.0461 2.58394 9.45255 0.999494C10.9251 2.47207 10.9251 4.85958 9.45255 6.33215C8.61327 7.17019 7.42526 7.55881 6.25296 7.37878L6.25296 5.1092C6.25286 4.9567 6.16092 4.81927 6.01999 4.76098C5.87907 4.7027 5.71691 4.73504 5.60913 4.84292L1.98683 8.46522C1.8454 8.60665 1.76594 8.79847 1.76594 8.99848C1.76594 9.1985 1.8454 9.39032 1.98683 9.53175L5.61019 13.1551C5.71798 13.263 5.88013 13.2953 6.02106 13.2371C6.16198 13.1788 6.25393 13.0413 6.25402 12.8888L6.25402 11.1931Z"
        stroke="currentColor" fill="none" stroke-width="1.6" stroke-linecap="round" stroke-linejoin="round" />
</svg>
