<svg width="20" height="20" viewBox="0 0 20 20" xmlns="http://www.w3.org/2000/svg">
<path d="M13.2534 1.60983C11.3017 0.852178 9.14685 0.798862 7.16007 1.45907C5.17329 2.11928 3.47894 3.45168 2.36887 5.22677C1.2588 7.00185 0.802505 9.10848 1.07859 11.1838C1.35468 13.2591 2.34587 15.1732 3.88141 16.5963" stroke="currentColor" stroke-width="2" stroke-linecap="round" stroke-linejoin="round" fill="none"/>
<path d="M3.88384 13.7168V16.5967H1.00391" stroke="currentColor" stroke-width="2" stroke-linecap="round" stroke-linejoin="round" fill="none"/>
<path d="M6.74609 18.3898C8.69779 19.1474 10.8526 19.2008 12.8394 18.5405C14.8262 17.8803 16.5205 16.5479 17.6306 14.7729C18.7407 12.9978 19.197 10.8911 18.9209 8.81583C18.6448 6.74051 17.6536 4.82645 16.1181 3.40332" stroke="currentColor" stroke-width="2" stroke-linecap="round" stroke-linejoin="round" fill="none"/>
<path d="M16.1172 6.28316V3.40234H18.9971" stroke="currentColor" stroke-width="2" stroke-linecap="round" stroke-linejoin="round" fill="none"/>
<path d="M12.8686 7.65234L9.19694 12.5472C9.15562 12.6019 9.10307 12.6471 9.04284 12.6799C8.98261 12.7127 8.91606 12.7323 8.84767 12.7372C8.77928 12.7422 8.71063 12.7327 8.6463 12.709C8.58197 12.6853 8.52346 12.6479 8.47468 12.5997L7.51953 11.6444" stroke="currentColor" stroke-width="2" stroke-linecap="round" stroke-linejoin="round" fill="none"/>
</svg>
