<svg xmlns="http://www.w3.org/2000/svg" viewBox="0 0 385 135.2" xml:space="preserve"><style>.st0{fill:#3c4249}.st2{fill:none;stroke-width:2;stroke-linecap:round}.st2,.st3{stroke:#3c4249}.st3,.st4,.st5,.st6{fill:none;stroke-width:2}.st4{stroke:#7e8a9c}.st5,.st6{stroke-linecap:round}.st5{stroke:#e78375;stroke-dasharray:8,4}.st6{stroke:#7e8a9c}</style><path class="st0" d="M278 135.22v-19h-3v-2h3v-4h2v4h38v-1h2v1h38v-38h-22v-2h22v-23h2v23h2v2h-2v38h16v2h-16v6h-2v-6h-38v10h-2v-10h-38v19h-2zM22 91.22v-23h-2v-2h2v-38H6v-2h16v-6h2v6h38v-10h2v10h38v-19h2v19h3v2h-3v4h-2v-4H64v23h-2v-23H24v38h22v2H24v23h-2zM121 32.22v-4h-4v-2h4v-4h2v4h4v2h-4v4h-2zM4 72.22v-4H0v-2h4v-4h2v4h4v2H6v4H4zM358 41.22v-4h-4v-2h4v-4h2v4h4v2h-4v4h-2zM379 80.22v-4h-4v-2h4v-4h2v4h4v2h-4v4h-2z"/><path d="M351.5 1.22c4.1 0 7.5 3.4 7.5 7.5v82c0 4.1-3.4 7.5-7.5 7.5s-7.5-3.4-7.5-7.5v-82c0-4.1 3.4-7.5 7.5-7.5z" fill="none"/><path class="st2" d="M59 109.22v-44.3c.2-2.2 2.1-3.9 4.3-3.7 2 .1 3.6 1.7 3.7 3.7l-.1 33.3"/><path class="st3" d="M51 87.22v-13.6c.1-1.4 1.3-2.4 2.7-2.3 1.2.1 2.2 1.1 2.3 2.3v13.6M59 93.22c-1.6.1-2.9-1.1-3-2.7v-4.3"/><path class="st3" d="M59 100.22c-4.4 0-8-3.6-8-8.1v-8.9M75 92.22v-7.6c0-1.4-1.2-2.5-2.5-2.4-1.3 0-2.4 1.1-2.4 2.4v7.6M67 98.22c1.6.1 2.9-1.1 3-2.7v-4.3"/><path class="st3" d="M67 104.22c4.4 0 8-3.6 8-8.1v-8.9M49 110.22h27M67 111.22v-5"/><g><path class="st2" d="M167 109.22v-44.3c.2-2.2 2.1-3.9 4.3-3.7 2 .1 3.6 1.7 3.7 3.7v33.3"/><path class="st3" d="M159 87.22v-13.6c.1-1.4 1.3-2.4 2.7-2.3 1.2.1 2.2 1.1 2.3 2.3v13.6M167 93.22c-1.6.1-2.9-1.1-3-2.7v-4.3"/><path class="st3" d="M167 100.22c-4.4 0-8-3.6-8-8.1v-8.9M183 92.22v-7.6c0-1.4-1.2-2.5-2.5-2.4-1.3 0-2.4 1.1-2.4 2.4v7.6M175 98.22c1.6.1 2.9-1.1 3-2.7v-4.3"/><path class="st3" d="M175 104.22c4.4 0 8-3.6 8-8.1v-8.9M157 110.22h27M173 111.22v-5"/></g><g><path class="st4" d="M186 110.22h137"/><path class="st3" d="M98 110.22h78M70 110.22h18M136 110.72c0-5.2 4.3-9.5 9.5-9.5h4c5.2 0 9.5 4.3 9.5 9.5M107 110.22c-.1-2.6 1.9-4.9 4.5-5h1.9c2.6.1 4.7 2.4 4.5 5"/><path class="st3" d="M155 103.22h5.7c3.5 0 6.3 3.1 6.3 7"/><path class="st4" d="M232.4 105.82c1.7-2.8 4.8-4.6 8.1-4.6h4c5.2 0 9.5 4.3 9.5 9.5"/><path class="st4" d="M224 111.22c-.1-3.3 2.5-5.9 5.8-6h2.4c3.3.1 5.8 2.7 5.8 6"/></g><g><path class="st5" d="M76 106.22c0-14.9 12.1-27 27-27s27 10.1 27 25"/><path class="st5" d="M129.9 100.52c.3-55.3 45.4-99.8 100.7-99.5 4.3 0 8.5.3 12.7.9 12.7 1.7 25 5.8 36.1 12.2"/><path class="st5" d="M130 100.22c0-3.6.3-7.3.8-10.9 6.3-46.2 49.1-78.5 95.6-72.3"/><path class="st6" d="M241.1 82.92c-5.3-6.1-10.1-15.5-10.1-24.2 0-19.1 15.4-34.5 34.5-34.5 11.3 0 21.9 5.5 28.4 14.8"/><path class="st6" d="M239.8 81.32c-11.6-8.1-14.8-17.4-14.8-28.6M231.1 61.72c-2.3-8.9-1.1-18.4 3.2-26.5M247.2 29.22c6.2-6.1 14.6-9.5 23.3-9.5M281.2 35.42c-3.6-2.3-5.2-7.4-11.5-10.9"/><g><path class="st6" d="M303.2 55.62c3.8 18.7-8.3 37-27.1 40.8-18.7 3.8-37-8.3-40.8-27.1-.3-1.3-.5-2.7-.6-4"/><path class="st6" d="M302.3 51.32c4 9.6 4.3 25.5-1.3 35.2M300.3 77.82c-2.2 8.5-7.7 15.8-15.2 20.2M270.3 97.22c-8.5 2.2-17.5 1-25-3.4M241.4 72.32c1.3 2.5.5 4.9 1.2 8.8.3 1.6 2.8 5.2 3 6.6"/></g><g><path class="st6" d="M242.7 32.62c13-14 34.9-14.8 48.9-1.8s14.8 34.9 1.8 48.9c-.9 1-1.9 1.9-3 2.8"/><path class="st6" d="M243 32.62c5.7-9.2 15.3-15.2 26.1-16.3M267.1 20.82c8.2-3.2 17.3-3 25.3.6M295.6 35.02c6.7 5.6 11 13.6 11.8 22.3M295.3 69.02c1.9-3.8 5-.5 7.6-10.8"/></g><g><path class="st6" d="M286 77.62c-9.2 10-24.8 10.5-34.7 1.3s-10.6-24.7-1.3-34.7c.7-.7 1.4-1.4 2.1-2"/><path class="st6" d="M285.8 77.72c-4 6.5-10.9 10.8-18.5 11.5M265.1 85.32c-5.7 2.1-8.3 2-13.7-.4M248.4 75.92c-4.8-4-7.8-9.7-8.4-15.9M250.8 49.02c-1.4 2.7-4.4 1.8-7 8.4M284.6 38.22c3.5 3.4 5.7 8 6.2 12.8 1.2 11-6.7 21-17.8 22.2-6.5.6-12.9-2-17.1-7"/><path class="st6" d="M284.7 38.42c5.3 3.4 8.7 9 9.3 15.3M290.9 51.22c1.8 5.1 1.6 10.6-.4 15.6M283.3 69.32c-3.2 3.9-7.8 6.4-12.8 6.9M261.5 67.32c2.2 1.1 2.8 4.1 11.1 5.8"/></g></g></svg>
