<?xml version="1.0" encoding="utf-8"?>
<svg version="1.1" id="icon" xmlns="http://www.w3.org/2000/svg" xmlns:xlink="http://www.w3.org/1999/xlink" x="0px" y="0px"
	 viewBox="0 0 20 20" enable-background="new 0 0 20 20" xml:space="preserve">
<g transform="translate(702.48 211)">
	<path fill="none" stroke="currentColor" stroke-width="2" stroke-linecap="round" d="M-697.67999-207.16251c0,0,4.29999-2.5,4.70001-2.7
		s0.79999-0.2,1.20001,0c0.29999,0.2,6.70001,3.7,7.09998,4c0.29999,0.2,0.40002,0.5,0.40002,0.89999v7.8
		c0,0.39999-0.20001,0.8-0.59998,1c-1.59998,1.10001-6.79999,4-7,4.10001c-0.29999,0.10001-0.79999,0.10001-1.20001,0
		c-0.20001-0.10001-5.90002-3.3-7.20001-4.2c-0.29999-0.2-0.40002-0.60001-0.40002-1v-7.39999c0-0.3,0.29999-0.5,0.5-0.5
		c0.09998,0,6.29999,3.39999,7.40002,4.10001c0.20001,0.10001,0.20001,0.3,0.20001,0.60001v4.39999"/>
</g>
</svg>
