<svg xmlns="http://www.w3.org/2000/svg" viewBox="0 0 20 20"><g fill="none" stroke="currentColor" stroke-width="2"><path stroke-linecap="round" d="M14.5 3.5s1.6.9 2.8 1.7c1.3.8.9 2.3-.5 2.3h-8-5.5c-1.5 0-1.9-1.5-.7-2.3s3.2-2 3.2-2"/><path d="M8.2 4.1c0 .2.1.4.3.5 0 0 1.3.6 1.6.6.3 0 1.3-.4 1.6-.6.2-.2.3-.3.3-.5V1.4c0-.2-.2-.4-.4-.4H8.7c-.3 0-.5.2-.5.5v2.6z"/><path stroke-linecap="round" d="M2.9 16.1c-.8-.1-1.5.5-1.6 1.3s.5 1.5 1.3 1.6H17.2c.8 0 1.5-.6 1.5-1.4s-.6-1.5-1.4-1.5h-.1H5.9c-.9 0-1-1-.4-1.2M3.5 7.5V12M8.4 7.5v2.9M14.1 7.5v1.1"/><path stroke-linecap="round" d="M17.1 11s-5.3 2.8-5.8 3c-.5.3-.9.3-1.2-.1-.3-.5-.2-.3-.4-.6s-.7-.4-1-.2L5.4 15"/><path stroke-linecap="round" stroke-miterlimit="4.001" d="M15.2 10.8c.6 0 1.3.1 1.6.1s.4.2.2.4c-.3.5-.6.9-.9 1.4"/></g></svg>