<?xml version="1.0" encoding="utf-8"?>
<svg version="1.1" id="icon" xmlns="http://www.w3.org/2000/svg" xmlns:xlink="http://www.w3.org/1999/xlink" x="0px" y="0px"
	 viewBox="0 0 20 20" enable-background="new 0 0 20 20" xml:space="preserve">
<g>
	<path fill="none" stroke="currentColor" stroke-width="2" stroke-linecap="round" d="M14.5,3.5c0,0,1.6,0.9,2.8,1.7
		c1.3,0.8,0.9,2.3-0.5,2.3h-5.7H8.8c0,0-3.9,0-5.5,0C1.8,7.5,1.4,6,2.6,5.2s3.2-2,3.2-2"/>
	<path fill="none" stroke="currentColor" stroke-width="2" d="M8.2,4.1c0,0.2,0.1,0.4,0.3,0.5c0,0,1.3,0.6,1.6,0.6c0.3,0,1.3-0.4,1.6-0.6
		C11.9,4.4,12,4.3,12,4.1V1.4C12,1.2,11.8,1,11.6,1H8.7C8.4,1,8.2,1.2,8.2,1.5V4.1z"/>
	<path fill="none" stroke="currentColor" stroke-width="2" stroke-linecap="round" d="M2.9,16.1c-0.8-0.1-1.5,0.5-1.6,1.3
		s0.5,1.5,1.3,1.6c0.1,0,0.2,0,0.3,0h14.3c0.8,0,1.5-0.6,1.5-1.4s-0.6-1.5-1.4-1.5h-0.1c0,0-7.1,0-11.3,0c-0.9,0-1-1-0.4-1.2"/>
	<line fill="none" stroke="currentColor" stroke-width="2" stroke-linecap="round" x1="3.5" y1="7.5" x2="3.5" y2="12"/>
	<line fill="none" stroke="currentColor" stroke-width="2" stroke-linecap="round" x1="8.4" y1="7.5" x2="8.4" y2="10.4"/>
	<line fill="none" stroke="currentColor" stroke-width="2" stroke-linecap="round" x1="14.1" y1="7.5" x2="14.1" y2="8.6"/>
	<path fill="none" stroke="currentColor" stroke-width="2" stroke-linecap="round" d="M17.1,11c0,0-5.3,2.8-5.8,3
		c-0.5,0.3-0.9,0.3-1.2-0.1c-0.3-0.5-0.2-0.3-0.4-0.6s-0.7-0.4-1-0.2L5.4,15"/>
	<path fill="none" stroke="currentColor" stroke-width="2" stroke-linecap="round" stroke-miterlimit="4.0006" d="M15.2,10.8
		c0.6,0,1.3,0.1,1.6,0.1s0.4,0.2,0.2,0.4c-0.3,0.5-0.6,0.9-0.9,1.4"/>
</g>
</svg>
