<?xml version="1.0" encoding="utf-8"?>
<svg version="1.1" id="magistrate" xmlns="http://www.w3.org/2000/svg" xmlns:xlink="http://www.w3.org/1999/xlink" x="0px" y="0px"
	 viewBox="0 0 20 20" enable-background="new 0 0 20 20" xml:space="preserve">
<g transform="translate(-491.748 -110.248)">
	<path fill="none" stroke="currentColor" stroke-width="2" stroke-linecap="round" stroke-linejoin="round" d="M495.02676,115.80554
		c1.25854,0,2.27878-1.02024,2.27878-2.27877s-1.02023-2.27877-2.27878-2.27877s-2.27878,1.02024-2.27878,2.27877
		S493.76822,115.80554,495.02676,115.80554z"/>
	<path fill="none" stroke="currentColor" stroke-width="2" stroke-linecap="round" stroke-linejoin="round" d="M495.02676,129.248
		c1.25854,0,2.27878-1.02025,2.27878-2.27877c0-1.25853-1.02023-2.27877-2.27878-2.27877s-2.27878,1.02024-2.27878,2.27877
		C492.74799,128.22775,493.76822,129.248,495.02676,129.248z"/>
	<path fill="none" stroke="currentColor" stroke-width="2" stroke-linecap="round" stroke-linejoin="round" d="M508.46921,115.80554
		c1.25851,0,2.27878-1.02024,2.27878-2.27877s-1.02026-2.27877-2.27878-2.27877c-1.25854,0-2.27878,1.02024-2.27878,2.27877
		S507.21066,115.80554,508.46921,115.80554z"/>
	<path fill="none" stroke="currentColor" stroke-width="2" stroke-linecap="round" stroke-linejoin="round" d="M508.46921,129.248
		c1.25851,0,2.27878-1.02025,2.27878-2.27877c0-1.25853-1.02026-2.27877-2.27878-2.27877
		c-1.25854,0-2.27878,1.02024-2.27878,2.27877C506.19043,128.22775,507.21066,129.248,508.46921,129.248z"/>
	<path fill="none" stroke="currentColor" stroke-width="2" stroke-linecap="round" stroke-linejoin="round" d="M501.88699,122.54613
		c1.25851,0,2.27878-1.02024,2.27878-2.27876c0-1.25853-1.02026-2.27877-2.27878-2.27877
		c-1.25854,0-2.27878,1.02024-2.27878,2.27877C499.60822,121.52589,500.62845,122.54613,501.88699,122.54613z"/>
	<path fill="none" stroke="currentColor" stroke-width="2" stroke-linecap="round" d="M506.85684,115.1366l-1.54486,1.5463"/>
	<path fill="none" stroke="currentColor" stroke-width="2" stroke-linecap="round" d="M506.75208,125.47172l-1.43661-1.43526"/>
	<path fill="none" stroke="currentColor" stroke-width="2" stroke-linecap="round" d="M498.20676,123.79611l-1.56461,1.56596"/>
	<path fill="none" stroke="currentColor" stroke-width="2" stroke-linecap="round" d="M498.20221,116.93126l-1.68359-1.68217"/>
</g>
</svg>
