<?xml version="1.0" encoding="utf-8"?>
<svg version="1.1" id="Layer" xmlns="http://www.w3.org/2000/svg" xmlns:xlink="http://www.w3.org/1999/xlink" x="0px" y="0px"
	 viewBox="0 0 20 20" enable-background="new 0 0 20 20" xml:space="preserve">
<g transform="translate(339 -63)">
	<path fill="none" stroke="currentColor" stroke-width="2" stroke-linecap="round" d="M-326.9,70h5.9c0.6,0,1,0.4,1,1v9c0,0.6-0.4,1-1,1
		h-16c-0.6,0-1-0.4-1-1v-9c0-0.6,0.4-1,1-1h1.9"/>
	<path fill="none" stroke="currentColor" stroke-width="2" stroke-linecap="round" d="M-327,70v-4.3c0-0.4,0.2-0.7,0.4-0.7h3.7
		c0.2,0,0.4,0.3,0.4,0.7v3.9"/>
	<path fill="none" stroke="currentColor" stroke-width="2" stroke-linecap="round" d="M-335.1,69.9v-4.3c0-0.3,0.2-0.6,0.5-0.6h4.1
		c0.3,0,0.5,0.3,0.5,0.6V74"/>
	<path fill="none" stroke="currentColor" stroke-width="2" stroke-linecap="round" d="M-332.6,74h7.8"/>
</g>
</svg>
