<?xml version="1.0" encoding="utf-8"?>
<svg version="1.1" id="icon" xmlns="http://www.w3.org/2000/svg" xmlns:xlink="http://www.w3.org/1999/xlink" x="0px" y="0px"
	 viewBox="0 0 20 20" enable-background="new 0 0 20 20" xml:space="preserve">
<g>
	<path fill="none" stroke="currentColor" stroke-width="2" stroke-linecap="round" d="M5,10.6l-1.8,3.2"/>
	<path fill="none" stroke="currentColor" stroke-width="2" stroke-linecap="round" d="M15.2,10.6l1.7,3.1"/>
	<path fill="none" stroke="currentColor" stroke-width="2" stroke-linecap="round" stroke-linejoin="round" d="M5.2,6c0-2.7,2.2-5,5-5
		s5,2.2,5,5"/>
	<path fill="none" stroke="currentColor" stroke-width="2" stroke-linecap="round" stroke-linejoin="round" d="M2.1,6H18
		c0,0-1.2,3.1-8.1,3.1C3.2,9.1,2.1,6,2.1,6z"/>
	<path fill="none" stroke="currentColor" stroke-width="2" stroke-linecap="round" stroke-linejoin="round" d="M10,19L10,19L10,19L10,19
		L10,19L10,19"/>
	<path fill="none" stroke="currentColor" stroke-width="2" stroke-linecap="round" stroke-linejoin="round" d="M8.3,13.3
		c0-0.9,0.7-1.7,1.7-1.7s1.7,0.7,1.7,1.7c0,0.7-0.4,1.4-1.2,1.6C10.2,15,10,15.3,10,15.6v0.8"/>
</g>
</svg>
