<svg viewBox="0 0 242 152" xmlns="http://www.w3.org/2000/svg"><path d="M86 113.965v16a3 3 0 01-3 3h-5a3 3 0 01-3-3v-16m22 0v10a3 3 0 01-3 3h-5a3 3 0 01-3-3v-10m22 0v5a3 3 0 01-3 3h-5a3 3 0 01-3-3v-5m22 0v10a3 3 0 01-3 3h-5a3 3 0 01-3-3v-10m22 0v15a3 3 0 01-3 3h-5a3 3 0 01-3-3v-15m22 0v10a3 3 0 01-3 3h-5a3 3 0 01-3-3v-10m22 0v5a3 3 0 01-3 3h-5a3 3 0 01-3-3v-5m22 0v10a3 3 0 01-3 3h-5a3 3 0 01-3-3v-10" stroke="var(--icon-color-secondary-900, #212225)" stroke-width="2" stroke-linecap="round" fill="none"/><path d="M153.17 54.965H176c5.523 0 10 4.477 10 10v39a5 5 0 01-5 5H56a5 5 0 01-5-5v-39c0-5.523 4.477-10 10-10h22.98" stroke="var(--icon-color-secondary-300, #DBDEE5)" stroke-width="2" fill="none"/><path d="M55 72.965h126" stroke="var(--icon-color-secondary-300, #DBDEE5)" stroke-width="2" stroke-linecap="round" fill="none"/><path fill-rule="evenodd" clip-rule="evenodd" d="M76.376 68.696c-4.01 0-2.931-6.731-1.09-6.731h8.716v6.73h-7.626zm76.671-.202v-5.752h8.718c1.842 0 2.921 5.752-1.09 5.752h-7.628z" fill="var(--icon-color-secondary-900, #212225)"/><path d="M153.149 61.965h7.351a3.5 3.5 0 110 7h-84a3.5 3.5 0 010-7h7.364" stroke="var(--icon-color-secondary-900, #212225)" stroke-width="2" fill="none"/><circle cx="170" cy="90.965" r="5" fill="#007DFF" stroke="var(--icon-color-secondary-900, #212225)" stroke-width="2"/><circle cx="150" cy="90.965" r="5" stroke="var(--icon-color-secondary-300, #DBDEE5)" stroke-width="2" fill="none"/><circle cx="130" cy="90.965" r="5" stroke="var(--icon-color-secondary-300, #DBDEE5)" stroke-width="2" fill="none"/><rect x="64" y="85.965" width="51" height="10" rx="3" stroke="var(--icon-color-secondary-300, #DBDEE5)" stroke-width="2" fill="none"/><path fill-rule="evenodd" clip-rule="evenodd" d="M180 151.965v-12h-7v-2.001h7v-10.999h2v10.999h16v2.001h-16v12h-2zm-120 0v-12H44v-2.001h16v-10.999h2v10.999h7v2.001h-7v12h-2zm160-32.001v-20h-10v-2h10v-2.999h2v3h5v2h-5v19.999h-2zm-200 0v-20h-5v-2h5v-2.999h2v3h10v2H22v19.999h-2zm200-48v-12h-10v-2h10v-38h-38v12.001h-2v-12h-3v-2h3v-11h2v11h38v-11h2v11h10v2h-10v38h20v2h-20v12h-2zm-200 0v-12H0v-2h20v-38H10v-2h10v-11h2v11h38v-11h2v11h3v2h-3v12.001h-2v-12H22v38h10v2H22v12h-2z" fill="var(--icon-color-secondary-300, #DBDEE5)"/><path d="M143 19.965l.707-.707-.293-.293H143v1zm11 11h1v-.414l-.293-.293-.707.707zm-70 36v-43h-2v43h2zm0-43a3 3 0 013-3v-2a5 5 0 00-5 5h2zm3-4v1h32v-2H87.001l-.001 1zm32 1c1.838 0 3.345-.476 4.408-1.39 1.078-.929 1.592-2.219 1.592-3.61h-2c0 .88-.312 1.59-.897 2.094-.6.517-1.593.906-3.103.906v2zm19.046 0H143v-2h-4.954v2zm4.247-.293l11 11 1.414-1.414-11-11-1.414 1.414zM153 30.965v38h2v-38h-2z" fill="var(--icon-color-secondary-900, #212225)"/><path d="M125.126 49.185v-.028c-.061-4.273-3.715-7.696-7.855-7.696-4.312 0-7.909 3.414-7.856 7.71-.053 4.338 3.533 7.788 7.856 7.788 4.15 0 7.795-3.46 7.855-7.774z" stroke="var(--icon-color-secondary-900, #212225)" stroke-width="2" fill="none"/><path d="M117.931 23.505c-.245.156-.483.311-.714.468-3.736 2.536-5.748 5.453-5.773 13.787v1.07h11.233v-1.07c0-4.62 1.925-6.84 5.906-9.19 5.063-2.95 8.412-6.736 8.412-12.976C136.995 6.117 129.111 1 118.247 1 108.332 1 100.158 5.882 100 16.848h12.13c.079-3.63 2.874-5.822 6.012-5.822 3.111 0 5.858 1.834 5.858 4.94" stroke="var(--icon-color-secondary-900, #212225)" stroke-width="2" stroke-linecap="round" fill="none"/><path d="M142 19.89v10.075c0 1.244.3 2 2 2h9" stroke="var(--icon-color-secondary-900, #212225)" stroke-width="2" fill="none"/></svg>