<svg width="208" height="105" fill="none" xmlns="http://www.w3.org/2000/svg"><path d="M133.015 69.063l11.586-11.586a6.048 6.048 0 000-8.553L109.32 13.642a6.049 6.049 0 00-8.554 0L65.484 48.924a6.048 6.048 0 000 8.553l35.282 35.282a6.049 6.049 0 008.554 0l12.355-12.356m6.804-6.804l-2.683 2.684M91 42.93h27.5" stroke="#DE5846" stroke-width="2" stroke-linecap="round" stroke-linejoin="round"/><path d="M107.697 39.001h-5.893a1.965 1.965 0 00-1.964 1.964v1.965h9.821v-1.965a1.966 1.966 0 00-1.964-1.964z" stroke="#DE5846" stroke-width="2" stroke-linecap="round" stroke-linejoin="round"/><path d="M113.739 64.7a1.968 1.968 0 01-1.958 1.801H97.718A1.964 1.964 0 0195.76 64.7l-1.815-21.77h21.608l-1.814 21.77z" fill="#FFF5F2" stroke="#DE5846" stroke-width="2" stroke-linecap="round" stroke-linejoin="round"/><path d="M101.805 59.625v-9.821m5.89 9.821v-9.821" stroke="#DE5846" stroke-width="2" stroke-linecap="round" stroke-linejoin="round"/><path d="M91.057 16.936l7.571-7.57a9.072 9.072 0 0112.83 0l37.42 37.42a9.072 9.072 0 010 12.83l-37.42 37.42a9.072 9.072 0 01-12.83 0l-37.42-37.42a9.072 9.072 0 010-12.83L74.803 33.19m13.23-13.23l-9.828 9.828" stroke="#DBDEE5" stroke-width="2" stroke-linecap="round" stroke-linejoin="round"/><path d="M30.544 16.947h2v-7h7v-2h-7v-7h-2v7h-7v2h7v7zm43 88h2v-7h7v-2h-7v-7h-2v7h-7v2h7v7zm-66.001-.002h2v-7h7v-2h-7v-7h-2v7h-7v2h7v7zm22 0h2v-7h7v-2h-7v-7h-2v7h-7v2h7v7zm0-22h2v-7h7v-2h-7v-7h-2v7h-7v2h7v7zm22.5 0h2v-7h7v-2h-7v-7h-2v7h-7v2h7v7zm0-66h2v-7h7v-2h-7v-7h-2v7h-7v2h7v7zm0 22h2v-7h7v-2h-7v-7h-2v7h-7v2h7v7zm21.5-22h2v-7h7v-2h-7v-7h-2v7h-7v2h7v7zm103.881-.003h-2v-7h-7v-2h7v-7h2v7h7v2h-7v7zm-43.001 88.001h-2v-7h-7v-2h7v-7h2v7h7v2h-7v7zm65.999 0h-2v-7h-7v-2h7v-7h2v7h7v2h-7v7zm-22 0h-2v-7h-7v-2h7v-7h2v7h7v2h-7v7zm0-22h-2v-7h-7v-2h7v-7h2v7h7v2h-7v7zm-22.5 0h-2v-7h-7v-2h7v-7h2v7h7v2h-7v7zm0-66.001h-2v-7h-7v-2h7v-7h2v7h7v2h-7v7zm0 22h-2v-7h-7v-2h7v-7h2v7h7v2h-7v7zm-21.5-22h-2v-7h-7v-2h7v-7h2v7h7v2h-7v7z" fill="#DBDEE5"/></svg>