<svg width="302" height="112" xmlns="http://www.w3.org/2000/svg"><path fill-rule="evenodd" clip-rule="evenodd" d="M258.496 111.498v-14h-37.999v14h-2.001v-14h-21V95.5h21v-11h2.001v11h37.999v-38h-36v-2h36v-38h-37.999v10h-2.001v-10h-31v-2h31V.5h2.001v15h37.999V.5h2v15h41.001v2h-41.001v38h21v2h-21v38h11v2h-11v13.999h-2zm-180 0v-14h-38v14h-2v-14h-8V95.5h8v-37h-18v-2h18v-39h-38v-2h38V.5h2v15h38V.5h2v15h30v2h-30v10h-2v-10h-38v39h35v2h-35v37h38v-11h2v11h20v2h-20v13.999h-2zm207-10v-4h-4V95.5h4v-4h2v4h4.001v2h-4.001v3.999h-2zm-207-23v-4h-4v-2h4V68.5h2v4h4v2h-4v4h-2zm-74-16v-4h-4v-2h4v-4h2v4h4v2h-4v4h-2zm214-15v-4h-4V41.5h4v-4h2.001v4h3.999v2h-3.999v4h-2.001z" fill="#DBDEE5"/><g clip-path="url(#a)" fill="none"><path d="M120.209 83.842a1 1 0 000-2v2zm58.471-40.859a1 1 0 000-2v2zm21.485-2a1 1 0 000 2v-2zm-7.895 40.86a1 1 0 000 2v-2zm-72.061 0H97.791v2h22.419v-2zm-22.419 0a4.837 4.837 0 01-4.837-4.838h-2a6.837 6.837 0 006.837 6.837v-2zm-4.837-4.838V47.82h-2v29.185h2zm0-29.185a4.837 4.837 0 014.837-4.837v-2a6.837 6.837 0 00-6.837 6.837h2zm4.837-5.837v1h80.89v-2H97.791v1zm102.375 1h3.274v-2h-3.274v2zm3.274 0a4.837 4.837 0 014.837 4.837h2a6.837 6.837 0 00-6.837-6.837v2zm4.837 4.837v29.185h2V47.82h-2zm0 29.185a4.837 4.837 0 01-4.837 4.837v2a6.837 6.837 0 006.837-6.837h-2zm-4.837 5.837v-1H192.27v2h11.169v-1z" fill="#DBDEE5"/><path d="M123.661 79.05c5.23 9.003 14.26 17.066 29.353 22.295a3.176 3.176 0 002.088 0c38.163-13.221 37.565-44.551 37.128-67.427-.047-2.458-.091-4.78-.091-7.027a3.187 3.187 0 00-3.189-3.186c-13.634 0-24.016-3.917-32.669-12.327a3.188 3.188 0 00-4.445 0c-8.652 8.41-19.032 12.327-32.666 12.327a3.187 3.187 0 00-3.188 3.186c0 2.247-.044 5.738-.091 8.196" stroke="#212225" stroke-width="2" stroke-linecap="round"/><path d="M133.506 80.374c4.006 4.736 10.191 9.116 19.096 12.218a2.459 2.459 0 001.62 0c29.611-10.315 29.147-34.759 28.808-52.606-.036-1.918-.071-3.73-.071-5.483a2.48 2.48 0 00-2.473-2.486c-10.58 0-18.635-3.056-25.349-9.617a2.464 2.464 0 00-3.449 0c-6.714 6.561-14.768 9.617-25.346 9.617a2.48 2.48 0 00-2.474 2.486c0 1.754-.035.915-.071 2.833" stroke="#007DFF" stroke-width="2" stroke-linecap="round"/><path d="M132.769 73.428c-2.772 0-5.019-2.232-5.019-4.987V55.614c0-2.755 2.247-4.988 5.019-4.988h8.604c2.771 0 5.018 2.233 5.018 4.988V68.44c0 2.755-2.247 4.987-5.018 4.987h-8.604zm24 0c-2.772 0-5.019-2.232-5.019-4.987V55.614c0-2.755 2.247-4.988 5.019-4.988h8.604c2.771 0 5.018 2.233 5.018 4.988V68.44c0 2.755-2.247 4.987-5.018 4.987h-8.604z" stroke="#DBDEE5" stroke-width="2"/><path d="M108.39 73.428c-2.772 0-5.019-2.232-5.019-4.987V55.614c0-2.755 2.247-4.988 5.019-4.988h8.604c2.771 0 5.018 2.233 5.018 4.988V68.44c0 2.755-2.247 4.987-5.018 4.987h-8.604z" fill="#E5F0F8" stroke="#007DFF" stroke-width="2"/><path d="M116.935 58.286l-5.369 7.611a.754.754 0 01-.63.354.864.864 0 01-.64-.31l-1.362-1.814" stroke="#007DFF" stroke-width="2" stroke-linecap="round" stroke-linejoin="round"/></g><defs><clipPath id="a"><path fill="#fff" transform="translate(90.32 9.167)" d="M0 0h120v94H0z"/></clipPath></defs></svg>