<svg xmlns="http://www.w3.org/2000/svg" fill="none" viewBox="0 0 302 112"><path fill="#DBDEE5" fill-rule="evenodd" d="M258.5 111.498v-14h-38v14h-2v-14h-21v-2h21v-11h2v11h38v-38h-36v-2h36v-38h-38v10h-2v-10h-31v-2h31v-15h2v15h38v-15h2v15h41v2h-41v38h21v2h-21v38h11v2h-11v14h-2zm-180 0v-14h-38v14h-2v-14h-8v-2h8v-37h-18v-2h18v-39H.5v-2h38v-15h2v15h38v-15h2v15h30v2h-30v10h-2v-10h-38v39h35v2h-35v37h38v-11h2v11h20v2h-20v14h-2zm207-10v-4h-4v-2h4v-4h2v4h4.001v2H287.5v4h-2zm-207-23v-4h-4v-2h4v-4h2v4h4v2h-4v4h-2zm-74-16v-4h-4v-2h4v-4h2v4h4v2h-4v4h-2zm214-15v-4h-4v-2h4v-4h2v4h4v2h-4v4h-2z" clip-rule="evenodd"/><path fill="#DBDEE5" d="M120.213 83.841a1 1 0 000-2v2zm58.471-40.859a1 1 0 000-2v2zm21.485-2a1 1 0 000 2v-2zm-7.895 40.86a1 1 0 000 2v-2zm-72.061 0H97.795v2h22.418v-2zm-22.419 0a4.837 4.837 0 01-4.837-4.838h-2a6.837 6.837 0 006.837 6.837v-2zm-4.837-4.838V47.82h-2v29.185h2zm0-29.185a4.837 4.837 0 014.837-4.837v-2a6.837 6.837 0 00-6.837 6.837h2zm4.837-5.837v1h80.891v-2H97.794v1zm102.375 1h3.274v-2h-3.274v2zm3.274 0a4.837 4.837 0 014.837 4.837h2a6.837 6.837 0 00-6.837-6.837v2zm4.837 4.837v29.185h2V47.82h-2zm0 29.185a4.837 4.837 0 01-4.837 4.837v2a6.837 6.837 0 006.837-6.837h-2zm-4.837 5.837v-1h-11.169v2h11.169v-1z"/><path stroke="#212225" stroke-linecap="round" stroke-width="2" d="M123.665 79.048c5.23 9.004 14.26 17.067 29.353 22.296a3.175 3.175 0 002.088 0c38.163-13.221 37.565-44.551 37.128-67.427-.047-2.458-.092-4.78-.092-7.027a3.187 3.187 0 00-3.188-3.186c-13.635 0-24.016-3.917-32.669-12.327a3.188 3.188 0 00-4.445 0c-8.652 8.41-19.032 12.327-32.666 12.327a3.187 3.187 0 00-3.188 3.186c0 2.247-.044 5.738-.091 8.196"/><path stroke="#007DFF" stroke-linecap="round" stroke-width="2" d="M133.51 80.372c4.006 4.736 10.191 9.117 19.096 12.219a2.459 2.459 0 001.62 0c29.611-10.316 29.147-34.76 28.808-52.607-.036-1.918-.071-3.73-.071-5.482a2.48 2.48 0 00-2.473-2.486c-10.58 0-18.635-3.056-25.349-9.618a2.464 2.464 0 00-3.449 0c-6.714 6.562-14.768 9.618-25.346 9.618a2.48 2.48 0 00-2.474 2.486c0 1.753-.035.915-.071 2.833"/><path stroke="#DBDEE5" stroke-width="2" d="M132.773 73.428c-2.772 0-5.019-2.233-5.019-4.988V55.613c0-2.755 2.247-4.988 5.019-4.988h8.603c2.772 0 5.019 2.233 5.019 4.988V68.44c0 2.755-2.247 4.988-5.019 4.988h-8.603zm24 0c-2.772 0-5.019-2.233-5.019-4.988V55.613c0-2.755 2.247-4.988 5.019-4.988h8.603c2.772 0 5.019 2.233 5.019 4.988V68.44c0 2.755-2.247 4.988-5.019 4.988h-8.603z"/><path fill="#E5F0F8" stroke="#007DFF" stroke-width="2" d="M108.394 73.428c-2.772 0-5.019-2.233-5.019-4.988V55.613c0-2.755 2.247-4.988 5.019-4.988h8.604c2.771 0 5.018 2.233 5.018 4.988V68.44c0 2.755-2.247 4.988-5.018 4.988h-8.604z"/><path stroke="#007DFF" stroke-linecap="round" stroke-linejoin="round" stroke-width="2" d="M116.939 58.285l-5.369 7.612a.754.754 0 01-.63.353.864.864 0 01-.64-.31l-1.362-1.814"/></svg>