<svg viewBox="0 0 208 105" xmlns="http://www.w3.org/2000/svg">
    <path
        d="m133.032 68.12 11.587-11.586a6.05 6.05 0 0 0 0-8.554l-35.282-35.282a6.049 6.049 0 0 0-8.554 0L65.501 47.98a6.048 6.048 0 0 0 0 8.554l35.282 35.282a6.049 6.049 0 0 0 8.554 0l12.355-12.356m6.804-6.804-2.683 2.683"
        stroke="#007DFF" stroke-width="2" stroke-linecap="round" stroke-linejoin="round" fill="none" />
    <circle cx="105.015" cy="52.059" r="14" stroke="#007DFF" stroke-width="2" fill="none" />
    <path d="m114.5 43.36-5 5m-13 13 5-5" stroke="#007DFF" stroke-width="2" stroke-linecap="round" fill="none" />
    <path
        d="m91.074 15.994 7.571-7.571a9.072 9.072 0 0 1 12.83 0l37.42 37.42a9.072 9.072 0 0 1 0 12.83l-37.42 37.42a9.072 9.072 0 0 1-12.83 0l-37.42-37.42a9.072 9.072 0 0 1 0-12.83L74.82 32.248m13.23-13.23-9.828 9.828"
        stroke="#3C4249" stroke-width="2" stroke-linecap="round" stroke-linejoin="round" fill="none" />
    <path
        d="M30.561 16.004h2v-7h7v-2h-7v-7h-2v7h-7v2h7v7Zm43 88h2v-7h7v-2h-7v-7h-2v7h-7v2h7v7Zm-66.001-.002h2v-7h7v-2h-7v-7h-2v7h-7v2h7v7Zm22 0h2v-7h7v-2h-7v-7h-2v7h-7v2h7v7Zm0-22h2v-7h7v-2h-7v-7h-2v7h-7v2h7v7Zm22.5 0h2v-7h7v-2h-7v-7h-2v7h-7v2h7v7Zm0-66h2v-7h7v-2h-7v-7h-2v7h-7v2h7v7Zm0 22h2v-7h7v-2h-7v-7h-2v7h-7v2h7v7Zm21.5-22h2v-7h7v-2h-7v-7h-2v7h-7v2h7v7ZM177.443 16h-2V9h-7V7h7V0h2v7h7v2h-7v7Zm-43.001 88h-2v-7h-7v-2h7v-7h2v7h7v2h-7v7Zm65.998 0h-2v-7h-7v-2h7v-7h2v7h7v2h-7v7Zm-22 0h-2v-7h-7v-2h7v-7h2v7h7v2h-7v7Zm0-22h-2v-7h-7v-2h7v-7h2v7h7v2h-7v7Zm-22.5 0h-2v-7h-7v-2h7v-7h2v7h7v2h-7v7Zm.001-66h-2V9h-7V7h7V0h2v7h7v2h-7v7Zm-.001 22h-2v-7h-7v-2h7v-7h2v7h7v2h-7v7Zm-21.5-22h-2V9h-7V7h7V0h2v7h7v2h-7v7Z"
        fill="#3C4249" />
</svg>
