<svg width="208" height="105" xmlns="http://www.w3.org/2000/svg"><path d="m133.032 68.12 11.587-11.586a6.05 6.05 0 0 0 0-8.554l-35.282-35.282a6.049 6.049 0 0 0-8.554 0L65.501 47.98a6.048 6.048 0 0 0 0 8.554l35.282 35.282a6.049 6.049 0 0 0 8.554 0l12.355-12.356m6.804-6.804-2.683 2.683" stroke="#007DFF" stroke-width="2" stroke-linecap="round" stroke-linejoin="round" fill="none"/><circle cx="105.015" cy="52.059" r="14" fill="none" stroke="#007DFF" stroke-width="2"/><path d="m114.5 43.36-5 5M96.5 61.36l5-5" stroke="#007DFF" stroke-width="2" stroke-linecap="round" fill="none"/><path d="m91.074 15.994 7.571-7.571a9.072 9.072 0 0 1 12.83 0l37.42 37.42a9.072 9.072 0 0 1 0 12.83l-37.42 37.42a9.072 9.072 0 0 1-12.83 0l-37.42-37.42a9.072 9.072 0 0 1 0-12.83L74.82 32.248m13.23-13.23-9.828 9.828" stroke="#DBDEE5" stroke-width="2" stroke-linecap="round" stroke-linejoin="round" fill="none"/><path d="M30.561 16.004h2v-7h7v-2h-7v-7h-2v7h-7v2h7v7ZM73.561 104.004h2v-7h7v-2h-7v-7h-2v7h-7v2h7v7ZM7.56 104.002h2v-7h7v-2h-7v-7h-2v7h-7v2h7v7ZM29.56 104.002h2v-7h7v-2h-7v-7h-2v7h-7v2h7v7ZM29.56 82.002h2v-7h7v-2h-7v-7h-2v7h-7v2h7v7ZM52.06 82.002h2v-7h7v-2h-7v-7h-2v7h-7v2h7v7ZM52.06 16.002h2v-7h7v-2h-7v-7h-2v7h-7v2h7v7ZM52.06 38.002h2v-7h7v-2h-7v-7h-2v7h-7v2h7v7ZM73.56 16.002h2v-7h7v-2h-7v-7h-2v7h-7v2h7v7ZM177.443 16h-2V9h-7V7h7V0h2v7h7v2h-7v7ZM134.442 104h-2v-7h-7v-2h7v-7h2v7h7v2h-7v7ZM200.44 104h-2v-7h-7v-2h7v-7h2v7h7v2h-7v7ZM178.44 104h-2v-7h-7v-2h7v-7h2v7h7v2h-7v7ZM178.44 82h-2v-7h-7v-2h7v-7h2v7h7v2h-7v7ZM155.94 82h-2v-7h-7v-2h7v-7h2v7h7v2h-7v7ZM155.941 16h-2V9h-7V7h7V0h2v7h7v2h-7v7ZM155.94 38h-2v-7h-7v-2h7v-7h2v7h7v2h-7v7ZM134.44 16h-2V9h-7V7h7V0h2v7h7v2h-7v7Z" fill="#DBDEE5"/></svg>