<?xml version="1.0" encoding="utf-8"?>
<svg version="1.1" id="cardano" xmlns="http://www.w3.org/2000/svg" xmlns:xlink="http://www.w3.org/1999/xlink" x="0px" y="0px"
	 viewBox="0 0 32 32" enable-background="new 0 0 32 32" xml:space="preserve">
<path d="M15.6,1.3c0.5-0.2,1,0,1.2,0.5c0.1,0.2,0.1,0.5,0,0.7C16.6,3,16,3.2,15.6,3c-0.1,0-0.2-0.1-0.3-0.2c-0.4-0.4-0.3-0.9,0-1.3
	C15.4,1.4,15.5,1.4,15.6,1.3 M8.1,2.1C8.5,2,8.9,2.2,9,2.6c0,0.1,0,0.2,0,0.2c0,0.4-0.3,0.7-0.7,0.7c-0.1,0-0.2,0-0.3-0.1
	c-0.3-0.2-0.5-0.6-0.3-1C7.8,2.3,7.9,2.2,8.1,2.1 M23.5,3.4C23.1,3.3,22.9,3,23,2.6c0-0.2,0.2-0.4,0.4-0.5c0.5-0.2,0.9,0.2,1,0.7
	C24.3,3.2,23.9,3.5,23.5,3.4L23.5,3.4 M9.8,5.3C10.3,5,11,5.2,11.3,5.7s0.1,1.2-0.4,1.5C10.5,7.4,10,7.4,9.7,7.1
	C9.2,6.7,9.1,6,9.5,5.6C9.6,5.5,9.7,5.4,9.8,5.3 M20.6,5.8c0.3-0.5,0.9-0.8,1.5-0.5c0.2,0.1,0.4,0.3,0.5,0.5c0.3,0.6,0,1.3-0.6,1.5
	c-0.1,0-0.1,0-0.2,0.1c-0.6,0.1-1.2-0.3-1.3-0.9C20.5,6.2,20.5,6,20.6,5.8 M14.7,7.3C14.7,6.6,15.3,6,16,6c0.5,0,0.9,0.3,1.1,0.7
	c0.3,0.6,0.1,1.4-0.6,1.7l0,0c-0.3,0.1-0.6,0.1-1,0.1C15,8.3,14.7,7.8,14.7,7.3 M3.6,8.3c0.4-0.2,1-0.1,1.2,0.4s0.1,1-0.4,1.2
	c-0.3,0.2-0.7,0.1-1-0.1C3,9.5,3,8.9,3.3,8.5C3.4,8.4,3.5,8.4,3.6,8.3 M27.5,8.3c0.4-0.3,1-0.2,1.2,0.3c0.3,0.4,0.2,1-0.3,1.2
	c-0.3,0.2-0.6,0.2-0.9,0.1c-0.4-0.2-0.6-0.8-0.4-1.2C27.3,8.5,27.4,8.4,27.5,8.3 M17.8,9.6c1.1-0.4,2.4,0.2,2.7,1.4
	c0.4,1.1-0.2,2.4-1.4,2.7c-1.1,0.4-2.3-0.2-2.7-1.3C16.1,11.2,16.7,10,17.8,9.6L17.8,9.6 M12.5,9.7c1.1-0.5,2.4,0,2.9,1
	c0.5,1.1,0,2.4-1,2.9c-1.1,0.5-2.3,0.1-2.9-1C11,11.5,11.4,10.2,12.5,9.7L12.5,9.7 M7.2,11.5c0.1-0.6,0.7-1.1,1.3-1.1
	c0.7,0.1,1.2,0.6,1.3,1.3c0,0.7-0.6,1.3-1.3,1.3s-1.3-0.5-1.3-1.2C7.2,11.7,7.2,11.6,7.2,11.5 M22.9,10.5c0.6-0.3,1.4-0.1,1.7,0.5
	s0.1,1.4-0.5,1.7c-0.4,0.2-0.9,0.2-1.3-0.1c-0.6-0.4-0.8-1.2-0.4-1.8C22.6,10.8,22.7,10.6,22.9,10.5 M10.4,13.9
	c1.2-0.3,2.3,0.4,2.6,1.5c0.3,1.2-0.4,2.3-1.5,2.6c-1,0.3-2.1-0.2-2.5-1.2c-0.5-1.1,0-2.4,1.1-2.9C10.1,14,10.3,14,10.4,13.9
	 M20.4,13.9c1.1-0.4,2.4,0.3,2.7,1.4c0.4,1.1-0.3,2.4-1.4,2.7c-1,0.3-2.1-0.1-2.5-1c-0.6-1.1-0.2-2.4,0.9-2.9
	C20.2,14,20.3,14,20.4,13.9 M4.4,15c0.6-0.2,1.2,0.1,1.4,0.7c0.1,0.2,0.1,0.4,0,0.7C5.6,17,5,17.3,4.4,17.1c-0.1,0-0.3-0.1-0.4-0.2
	c-0.4-0.4-0.5-1.1-0.1-1.5C4.1,15.2,4.2,15.1,4.4,15 M26.2,16.2c0-0.7,0.5-1.2,1.1-1.3c0.6,0.1,1,0.5,1,1.1c0,0.6-0.5,1.1-1.1,1.1
	c-0.2,0-0.3,0-0.5-0.1C26.5,16.8,26.3,16.5,26.2,16.2 M0.4,15.4c0.4-0.2,0.8,0,0.9,0.4c0.2,0.4,0,0.8-0.4,0.9
	c-0.3,0.1-0.6,0-0.8-0.2c-0.2-0.3-0.2-0.8,0.2-1C0.4,15.4,0.4,15.4,0.4,15.4z M30.9,15.4c0.3-0.2,0.8-0.1,1,0.2c0,0,0,0.1,0.1,0.1
	c0.1,0.3,0,0.8-0.4,0.9c-0.1,0-0.2,0.1-0.3,0.1C30.6,16.7,30.3,15.7,30.9,15.4 M13,18.3c1.2-0.3,2.3,0.5,2.6,1.6
	c0.3,1.2-0.5,2.3-1.6,2.6c-1.2,0.3-2.3-0.5-2.6-1.6c0-0.2-0.1-0.3-0.1-0.5C11.3,19.4,12,18.5,13,18.3 M18,18.3
	c1.2-0.3,2.3,0.4,2.6,1.6c0.3,1.2-0.4,2.3-1.6,2.6c-1.2,0.3-2.3-0.4-2.6-1.6c-0.1-0.3-0.1-0.7,0-1C16.6,19.1,17.2,18.5,18,18.3
	 M8.3,19.1C9,19,9.7,19.5,9.8,20.2s-0.4,1.3-1.1,1.4c-0.4,0.1-0.8-0.1-1.1-0.4c-0.5-0.5-0.4-1.4,0.1-1.8C7.9,19.2,8.1,19.1,8.3,19.1
	 M23.1,19.1c0.7-0.2,1.4,0.1,1.6,0.8c0.2,0.7-0.1,1.4-0.8,1.6c-0.4,0.1-0.8,0.1-1.1-0.1c-0.6-0.4-0.8-1.2-0.4-1.8
	C22.6,19.4,22.8,19.2,23.1,19.1 M27.2,23.3c-0.2-0.4,0-1,0.5-1.2C27.8,22,28,22,28.1,22c0.3,0,0.6,0.2,0.8,0.5c0,0.3,0.1,0.8-0.2,1
	c-0.3,0.4-0.9,0.4-1.3,0.1C27.3,23.5,27.3,23.4,27.2,23.3 M3.6,22.2c0.4-0.2,1-0.1,1.2,0.3c0.1,0.2,0.1,0.4,0.1,0.6
	c-0.1,0.5-0.5,0.8-1,0.8c-0.5-0.1-0.8-0.5-0.8-1C3.2,22.6,3.3,22.3,3.6,22.2 M15.5,23.5c0.7-0.2,1.4,0.1,1.6,0.7
	c0.2,0.7-0.1,1.4-0.7,1.6c-0.4,0.2-0.8,0.2-1.2,0c-0.6-0.4-0.7-1.2-0.3-1.8C15,23.8,15.2,23.6,15.5,23.5 M10,24.8
	c0.5-0.2,1.2,0,1.4,0.6c0.1,0.1,0.1,0.3,0.1,0.5c0,0.6-0.5,1.1-1.1,1.1h-0.1c-0.6,0-1-0.5-1-1.1C9.3,25.3,9.6,24.9,10,24.8
	 M21.1,24.8c0.5-0.3,1.2-0.1,1.5,0.4s0.1,1.2-0.4,1.5c-0.4,0.2-0.8,0.2-1.2-0.1c-0.5-0.4-0.6-1.1-0.2-1.5C20.9,25,21,24.9,21.1,24.8
	 M23.1,29.6c-0.2-0.4-0.1-0.8,0.3-1c0.1,0,0.2-0.1,0.2-0.1c0.4,0.1,0.8,0.4,0.7,0.8c-0.1,0.4-0.4,0.7-0.8,0.6
	C23.3,29.9,23.2,29.8,23.1,29.6 M7.6,29.2c0.1-0.4,0.4-0.7,0.9-0.6c0.4,0.1,0.6,0.4,0.6,0.8c0,0.2-0.1,0.4-0.3,0.5
	c-0.4,0.2-0.8,0.1-1-0.3C7.7,29.4,7.6,29.3,7.6,29.2 M15.1,29.6c0.1-0.5,0.6-0.7,1.1-0.6c0.1,0,0.1,0,0.2,0.1
	c0.3,0.1,0.4,0.5,0.5,0.8c0,0.2-0.1,0.3-0.1,0.5c-0.2,0.3-0.4,0.4-0.8,0.4c-0.5,0-0.9-0.3-0.9-0.8C15,29.8,15.1,29.7,15.1,29.6"/>
</svg>
