<?xml version="1.0" encoding="utf-8"?>
<svg version="1.1" id="avalanche" xmlns="http://www.w3.org/2000/svg" xmlns:xlink="http://www.w3.org/1999/xlink" x="0px" y="0px"
	 viewBox="0 0 32 32" enable-background="new 0 0 32 32" xml:space="preserve">
<path d="M21.4,29.8c-0.9,0-1.7-0.8-1.7-1.7c0-0.3,0.1-0.6,0.2-0.9l2.1-3.6l2.3-4c0.5-0.8,1.5-1.1,2.4-0.6c0.3,0.2,0.5,0.4,0.6,0.6
	l2.1,3.7l2.3,3.9c0.5,0.8,0.2,1.9-0.6,2.3c-0.3,0.1-0.6,0.2-0.9,0.2h-8.8V29.8z M1.7,29.8C0.8,29.8,0,29,0,28.1
	c0-0.3,0.1-0.6,0.2-0.9l14-24.1c0.5-0.8,1.5-1.1,2.4-0.6c0.3,0.2,0.5,0.4,0.6,0.6l4,6.9c0.7,1.1,0.6,2.6-0.2,3.6
	c-0.8,1.4-7,12.2-7.9,13.8c-1,1.7-1.7,2.3-3.2,2.3L1.7,29.8z"/>
</svg>
