<?xml version="1.0" encoding="utf-8"?>
<svg version="1.1" id="binance" xmlns="http://www.w3.org/2000/svg" xmlns:xlink="http://www.w3.org/1999/xlink" x="0px" y="0px"
	 viewBox="0 0 32 32" enable-background="new 0 0 32 32" xml:space="preserve">
<path d="M7.2,16l-3.6,3.6L0,16l3.6-3.6L7.2,16z M16,7.2l6.2,6.2l3.6-3.6L16,0L6.2,9.8l3.6,3.6L16,7.2z M28.4,12.4L24.8,16l3.6,3.6
	L32,16L28.4,12.4z M16,24.8l-6.2-6.2l-3.6,3.6L16,32l9.8-9.8l-3.6-3.6L16,24.8z M16,19.6l3.6-3.6L16,12.4L12.4,16L16,19.6z"/>
</svg>
