<?xml version="1.0" encoding="utf-8"?>
<svg version="1.1" id="bitcoin" xmlns="http://www.w3.org/2000/svg" xmlns:xlink="http://www.w3.org/1999/xlink" x="0px" y="0px"
	 viewBox="0 0 32 32" enable-background="new 0 0 32 32" xml:space="preserve">
<path d="M15,32c-0.7,0-1.3-0.6-1.3-1.3v-3.4H9.1l0,0H7.4c-0.7,0-1.3-0.6-1.3-1.3v-0.5C6,24.6,6.6,24,7.4,24h1.7V8H7.4
	C6.6,8,6,7.4,6,6.7V6.1c0-0.7,0.6-1.3,1.3-1.3H9l0,0h4.6V1.4C13.7,0.6,14.3,0,15,0h0.4c0.7,0,1.3,0.6,1.3,1.3v3.5h1.1
	c2-0.1,3.9,0.4,5.4,1.6c1.2,1,1.9,2.5,1.8,4.1c0.1,1.2-0.3,2.3-1.1,3.2c-0.8,0.8-1.7,1.4-2.8,1.6v0.2c0.8,0,1.6,0.3,2.3,0.7
	c0.7,0.5,1.4,1.1,1.8,1.9C25.8,19,26,20,26,21c0,1.1-0.3,2.2-0.9,3.2c-0.6,1-1.5,1.7-2.5,2.2c-1.3,0.6-2.7,0.8-4.1,0.8h-1.7v3.5
	c0,0.7-0.6,1.3-1.3,1.3H15z M13.7,23.3h3.8c1,0.1,2-0.2,2.8-0.8c0.6-0.5,0.9-1.2,0.9-2c0-0.9-0.3-1.7-1-2.3
	c-0.7-0.6-1.7-0.9-2.6-0.9h-3.9L13.7,23.3z M13.7,14.2h3.4c0.9,0,1.7-0.2,2.4-0.8c0.6-0.5,1-1.3,0.9-2.1c0-0.7-0.3-1.5-0.8-2
	c-0.7-0.5-1.5-0.8-2.4-0.7h-3.5L13.7,14.2z"/>
</svg>
