<?xml version="1.0" encoding="utf-8"?>
<!-- Generator: Adobe Illustrator 22.0.1, SVG Export Plug-In . SVG Version: 6.00 Build 0)  -->
<svg version="1.1" id="Layer_1" xmlns="http://www.w3.org/2000/svg" xmlns:xlink="http://www.w3.org/1999/xlink" x="0px" y="0px"
	 viewBox="0 0 32 32" enable-background="new 0 0 32 32" xml:space="preserve">
<g>
	<path fill="#212225" d="M26,6.3c-0.1-0.1-0.2-0.3-0.2-0.4c0-0.2,0.1-0.3,0.2-0.4c0.3-0.2,0.7-0.2,1,0c0.1,0.1,0.2,0.3,0.2,0.4
		S27.1,6.2,27,6.3c-0.1,0.1-0.3,0.2-0.5,0.2C26.3,6.5,26.2,6.5,26,6.3z"/>
	<path fill="#212225" d="M24.4,8.1c-0.1-0.1-0.2-0.3-0.2-0.4s0.1-0.3,0.2-0.4C24.6,7,25,7,25.3,7.2c0.1,0.1,0.2,0.3,0.2,0.4
		c0,0.2-0.1,0.3-0.2,0.4c-0.1,0.1-0.3,0.2-0.4,0.2C24.6,8.3,24.5,8.2,24.4,8.1L24.4,8.1z"/>
	<path fill="#212225" d="M22.6,9.8c-0.1-0.1-0.2-0.3-0.2-0.4s0.1-0.3,0.2-0.4c0.2-0.2,0.6-0.2,0.9,0c0.1,0.1,0.2,0.3,0.2,0.4
		s-0.1,0.3-0.2,0.4C23.3,10,23.2,10,23,10C22.8,10,22.7,9.9,22.6,9.8L22.6,9.8z"/>
	<path fill="#212225" d="M20.8,11.6c-0.1-0.1-0.2-0.3-0.2-0.4c0-0.2,0.1-0.3,0.2-0.4c0.3-0.2,0.7-0.2,1,0c0.1,0.1,0.2,0.3,0.2,0.4
		c0,0.2-0.1,0.3-0.2,0.4c-0.1,0.1-0.3,0.2-0.5,0.2C21.1,11.8,21,11.7,20.8,11.6L20.8,11.6z"/>
	<path fill="#212225" d="M19.2,13.3C19,13.2,19,13,19,12.9s0.1-0.3,0.2-0.4c0.2-0.2,0.6-0.2,0.9,0c0.1,0.1,0.2,0.3,0.2,0.4
		c0,0.2-0.1,0.3-0.2,0.4c-0.1,0.1-0.3,0.2-0.4,0.2C19.4,13.5,19.3,13.5,19.2,13.3z"/>
	<path fill="#212225" d="M17.2,14.6c0-0.2,0.1-0.3,0.2-0.4c0.2-0.2,0.6-0.2,0.9,0c0.1,0.1,0.2,0.3,0.2,0.4c0,0.2-0.1,0.3-0.2,0.4
		c-0.1,0.1-0.3,0.2-0.4,0.2s-0.3-0.1-0.4-0.2C17.2,14.9,17.2,14.8,17.2,14.6z"/>
	<path fill="#212225" d="M13.9,18.4c-0.1-0.1-0.2-0.3-0.2-0.4c0-0.2,0.1-0.3,0.2-0.4c0.2-0.2,0.6-0.2,0.9,0c0.1,0.1,0.2,0.3,0.2,0.4
		c0,0.2-0.1,0.3-0.2,0.4c-0.1,0.1-0.3,0.2-0.4,0.2C14.2,18.7,14.1,18.6,13.9,18.4z"/>
	<path fill="#212225" d="M12.1,20.2c-0.1-0.1-0.2-0.3-0.2-0.4c0-0.2,0.1-0.3,0.2-0.4c0.3-0.2,0.7-0.2,1,0c0.1,0.1,0.2,0.3,0.2,0.4
		c0,0.2-0.1,0.3-0.2,0.4s-0.3,0.2-0.5,0.2C12.4,20.4,12.3,20.3,12.1,20.2z"/>
	<path fill="#212225" d="M10.4,21.9c-0.1-0.1-0.2-0.3-0.2-0.4c0-0.2,0.1-0.3,0.2-0.4c0.2-0.2,0.6-0.2,0.9,0c0.1,0.1,0.2,0.3,0.2,0.4
		c0,0.2-0.1,0.3-0.2,0.4c-0.1,0.1-0.3,0.2-0.4,0.2C10.7,22.1,10.6,22,10.4,21.9L10.4,21.9z"/>
	<path fill="#212225" d="M8.7,23.7c-0.1-0.1-0.2-0.3-0.2-0.4c0-0.2,0.1-0.3,0.2-0.4c0.2-0.2,0.6-0.2,0.9,0c0.1,0.1,0.2,0.3,0.2,0.4
		c0,0.2-0.1,0.3-0.2,0.4c-0.1,0.1-0.3,0.2-0.4,0.2C9,23.9,8.8,23.8,8.7,23.7z"/>
	<path fill="#212225" d="M6.9,25.4c-0.1-0.1-0.2-0.3-0.2-0.4c0-0.2,0.1-0.3,0.2-0.4c0.3-0.2,0.7-0.2,0.9,0C8,24.7,8,24.8,8,25
		c0,0.2-0.1,0.3-0.2,0.4c-0.1,0.1-0.3,0.2-0.5,0.2C7.2,25.6,7,25.6,6.9,25.4L6.9,25.4z"/>
	<path fill="#212225" d="M5.2,27.2C5.1,27,5,26.9,5,26.7c0-0.2,0.1-0.3,0.2-0.4c0.2-0.2,0.6-0.2,0.9,0c0.1,0.1,0.2,0.3,0.2,0.4
		c0,0.2-0.1,0.3-0.2,0.4c-0.1,0.1-0.3,0.2-0.4,0.2C5.5,27.4,5.4,27.3,5.2,27.2L5.2,27.2z"/>
	<path fill="#212225" d="M6.8,7C6.9,6.8,7,6.7,7,6.5c0-0.2-0.1-0.3-0.2-0.4c-0.2-0.2-0.6-0.2-0.9,0C5.8,6.2,5.7,6.3,5.7,6.5
		c0,0.2,0.1,0.3,0.2,0.4C6,7.1,6.2,7.1,6.4,7.1C6.5,7.2,6.7,7.1,6.8,7L6.8,7z"/>
	<path fill="#212225" d="M8.5,8.7c0.1-0.1,0.2-0.3,0.2-0.4c0-0.2-0.1-0.3-0.2-0.4c-0.3-0.2-0.7-0.2-1,0C7.4,8,7.4,8.1,7.4,8.3
		c0,0.2,0.1,0.3,0.2,0.4C7.7,8.9,7.9,8.9,8,8.9C8.2,8.9,8.4,8.9,8.5,8.7z"/>
	<path fill="#212225" d="M10.3,10.5c0.1-0.1,0.2-0.3,0.2-0.4s-0.1-0.3-0.2-0.4c-0.2-0.2-0.6-0.2-0.9,0C9.3,9.7,9.2,9.8,9.2,10
		s0.1,0.3,0.2,0.4c0.1,0.1,0.3,0.2,0.4,0.2C10,10.6,10.2,10.6,10.3,10.5z"/>
	<path fill="#212225" d="M12,12.2c0.1-0.1,0.2-0.3,0.2-0.4c0-0.2-0.1-0.3-0.2-0.4c-0.2-0.2-0.6-0.2-0.9,0C11,11.4,11,11.6,11,11.8
		c0,0.2,0.1,0.3,0.2,0.4c0.1,0.1,0.3,0.2,0.4,0.2C11.7,12.4,11.9,12.3,12,12.2z"/>
	<path fill="#212225" d="M13.7,13.9c0.1-0.1,0.2-0.3,0.2-0.4s-0.1-0.3-0.2-0.4c-0.2-0.2-0.7-0.2-0.9,0c-0.1,0.1-0.2,0.3-0.2,0.4
		c0,0.2,0.1,0.3,0.2,0.4c0.1,0.1,0.3,0.2,0.5,0.2C13.5,14.1,13.6,14.1,13.7,13.9z"/>
	<path fill="#212225" d="M15.7,15.2c0-0.2-0.1-0.3-0.2-0.4c-0.2-0.2-0.6-0.2-0.9,0c-0.1,0.1-0.2,0.3-0.2,0.4c0,0.2,0.1,0.3,0.2,0.4
		c0.1,0.1,0.3,0.2,0.4,0.2c0.2,0,0.3-0.1,0.4-0.2C15.6,15.6,15.7,15.4,15.7,15.2z"/>
	<path fill="#212225" d="M17.2,17.4c0.1-0.1,0.2-0.3,0.2-0.4c0-0.2-0.1-0.3-0.2-0.4c-0.2-0.2-0.6-0.2-0.9,0
		c-0.1,0.1-0.2,0.3-0.2,0.4c0,0.2,0.1,0.3,0.2,0.4c0.1,0.1,0.3,0.2,0.4,0.2C17,17.6,17.1,17.5,17.2,17.4L17.2,17.4z"/>
	<path fill="#212225" d="M19,19.1c0.1-0.1,0.2-0.3,0.2-0.4c0-0.2-0.1-0.3-0.2-0.4c-0.3-0.2-0.7-0.2-0.9,0c-0.1,0.1-0.2,0.3-0.2,0.4
		c0,0.2,0.1,0.3,0.2,0.4c0.1,0.1,0.3,0.2,0.5,0.2C18.7,19.3,18.9,19.2,19,19.1z"/>
	<path fill="#212225" d="M20.7,20.8c0.1-0.1,0.2-0.3,0.2-0.4c0-0.2-0.1-0.3-0.2-0.4c-0.2-0.2-0.6-0.2-0.9,0
		c-0.1,0.1-0.2,0.3-0.2,0.4c0,0.2,0.1,0.3,0.2,0.4c0.1,0.1,0.3,0.2,0.4,0.2C20.4,21,20.6,20.9,20.7,20.8L20.7,20.8z"/>
	<path fill="#212225" d="M22.5,22.6c0.1-0.1,0.2-0.3,0.2-0.4c0-0.2-0.1-0.3-0.2-0.4c-0.2-0.2-0.6-0.2-0.9,0
		c-0.1,0.1-0.2,0.3-0.2,0.4c0,0.2,0.1,0.3,0.2,0.4c0.1,0.1,0.3,0.2,0.4,0.2C22.2,22.7,22.3,22.7,22.5,22.6z"/>
	<path fill="#212225" d="M24.1,24.3c0.1-0.1,0.2-0.3,0.2-0.4c0-0.2-0.1-0.3-0.2-0.4c-0.2-0.2-0.6-0.2-0.9,0
		c-0.1,0.1-0.2,0.3-0.2,0.4c0,0.2,0.1,0.3,0.2,0.4c0.1,0.1,0.3,0.2,0.4,0.2C23.8,24.5,24,24.4,24.1,24.3z"/>
	<path fill="#212225" d="M26,26c0.1-0.1,0.2-0.3,0.2-0.4c0-0.2-0.1-0.3-0.2-0.4c-0.2-0.2-0.6-0.2-0.9,0c-0.1,0.1-0.2,0.3-0.2,0.4
		c0,0.2,0.1,0.3,0.2,0.4c0.1,0.1,0.3,0.2,0.4,0.2C25.7,26.2,25.9,26.2,26,26L26,26z"/>
	<path fill="#212225" d="M10.6,7.4C12.2,6.3,14,5.7,16,5.7c1.9,0,3.7,0.6,5.4,1.7l3.4-3.7c-2.7-2.2-5.6-3.3-8.8-3.3
		c-3.2,0-6.2,1.1-8.8,3.3L10.6,7.4z"/>
	<path fill="#212225" d="M7.2,21.5c-1.2-1.7-1.8-3.4-1.8-5.3c0-1.9,0.6-3.7,1.8-5.3L3.5,7.4c-2.2,2.6-3.3,5.5-3.3,8.7
		c0,3.2,1.1,6.1,3.3,8.8L7.2,21.5z"/>
	<path fill="#212225" d="M21.3,24.9c-1.6,1.2-3.4,1.8-5.3,1.8c-2,0-3.8-0.6-5.4-1.8l-3.4,3.7C9.8,30.9,12.8,32,16,32
		c3.2,0,6.1-1.2,8.7-3.3L21.3,24.9z"/>
	<path fill="#212225" d="M24.7,10.8c1.2,1.7,1.8,3.5,1.8,5.4c0,1.9-0.6,3.6-1.8,5.2l3.7,3.4c2.2-2.6,3.3-5.5,3.3-8.7
		c0-3.2-1.1-6.2-3.3-8.8L24.7,10.8z"/>
	<path fill="#212225" d="M29.4,26.7c1.4,0,2.6,1.2,2.6,2.6c0,1.4-1.2,2.6-2.6,2.6c-1.4,0-2.6-1.2-2.6-2.6
		C26.8,27.9,27.9,26.7,29.4,26.7z"/>
	<path fill="#212225" d="M2.6,26.7c1.4,0,2.6,1.2,2.6,2.6C5.2,30.8,4,32,2.6,32C1.2,32,0,30.8,0,29.3C0,27.9,1.2,26.7,2.6,26.7z"/>
	<path fill="#212225" d="M29.4,0C30.8,0,32,1.2,32,2.7c0,1.5-1.2,2.6-2.6,2.6c-1.4,0-2.6-1.2-2.6-2.6C26.8,1.2,28,0,29.4,0z"/>
	<path fill="#212225" d="M2.6,0C4,0,5.2,1.2,5.2,2.6c0,1.4-1.2,2.6-2.6,2.6C1.2,5.2,0,4.1,0,2.6C0,1.2,1.2,0,2.6,0z"/>
</g>
</svg>
