<?xml version="1.0" encoding="utf-8"?>
<svg version="1.1" id="komodo" xmlns="http://www.w3.org/2000/svg" xmlns:xlink="http://www.w3.org/1999/xlink" x="0px" y="0px"
	 viewBox="0 0 32 32" enable-background="new 0 0 32 32" xml:space="preserve">
<g transform="translate(0 0.003)">
	<path d="M0,16c0,8.8,7.2,16,16,16s16-7.1,16-16v-0.1c0-1.2-0.1-2.5-0.4-3.6c-0.2-0.9-1.2-1.5-2.1-1.2c-0.9,0.2-1.4,1.1-1.2,2l0,0
		c1.6,6.7-2.5,13.5-9.3,15.2C12.2,29.8,5.4,25.7,3.8,19S6.3,5.4,13,3.8c1.9-0.5,3.9-0.5,5.9,0C19.8,4,20.7,3.4,21,2.5
		c0.2-0.9-0.3-1.8-1.2-2l0,0C11.1-1.6,2.5,3.7,0.5,12.3l0,0C0.2,13.5,0,14.7,0,16z"/>
	<path d="M24.1,4.2C24.1,4.3,24.1,4.3,24.1,4.2c-0.4,0.5-0.7,1-0.7,1.6v0.3c0,0.1,0,0.1,0,0.2c-0.2,2.5-2.5,4.4-5,4.1l0,0
		c-0.2,0-0.4,0-0.6-0.1c-0.1,0-0.2-0.1-0.3-0.1C17,10.1,16.5,10,16,10c-1.5,0-2.9,0.6-4,1.6c-0.1,0.1-0.1,0.1-0.2,0.2
		c-2.4,2.2-2.6,6-0.4,8.5s6,2.6,8.5,0.4c0.1-0.1,0.2-0.2,0.4-0.4c0.2-0.2,0.5-0.5,0.7-0.8c1-1.4,1.3-3.2,0.9-4.8
		c0-0.1-0.1-0.2-0.1-0.3c0,0,0,0,0-0.1c-0.6-2.5,1-5,3.4-5.5l0,0c0.2-0.1,0.4-0.1,0.6-0.1h0.1c0.1,0,0.2,0,0.3,0l0,0
		c0.6-0.1,1.2-0.3,1.6-0.7C27.9,7.8,28,7.6,28,7.5c0.8-1.1,0.6-2.7-0.6-3.6l0,0C26.4,3.2,25,3.3,24.1,4.2z"/>
</g>
</svg>
