<?xml version="1.0" encoding="utf-8"?>
<!-- Generator: Adobe Illustrator 22.0.1, SVG Export Plug-In . SVG Version: 6.00 Build 0)  -->
<svg version="1.1" id="Layer_1" xmlns="http://www.w3.org/2000/svg" xmlns:xlink="http://www.w3.org/1999/xlink" x="0px" y="0px"
	 viewBox="0 0 32 32" enable-background="new 0 0 32 32" xml:space="preserve">
<g>
	<path fill="#212225" d="M16,32c10.3,0,14.5-8.9,14.8-9.9c0.3-0.9-0.3-0.8-1-0.6c-1.4,0.3-2.9,0.4-4.4,0.4
		C11.8,21.9,5.1,8.5,6.1,4.3c0.2-1.1-1,0-1,0C1.8,7.2,0,11.4,0.1,15.8C0.1,23.4,5.8,32,16,32L16,32z"/>
	<path fill="#212225" d="M31.6,18.7c-1.2-0.8-2.4-1.8-3.5-2.8c-1-0.9-1.9-1.8-2.7-2.8c-0.8-1-1.4-2-1.8-3.2
		C18.8,8.2,15.4,7.1,12.9,6c-1-0.4-2-1-2.9-1.7c-0.6-0.4-0.9-1-1-1.7c0-0.2,0.1-0.5,0.3-0.6c0.3-0.3,0.6-0.6,1-0.9
		c0.7-0.4,1.4-0.6,2.1-0.8C13.6,0.1,14.7,0,15.9,0c0.9,0,1.9,0.1,2.8,0.2c1,0.2,1.9,0.4,2.8,0.7c0.9,0.3,1.8,0.7,2.7,1.2
		c0.9,0.5,1.7,1.1,2.5,1.7c1.6,1.4,2.9,3.1,3.8,5c1,2.2,1.5,4.7,1.5,7.1c0,0.7,0,1.3-0.2,2C31.7,18.3,31.7,18.5,31.6,18.7L31.6,18.7
		z M25.6,10.5c0.3,0.7,0.8,1.4,1.3,2c0.5,0.6,1,1.2,1.6,1.7c0.6,0.6,1.3,1.1,1.9,1.6L30,12.4l0,0C29.3,12.1,27,11.1,25.6,10.5
		L25.6,10.5z"/>
</g>
</svg>
