<?xml version="1.0" encoding="utf-8"?>
<!-- Generator: Adobe Illustrator 22.0.1, SVG Export Plug-In . SVG Version: 6.00 Build 0)  -->
<svg version="1.1" id="Layer_1" xmlns="http://www.w3.org/2000/svg" xmlns:xlink="http://www.w3.org/1999/xlink" x="0px" y="0px"
	 viewBox="0 0 32 32" enable-background="new 0 0 32 32" xml:space="preserve">
<g>
	<circle fill="#212225" cx="2.3" cy="20.6" r="2.3"/>
	<path fill="#212225" d="M29.7,9.1c-1.3,0-2.3,1-2.3,2.3c0,1.8-0.3,2.3-2.3,2.3h-0.2c-1.2,0.1-2.1,1.1-2.1,2.3v0
		c0,1.8-0.3,2.2-2.3,2.2c-0.1,0-0.2,0-0.2,0c-1.2,0.1-2.1,1.2-2.1,2.4c0.1,1.2,1.1,2.2,2.3,2.2c1.2,0,2.2-0.9,2.3-2.1v-0.2
		c0-1.6,0.5-2.3,2.3-2.3h0c1.2,0,2.2-1,2.3-2.2V16c0-1.7,0.5-2.3,2.3-2.3c1.3,0,2.3-1,2.3-2.3C32,10.1,31,9.1,29.7,9.1L29.7,9.1z
		 M16.2,13.7H16c-2,0-2.3-0.5-2.3-2.3c0-1.3-1-2.3-2.3-2.3c-1.3,0-2.3,1-2.3,2.3c0,1.8-0.3,2.3-2.3,2.3H6.6
		c-1.2,0.1-2.1,1.1-2.1,2.3c0,1.3,1,2.3,2.3,2.3c1.2,0,2.2-0.9,2.3-2.1l0-0.1c0-1.7,0.5-2.3,2.3-2.3c1.8,0,2.3,0.6,2.3,2.3
		c0,1.3,1,2.3,2.3,2.3c0.6,0,1.2-0.2,1.6-0.7c0.4-0.4,0.7-1,0.7-1.6C18.3,14.8,17.4,13.9,16.2,13.7L16.2,13.7z"/>
</g>
</svg>
