<?xml version="1.0" encoding="utf-8"?>
<svg version="1.1" id="polkadot" xmlns="http://www.w3.org/2000/svg" xmlns:xlink="http://www.w3.org/1999/xlink" x="0px" y="0px"
	 viewBox="0 0 32 32" enable-background="new 0 0 32 32" xml:space="preserve">
<path d="M16,0C9.3,0,3.9,5.5,3.9,12.2c0,1.3,0.2,2.7,0.6,3.9c0.3,0.9,1.2,1.4,2.1,1.1C7.5,16.9,8,16,7.7,15.1c0,0,0,0,0-0.1
	c-0.4-1-0.5-2.1-0.5-3.1c0.1-4.8,4.2-8.7,9-8.5c4.8,0.1,8.7,4.2,8.5,9c-0.1,4.5-3.7,8.2-8.2,8.5c0,0-1.7,0.1-2.5,0.2
	c-0.4,0.1-0.7,0.1-1,0.2c-0.1,0-0.1,0-0.2-0.1v-0.1l0.3-1.4l1.6-7.3c0.2-0.9-0.3-1.8-1.2-2.1c-0.9-0.2-1.8,0.3-2.1,1.2
	c0,0.1,0,0.1,0,0.2c0,0-3.8,17.7-3.8,17.8c-0.2,0.9,0.3,1.8,1.2,2.1c0.9,0.2,1.8-0.3,2.1-1.2c0-0.1,0-0.1,0-0.2
	c0-0.2,0.5-2.5,0.5-2.5c0.4-1.8,1.8-3.1,3.6-3.3c0.4-0.1,1.9-0.2,1.9-0.2c6.7-0.5,11.7-6.4,11.2-13C27.6,4.9,22.3,0,16,0z M16.9,28
	c-1.1-0.2-2.2,0.5-2.4,1.6s0.5,2.2,1.6,2.4c1.1,0.2,2.2-0.5,2.4-1.6l0,0C18.7,29.3,18,28.2,16.9,28L16.9,28z"/>
</svg>
