<svg xmlns="http://www.w3.org/2000/svg" viewBox="0 0 20 20"><path fill="currentColor" d="M15.1 6.7c-.4-.2-.8-.2-1.3 0L11 8.3 9 9.4 6.1 11c-.4.2-.8.2-1.3 0L2.6 9.7c-.4-.2-.6-.6-.6-1V6.2c0-.4.2-.8.6-1l2.3-1.3c.4-.2.8-.2 1.3 0l2.3 1.3c.2.1.5.5.5 1v1.6l2-1.1V5.1c0-.4-.2-.8-.6-1L6.1 1.7c-.4-.2-.8-.2-1.3 0L.6 4c-.4.2-.6.6-.6 1.1v4.8c0 .4.2.8.6 1l4.2 2.4c.4.2.8.2 1.3 0L9 11.6l2-1.1 2.9-1.6c.4-.2.8-.2 1.3 0l2.3 1.3c.4.2.6.6.6 1v2.5c0 .4-.2.8-.6 1L15.1 16c-.4.2-.8.2-1.3 0l-2.3-1.3c-.4-.2-.6-.6-.6-1v-1.6l-2 1.1v1.6c0 .4.2.8.6 1l4.2 2.4c.4.2.8.2 1.3 0l4.2-2.4c.4-.2.6-.6.6-1V10c0-.4-.2-.8-.6-1l-4.1-2.3z"/></svg>