<?xml version="1.0" encoding="utf-8"?>
<!-- Generator: Adobe Illustrator 26.0.1, SVG Export Plug-In . SVG Version: 6.00 Build 0)  -->
<svg version="1.1" xmlns="http://www.w3.org/2000/svg" xmlns:xlink="http://www.w3.org/1999/xlink" x="0px" y="0px"
	 viewBox="0 0 20 20" enable-background="new 0 0 20 20" xml:space="preserve">
<path fill="#212225" d="M15.1,6.7c-0.4-0.2-0.8-0.2-1.3,0L11,8.3L9,9.4L6.1,11c-0.4,0.2-0.8,0.2-1.3,0L2.6,9.7C2.2,9.5,2,9.1,2,8.7
	V6.2c0-0.4,0.2-0.8,0.6-1l2.3-1.3c0.4-0.2,0.8-0.2,1.3,0l2.3,1.3C8.7,5.3,9,5.7,9,6.2v1.6l2-1.1V5.1c0-0.4-0.2-0.8-0.6-1L6.1,1.7
	c-0.4-0.2-0.8-0.2-1.3,0L0.6,4C0.2,4.2,0,4.6,0,5.1v4.8c0,0.4,0.2,0.8,0.6,1l4.2,2.4c0.4,0.2,0.8,0.2,1.3,0L9,11.6l2-1.1l2.9-1.6
	c0.4-0.2,0.8-0.2,1.3,0l2.3,1.3c0.4,0.2,0.6,0.6,0.6,1v2.5c0,0.4-0.2,0.8-0.6,1L15.1,16c-0.4,0.2-0.8,0.2-1.3,0l-2.3-1.3
	c-0.4-0.2-0.6-0.6-0.6-1v-1.6l-2,1.1v1.6c0,0.4,0.2,0.8,0.6,1l4.2,2.4c0.4,0.2,0.8,0.2,1.3,0l4.2-2.4c0.4-0.2,0.6-0.6,0.6-1v-4.8
	c0-0.4-0.2-0.8-0.6-1L15.1,6.7z"/>
</svg>
