<?xml version="1.0" encoding="utf-8"?>
<!-- Generator: Adobe Illustrator 26.0.1, SVG Export Plug-In . SVG Version: 6.00 Build 0)  -->
<svg version="1.1" xmlns="http://www.w3.org/2000/svg" xmlns:xlink="http://www.w3.org/1999/xlink" x="0px" y="0px"
	 viewBox="0 0 20 20" enable-background="new 0 0 20 20" xml:space="preserve">
<path fill="#212225" d="M17.1,1.7H20l-6,6c-2.2,2.2-5.7,2.2-7.9,0l-6-6h2.9l4.6,4.5c0.7,0.7,1.6,1,2.5,1c0.9,0,1.8-0.4,2.5-1
	L17.1,1.7z"/>
<path fill="#212225" d="M2.9,18.3H0l6.1-6c2.2-2.2,5.7-2.2,7.9,0l6.1,6h-2.9l-4.6-4.6c-0.7-0.7-1.6-1-2.5-1c-0.9,0-1.8,0.4-2.5,1
	L2.9,18.3z"/>
</svg>
