<?xml version="1.0" encoding="utf-8"?>
<!-- Generator: Adobe Illustrator 22.0.1, SVG Export Plug-In . SVG Version: 6.00 Build 0)  -->
<svg version="1.1" id="Layer_1" xmlns="http://www.w3.org/2000/svg" xmlns:xlink="http://www.w3.org/1999/xlink" x="0px" y="0px"
	 viewBox="0 0 32 32" enable-background="new 0 0 32 32" xml:space="preserve">
<g>
	<path fill="#212225" d="M0.6,28.7c-0.6,0-0.8-0.7-0.3-1.3c0.5-0.5,4.2-4.2,4.5-4.5c0.3-0.4,0.9-0.7,1.4-0.6h25.1
		c0.6,0,1,0.6,0.3,1.3c-0.7,0.6-4.4,4.4-4.6,4.6c-0.3,0.4-0.8,0.5-1.3,0.5H0.6z M6.3,19.1c-0.5,0.1-1-0.1-1.3-0.5
		c-0.3-0.3-4-4-4.6-4.6c-0.7-0.6-0.3-1.3,0.3-1.3h25.1c0.6,0,1.1,0.2,1.4,0.6c0.3,0.3,3.9,3.9,4.5,4.5c0.5,0.5,0.3,1.3-0.3,1.3
		L6.3,19.1z M0.6,9.7c-0.6,0-0.8-0.7-0.3-1.3c0.5-0.5,4.2-4.2,4.5-4.5c0.3-0.4,0.9-0.7,1.4-0.6h25.1c0.6,0,1,0.6,0.3,1.3
		C31,5.2,27.3,8.9,27,9.2c-0.3,0.4-0.8,0.5-1.3,0.5L0.6,9.7z"/>
</g>
</svg>
