<?xml version="1.0" encoding="utf-8"?>
<svg version="1.1" id="steem" xmlns="http://www.w3.org/2000/svg" xmlns:xlink="http://www.w3.org/1999/xlink" x="0px" y="0px"
	 viewBox="0 0 32 32" enable-background="new 0 0 32 32" xml:space="preserve">
<path d="M16,0C7.2,0,0,7.2,0,16s7.2,16,16,16s16-7.2,16-16S24.8,0,16,0L16,0z M12,21.5l-0.2,0.2c-0.3,0.3-0.6,0.6-1,0.9l-0.4,0.3
	h-0.1h-0.1c-0.1,0-0.1-0.1-0.1-0.2l0.2-0.7c0.2-0.8,0.1-1.6-0.1-2.3l-0.1-0.3c-0.1-0.3-0.2-0.6-0.3-0.9l0,0L8,14.2l-0.2-0.6
	c-0.1-0.2-0.1-0.4-0.1-0.6v-0.3c-0.1-0.8,0.2-1.7,0.8-2.3l0.2-0.2c0.3-0.3,0.6-0.6,1-0.9L10,9.1c0,0,0.1,0,0.2,0
	c0.1,0,0.1,0.1,0.1,0.2L10.1,10c-0.2,0.8-0.1,1.6,0.1,2.3l0.1,0.3c0.1,0.3,0.2,0.6,0.3,0.9l1.8,4.4l0.2,0.6c0.1,0.2,0.1,0.4,0.1,0.6
	v0.3C12.9,20.1,12.6,20.9,12,21.5z M18.2,22.9L18,23.1c-0.4,0.4-0.8,0.8-1.3,1.1l-0.5,0.4h-0.1H16c-0.1,0-0.1-0.1-0.1-0.2l0.2-0.9
	c0.2-1,0.2-2-0.1-2.9v-0.3c-0.1-0.4-0.3-0.8-0.4-1.1l0,0l-2.3-5.5L13,13c-0.1-0.2-0.1-0.5-0.2-0.7v-0.4c-0.1-1,0.2-2.1,1-2.8L14,8.9
	c0.4-0.4,0.8-0.8,1.3-1.1l0.5-0.4c0.1,0,0.1,0,0.2,0c0,0,0,0,0,0.1l-0.2,0.9c-0.2,1-0.2,2,0.1,2.9l0.1,0.3c0.1,0.4,0.3,0.8,0.4,1.1
	l2.3,5.5L19,19c0.1,0.2,0.1,0.5,0.2,0.7v0.4C19.3,21.2,19,22.2,18.2,22.9L18.2,22.9z M23.6,21.5l-0.2,0.2c-0.3,0.3-0.6,0.6-1,0.9
	L22,22.9h-0.1h-0.1c-0.1,0-0.1-0.1-0.1-0.2l0.2-0.7c0.2-0.8,0.1-1.6-0.1-2.3l-0.1-0.3c-0.1-0.3-0.2-0.6-0.3-0.9l0,0l-1.8-4.3
	l-0.2-0.6c-0.1-0.2-0.1-0.4-0.1-0.6v-0.3c-0.1-0.8,0.2-1.7,0.8-2.3l0.2-0.2c0.3-0.3,0.6-0.6,1-0.9L21.7,9c0,0,0.1,0,0.2,0
	S22,9.1,22,9.2L21.6,10c-0.2,0.8-0.1,1.6,0.1,2.3l0.1,0.3c0.1,0.3,0.2,0.6,0.3,0.9l1.8,4.4l0.2,0.6c0.1,0.2,0.1,0.4,0.1,0.6v0.3
	C24.4,20.1,24.2,20.9,23.6,21.5L23.6,21.5z"/>
</svg>
