<?xml version="1.0" encoding="utf-8"?>
<svg version="1.1" id="stellar" xmlns="http://www.w3.org/2000/svg" xmlns:xlink="http://www.w3.org/1999/xlink" x="0px" y="0px"
	 viewBox="0 0 32 32" enable-background="new 0 0 32 32" xml:space="preserve">
<g transform="translate(0 -0.011)">
	<path d="M27.5,6l-3.8,2L5,17.5C4.2,11.4,8.5,5.8,14.6,5.1c2.4-0.3,4.8,0.2,6.8,1.3l2.2-1.1l0.3-0.2c-6-4.4-14.5-3-18.9,3
		c-1.7,2.3-2.6,5.1-2.6,7.9c0,0.3,0,0.7,0,1c0.1,1-0.5,1.9-1.3,2.4L0,20v2.8L3.4,21l0,0l1.1-0.6l1.1-0.6l0,0l19.6-10l2.2-1.1L32,6.5
		V3.7L27.5,6z"/>
	<path d="M32,9.3L6.8,22.1l-2.2,1.1L0,25.5v2.8L4.5,26l3.8-2L27,14.6c0.1,0.5,0.1,1,0.1,1.5c0,6.1-5,11.1-11.1,11.1
		c-1.9,0-3.8-0.5-5.4-1.4l-0.1,0.1l-2.4,1.2c6,4.4,14.5,3,18.9-3c1.7-2.3,2.6-5.1,2.6-7.9c0-0.3,0-0.7,0-1c-0.1-1,0.5-1.9,1.3-2.4
		L32,12V9.3z"/>
</g>
</svg>
