<?xml version="1.0" encoding="utf-8"?>
<svg version="1.1" id="exchanges" xmlns="http://www.w3.org/2000/svg" xmlns:xlink="http://www.w3.org/1999/xlink" x="0px" y="0px"
	 viewBox="0 0 20 20" enable-background="new 0 0 20 20" xml:space="preserve">
<g>
	<path fill="none" stroke="currentColor" stroke-width="2" stroke-linecap="round" stroke-linejoin="round" d="M5.3,5.53031
		c-2.4,0.2-4.3,2.2-4.3,4.6l0,0c0,2.5,2.1,4.6,4.7,4.6H11l-4.3,3.3c-0.3,0.2-0.6,0.2-0.8-0.1c-0.1-0.1-0.1-0.2-0.1-0.4v-2.8"/>
	<path fill="none" stroke="currentColor" stroke-width="2" stroke-linecap="round" stroke-linejoin="round" d="M14.3,5.33031v-2.9
		c0-0.3-0.3-0.6-0.6-0.6c-0.1,0-0.3,0-0.4,0.1l-4.3,3.4H14.3c2.6,0,4.7,2.1,4.7,4.6l0,0c0,2.4-1.9,4.3-4.3,4.6"/>
</g>
</svg>
