<?xml version="1.0" encoding="utf-8"?>
<svg version="1.1" id="governance" xmlns="http://www.w3.org/2000/svg" xmlns:xlink="http://www.w3.org/1999/xlink" x="0px" y="0px"
	 viewBox="0 0 20 20" enable-background="new 0 0 20 20" xml:space="preserve">
<g>
	<path fill="none" stroke="currentColor" stroke-width="2" stroke-linecap="round" stroke-linejoin="round" d="M1.4,6.2
		c0-0.2,0.2-0.4,0.4-0.4h16.4c0.2,0,0.4,0.2,0.4,0.4v1.6c0,0.2-0.2,0.4-0.4,0.4H1.8C1.6,8.2,1.4,8,1.4,7.8V6.2z"/>
	<path fill="none" stroke="currentColor" stroke-width="2" stroke-linecap="round" stroke-linejoin="round" d="M17.4,5.8
		C17.4,3.4,13.7,1,10,1S2.6,3.4,2.6,5.8"/>
	<path fill="none" stroke="currentColor" stroke-width="2" stroke-linecap="round" stroke-linejoin="round" d="M1.4,14.8
		c0-0.3,0.3-0.6,0.6-0.6h16c0.3,0,0.6,0.3,0.6,0.6v1.1c0,0.3-0.3,0.6-0.6,0.6H2c-0.3,0-0.6-0.3-0.6-0.6V14.8z"/>
	<path fill="none" stroke="currentColor" stroke-width="2" stroke-linecap="round" stroke-linejoin="round" d="M1.4,19h17.2"/>
	<path fill="none" stroke="currentColor" stroke-width="2" stroke-linecap="round" stroke-linejoin="round" d="M2.6,8.2v6"/>
	<path fill="none" stroke="currentColor" stroke-width="2" stroke-linecap="round" stroke-linejoin="round" d="M5.1,8.2v6"/>
	<path fill="none" stroke="currentColor" stroke-width="2" stroke-linecap="round" stroke-linejoin="round" d="M7.5,8.2v6"/>
	<path fill="none" stroke="currentColor" stroke-width="2" stroke-linecap="round" stroke-linejoin="round" d="M12.5,8.2v6"/>
	<path fill="none" stroke="currentColor" stroke-width="2" stroke-linecap="round" stroke-linejoin="round" d="M17.4,8.2v6"/>
	<path fill="none" stroke="currentColor" stroke-width="2" stroke-linecap="round" stroke-linejoin="round" d="M14.9,8.2v6"/>
</g>
</svg>
