<?xml version="1.0" encoding="utf-8"?>
<svg version="1.1" id="health-fitness" xmlns="http://www.w3.org/2000/svg" xmlns:xlink="http://www.w3.org/1999/xlink" x="0px" y="0px"
	 viewBox="0 0 20 20" enable-background="new 0 0 20 20" xml:space="preserve">
<g>
	<path fill="none" stroke="currentColor" stroke-width="2" stroke-linecap="round" stroke-linejoin="round" d="M9.5,10.8
		C9,10.2,8.3,9.9,7.6,9.9H5.2C2.9,9.9,1,11.7,1,14s1.9,4.1,4.2,4.1h12c1,0,1.8-0.8,1.8-1.8s-0.8-1.8-1.8-1.8h-3.6
		c-0.8,0-1.5-0.3-1.9-0.9L9.5,10.8z"/>
	<path fill="none" stroke="currentColor" stroke-width="2" stroke-linecap="round" stroke-linejoin="round" d="M5.7,13.4l1.8,2.3"/>
	<path fill="none" stroke="currentColor" stroke-width="2" stroke-linecap="round" stroke-linejoin="round" d="M11.2,12.8l1.4-5.2
		c0.2-0.7,0.8-1.1,1.5-1.1h2.4c1.3,0,2.4-1,2.4-2.3s-1.1-2.3-2.4-2.3h-4.8"/>
	<path fill="none" stroke="currentColor" stroke-width="2" stroke-linecap="round" stroke-linejoin="round" d="M2.2,6.4H7"/>
	<path fill="none" stroke="currentColor" stroke-width="2" stroke-linecap="round" stroke-linejoin="round" d="M4,6.4l2.4,3.5"/>
</g>
</svg>
