<?xml version="1.0" encoding="utf-8"?>
<svg version="1.1" id="identity" xmlns="http://www.w3.org/2000/svg" xmlns:xlink="http://www.w3.org/1999/xlink" x="0px" y="0px"
	 viewBox="0 0 20 20" enable-background="new 0 0 20 20" xml:space="preserve">
<g>
	<path fill="none" stroke="currentColor" stroke-width="2" stroke-linecap="round" stroke-linejoin="round" d="M19,15.4v2.4
		c0,0.7-0.5,1.2-1.2,1.2h-2.4"/>
	<path fill="none" stroke="currentColor" stroke-width="2" stroke-linecap="round" stroke-linejoin="round" d="M15.4,1h2.4
		C18.5,1,19,1.5,19,2.2v2.4"/>
	<path fill="none" stroke="currentColor" stroke-width="2" stroke-linecap="round" stroke-linejoin="round" d="M1,4.6V2.2
		C1,1.5,1.5,1,2.2,1h2.4"/>
	<path fill="none" stroke="currentColor" stroke-width="2" stroke-linecap="round" stroke-linejoin="round" d="M4.6,19H2.2
		C1.5,19,1,18.5,1,17.8v-2.4"/>
	<path fill="none" stroke="currentColor" stroke-width="2" stroke-linecap="round" stroke-linejoin="round" d="M10,10.9
		c1.8,0,3.3-1.5,3.3-3.3S11.8,4.3,10,4.3S6.7,5.8,6.7,7.6l0,0C6.7,9.4,8.2,10.9,10,10.9z"/>
	<path fill="none" stroke="currentColor" stroke-width="2" stroke-linecap="round" stroke-linejoin="round" d="M15.1,15.6
		c-1-2.8-4.1-4.2-6.9-3.3c-1.5,0.5-2.7,1.7-3.3,3.3"/>
</g>
</svg>
