<?xml version="1.0" encoding="utf-8"?>
<svg version="1.1" id="social-media" xmlns="http://www.w3.org/2000/svg" xmlns:xlink="http://www.w3.org/1999/xlink" x="0px" y="0px"
	 viewBox="0 0 20 20" enable-background="new 0 0 20 20" xml:space="preserve">
<g>
	<path fill="none" stroke="currentColor" stroke-width="1.5821" stroke-linecap="round" stroke-linejoin="round" d="M5.1,1.1h3.1"/>
	<path fill="none" stroke="currentColor" stroke-width="1.5821" stroke-linecap="round" stroke-linejoin="round" d="M13.5,18.7
		c0,0-1.3-1.5-1.3-2.4v-2l-2.8-3.1c-0.4-0.4-0.4-1,0-1.4s1.1-0.4,1.5,0l3,2.4l-1.7-1.4V6.5v0.6c1.2,0.9,4.4,2.6,4.4,4.2v4.1l2.4,3.5
		"/>
	<path fill="none" stroke="currentColor" stroke-width="1.5821" stroke-linecap="round" stroke-linejoin="round" d="M12.9,17.3"/>
	<path fill="none" stroke="currentColor" stroke-width="1.5821" stroke-linecap="round" stroke-linejoin="round" d="M12.7,16.8"/>
	<path fill="none" stroke="currentColor" stroke-width="1.5821" stroke-linecap="round" stroke-linejoin="round" d="M7.5,14.1H2.6v-1.7
		v3.1l0,0c0,1.1,1,2.1,2.2,2.1H10c1.1,0,2-0.8,2.2-1.8"/>
	<path fill="none" stroke="currentColor" stroke-width="1.5821" stroke-linecap="round" stroke-linejoin="round" d="M3.1,3.1l2.5,2.4"/>
	<path fill="none" stroke="currentColor" stroke-width="1.5821" stroke-linecap="round" stroke-linejoin="round" d="M10.2,3.9L8.4,5.1
		L10.2,3.9z"/>
	<path fill="none" stroke="currentColor" stroke-width="1.5821" stroke-linecap="round" stroke-linejoin="round" d="M3.4,8.4l2.1-1.3"/>
	
		<circle fill="none" stroke="currentColor" stroke-width="1.5821" stroke-linecap="round" stroke-linejoin="round" cx="2.2" cy="2.3" r="1.2"/>
	
		<circle fill="none" stroke="currentColor" stroke-width="1.5821" stroke-linecap="round" stroke-linejoin="round" cx="2.2" cy="8.8" r="1.2"/>
	
		<circle fill="none" stroke="currentColor" stroke-width="1.5821" stroke-linecap="round" stroke-linejoin="round" cx="7.2" cy="6.5" r="1.8"/>
	
		<circle fill="none" stroke="currentColor" stroke-width="1.5821" stroke-linecap="round" stroke-linejoin="round" cx="11.7" cy="2.9" r="1.8"/>
</g>
</svg>
