<?xml version="1.0" encoding="utf-8"?>
<svg version="1.1" id="storage" xmlns="http://www.w3.org/2000/svg" xmlns:xlink="http://www.w3.org/1999/xlink" x="0px" y="0px"
	 viewBox="0 0 20 20" enable-background="new 0 0 20 20" xml:space="preserve">
<g>
	<path fill="none" stroke="currentColor" stroke-width="2" stroke-linecap="round" stroke-linejoin="round" d="M17.8,7.7V5.4
		c0-0.6-0.5-1.2-1.2-1.2H6.9V3c0-0.6-0.5-1.2-1.2-1.2H2.2C1.5,1.8,1,2.3,1,3v13.9c0,0.7,0.6,1.3,1.4,1.3c0.6,0,1.1-0.4,1.3-1
		l1.9-8.7C5.7,8,6.2,7.7,6.8,7.7H17.8c0.7,0,1.2,0.5,1.2,1.2c0,0.1,0,0.2,0,0.3c-0.2,2.1-1.8,8.2-1.8,8.2c-0.1,0.5-0.5,0.8-1.1,0.8
		H2.4"/>
	<path fill="none" stroke="currentColor" stroke-width="2" stroke-linecap="round" stroke-linejoin="round" d="M13,11.2v7"/>
	<path fill="none" stroke="currentColor" stroke-width="2" stroke-linecap="round" stroke-linejoin="round" d="M11.8,13.5h2.4"/>
	<path fill="none" stroke="currentColor" stroke-width="2" stroke-linecap="round" stroke-linejoin="round" d="M11.8,15.9h2.4"/>
	<path fill="none" stroke="currentColor" stroke-width="2" stroke-linecap="round" stroke-linejoin="round" d="M14.2,10
		c0,0.6-0.5,1.2-1.2,1.2s-1.2-0.6-1.2-1.2V7.7h2.4V10z"/>
</g>
</svg>
