<?xml version="1.0" encoding="utf-8"?>
<svg version="1.1" id="icon" xmlns="http://www.w3.org/2000/svg" xmlns:xlink="http://www.w3.org/1999/xlink" x="0px" y="0px"
	 viewBox="0 0 20 20" enable-background="new 0 0 20 20" xml:space="preserve">
<g>
	<path fill="none" stroke="currentColor" stroke-width="2" stroke-linecap="round" stroke-linejoin="round" d="M1.2,19c0-5,3.9-9,8.8-9
		s8.8,4,8.8,9"/>
	<path fill="none" stroke="currentColor" stroke-width="2" stroke-linecap="round" stroke-linejoin="round" d="M7,19l-0.2-0.9
		c-0.1-0.5-0.6-0.9-1.1-0.9H1.4"/>
	<path fill="none" stroke="currentColor" stroke-width="2" stroke-linecap="round" stroke-linejoin="round" d="M17,13.6h-3.1
		c-0.5,0-1,0.4-1.1,0.9l-0.6,2.4c-0.2,0.6-0.2,1.5,0.9,1.5c0.1,0,0.2,0,0.3,0c0.3,0,1.2,0,1.2,0l0.1,0.6"/>
	<path fill="none" stroke="currentColor" stroke-width="2" stroke-linecap="round" stroke-linejoin="round" d="M10,3.4V1"/>
	<path fill="none" stroke="currentColor" stroke-width="2" stroke-linecap="round" stroke-linejoin="round" d="M6.5,3.4h7.6V7H6.5
		L4.7,5.2L6.5,3.4z"/>
	<path fill="none" stroke="currentColor" stroke-width="2" stroke-linecap="round" stroke-linejoin="round" d="M10,10V7"/>
</g>
</svg>
