<svg xmlns="http://www.w3.org/2000/svg" viewBox="0 0 32 32"><path d="M15 32c-.7 0-1.3-.6-1.3-1.3v-3.4H7.4c-.7 0-1.3-.6-1.3-1.3v-.5c-.1-.9.5-1.5 1.3-1.5h1.7V8H7.4C6.6 8 6 7.4 6 6.7v-.6c0-.7.6-1.3 1.3-1.3h6.3V1.4C13.7.6 14.3 0 15 0h.4c.7 0 1.3.6 1.3 1.3v3.5h1.1c2-.1 3.9.4 5.4 1.6 1.2 1 1.9 2.5 1.8 4.1.1 1.2-.3 2.3-1.1 3.2-.8.8-1.7 1.4-2.8 1.6v.2c.8 0 1.6.3 2.3.7.7.5 1.4 1.1 1.8 1.9.6.9.8 1.9.8 2.9 0 1.1-.3 2.2-.9 3.2-.6 1-1.5 1.7-2.5 2.2-1.3.6-2.7.8-4.1.8h-1.7v3.5c0 .7-.6 1.3-1.3 1.3H15zm-1.3-8.7h3.8c1 .1 2-.2 2.8-.8.6-.5.9-1.2.9-2 0-.9-.3-1.7-1-2.3-.7-.6-1.7-.9-2.6-.9h-3.9v6zm0-9.1h3.4c.9 0 1.7-.2 2.4-.8.6-.5 1-1.3.9-2.1 0-.7-.3-1.5-.8-2-.7-.5-1.5-.8-2.4-.7h-3.5v5.6z"/></svg>