<svg xmlns="http://www.w3.org/2000/svg" viewBox="0 0 32 32"><path d="M15.6 1.3c.5-.2 1 0 1.2.5.1.2.1.5 0 .7-.2.5-.8.7-1.2.5-.1 0-.2-.1-.3-.2-.4-.4-.3-.9 0-1.3.1-.1.2-.1.3-.2m-7.5.8c.4-.1.8.1.9.5v.2c0 .4-.3.7-.7.7-.1 0-.2 0-.3-.1-.3-.2-.5-.6-.3-1 .1-.1.2-.2.4-.3m15.4 1.3c-.4-.1-.6-.4-.5-.8 0-.2.2-.4.4-.5.5-.2.9.2 1 .7-.1.4-.5.7-.9.6M9.8 5.3c.5-.3 1.2-.1 1.5.4s.1 1.2-.4 1.5c-.4.2-.9.2-1.2-.1-.5-.4-.6-1.1-.2-1.5l.3-.3m10.8.5c.3-.5.9-.8 1.5-.5.2.1.4.3.5.5.3.6 0 1.3-.6 1.5-.1 0-.1 0-.2.1-.6.1-1.2-.3-1.3-.9 0-.3 0-.5.1-.7m-5.9 1.5c0-.7.6-1.3 1.3-1.3.5 0 .9.3 1.1.7.3.6.1 1.4-.6 1.7-.3.1-.6.1-1 .1-.5-.2-.8-.7-.8-1.2m-11.1 1c.4-.2 1-.1 1.2.4s.1 1-.4 1.2c-.3.2-.7.1-1-.1-.4-.3-.4-.9-.1-1.3.1-.1.2-.1.3-.2m23.9 0c.4-.3 1-.2 1.2.3.3.4.2 1-.3 1.2-.3.2-.6.2-.9.1-.4-.2-.6-.8-.4-1.2l.4-.4m-9.7 1.3c1.1-.4 2.4.2 2.7 1.4.4 1.1-.2 2.4-1.4 2.7-1.1.4-2.3-.2-2.7-1.3-.3-1.2.3-2.4 1.4-2.8m-5.3.1c1.1-.5 2.4 0 2.9 1 .5 1.1 0 2.4-1 2.9-1.1.5-2.3.1-2.9-1-.5-1.1-.1-2.4 1-2.9m-5.3 1.8c.1-.6.7-1.1 1.3-1.1.7.1 1.2.6 1.3 1.3 0 .7-.6 1.3-1.3 1.3s-1.3-.5-1.3-1.2v-.3m15.7-1c.6-.3 1.4-.1 1.7.5s.1 1.4-.5 1.7c-.4.2-.9.2-1.3-.1-.6-.4-.8-1.2-.4-1.8.2 0 .3-.2.5-.3m-12.5 3.4c1.2-.3 2.3.4 2.6 1.5.3 1.2-.4 2.3-1.5 2.6-1 .3-2.1-.2-2.5-1.2-.5-1.1 0-2.4 1.1-2.9 0 .1.2.1.3 0m10 0c1.1-.4 2.4.3 2.7 1.4.4 1.1-.3 2.4-1.4 2.7-1 .3-2.1-.1-2.5-1-.6-1.1-.2-2.4.9-2.9.1-.1.2-.1.3-.2M4.4 15c.6-.2 1.2.1 1.4.7.1.2.1.4 0 .7-.2.6-.8.9-1.4.7-.1 0-.3-.1-.4-.2-.4-.4-.5-1.1-.1-1.5.2-.2.3-.3.5-.4m21.8 1.2c0-.7.5-1.2 1.1-1.3.6.1 1 .5 1 1.1 0 .6-.5 1.1-1.1 1.1-.2 0-.3 0-.5-.1-.2-.2-.4-.5-.5-.8M.4 15.4c.4-.2.8 0 .9.4.2.4 0 .8-.4.9-.3.1-.6 0-.8-.2-.2-.3-.2-.8.2-1l.1-.1zm30.5 0c.3-.2.8-.1 1 .2 0 0 0 .1.1.1.1.3 0 .8-.4.9-.1 0-.2.1-.3.1-.7 0-1-1-.4-1.3M13 18.3c1.2-.3 2.3.5 2.6 1.6.3 1.2-.5 2.3-1.6 2.6-1.2.3-2.3-.5-2.6-1.6 0-.2-.1-.3-.1-.5 0-1 .7-1.9 1.7-2.1m5 0c1.2-.3 2.3.4 2.6 1.6.3 1.2-.4 2.3-1.6 2.6-1.2.3-2.3-.4-2.6-1.6-.1-.3-.1-.7 0-1 .2-.8.8-1.4 1.6-1.6m-9.7.8c.7-.1 1.4.4 1.5 1.1s-.4 1.3-1.1 1.4c-.4.1-.8-.1-1.1-.4-.5-.5-.4-1.4.1-1.8.2-.2.4-.3.6-.3m14.8 0c.7-.2 1.4.1 1.6.8.2.7-.1 1.4-.8 1.6-.4.1-.8.1-1.1-.1-.6-.4-.8-1.2-.4-1.8.2-.2.4-.4.7-.5m4.1 4.2c-.2-.4 0-1 .5-1.2.1-.1.3-.1.4-.1.3 0 .6.2.8.5 0 .3.1.8-.2 1-.3.4-.9.4-1.3.1-.1-.1-.1-.2-.2-.3M3.6 22.2c.4-.2 1-.1 1.2.3.1.2.1.4.1.6-.1.5-.5.8-1 .8-.5-.1-.8-.5-.8-1 .1-.3.2-.6.5-.7m11.9 1.3c.7-.2 1.4.1 1.6.7.2.7-.1 1.4-.7 1.6-.4.2-.8.2-1.2 0-.6-.4-.7-1.2-.3-1.8.1-.2.3-.4.6-.5M10 24.8c.5-.2 1.2 0 1.4.6.1.1.1.3.1.5 0 .6-.5 1.1-1.1 1.1h-.1c-.6 0-1-.5-1-1.1 0-.6.3-1 .7-1.1m11.1 0c.5-.3 1.2-.1 1.5.4s.1 1.2-.4 1.5c-.4.2-.8.2-1.2-.1-.5-.4-.6-1.1-.2-1.5l.3-.3m2 4.8c-.2-.4-.1-.8.3-1 .1 0 .2-.1.2-.1.4.1.8.4.7.8-.1.4-.4.7-.8.6-.2 0-.3-.1-.4-.3m-15.5-.4c.1-.4.4-.7.9-.6.4.1.6.4.6.8 0 .2-.1.4-.3.5-.4.2-.8.1-1-.3-.1-.2-.2-.3-.2-.4m7.5.4c.1-.5.6-.7 1.1-.6.1 0 .1 0 .2.1.3.1.4.5.5.8 0 .2-.1.3-.1.5-.2.3-.4.4-.8.4-.5 0-.9-.3-.9-.8-.1-.2 0-.3 0-.4"/></svg>