<svg xmlns="http://www.w3.org/2000/svg" viewBox="0 0 32 32"><g fill="currentColor"><path d="M26 6.3c-.1-.1-.2-.3-.2-.4 0-.2.1-.3.2-.4.3-.2.7-.2 1 0 .1.1.2.3.2.4s-.1.3-.2.4c-.1.1-.3.2-.5.2s-.3 0-.5-.2zM24.4 8.1c-.1-.1-.2-.3-.2-.4s.1-.3.2-.4c.2-.3.6-.3.9-.1.1.1.2.3.2.4 0 .2-.1.3-.2.4-.1.1-.3.2-.4.2-.3.1-.4 0-.5-.1zM22.6 9.8c-.1-.1-.2-.3-.2-.4s.1-.3.2-.4c.2-.2.6-.2.9 0 .1.1.2.3.2.4s-.1.3-.2.4c-.2.2-.3.2-.5.2s-.3-.1-.4-.2zM20.8 11.6c-.1-.1-.2-.3-.2-.4 0-.2.1-.3.2-.4.3-.2.7-.2 1 0 .1.1.2.3.2.4 0 .2-.1.3-.2.4-.1.1-.3.2-.5.2s-.3-.1-.5-.2zM19.2 13.3c-.2-.1-.2-.3-.2-.4s.1-.3.2-.4c.2-.2.6-.2.9 0 .1.1.2.3.2.4 0 .2-.1.3-.2.4-.1.1-.3.2-.4.2-.3 0-.4 0-.5-.2zM17.2 14.6c0-.2.1-.3.2-.4.2-.2.6-.2.9 0 .1.1.2.3.2.4 0 .2-.1.3-.2.4-.1.1-.3.2-.4.2s-.3-.1-.4-.2c-.3-.1-.3-.2-.3-.4zM13.9 18.4c-.1-.1-.2-.3-.2-.4 0-.2.1-.3.2-.4.2-.2.6-.2.9 0 .1.1.2.3.2.4 0 .2-.1.3-.2.4-.1.1-.3.2-.4.2-.2.1-.3 0-.5-.2zM12.1 20.2c-.1-.1-.2-.3-.2-.4 0-.2.1-.3.2-.4.3-.2.7-.2 1 0 .1.1.2.3.2.4 0 .2-.1.3-.2.4s-.3.2-.5.2-.3-.1-.5-.2zM10.4 21.9c-.1-.1-.2-.3-.2-.4 0-.2.1-.3.2-.4.2-.2.6-.2.9 0 .1.1.2.3.2.4 0 .2-.1.3-.2.4-.1.1-.3.2-.4.2-.2 0-.3-.1-.5-.2zM8.7 23.7c-.1-.1-.2-.3-.2-.4 0-.2.1-.3.2-.4.2-.2.6-.2.9 0 .1.1.2.3.2.4 0 .2-.1.3-.2.4-.1.1-.3.2-.4.2-.2 0-.4-.1-.5-.2zM6.9 25.4c-.1-.1-.2-.3-.2-.4 0-.2.1-.3.2-.4.3-.2.7-.2.9 0 .2.1.2.2.2.4s-.1.3-.2.4c-.1.1-.3.2-.5.2-.1 0-.3 0-.4-.2zM5.2 27.2c-.1-.2-.2-.3-.2-.5s.1-.3.2-.4c.2-.2.6-.2.9 0 .1.1.2.3.2.4 0 .2-.1.3-.2.4-.1.1-.3.2-.4.2-.2.1-.3 0-.5-.1zM6.8 7c.1-.2.2-.3.2-.5s-.1-.3-.2-.4c-.2-.2-.6-.2-.9 0-.1.1-.2.2-.2.4s.1.3.2.4c.1.2.3.2.5.2.1.1.3 0 .4-.1zM8.5 8.7c.1-.1.2-.3.2-.4 0-.2-.1-.3-.2-.4-.3-.2-.7-.2-1 0-.1.1-.1.2-.1.4s.1.3.2.4c.1.2.3.2.4.2.2 0 .4 0 .5-.2zM10.3 10.5c.1-.1.2-.3.2-.4s-.1-.3-.2-.4c-.2-.2-.6-.2-.9 0-.1 0-.2.1-.2.3s.1.3.2.4c.1.1.3.2.4.2.2 0 .4 0 .5-.1zM12 12.2c.1-.1.2-.3.2-.4 0-.2-.1-.3-.2-.4-.2-.2-.6-.2-.9 0-.1 0-.1.2-.1.4s.1.3.2.4c.1.1.3.2.4.2.1 0 .3-.1.4-.2zM13.7 13.9c.1-.1.2-.3.2-.4s-.1-.3-.2-.4c-.2-.2-.7-.2-.9 0-.1.1-.2.3-.2.4 0 .2.1.3.2.4.1.1.3.2.5.2s.3 0 .4-.2zM15.7 15.2c0-.2-.1-.3-.2-.4-.2-.2-.6-.2-.9 0-.1.1-.2.3-.2.4 0 .2.1.3.2.4.1.1.3.2.4.2.2 0 .3-.1.4-.2.2 0 .3-.2.3-.4zM17.2 17.4c.1-.1.2-.3.2-.4 0-.2-.1-.3-.2-.4-.2-.2-.6-.2-.9 0-.1.1-.2.3-.2.4 0 .2.1.3.2.4.1.1.3.2.4.2.3 0 .4-.1.5-.2zM19 19.1c.1-.1.2-.3.2-.4 0-.2-.1-.3-.2-.4-.3-.2-.7-.2-.9 0-.1.1-.2.3-.2.4 0 .2.1.3.2.4.1.1.3.2.5.2.1 0 .3-.1.4-.2zM20.7 20.8c.1-.1.2-.3.2-.4 0-.2-.1-.3-.2-.4-.2-.2-.6-.2-.9 0-.1.1-.2.3-.2.4 0 .2.1.3.2.4.1.1.3.2.4.2.2 0 .4-.1.5-.2zM22.5 22.6c.1-.1.2-.3.2-.4 0-.2-.1-.3-.2-.4-.2-.2-.6-.2-.9 0-.1.1-.2.3-.2.4 0 .2.1.3.2.4.1.1.3.2.4.2.2-.1.3-.1.5-.2zM24.1 24.3c.1-.1.2-.3.2-.4 0-.2-.1-.3-.2-.4-.2-.2-.6-.2-.9 0-.1.1-.2.3-.2.4 0 .2.1.3.2.4.1.1.3.2.4.2.2 0 .4-.1.5-.2zM26 26c.1-.1.2-.3.2-.4 0-.2-.1-.3-.2-.4-.2-.2-.6-.2-.9 0-.1.1-.2.3-.2.4 0 .2.1.3.2.4.1.1.3.2.4.2.2 0 .4 0 .5-.2zM10.6 7.4C12.2 6.3 14 5.7 16 5.7c1.9 0 3.7.6 5.4 1.7l3.4-3.7C22.1 1.5 19.2.4 16 .4c-3.2 0-6.2 1.1-8.8 3.3l3.4 3.7zM7.2 21.5c-1.2-1.7-1.8-3.4-1.8-5.3s.6-3.7 1.8-5.3L3.5 7.4C1.3 10 .2 12.9.2 16.1c0 3.2 1.1 6.1 3.3 8.8l3.7-3.4zM21.3 24.9c-1.6 1.2-3.4 1.8-5.3 1.8-2 0-3.8-.6-5.4-1.8l-3.4 3.7C9.8 30.9 12.8 32 16 32c3.2 0 6.1-1.2 8.7-3.3l-3.4-3.8zM24.7 10.8c1.2 1.7 1.8 3.5 1.8 5.4 0 1.9-.6 3.6-1.8 5.2l3.7 3.4c2.2-2.6 3.3-5.5 3.3-8.7 0-3.2-1.1-6.2-3.3-8.8l-3.7 3.5zM29.4 26.7c1.4 0 2.6 1.2 2.6 2.6 0 1.4-1.2 2.6-2.6 2.6-1.4 0-2.6-1.2-2.6-2.6 0-1.4 1.1-2.6 2.6-2.6zM2.6 26.7c1.4 0 2.6 1.2 2.6 2.6C5.2 30.8 4 32 2.6 32 1.2 32 0 30.8 0 29.3c0-1.4 1.2-2.6 2.6-2.6zM29.4 0C30.8 0 32 1.2 32 2.7c0 1.5-1.2 2.6-2.6 2.6-1.4 0-2.6-1.2-2.6-2.6C26.8 1.2 28 0 29.4 0zM2.6 0C4 0 5.2 1.2 5.2 2.6 5.2 4 4 5.2 2.6 5.2 1.2 5.2 0 4.1 0 2.6 0 1.2 1.2 0 2.6 0z"/></g></svg>