<svg xmlns="http://www.w3.org/2000/svg" viewBox="0 0 32 32"><path d="M0 16.003c0 8.8 7.2 16 16 16s16-7.1 16-16v-.1c0-1.2-.1-2.5-.4-3.6-.2-.9-1.2-1.5-2.1-1.2-.9.2-1.4 1.1-1.2 2 1.6 6.7-2.5 13.5-9.3 15.2-6.8 1.5-13.6-2.6-15.2-9.3s2.5-13.6 9.2-15.2c1.9-.5 3.9-.5 5.9 0 .9.2 1.8-.4 2.1-1.3.2-.9-.3-1.8-1.2-2-8.7-2.1-17.3 3.2-19.3 11.8-.3 1.2-.5 2.4-.5 3.7z"/><path d="M24.1 4.203c0 .1 0 .1 0 0-.4.5-.7 1-.7 1.6v.5c-.2 2.5-2.5 4.4-5 4.1-.2 0-.4 0-.6-.1-.1 0-.2-.1-.3-.1-.5-.1-1-.2-1.5-.2-1.5 0-2.9.6-4 1.6l-.2.2c-2.4 2.2-2.6 6-.4 8.5s6 2.6 8.5.4l.4-.4c.2-.2.5-.5.7-.8 1-1.4 1.3-3.2.9-4.8 0-.1-.1-.2-.1-.3v-.1c-.6-2.5 1-5 3.4-5.5.2-.1.4-.1.6-.1h.4c.6-.1 1.2-.3 1.6-.7.1-.2.2-.4.2-.5.8-1.1.6-2.7-.6-3.6-1-.7-2.4-.6-3.3.3z"/></svg>