<svg xmlns="http://www.w3.org/2000/svg" viewBox="0 0 32 32"><g fill="currentColor"><circle cx="2.3" cy="20.6" r="2.3"/><path d="M29.7 9.1c-1.3 0-2.3 1-2.3 2.3 0 1.8-.3 2.3-2.3 2.3h-.2c-1.2.1-2.1 1.1-2.1 2.3 0 1.8-.3 2.2-2.3 2.2h-.2c-1.2.1-2.1 1.2-2.1 2.4.1 1.2 1.1 2.2 2.3 2.2 1.2 0 2.2-.9 2.3-2.1v-.2c0-1.6.5-2.3 2.3-2.3 1.2 0 2.2-1 2.3-2.2 0-1.7.5-2.3 2.3-2.3 1.3 0 2.3-1 2.3-2.3 0-1.3-1-2.3-2.3-2.3zm-13.5 4.6H16c-2 0-2.3-.5-2.3-2.3 0-1.3-1-2.3-2.3-2.3-1.3 0-2.3 1-2.3 2.3 0 1.8-.3 2.3-2.3 2.3h-.2c-1.2.1-2.1 1.1-2.1 2.3 0 1.3 1 2.3 2.3 2.3 1.2 0 2.2-.9 2.3-2.1v-.1c0-1.7.5-2.3 2.3-2.3 1.8 0 2.3.6 2.3 2.3 0 1.3 1 2.3 2.3 2.3.6 0 1.2-.2 1.6-.7.4-.4.7-1 .7-1.6 0-1.3-.9-2.2-2.1-2.4z"/></g></svg>