<svg xmlns="http://www.w3.org/2000/svg" viewBox="0 0 32 32"><path d="M16 0C9.3 0 3.9 5.5 3.9 12.2c0 1.3.2 2.7.6 3.9.3.9 1.2 1.4 2.1 1.1.9-.3 1.4-1.2 1.1-2.1V15c-.4-1-.5-2.1-.5-3.1.1-4.8 4.2-8.7 9-8.5 4.8.1 8.7 4.2 8.5 9-.1 4.5-3.7 8.2-8.2 8.5 0 0-1.7.1-2.5.2-.4.1-.7.1-1 .2-.1 0-.1 0-.2-.1v-.1l.3-1.4 1.6-7.3c.2-.9-.3-1.8-1.2-2.1-.9-.2-1.8.3-2.1 1.2v.2S7.6 29.4 7.6 29.5c-.2.9.3 1.8 1.2 2.1.9.2 1.8-.3 2.1-1.2v-.2c0-.2.5-2.5.5-2.5.4-1.8 1.8-3.1 3.6-3.3.4-.1 1.9-.2 1.9-.2 6.7-.5 11.7-6.4 11.2-13C27.6 4.9 22.3 0 16 0zm.9 28c-1.1-.2-2.2.5-2.4 1.6s.5 2.2 1.6 2.4c1.1.2 2.2-.5 2.4-1.6.2-1.1-.5-2.2-1.6-2.4z"/></svg>