<svg xmlns="http://www.w3.org/2000/svg" viewBox="0 0 32 32"><path d="M16 0C7.2 0 0 7.2 0 16s7.2 16 16 16 16-7.2 16-16S24.8 0 16 0zm-4 21.5l-.2.2c-.3.3-.6.6-1 .9l-.4.3h-.2c-.1 0-.1-.1-.1-.2l.2-.7c.2-.8.1-1.6-.1-2.3l-.1-.3-.3-.9L8 14.2l-.2-.6c-.1-.2-.1-.4-.1-.6v-.3c-.1-.8.2-1.7.8-2.3l.2-.2c.3-.3.6-.6 1-.9l.3-.2h.2c.1 0 .1.1.1.2l-.2.7c-.2.8-.1 1.6.1 2.3l.1.3.3.9 1.8 4.4.2.6c.1.2.1.4.1.6v.3c.2.7-.1 1.5-.7 2.1zm6.2 1.4l-.2.2c-.4.4-.8.8-1.3 1.1l-.5.4H16c-.1 0-.1-.1-.1-.2l.2-.9c.2-1 .2-2-.1-2.9v-.3c-.1-.4-.3-.8-.4-1.1l-2.3-5.5-.3-.7c-.1-.2-.1-.5-.2-.7v-.4c-.1-1 .2-2.1 1-2.8l.2-.2c.4-.4.8-.8 1.3-1.1l.5-.4h.2v.1l-.2.9c-.2 1-.2 2 .1 2.9l.1.3c.1.4.3.8.4 1.1l2.3 5.5.3.8c.1.2.1.5.2.7v.4c.1 1.1-.2 2.1-1 2.8zm5.4-1.4l-.2.2c-.3.3-.6.6-1 .9l-.4.3h-.2c-.1 0-.1-.1-.1-.2l.2-.7c.2-.8.1-1.6-.1-2.3l-.1-.3-.3-.9-1.8-4.3-.2-.6c-.1-.2-.1-.4-.1-.6v-.3c-.1-.8.2-1.7.8-2.3l.2-.2c.3-.3.6-.6 1-.9l.4-.3h.2c.1 0 .1.1.1.2l-.4.8c-.2.8-.1 1.6.1 2.3l.1.3.3.9 1.8 4.4.2.6c.1.2.1.4.1.6v.3c.2.7 0 1.5-.6 2.1z"/></svg>