<svg xmlns="http://www.w3.org/2000/svg" viewBox="0 0 32 32"><path d="M27.5 5.989l-3.8 2-18.7 9.5c-.8-6.1 3.5-11.7 9.6-12.4 2.4-.3 4.8.2 6.8 1.3l2.2-1.1.3-.2c-6-4.4-14.5-3-18.9 3-1.7 2.3-2.6 5.1-2.6 7.9v1c.1 1-.5 1.9-1.3 2.4l-1.1.6v2.8l3.4-1.8 1.1-.6 1.1-.6 19.6-10 2.2-1.1 4.6-2.2v-2.8l-4.5 2.3zM32 9.289l-25.2 12.8-2.2 1.1-4.6 2.3v2.8l4.5-2.3 3.8-2 18.7-9.4c.1.5.1 1 .1 1.5 0 6.1-5 11.1-11.1 11.1-1.9 0-3.8-.5-5.4-1.4l-.1.1-2.4 1.2c6 4.4 14.5 3 18.9-3 1.7-2.3 2.6-5.1 2.6-7.9v-1c-.1-1 .5-1.9 1.3-2.4l1.1-.8v-2.7z"/></svg>