<svg xmlns="http://www.w3.org/2000/svg" viewBox="0 0 20 20"><path fill="none" stroke="currentColor" stroke-width="2" stroke-linecap="round" stroke-linejoin="round" d="M1.5 13.6c2.7 1.8 8.1 5.3 8.3 5.4.1.1.3.1.4 0 .1-.1 7.9-5.2 8.1-5.3.2-.1.2-1.2.2-1.3v-2c0-.2-.2-.2-.2-.1-.1.1-8 5.2-8.1 5.3-.2.1-.3.1-.5 0-.1-.1-7.8-5.1-8-5.3-.2-.2-.2-.3-.2-.5V7.1c0-.2 0-.3.1-.5m0 0 .1-.1c.2-.2 7.6-5.1 7.9-5.3.3-.2.4-.2.7 0 2.6 1.7 7.8 5.2 7.9 5.3.1.1.2.2-.1.4-.3.2-7.8 5.1-7.9 5.1-.1.1-.2.1-.4 0S4.2 8.4 1.6 6.6z"/></svg>
