<svg xmlns="http://www.w3.org/2000/svg" viewBox="0 0 32 32"><g fill="currentColor"><path d="M16 32c10.3 0 14.5-8.9 14.8-9.9.3-.9-.3-.8-1-.6-1.4.3-2.9.4-4.4.4C11.8 21.9 5.1 8.5 6.1 4.3c.2-1.1-1 0-1 0C1.8 7.2 0 11.4.1 15.8.1 23.4 5.8 32 16 32zM31.6 18.7c-1.2-.8-2.4-1.8-3.5-2.8-1-.9-1.9-1.8-2.7-2.8-.8-1-1.4-2-1.8-3.2-4.8-1.7-8.2-2.8-10.7-3.9-1-.4-2-1-2.9-1.7-.6-.4-.9-1-1-1.7 0-.2.1-.5.3-.6.3-.3.6-.6 1-.9.7-.4 1.4-.6 2.1-.8 1.2-.2 2.3-.3 3.5-.3.9 0 1.9.1 2.8.2 1 .2 1.9.4 2.8.7.9.3 1.8.7 2.7 1.2.9.5 1.7 1.1 2.5 1.7 1.6 1.4 2.9 3.1 3.8 5 1 2.2 1.5 4.7 1.5 7.1 0 .7 0 1.3-.2 2-.1.4-.1.6-.2.8zm-6-8.2c.3.7.8 1.4 1.3 2 .5.6 1 1.2 1.6 1.7.6.6 1.3 1.1 1.9 1.6l-.4-3.4c-.7-.3-3-1.3-4.4-1.9z"/></g></svg>