<svg xmlns="http://www.w3.org/2000/svg" viewBox="0 0 84.531 86"><g id="_1" data-name="1" transform="translate(-1022 -219)" stroke-width="2"><path id="Эллипс_3728" data-name="Эллипс 3728" d="M1065 289a27 27 0 1117.206-47.809l.123.1c1.557 1.221 2.6.644 3.671-.294s6.123-6.217 7-7a2.257 2.257 0 00-.076-3.373 41.989 41.989 0 10-11.511 70.045c.748-.321 1.327-1.9-.413-3.672s-7.194-7.169-8-8-17.286-17.107-19.467-21.063a12.815 12.815 0 0122.195-12.805" fill="none" stroke="var(--icon-color-secondary-900, #212225)" stroke-linecap="round"/><rect id="Прямоугольник_скругл._углы_1" data-name="Прямоугольник, скругл. углы 1" width="38" height="9" rx="4.5" transform="translate(1061 258)" fill="var(--icon-color-primary-100, #E5F0F8)" stroke="#007dff"/><path id="Эллипс_3729" data-name="Эллипс 3729" d="M1098.215 239.67a39.139 39.139 0 01-9.026 54.6" fill="none" stroke="var(--icon-color-secondary-300, #DBDEE5)" stroke-linecap="round"/><circle id="Эллипс_3727" data-name="Эллипс 3727" cx="3.11" cy="3.11" r="3.11" transform="translate(1061.89 292.89)" fill="none" stroke="var(--icon-color-secondary-300, #DBDEE5)"/><circle id="Эллипс_3727_копия_2" data-name="Эллипс 3727 копия 2" cx="3.11" cy="3.11" r="3.11" transform="translate(1037.89 282.89)" fill="none" stroke="var(--icon-color-secondary-300, #DBDEE5)"/><circle id="Эллипс_3727_копия_3" data-name="Эллипс 3727 копия 3" cx="3.11" cy="3.11" r="3.11" transform="translate(1027.89 259.89)" fill="none" stroke="var(--icon-color-secondary-300, #DBDEE5)"/><circle id="Эллипс_3727_копия_4" data-name="Эллипс 3727 копия 4" cx="3.11" cy="3.11" r="3.11" transform="translate(1037.89 234.89)" fill="none" stroke="var(--icon-color-secondary-300, #DBDEE5)"/><circle id="Эллипс_3727_копия_5" data-name="Эллипс 3727 копия 5" cx="3.11" cy="3.11" r="3.11" transform="translate(1061.89 224.89)" fill="none" stroke="var(--icon-color-secondary-300, #DBDEE5)"/><path id="Эллипс_3728-2" data-name="Эллипс 3728" d="M1038 256.318a21.319 21.319 0 0134.9-16.43l.1.081" transform="translate(6 5.682)" fill="none" stroke="#007dff" stroke-linecap="round"/></g></svg>