<svg xmlns="http://www.w3.org/2000/svg" viewBox="0 0 20 20"><path fill="currentColor" d="M13.2 3.2c0 1.7-1.4 3.2-3.2 3.2S6.8 4.9 6.8 3.2 8.3 0 10 0s3.2 1.4 3.2 3.2zM9.3 7.4c-1.2.2-2.3.9-2.9 1.9-.5.8-.9 1.7-1 2.6-.3 1.1-.4 2.3-.6 3.5 0 .9-.1 1.9 0 2.8.1.8.4 1.4.8 1.6.3.2.5.2.8.2.4 0 .8-.1 1.1-.4.4-.4.8-.8 1.1-1.3.1-.2.2-.3.4-.4.3-.3.7-.5 1.1-.4.4 0 .8.1 1.1.4l.4.4c.3.5.6 1 1.1 1.3.3.2.7.4 1.1.4.6 0 1.1-.3 1.3-.7.3-.6.4-1.2.4-1.9 0-1.5-.1-2.9-.4-4.3-.4-1.8-.5-2.4-.9-3.1-.2-.5-.5-.9-.9-1.3-.6-.7-1.4-1.1-2.3-1.3H9.3z"/></svg>