<?xml version="1.0" encoding="utf-8"?>
<!-- Generator: Adobe Illustrator 26.0.1, SVG Export Plug-In . SVG Version: 6.00 Build 0)  -->
<svg version="1.1" xmlns="http://www.w3.org/2000/svg" xmlns:xlink="http://www.w3.org/1999/xlink" x="0px" y="0px"
	 viewBox="0 0 20 20" enable-background="new 0 0 20 20" xml:space="preserve">
<path fill="#212225" d="M13.2,3.2c0,1.7-1.4,3.2-3.2,3.2S6.8,4.9,6.8,3.2S8.3,0,10,0S13.2,1.4,13.2,3.2z"/>
<path fill="#212225" d="M9.3,7.4C8.1,7.6,7,8.3,6.4,9.3c-0.5,0.8-0.9,1.7-1,2.6c-0.3,1.1-0.4,2.3-0.6,3.5c0,0.9-0.1,1.9,0,2.8
	c0.1,0.8,0.4,1.4,0.8,1.6C5.9,20,6.1,20,6.4,20c0.4,0,0.8-0.1,1.1-0.4c0.4-0.4,0.8-0.8,1.1-1.3c0.1-0.2,0.2-0.3,0.4-0.4
	c0.3-0.3,0.7-0.5,1.1-0.4c0.4,0,0.8,0.1,1.1,0.4c0.1,0.1,0.3,0.3,0.4,0.4c0.3,0.5,0.6,1,1.1,1.3c0.3,0.2,0.7,0.4,1.1,0.4
	c0.6,0,1.1-0.3,1.3-0.7c0.3-0.6,0.4-1.2,0.4-1.9c0-1.5-0.1-2.9-0.4-4.3c-0.4-1.8-0.5-2.4-0.9-3.1c-0.2-0.5-0.5-0.9-0.9-1.3
	c-0.6-0.7-1.4-1.1-2.3-1.3C10.3,7.4,9.8,7.4,9.3,7.4z"/>
</svg>
