<svg xmlns="http://www.w3.org/2000/svg" viewBox="0 0 18.7 20.9" fill="currentColor"><path class="st0" d="M.3.3C.1.6 0 1 0 1.4v17.9c0 .4.1.8.4 1.1l.1.1 10-10v-.2L.3.3zM13.8 13.9l-3.3-3.3v-.2L13.8 7l.1.1 4 2.3c.6.2 1 .9.8 1.6-.1.4-.4.7-.8.8l-4.1 2.1z"/><path class="st1" d="M13.9 13.8l-3.4-3.4L.3 20.5c.4.4 1 .4 1.7.1l11.9-6.8"/><path class="st2" d="M13.9 7L2 .3C1.5-.1.8-.1.3.4l10.1 10L13.9 7z"/><path class="st3" d="M13.8 13.7L2 20.4c-.5.4-1.1.4-1.6 0l-.1.1.1.1c.5.4 1.1.4 1.6 0l11.8-6.9z"/><path class="st4" d="M.3 20.4c-.2-.3-.3-.8-.3-1.2v.1c0 .4.1.8.3 1.1zm17.5-8.9l-4.1 2.3.1.1 4-2.4c.5-.1.8-.6.8-1.1 0 .4-.3.7-.8 1.1z"/><path class="st5" d="M2 .4l15.8 9c.5.3.8.6.8 1.1 0-.5-.3-.9-.8-1.1L2 .4c-1.1-.7-2-.2-2 1v.1C0 .3.9-.3 2 .4z"/></svg>