<svg xmlns="http://www.w3.org/2000/svg" viewBox="0 0 20 20"><path d="M10 20c-.1 0-.3 0-.4-.1-.2-.1-7.7-4.3-8.2-4.6-.3-.2-.5-.5-.5-.8v-9c0-.4.2-.7.5-.9L2.6 4l.5-.3C5.3 2.5 9.3.2 9.6.1c.1-.1.2-.1.4-.1s.4 0 .5.2c.5.2 7.9 4.4 8.1 4.5.3.1.5.5.5.8v9.1c0 .3-.2.6-.5.8 0 0-8 4.5-8.1 4.5-.2.1-.3.1-.5.1zm4.5-10.9l-1.9 1.5v2.1L11.1 14v.9l1.2 1.2h1.2l3.4-5.1-2.4-1.9zm-8.6 0l-2.5 1.8L6.8 16H8l1.2-1.2v-.9l-1.5-1.2v-2.1c0-.1-1.8-1.5-1.8-1.5zm1.8-.6l1.2 1.8-.6 2.1H12l-.6-2.1 1.2-1.8H7.7zm-.9-4l-.9 3.4h8.6l-.9-3.3H6.8z"/></svg>