<svg xmlns="http://www.w3.org/2000/svg" viewBox="0 0 20 20"><path fill="currentColor" d="M7.701 16.827c.1 0 .3-.4.3-.4.1-.2.7-2 .8-2.1.1-.2 0-.3-.1-.3-2.6-.7-3.9-1.7-3.9-1.8.8.5 2.8.9 5 .9s4-.3 5.2-.8c-.5.4-3 1.5-4 1.7-.2 0-.1.2-.1.3.1.2.7 2.2.9 2.5 0 .1.2.1.3.1 3.6-.5 5.6-1.7 5.7-2.5.2-1.1.1-5.3-.1-7-.3-2-.5-2.8-1-3.5s-3.3-.9-4.5-.9h-1c0 .1 3.2 1.6 3.2 1.6-.1 0-2.2-.6-4.2-.6-1.9 0-3.8.4-4.3.5.2-.1 3.2-1.5 3.3-1.5h-.8c-3.1 0-4 0-4.8.6-1.1.8-1.8 9.2-1.2 10.8.1.9 5.1 2.4 5.3 2.4-.1 0 0 0 0 0m5.4-9.7c1.1 0 2 .9 2 1.9s-.9 1.9-2 1.9-2-.8-2-1.9.9-1.9 2-1.9m-6.7 0c1.1 0 2 .9 2 1.9s-.9 1.9-2 1.9-2-.8-2-1.9.9-1.9 2-1.9m1.3 11.5h-.2c-.3 0-4.2-.7-6.2-2.3-1-.8-1.1-1-1.2-1.7-.3-2.2-.3-7.9 1.2-11.2.2-.4.5-.9 1.2-1.2 2.8-1.1 10.6-1.2 15 0 .3.1.7.4 1 .9.2.3.3.7.6 1.5.1.5.3 1.4.5 2.6.3 1.8.5 4.3.3 7.2 0 .2-.1.9-.6 1.4-1.7 1.6-5.1 2.8-6.9 2.9-.9 0-1.6 0-2-1-.1-.2-.4-1-.5-1.3-.1.2-.4.9-.7 1.3-.2.3-.7.9-1.5.9zm5.4-9.8c-.1 0-.2.1-.2.2s.1.2.2.2.2-.1.2-.2-.1-.2-.2-.2zm-6.7 0c-.1 0-.2.1-.2.2s.1.2.2.2.2-.1.2-.2-.1-.2-.2-.2z"/></svg>