<?xml version="1.0" encoding="utf-8"?>
<svg version="1.1" id="discord" xmlns="http://www.w3.org/2000/svg" xmlns:xlink="http://www.w3.org/1999/xlink" x="0px" y="0px"
	 viewBox="0 0 20 20" enable-background="new 0 0 20 20" xml:space="preserve">
<g transform="translate(-899.999 -4660.973)">
	<path fill="currentColor" d="M907.7,4677.8c0.1,0,0.3-0.4,0.3-0.4c0.1-0.2,0.7-2,0.8-2.1c0.1-0.2,0-0.3-0.1-0.3c-2.6-0.7-3.9-1.7-3.9-1.8
		c0.8,0.5,2.8,0.9,5,0.9s4-0.3,5.2-0.8c-0.5,0.4-3,1.5-4,1.7c-0.2,0-0.1,0.2-0.1,0.3c0.1,0.2,0.7,2.2,0.9,2.5c0,0.1,0.2,0.1,0.3,0.1
		l0,0c3.6-0.5,5.6-1.7,5.7-2.5c0.2-1.1,0.1-5.3-0.1-7c-0.3-2-0.5-2.8-1-3.5s-3.3-0.9-4.5-0.9c-0.3,0-0.7,0-1,0
		c0,0.1,3.2,1.6,3.2,1.6c-0.1,0-2.2-0.6-4.2-0.6c-1.9,0-3.8,0.4-4.3,0.5l0,0c0.2-0.1,3.2-1.5,3.3-1.5c-0.3,0-0.6,0-0.8,0
		c-3.1,0-4,0-4.8,0.6c-1.1,0.8-1.8,9.2-1.2,10.8C902.5,4676.3,907.5,4677.8,907.7,4677.8L907.7,4677.8L907.7,4677.8
		C907.6,4677.8,907.7,4677.8,907.7,4677.8 M913.1,4668.1c1.1,0,2,0.9,2,1.9s-0.9,1.9-2,1.9s-2-0.8-2-1.9S912,4668.1,913.1,4668.1
		 M906.4,4668.1c1.1,0,2,0.9,2,1.9s-0.9,1.9-2,1.9s-2-0.8-2-1.9S905.3,4668.1,906.4,4668.1 M907.7,4679.6c-0.1,0-0.1,0-0.2,0l0,0
		l0,0l0,0l0,0c-0.3,0-4.2-0.7-6.2-2.3c-1-0.8-1.1-1-1.2-1.7c-0.3-2.2-0.3-7.9,1.2-11.2c0.2-0.4,0.5-0.9,1.2-1.2l0,0l0,0l0,0
		c2.8-1.1,10.6-1.2,15,0c0.3,0.1,0.7,0.4,1,0.9c0.2,0.3,0.3,0.7,0.6,1.5c0.1,0.5,0.3,1.4,0.5,2.6c0.3,1.8,0.5,4.3,0.3,7.2l0,0l0,0
		l0,0c0,0.2-0.1,0.9-0.6,1.4c-1.7,1.6-5.1,2.8-6.9,2.9c-0.9,0-1.6,0-2-1c-0.1-0.2-0.4-1-0.5-1.3c-0.1,0.2-0.4,0.9-0.7,1.3
		C909,4679,908.5,4679.6,907.7,4679.6z M913.1,4669.8c-0.1,0-0.2,0.1-0.2,0.2s0.1,0.2,0.2,0.2c0.1,0,0.2-0.1,0.2-0.2
		S913.2,4669.8,913.1,4669.8z M906.4,4669.8c-0.1,0-0.2,0.1-0.2,0.2s0.1,0.2,0.2,0.2s0.2-0.1,0.2-0.2S906.5,4669.8,906.4,4669.8z"/>
</g>
</svg>
