<svg xmlns="http://www.w3.org/2000/svg" viewBox="0 0 20 20"><path fill="none" stroke="currentColor" stroke-width="2" stroke-linecap="round" stroke-linejoin="round" d="M12 18.4c0 .2.2.4.4.4h.1c4.8-1.4 7.5-6.3 6.1-11.1C17.2 2.9 12.3.2 7.5 1.6S0 7.9 1.4 12.7c.9 3 3.2 5.3 6.1 6.1.2.1.4-.1.5-.3v-2c-1.1.3-2.3-.3-2.8-1.4-.2-.7-.6-1.3-1.1-1.8 2.3.6 2.3 2 3.9 1.3 0-.5.2-1 .5-1.5-1.7-.1-3.6-.4-3.6-3.4 0-.8.3-1.5.8-2.1-.2-.7-.2-1.4.1-2.1 0 0 .7-.2 2.2.8 1.3-.4 2.7-.4 4 0 1.5-1 2.2-.8 2.2-.8.3.7.3 1.4.1 2.1.5.6.7 1.3.7 2.1 0 3-1.9 3.3-3.6 3.5.4.5.6 1.2.5 1.9l.1 3.3z"/></svg>