<?xml version="1.0" encoding="utf-8"?>
<svg version="1.1" id="ios" xmlns="http://www.w3.org/2000/svg" xmlns:xlink="http://www.w3.org/1999/xlink" x="0px" y="0px"
	 viewBox="0 0 20 20" enable-background="new 0 0 20 20" xml:space="preserve">
<title>os-system-apple</title>
<g>
	<path fill="none" stroke="currentColor" stroke-width="2" stroke-linecap="round" stroke-linejoin="round" d="M14.3,11.6
		c0-1.2,0.7-2.4,1.7-3c-0.7-0.9-1.7-1.5-2.9-1.6c-1.2-0.1-2.4,0.7-3,0.7c-0.6,0-1.6-0.7-2.6-0.7c-1.4,0-2.6,0.8-3.3,2
		c-1.4,2.4-0.4,6,1,7.9c0.7,1,1.4,2,2.5,2s1.4-0.6,2.6-0.6s1.5,0.6,2.6,0.6s1.8-1,2.4-1.9c0.5-0.7,0.8-1.4,1.1-2.2
		C15.1,14.3,14.3,13,14.3,11.6z"/>
	<path fill="none" stroke="currentColor" stroke-width="2" stroke-linecap="round" stroke-linejoin="round" d="M12.6,3.9
		c0.7-0.8,1-1.8,0.9-2.9c-1,0.1-2,0.6-2.6,1.4c-0.7,0.8-1,1.8-0.9,2.8C11,5.2,12,4.7,12.6,3.9z"/>
</g>
</svg>
