<?xml version="1.0" encoding="utf-8"?>
<svg version="1.1" id="linkedin" xmlns="http://www.w3.org/2000/svg" xmlns:xlink="http://www.w3.org/1999/xlink" x="0px" y="0px"
	 viewBox="0 0 20 20" enable-background="new 0 0 20 20" xml:space="preserve">
<g transform="translate(-271.813 -945.379)">
	<path fill="none" stroke="currentColor" stroke-width="2" stroke-linecap="round" stroke-linejoin="round" d="M276.8,964.2h-4v-11.1h4
		V964.2z M285.1,956.6c-0.9,0-1.6,0.8-1.6,1.7l0,0v5.9h-3.9v-11.1h3.9v1.3c1-0.8,2.1-1.3,3.2-1.3c2.4,0,4.1,1.9,4.1,5.4v5.7h-4.1
		v-5.8C286.7,957.3,286,956.6,285.1,956.6L285.1,956.6L285.1,956.6z M276.8,948.7c0,1.1-0.9,2-2,2s-2-0.9-2-2s0.9-2,2-2
		S276.8,947.6,276.8,948.7L276.8,948.7L276.8,948.7z"/>
</g>
</svg>
