<?xml version="1.0" encoding="utf-8"?>
<svg version="1.1" id="linux" xmlns="http://www.w3.org/2000/svg" xmlns:xlink="http://www.w3.org/1999/xlink" x="0px" y="0px"
	 viewBox="0 0 20 20" enable-background="new 0 0 20 20" xml:space="preserve">
<path fill="currentColor" d="M7.4,17c0.7-0.1,0.8-0.8,0.5-1.2c-0.3-0.3-1.8-1.4-2.2-1.9c-0.2-0.2-0.4-0.3-0.5-0.5c-0.2-0.5-0.4-1.3-0.1-1.9
	c0.1-0.1,0.1-0.1,0,0.2c-0.2,1.2,0.5,2.1,0.7,1.6c0.1-0.3,0-0.9,0.1-1.4c0.1-0.9,0.9-2.5,1.2-2.6c-0.5-1,0.6-1.7,0.6-2.6
	c0-0.6,0.5,0.7,1,0.9c0.6,0.3,1.2-0.6,2-1c0.2-0.1,0.6-0.3,0.5-0.4C11.1,5.9,10.1,7,9.2,7.1C8.7,7.1,8.6,7,8.4,6.8
	C7.9,6.3,8.5,6.7,9.2,6.6C9.5,6.5,9.6,6.5,10,6.3c0.3-0.1,0.7-0.3,1.1-0.5c0.3-0.1,0.3-0.3,0.1-0.3c-0.1,0-0.2,0-0.2,0.1
	c-0.2,0.3-1,0.5-1.2,0.5C9.5,6.3,9.2,6.4,8.7,6.3C8,6.3,8.1,6,7.6,5.7C7.5,5.6,7.5,5.4,7.7,5.2C7.8,5.1,8.1,5,8.3,4.8
	c0,0,0.2-0.2,0.3-0.3c0,0,0.1-0.9-0.4-0.9c-0.4,0-0.5,0.3-0.5,0.6c0,0.3,0.2,0.5,0.3,0.5c0.2,0,0,0.2-0.1,0.3C7.8,5,7.5,4.3,7.6,3.9
	c0-0.4,0.2-1,0.7-1c0.4,0,0.7,0.5,0.7,1.4c0,0.1,0.7-0.1,0.9,0.2c0.2,0.2-0.5-1.5,1-1.7c0.4,0.1,0.8,0.2,1,1.1
	c-0.1,0.1,0.1,0.7-0.1,0.8c-0.3,0.1-0.5,0-0.3-0.3c0.1-0.3,0-1-0.6-1c-0.6,0-0.5,1.1-0.4,1.2c0.2,0,0.6,0.3,0.9,0.4
	c1,0.2,0.3,0.7,0.4,1.4c0.1,0.8,0.6,0.6,1.1,2.6c0.1,0.1,0.5,0.2,0.8,1.8c0.3,1.4-0.1,2.4,0.7,2.3c0.2,0,0.4-0.1,0.6-0.5
	c0.3-1-0.1-2.3-0.6-3.1c-0.3-0.5-0.5-0.8-0.6-0.9c0.5,0.3,1.2,1.3,1.3,2c0.2,0.9,0.3,1.3,0,2.3c0.2,0.1,0.6,0.3,0.6,0.5
	c-0.5-0.4-1.8-0.4-1.9,0.4c-0.2,0-0.4,0-0.6,0.2c-0.6,0.7,0,2-0.1,2.7c0,0.6-0.2,1.2-0.3,1.9c-0.3,0-0.3-0.3-0.2-0.6
	c0.1-0.3,0.2-0.7,0.3-1c0-0.3,0-0.5-0.1-0.6c-0.1-0.1-0.2,0.1-0.4,0.3c-0.4,0.6-1.2,0.9-2,1c-0.8,0.1-1.5,0-1.9-0.4
	c-0.1-0.1-0.3,0-0.4,0.1c0,0.1,0.1,0.2,0.2,0.4c0.2,0.3,0.3,0.8-0.1,1C8.1,17.8,7.8,17.7,7.4,17L7.4,17z M7.1,17
	c0.3,0.4,1.2,2.3-0.5,2.5c-0.6,0.1-1.5-0.3-2.4-0.5c-0.8-0.2-1.6-0.3-2.1-0.4c-0.3-0.1-0.4-0.2-0.4-0.3c-0.1-0.3,0.3-0.7,0.4-1.1
	c0-0.4-0.1-0.5-0.3-0.8c-0.1-0.3-0.2-0.5-0.1-0.6c0.1-0.1,0.2-0.1,0.5-0.1c0.3,0,0.7,0,0.9-0.2c0.4-0.2,0.5-0.7,0.4-1.2
	c0,0.5-0.2,0.7-0.6,1c-0.4,0.2-1,0-1.3,0.3c-0.3,0.3,0.1,1.1,0.1,1.6c0,0.4-0.5,0.9-0.3,1.4c0.2,0.4,1.1,0.5,2.1,0.7
	c1.4,0.3,2.2,0.8,2.9,0.8C7.5,20,7.6,19,9.1,19c0.4,0,0.9,0,1.3,0c0.5,0,1,0,1.4,0c1,0,0.6,0.5,1.3,0.9c0.5,0.3,1.5,0.2,1.7-0.1
	c0.3-0.3,1.2-1,1.8-1.3c0.8-0.4,2.7-1.1,1.3-2c-0.3-0.2-1.1-0.4-1.1-1.9c-0.3,0.3-0.3,1.6,0.5,1.9c0.9,0.3,1.5,0.8-0.2,1.4
	c-1.1,0.4-1.3,0.5-2.2,1.2c-0.9,0.7-2.2,0.4-2-1.1c0.1-0.8,0.2-1.5,0-2.2C13,15.5,12.9,15,13,14.7c0.1-0.6,0.5-0.8,0.8-0.2
	c0.2,0.4,0.3,0.8,1,0.8c1.1,0.1,1.3-1.1,1.7-1.1c0.2,0,0.5-0.7,0.3-1.8c-0.2-1.2-0.9-3-1.8-4C14.2,7.7,13.8,7,13.5,6
	c-0.2-0.8-0.4-1.6-0.3-2.4c0.1-1-0.5-2.4-1.4-3C11.3,0.2,10.4,0,9.6,0C9.2,0,8.8,0.1,8.5,0.2C7.2,0.9,7,1.9,7,3.1
	c0,1.1,0.1,2.3,0.2,3.5C7.1,7.1,6.3,8.1,5.8,8.7c-0.6,0.6-1,1.9-1.4,3c-0.2,0.6-0.6,0.8-0.6,1.6c0,0.2,0,0.7,0.2,0.6
	C4.7,13.3,5.7,14.7,7.1,17z M11.1,1.5c0,0.1-0.2,0.2-0.1,0.3c0.1,0.1,0.2-0.1,0.4-0.2c0.1,0,0.3,0,0.4-0.1c0-0.1-0.1-0.1-0.2-0.2
	c-0.1-0.1-0.2-0.2-0.3-0.2C11,1.2,11.1,1.4,11.1,1.5z M12.4,6c0.1-0.1,0.1,0.1,0.3,0.3c0.2,0.1,0.3,0,0.4,0.2c0,0.2-0.1,0.3-0.2,0.3
	C12.7,6.8,12.1,6.2,12.4,6z M8.8,4.6c-0.4,0-0.4,0.2-0.3,0.2C8.7,4.8,8.6,4.6,8.8,4.6z M8.2,3.9c0,0,0.1,0.1,0.1,0.2
	c0,0.1,0,0.2,0.1,0.2c0,0,0,0,0,0c0-0.3-0.1-0.5-0.2-0.5C8.1,3.8,8.1,3.9,8.2,3.9L8.2,3.9z M10.8,3.8C10.9,3.8,11,4,11,4.2
	c0,0,0.1,0,0.1-0.1c0-0.3-0.2-0.4-0.3-0.4C10.7,3.7,10.7,3.8,10.8,3.8L10.8,3.8z M9.5,4.6c0.3-0.1,0.4,0.1,0.3,0.1
	C9.7,4.8,9.7,4.6,9.5,4.6z M5.6,10.1c-0.2,0,0-0.1,0.1-0.3c0.1-0.2,0.1-0.4,0.2-0.3c0.1,0,0,0.1,0,0.3C5.8,10,5.6,10.1,5.6,10.1z"/>
</svg>
