<svg viewBox="0 0 20 20" fill="none" xmlns="http://www.w3.org/2000/svg"><path d="m1.07 10.136.064-.097L4.932 4.17a.13.13 0 0 1 .228.017c.634 1.404 1.182 3.15.925 4.238-.11.448-.41 1.054-.747 1.614a2.938 2.938 0 0 1-.142.238.13.13 0 0 1-.108.056H1.182c-.105 0-.167-.112-.111-.197Z" stroke="currentColor" stroke-width="2"/><path d="M19 12.227v.929c0 .053-.033.1-.081.121-.294.125-1.3.58-1.719 1.156C16.132 15.9 15.316 18 13.492 18h-7.61C3.186 18 1 15.834 1 13.162v-.087a.13.13 0 0 1 .13-.128h4.242c.084 0 .146.077.139.158-.03.273.02.551.151.805.252.505.774.82 1.338.82h2.1v-2.619H7.024a.132.132 0 0 1-.108-.207l.075-.11c.196-.276.477-.704.756-1.191.19-.329.375-.68.524-1.033.03-.063.053-.129.077-.192.041-.113.083-.218.113-.323.03-.09.054-.182.078-.27.07-.3.1-.616.1-.945 0-.129-.006-.264-.018-.393a5.01 5.01 0 0 0-.042-.422 4.326 4.326 0 0 0-.058-.376 6.274 6.274 0 0 0-.12-.563l-.016-.071c-.037-.13-.067-.252-.108-.38a14.251 14.251 0 0 0-.4-1.168 7.07 7.07 0 0 0-.172-.428c-.089-.212-.179-.405-.261-.587a8.058 8.058 0 0 1-.114-.236 8.358 8.358 0 0 0-.125-.258c-.03-.063-.064-.122-.088-.182l-.256-.468a.082.082 0 0 1 .094-.12l1.605.43h.005l.006.001.211.058.233.065.085.024v-.942a.824.824 0 0 1 1.65 0v1.398l.171.048c.014.004.027.01.039.019l.178.133c.06.048.125.105.203.165a12.245 12.245 0 0 1 .696.604c.261.24.553.522.832.833.079.087.155.176.233.27.078.094.16.187.232.28.095.125.197.254.286.389.042.064.09.129.13.193.114.17.214.346.31.523.041.081.083.17.119.257.107.236.19.476.245.716a.884.884 0 0 1 .034.158v.012c.018.071.024.147.03.224a2.364 2.364 0 0 1-.13 1.049c-.037.1-.072.206-.119.305-.09.206-.197.412-.323.604-.04.072-.088.147-.136.218l-.154.216a4.537 4.537 0 0 1-.209.266c-.065.087-.13.175-.203.252a9.1 9.1 0 0 1-.296.334c-.06.07-.125.141-.191.205a7.652 7.652 0 0 1-.446.434l-.165.15a.135.135 0 0 1-.088.032H10.75v2.62h1.608c.36 0 .702-.127.978-.358.095-.081.507-.434.995-.966a.125.125 0 0 1 .061-.037l4.442-1.268a.13.13 0 0 1 .166.125Z" stroke="currentColor" stroke-width="2"/></svg>