<?xml version="1.0" encoding="utf-8"?>
<!-- Generator: Adobe Illustrator 26.0.1, SVG Export Plug-In . SVG Version: 6.00 Build 0)  -->
<svg version="1.1" xmlns="http://www.w3.org/2000/svg" xmlns:xlink="http://www.w3.org/1999/xlink" x="0px" y="0px"
	 viewBox="0 0 20 20" enable-background="new 0 0 20 20" xml:space="preserve">
<path fill-rule="evenodd" clip-rule="evenodd" fill="#212225" d="M14.5,18.8h-9c-0.5,0-0.7-0.3-0.9-0.5l-0.3-0.5
	c-2.7-4.7-4.1-7.2-4.2-7.4c-0.2-0.3-0.2-0.6,0-1C0.4,9,4.5,1.9,4.7,1.6c0.2-0.3,0.4-0.4,0.8-0.4h9.1c0.4,0,0.7,0.3,0.8,0.5
	c0,0.1,4.5,7.7,4.5,7.9c0.1,0.2,0.2,0.5,0,0.8c-0.2,0.3-4.4,7.6-4.6,8C15.1,18.7,14.8,18.8,14.5,18.8z M9.4,10
	c0.4,0,0.7,0.2,0.9,0.6c0.1,0.3,2.6,4.6,2.9,5l0,0l3.3-5.7l-3.3-5.7H6.8L3.5,10L9.4,10z"/>
</svg>
