<?xml version="1.0" encoding="utf-8"?>
<svg version="1.1" id="reddit" xmlns="http://www.w3.org/2000/svg" xmlns:xlink="http://www.w3.org/1999/xlink" x="0px" y="0px"
	 viewBox="0 0 20 20" enable-background="new 0 0 20 20" xml:space="preserve">
<g>
	
		<ellipse fill="none" stroke="currentColor" stroke-width="2" stroke-linecap="round" stroke-linejoin="round" cx="10" cy="12.5956" rx="7.38748" ry="5.09137"/>
	<path fill="none" stroke="currentColor" stroke-width="2" stroke-linecap="round" stroke-linejoin="round" d="M12.79526,14.79188
		C11.99662,15.29103,10.99831,15.49069,10,15.49069s-1.89678-0.19966-2.79526-0.69882"/>
	<path fill="none" stroke="currentColor" stroke-width="2" stroke-linecap="round" stroke-linejoin="round" d="M13.69374,11.39763
		c0,0.29949-0.29949,0.59899-0.59898,0.59899c-0.29949,0-0.59899-0.29949-0.59899-0.59899
		c0-0.29949,0.29949-0.59898,0.59899-0.59898C13.39425,10.79865,13.69374,11.09814,13.69374,11.39763"/>
	<path fill="none" stroke="currentColor" stroke-width="2" stroke-linecap="round" stroke-linejoin="round" d="M7.50423,11.39763
		c0,0.29949-0.29949,0.59899-0.59898,0.59899s-0.59898-0.29949-0.59898-0.59899c0-0.29949,0.29949-0.59898,0.59898-0.59898
		C7.20474,10.79865,7.50423,11.09814,7.50423,11.39763"/>
	<path fill="none" stroke="currentColor" stroke-width="2" stroke-linecap="round" stroke-linejoin="round" d="M15.31321,9.0583
		c0.50893-0.96652,1.58964-1.34714,2.57342-0.85525c0.99831,0.49915,1.39763,1.59729,0.89848,2.5956
		c-0.29518,0.59035-0.7843,0.98675-1.46737,1.09364"/>
	
		<circle fill="none" stroke="currentColor" stroke-width="2" stroke-linecap="round" stroke-linejoin="round" cx="15.98985" cy="4.01015" r="1.69712"/>
	<path fill="none" stroke="currentColor" stroke-width="2" stroke-linecap="round" stroke-linejoin="round" d="M4.68677,9.05826
		c-0.50894-0.96649-1.58964-1.3471-2.5734-0.85522c-0.99831,0.49915-1.39763,1.59729-0.89848,2.5956
		c0.29521,0.59041,0.7844,0.98684,1.46758,1.09367"/>
	<path fill="none" stroke="currentColor" stroke-width="2" stroke-linecap="round" stroke-linejoin="round" d="M10.00235,7.50431
		c0.0264-0.72149,0.34897-5.0769,4.29037-3.79365"/>
</g>
</svg>
