<svg xmlns="http://www.w3.org/2000/svg" viewBox="0 0 20 20"><g fill="none" stroke="currentColor" stroke-width="2" stroke-linecap="round" stroke-linejoin="round"><ellipse cx="10" cy="12.596" rx="7.387" ry="5.091"/><path d="M12.795 14.792c-.798.499-1.797.699-2.795.699s-1.897-.2-2.795-.7M13.694 11.398c0 .3-.3.599-.6.599-.299 0-.598-.3-.598-.6 0-.299.3-.598.599-.598.3 0 .599.3.599.599M7.504 11.398c0 .3-.3.599-.599.599s-.599-.3-.599-.6c0-.299.3-.598.6-.598.299 0 .598.3.598.599M15.313 9.058c.51-.966 1.59-1.347 2.574-.855.998.5 1.397 1.597.898 2.596-.295.59-.784.986-1.467 1.093"/><circle cx="15.99" cy="4.01" r="1.697"/><path d="M4.687 9.058c-.51-.966-1.59-1.347-2.574-.855-.998.5-1.397 1.597-.898 2.596.295.59.784.986 1.467 1.093M10.002 7.504c.027-.721.35-5.077 4.29-3.793"/></g></svg>