<?xml version="1.0" encoding="utf-8"?>
<svg version="1.1" id="slack" xmlns="http://www.w3.org/2000/svg" xmlns:xlink="http://www.w3.org/1999/xlink" x="0px" y="0px"
	 viewBox="0 0 20 20" enable-background="new 0 0 20 20" xml:space="preserve">
<g>
	<path d="M17.90002,10.79999h-5c-1.20001,0-2.10004,0.90002-2.10004,2.10004c0,1.19995,0.90002,2.09998,2.10004,2.09998h5
		C19.09998,15,20,14.09998,20,12.90002C20,11.70001,19.09998,10.79999,17.90002,10.79999z M18,13h-5.09998
		c-0.10004,0-0.10004,0-0.10004,0s0,0,0-0.09998c0-0.10004,0-0.10004,0-0.10004s0,0,0.10004,0h5H18V13z"/>
	<path d="M12.90002,15.79999h-2.10004v2.10004c0,1.19995,1,2.09998,2.10004,2.09998C14.09998,20,15,19.09998,15,17.90002
		C15,16.70001,14.09998,15.79999,12.90002,15.79999z M12.90002,18.09998c-0.1048,0-0.20001-0.08569-0.20001-0.19995v-0.20001
		h0.20001c0.11426,0,0.19995,0.08569,0.19995,0.20001C13.09998,18.01428,13.01428,18.09998,12.90002,18.09998z"/>
	<path d="M10.8,2.09997v5c0,1.20001,0.90002,2.10004,2.10004,2.10004c1.19995,0,2.09998-0.90002,2.09998-2.10004v-5
		c0-1.19995-0.90002-2.09998-2.09998-2.09998C11.70002-0.00001,10.8,0.90002,10.8,2.09997z M13.00001,1.99999v5.09998
		c0,0.10004,0,0.10004,0,0.10004s0,0-0.09998,0c-0.10004,0-0.10004,0-0.10004,0s0,0,0-0.10004v-5V1.99999H13.00001z"/>
	<path d="M15.8,7.09997v2.10004h2.10004c1.19995,0,2.09998-1,2.09998-2.10004c0-1.19995-0.90002-2.09998-2.09998-2.09998
		C16.70002,4.99999,15.8,5.90002,15.8,7.09997z M18.09999,7.09997c0,0.1048-0.08569,0.20001-0.19995,0.20001h-0.20001V7.09997
		c0-0.11426,0.08569-0.19995,0.20001-0.19995C18.01429,6.90002,18.09999,6.98571,18.09999,7.09997z"/>
	<path d="M9.20001,17.90002v-5c0-1.20001-0.90002-2.10004-2.10004-2.10004c-1.19995,0-2.09998,0.90002-2.09998,2.10004v5
		C4.99999,19.09998,5.90002,20,7.09997,20C8.29998,20,9.20001,19.09998,9.20001,17.90002z M6.99999,18v-5.09998
		c0-0.10004,0-0.10004,0-0.10004s0,0,0.09998,0c0.10004,0,0.10004,0,0.10004,0s0,0,0,0.10004v5V18H6.99999z"/>
	<path d="M4.20001,12.90002v-2.10004H2.09997c-1.19995,0-2.09998,1-2.09998,2.10004C-0.00001,14.09998,0.90002,15,2.09997,15
		C3.29998,15,4.20001,14.09998,4.20001,12.90002z M1.90002,12.90002c0-0.1048,0.08569-0.20001,0.19995-0.20001h0.20001v0.20001
		c0,0.11426-0.08569,0.19995-0.20001,0.19995C1.98571,13.09998,1.90002,13.01428,1.90002,12.90002z"/>
	<path d="M2.09997,9.20001h5c1.20001,0,2.10004-0.90002,2.10004-2.10004c0-1.19995-0.90002-2.09998-2.10004-2.09998h-5
		c-1.19995,0-2.09998,0.90002-2.09998,2.09998C-0.00001,8.29998,0.90002,9.20001,2.09997,9.20001z M1.99999,6.99999h5.09998
		c0.10004,0,0.10004,0,0.10004,0s0,0,0,0.09998c0,0.10004,0,0.10004,0,0.10004s0,0-0.10004,0h-5H1.99999V6.99999z"/>
	<path d="M7.09997,4.20001h2.10004V2.09997c0-1.19995-1-2.09998-2.10004-2.09998c-1.19995,0-2.09998,0.90002-2.09998,2.09998
		C4.99999,3.29998,5.90002,4.20001,7.09997,4.20001z M7.09997,1.90002c0.1048,0,0.20001,0.08569,0.20001,0.19995v0.20001H7.09997
		c-0.11426,0-0.19995-0.08569-0.19995-0.20001C6.90002,1.98571,6.98571,1.90002,7.09997,1.90002z"/>
</g>
</svg>
