<svg xmlns="http://www.w3.org/2000/svg" viewBox="0 0 20 20"><path d="M17.9 10.8h-5c-1.2 0-2.1.9-2.1 2.1 0 1.2.9 2.1 2.1 2.1h5c1.2 0 2.1-.9 2.1-2.1 0-1.2-.9-2.1-2.1-2.1zM18 13H12.8v-.1-.1H18v.2zM12.9 15.8h-2.1v2.1c0 1.2 1 2.1 2.1 2.1 1.2 0 2.1-.9 2.1-2.1 0-1.2-.9-2.1-2.1-2.1zm0 2.3a.201.201 0 01-.2-.2v-.2h.2c.114 0 .2.086.2.2 0 .114-.086.2-.2.2zM10.8 2.1v5c0 1.2.9 2.1 2.1 2.1 1.2 0 2.1-.9 2.1-2.1v-5C15 .9 14.1 0 12.9 0c-1.2 0-2.1.9-2.1 2.1zM13 2V7.2h-.2V2h.2zM15.8 7.1v2.1h2.1c1.2 0 2.1-1 2.1-2.1 0-1.2-.9-2.1-2.1-2.1-1.2 0-2.1.9-2.1 2.1zm2.3 0c0 .105-.086.2-.2.2h-.2v-.2c0-.114.086-.2.2-.2.114 0 .2.086.2.2zM9.2 17.9v-5c0-1.2-.9-2.1-2.1-2.1-1.2 0-2.1.9-2.1 2.1v5c0 1.2.9 2.1 2.1 2.1 1.2 0 2.1-.9 2.1-2.1zM7 18v-5.1-.1h.2V18H7zM4.2 12.9v-2.1H2.1c-1.2 0-2.1 1-2.1 2.1C0 14.1.9 15 2.1 15c1.2 0 2.1-.9 2.1-2.1zm-2.3 0c0-.105.086-.2.2-.2h.2v.2c0 .114-.086.2-.2.2a.195.195 0 01-.2-.2zM2.1 9.2h5c1.2 0 2.1-.9 2.1-2.1C9.2 5.9 8.3 5 7.1 5h-5C.9 5 0 5.9 0 7.1c0 1.2.9 2.1 2.1 2.1zM2 7H7.2v.2H2V7zM7.1 4.2h2.1V2.1C9.2.9 8.2 0 7.1 0 5.9 0 5 .9 5 2.1c0 1.2.9 2.1 2.1 2.1zm0-2.3c.105 0 .2.086.2.2v.2h-.2a.195.195 0 01-.2-.2c0-.114.086-.2.2-.2z"/></svg>