<?xml version="1.0" encoding="utf-8"?>
<svg version="1.1" id="telegram" xmlns="http://www.w3.org/2000/svg" xmlns:xlink="http://www.w3.org/1999/xlink" x="0px" y="0px"
	 viewBox="0 0 20 20" enable-background="new 0 0 20 20" xml:space="preserve">
<path fill="none" stroke="currentColor" stroke-width="2" d="M2.1,9.1l10.7-4.4c1.1-0.5,4.6-1.9,4.6-1.9s1.7-0.7,1.6,0.9
	c0,0.6-0.4,2.9-0.8,5.3L17,16.2c0,0-0.1,1.1-0.9,1.2c-0.8,0-5.8-3-6.9-4c-0.4-0.3-0.5-0.8-0.2-1.2c0.1-0.1,3.9-3.7,5.1-4.9
	c0.6-0.6,1.1-1.8-1.2-0.3c0,0-4.8,3.4-6.5,4.4c-0.7,0.4-5.1-1-5.1-1S0.2,9.9,2.1,9.1z"/>
</svg>
