<svg viewBox="0 0 20 21" xmlns="http://www.w3.org/2000/svg"><path d="M17.997 8.63a4.583 4.583 0 01-2.656-.555 4.728 4.728 0 01-1.69-1.595v7.4a5.574 5.574 0 01-.897 3.038 5.36 5.36 0 01-2.39 2.014 5.196 5.196 0 01-3.077.311 5.285 5.285 0 01-2.727-1.497 5.516 5.516 0 01-1.458-2.8c-.205-1.06-.1-2.16.303-3.16a5.44 5.44 0 011.962-2.454 5.227 5.227 0 012.959-.921c.11 0 .22.01.329.017v2.695c-.11-.014-.217-.034-.33-.034-.72 0-1.412.294-1.921.817a2.83 2.83 0 00-.796 1.974c0 .74.286 1.45.796 1.974.51.523 1.2.817 1.922.817 1.501 0 2.827-1.214 2.827-2.756l.026-12.567h2.51a4.854 4.854 0 001.398 2.947A4.622 4.622 0 0018 5.635v2.996" stroke="currentColor" stroke-width="2" stroke-linecap="round" stroke-linejoin="round" fill="none"/></svg>