<svg xmlns="http://www.w3.org/2000/svg" viewBox="0 0 20 20"><g fill="none" stroke="currentColor" stroke-width="2" stroke-linecap="round" stroke-linejoin="round"><path d="M6.98 14.083c.1-.4-.4-.7-.7-.8-.5-.1-1.1.1-1 .5 0 .4.3.6.7.7.3 0 .9 0 1-.4h0zm7.6-4.1c-.1-.1-.4-.2-.3-.5.1-.2.2-.5.2-.7.1-1.3-.8-1.7-2-1.7-.5 0-1 .1-1.5.3-.3.1-.9.4-1 .2-.1-.1.1-.5.1-.6.4-.6.3-1.5-.4-1.9-.6-.3-1.3-.3-1.9-.1-2.9.9-7.4 4.8-6.7 8.2.2.7.5 1.3 1 1.7 1.3 1.2 2.9 2 4.7 2.3 1.3.2 2.5.2 3.8.1 2.1-.2 4-1.2 5.4-2.7.9-1.1 1.3-2.7.1-3.6-.3-.2-1.3-.8-1.5-1zM12.38 2.683c3.4-.5 6.7 1.5 6.6 6.1M13.18 4.883c1.7-.1 3.5 1.1 3.5 3.3M8.98 12.483h0z"/><path d="M12.08 11.283c-1.8-1.1-4-1.4-6.1-.7-1 .3-1.9.8-2.6 1.6-.8.8-1 2.1-.4 3.1 1 1.6 3.5 2.1 6.3 1.9 1.6-.1 3.4-.6 4.2-2.1.7-1.1-.2-3.1-1.4-3.8h0z"/></g></svg>