<?xml version="1.0" encoding="utf-8"?>
<svg version="1.1" id="weibo" xmlns="http://www.w3.org/2000/svg" xmlns:xlink="http://www.w3.org/1999/xlink" x="0px" y="0px"
	 viewBox="0 0 20 20" enable-background="new 0 0 20 20" xml:space="preserve">
<g transform="translate(-559.72 -1046.717)">
	<path fill="none" stroke="currentColor" stroke-width="2" stroke-linecap="round" stroke-linejoin="round" d="M566.7,1060.8
		c0.1-0.4-0.4-0.7-0.7-0.8c-0.5-0.1-1.1,0.1-1,0.5c0,0.4,0.3,0.6,0.7,0.7C566,1061.2,566.6,1061.2,566.7,1060.8L566.7,1060.8z
		 M574.3,1056.7c-0.1-0.1-0.4-0.2-0.3-0.5c0.1-0.2,0.2-0.5,0.2-0.7c0.1-1.3-0.8-1.7-2-1.7c-0.5,0-1,0.1-1.5,0.3
		c-0.3,0.1-0.9,0.4-1,0.2c-0.1-0.1,0.1-0.5,0.1-0.6c0.4-0.6,0.3-1.5-0.4-1.9c-0.6-0.3-1.3-0.3-1.9-0.1c-2.9,0.9-7.4,4.8-6.7,8.2
		c0.2,0.7,0.5,1.3,1,1.7c1.3,1.2,2.9,2,4.7,2.3c1.3,0.2,2.5,0.2,3.8,0.1c2.1-0.2,4-1.2,5.4-2.7c0.9-1.1,1.3-2.7,0.1-3.6
		C575.5,1057.5,574.5,1056.9,574.3,1056.7z"/>
	<path fill="none" stroke="currentColor" stroke-width="2" stroke-linecap="round" stroke-linejoin="round" d="M572.1,1049.4
		c3.4-0.5,6.7,1.5,6.6,6.1"/>
	<path fill="none" stroke="currentColor" stroke-width="2" stroke-linecap="round" stroke-linejoin="round" d="M572.9,1051.6
		c1.7-0.1,3.5,1.1,3.5,3.3"/>
	<polygon fill="none" stroke="currentColor" stroke-width="2" stroke-linecap="round" stroke-linejoin="round" points="568.7,1059.2 
		568.7,1059.2 568.7,1059.2 	"/>
	<path fill="none" stroke="currentColor" stroke-width="2" stroke-linecap="round" stroke-linejoin="round" d="M571.8,1058
		c-1.8-1.1-4-1.4-6.1-0.7c-1,0.3-1.9,0.8-2.6,1.6c-0.8,0.8-1,2.1-0.4,3.1c1,1.6,3.5,2.1,6.3,1.9c1.6-0.1,3.4-0.6,4.2-2.1
		C573.9,1060.7,573,1058.7,571.8,1058L571.8,1058z"/>
</g>
</svg>
