<?xml version="1.0" encoding="utf-8"?>
<!-- Generator: Adobe Illustrator 27.0.0, SVG Export Plug-In . SVG Version: 6.00 Build 0)  -->
<svg version="1.1" xmlns="http://www.w3.org/2000/svg" xmlns:xlink="http://www.w3.org/1999/xlink" x="0px" y="0px"
	 viewBox="0 0 20 20" enable-background="new 0 0 20 20" xml:space="preserve">
<path fill="none" stroke="currentColor" stroke-width="2" stroke-linecap="round" stroke-linejoin="round" d="M15.3,8.7
	c0,0-0.1,0-0.1-0.1c-0.4-0.2-0.4-0.7,0-0.9c0,0,0.1-0.1,0.1-0.1c1.4-0.7,2.2-2.1,2-3.5c-0.3-2.4-3.4-3.7-5.7-2.5
	C9.3,2.9,6.9,4,4.6,5.3c-1.8,1-2.1,2.3-1.8,3.9c0.2,1,0.9,1.7,1.9,2.2c0.1,0,0.1,0.1,0.2,0.1c0.4,0.2,0.4,0.7,0,0.9
	c-0.1,0.1-0.2,0.1-0.3,0.2c-1.7,1-2.3,3-1.3,4.6c1,1.7,3.4,2.3,5.3,1.4c2-1,4.1-2.1,6.1-3.1c0.5-0.3,1-0.5,1.4-0.8
	C18.1,12.9,17.7,10,15.3,8.7z"/>
<path fill="none" stroke="currentColor" stroke-width="2" stroke-linecap="round" stroke-linejoin="round" d="M8,11.6
	C8,12,8.4,12.2,8.7,12l3-1.6c0.4-0.2,0.4-0.7,0-0.9L8.7,8C8.4,7.8,8,8.1,8,8.5V11.6z"/>
</svg>
