<svg xmlns="http://www.w3.org/2000/svg" viewBox="0 0 20 20" xml:space="preserve"><path fill="none" stroke="currentColor" stroke-width="2" stroke-linecap="round" stroke-linejoin="round" d="M15.3 8.7s-.1 0-.1-.1c-.4-.2-.4-.7 0-.9l.1-.1c1.4-.7 2.2-2.1 2-3.5-.3-2.4-3.4-3.7-5.7-2.5-2.3 1.3-4.7 2.4-7 3.7-1.8 1-2.1 2.3-1.8 3.9.2 1 .9 1.7 1.9 2.2.1 0 .1.1.2.1.4.2.4.7 0 .9-.1.1-.2.1-.3.2-1.7 1-2.3 3-1.3 4.6 1 1.7 3.4 2.3 5.3 1.4 2-1 4.1-2.1 6.1-3.1.5-.3 1-.5 1.4-.8 2-1.8 1.6-4.7-.8-6z"/><path fill="none" stroke="currentColor" stroke-width="2" stroke-linecap="round" stroke-linejoin="round" d="M8 11.6c0 .4.4.6.7.4l3-1.6c.4-.2.4-.7 0-.9L8.7 8c-.3-.2-.7.1-.7.5v3.1z"/></svg>