<svg width="20" height="20" viewBox="0 0 20 20" fill="none" xmlns="http://www.w3.org/2000/svg">
<path d="Mnan nanL15.6181 8.50487L15.2688 8.36139C14.9719 8.23949 14.9527 7.82639 15.237 7.67749L15.8288 7.36749C16.6327 6.94854 17.2349 6.23194 17.5028 5.37536C17.7707 4.51878 17.6825 3.59238 17.2574 2.79995C16.8324 2.00752 16.1053 1.41398 15.2363 1.14989C14.3673 0.885807 13.4274 0.972815 12.6234 1.39177L4.83902 5.45382C4.26684 5.74848 3.7908 6.19653 3.46577 6.74632C3.14075 7.2961 2.97998 7.92523 3.00199 8.56117C3.02401 9.19711 3.22792 9.81398 3.59021 10.3406C3.9525 10.8673 4.45843 11.2823 5.04966 11.5379L5.14413 11.5759C5.53975 11.7351 5.56723 12.2847 5.18946 12.4826L4.83902 12.6662C4.05996 13.0992 3.48299 13.8146 3.23081 14.6604C2.97863 15.5062 3.07115 16.4155 3.48868 17.1951C3.90621 17.9747 4.61582 18.563 5.46659 18.8349C6.31737 19.1067 7.24218 19.0408 8.04436 18.651L15.8288 14.5889C16.4009 14.2942 16.877 13.8462 17.202 13.2964C17.527 12.7466 17.6878 12.1175 17.6658 11.4816C17.6438 10.8456 17.4399 10.2288 17.0776 9.70209C16.7153 9.17542 16.2093 8.7604 15.6181 8.50487Lnan nanLnan nanZ" stroke="#637282" stroke-width="2" stroke-linecap="round" stroke-linejoin="round"/>
<path d="M8.50244 11.5879C8.50244 11.9635 8.90106 12.205 9.23395 12.0311L12.2332 10.4643C12.5911 10.2773 12.5911 9.76496 12.2332 9.57795L9.23395 8.01117C8.90106 7.83727 8.50244 8.07876 8.50244 8.45434V11.5879Z" stroke="#637282" stroke-width="2" stroke-linecap="round" stroke-linejoin="round"/>
</svg>
