<svg xmlns="http://www.w3.org/2000/svg" viewBox="0 0 20 20" xml:space="preserve"><path d="M10.7 14c.5.2 1.1.3 1.1.3s.2-1 .1-1.4c0-.5-.1-1.3-.4-1.9-1.5-.4-2.7-.9-3.4-1.6-.8-.6-1.2-1.6-1.2-2.8 0-1.5.6-2.7 1.7-3.6.7-.5 1.5-.9 2.5-1.2H.5v3.4h6L3.3 8.6V11h1.8c.9 0 1.6.2 2 .4.5.3.8.8.8 1.4 0 .3-.1.5-.2.7l.9-1c.8.7 1.2 1.1 2.1 1.5zm-4.4 1.1.8-.9c-.4.3-.9.4-1.6.4-1 0-2-.3-3-.9L0 16.1c1.5 1.3 3.4 2 5.7 2 1.5 0 2.6-.3 3.6-.8-.1 0 0 0 0 0-1.3-.6-2.3-1.3-3-2.2z"/><path d="M19 10.2c-.7-.7-1.8-1.2-3.4-1.6L12.9 8c-.8-.2-1.3-.4-1.7-.6-.2-.2-.4-.5-.4-.9 0-.5.2-.9.7-1.1s1-.5 1.9-.5c1.6 0 3.1.6 4.4 1.7l2-2.4c-.7-.8-1.5-1.4-2.6-1.8s-2.3-.6-3.7-.6c-.8 0-1.5.1-2.2.2-1 .2-1.8.6-2.5 1.1-1.1.9-1.7 2.1-1.7 3.5 0 1.1.4 2 1.1 2.7s3.4 1.6 3.5 1.6l2.5.6c.8.2 1.3.4 1.6.7.3.3.5.6.5 1 0 .5-.2.9-.7 1.2-.5.3-1.1.4-2 .4-.6 0-1.3-.1-1.9-.3l-.9-.3c-.9-.4-1.6-.9-2.2-1.5l-.7.8-.5.5-.8 1c.7.9 1.7 1.6 2.9 2.1s2.6.8 4.1.8c2 0 3.6-.4 4.7-1.3s1.7-2.1 1.7-3.7c0-1-.3-1.8-1-2.7z"/></svg>
