<svg xmlns="http://www.w3.org/2000/svg" viewBox="0 0 20 20" xml:space="preserve"><path d="M15.5 10.8c-.1 1.2-.7 2.3-1.6 3.2-1.1 1.1-2.4 1.6-3.9 1.6h-.1c-.4 0-.8 0-1.2-.1-1-.2-1.9-.7-2.7-1.5l-.5-.5-4.4 1.2c.5.8 1.1 1.6 1.8 2.3.4.4.8.8 1.3 1.1.4.3.9.6 1.4.8.8.4 1.6.6 2.5.8.2 0 .5.1.7.1.4.2.8.2 1.2.2.7 0 1.3-.1 1.9-.2 1.9-.4 3.7-1.3 5.1-2.8 1.5-1.5 2.5-3.3 2.8-5.3.2-.5.2-1.1.2-1.7v-.4l-4.5 1.2m-2.7-5.5 3.6-2.9C14.6.8 12.5 0 10 0h-.1c-2.1 0-4 .6-5.7 1.8-.4.3-.9.7-1.3 1.1C1 4.8 0 7.2 0 9.9v.1c0 1.7.4 3.3 1.1 4.7l3.5-2.8c-.2-.6-.3-1.1-.3-1.8v-.2C4.4 8.4 5 7.2 6 6.1 7.1 5 8.4 4.5 9.9 4.5h.1c1 0 2 .3 2.8.8"/></svg>
