<svg xmlns="http://www.w3.org/2000/svg" viewBox="0 0 20 20"><path d="M18.5 2.7c-.1-.1 0-.2-.2-.2-.1-.1-1.7-1-6.9-.8 1.3.6 2.6 1.3 3.9 1.8-1.7-.4-3.4-.7-5.2-.7-1.8 0-3.6.2-5.4.6 0 0 3.9-1.8 4-1.8-5.1-.1-6.8.7-7 .8-.1.1-.2.1-.2.3C-.2 6.4-.1 13 .2 15.4c0 .1 0 .2.2.3 2.1 1.5 4.5 2.4 7 2.7.2 0 .2 0 .3-.1s1.2-2.8 1.2-3c0-.2 0-.2-.2-.3-1.8-.1-3.6-.9-4.9-2.2 2 1.2 9.2 1.5 12.6 0-1.4 1.2-3.1 1.9-4.9 2.1-.2 0-.3.1-.2.3s1 2.8 1.1 2.9c.1.1.2.2.4.2 2.5-.3 4.9-1.2 7-2.7.1-.1.2-.3.2-.4.3-4.2-.2-8.5-1.5-12.5zM5.9 11c-1.3 0-2.4-1-2.4-2.3s1.1-2.3 2.4-2.3 2.4 1 2.4 2.3S7.2 11 5.9 11zm8.2 0c-1.3 0-2.4-1-2.4-2.3s1.1-2.3 2.4-2.3 2.4 1 2.4 2.3-1.1 2.3-2.4 2.3z"/></svg>