<svg xmlns="http://www.w3.org/2000/svg" viewBox="0 0 20 20"><path d="M6.892 11.229zM13.092 11.229zM19.992 9.429c0-1.4-1.1-2.5-2.5-2.5-.5 0-1 .2-1.5.5-1.5-1-3.3-1.6-5.1-1.7l1-2.4 3 .7c.1 1 1 1.8 2 1.6 1-.1 1.8-1 1.6-2-.1-1-1-1.8-2-1.6-.6.1-1.1.4-1.4.8l-3.6-.8c-.3-.1-.6.1-.7.4l-1.4 3.4c-2 0-3.9.6-5.6 1.7-1.1-.8-2.6-.6-3.5.5-.8 1.1-.6 2.6.5 3.5.1.1.2.1.2.2v.3c0 3.4 3.9 6.2 8.7 6.2 4.8 0 8.7-2.8 8.7-6.2v-.3c1.1-.6 1.6-1.4 1.6-2.3zm-3.2-6.2c.3 0 .6.3.6.6s-.3.6-.6.6-.6-.3-.6-.6.3-.6.6-.6zm-11.2 8c0-.7.5-1.3 1.2-1.3s1.3.5 1.3 1.2-.5 1.3-1.2 1.3-1.3-.5-1.3-1.2zm7.2 4.1c-1.7 1.2-4 1.2-5.8 0-.3-.2-.3-.6-.1-.9.2-.3.6-.3.9-.1 1.3.9 3 .9 4.3 0 .3-.2.7-.1.9.1.2.3.1.7-.2.9zm.3-2.9c-.7 0-1.2-.6-1.2-1.2 0-.7.6-1.2 1.2-1.2.7 0 1.2.6 1.2 1.2 0 .7-.5 1.2-1.2 1.2z"/></svg>