<svg xmlns="http://www.w3.org/2000/svg" viewBox="0 0 20 20"><path d="M17.9 10.8h-5c-1.2 0-2.1.9-2.1 2.1 0 1.2.9 2.1 2.1 2.1h5c1.2 0 2.1-.9 2.1-2.1 0-1.2-.9-2.1-2.1-2.1zM12.9 15.8h-2.1v2.1c0 1.2 1 2.1 2.1 2.1 1.2 0 2.1-.9 2.1-2.1 0-1.2-.9-2.1-2.1-2.1zM10.8 2.1v5c0 1.2.9 2.1 2.1 2.1 1.2 0 2.1-.9 2.1-2.1v-5C15 .9 14.1 0 12.9 0c-1.2 0-2.1.9-2.1 2.1zM15.8 7.1v2.1h2.1c1.2 0 2.1-1 2.1-2.1 0-1.2-.9-2.1-2.1-2.1-1.2 0-2.1.9-2.1 2.1zM9.2 17.9v-5c0-1.2-.9-2.1-2.1-2.1-1.2 0-2.1.9-2.1 2.1v5c0 1.2.9 2.1 2.1 2.1 1.2 0 2.1-.9 2.1-2.1zM4.2 12.9v-2.1H2.1c-1.2 0-2.1 1-2.1 2.1C0 14.1.9 15 2.1 15c1.2 0 2.1-.9 2.1-2.1zM2.1 9.2h5c1.2 0 2.1-.9 2.1-2.1C9.2 5.9 8.3 5 7.1 5h-5C.9 5 0 5.9 0 7.1c0 1.2.9 2.1 2.1 2.1zM7.1 4.2h2.1V2.1C9.2.9 8.2 0 7.1 0 5.9 0 5 .9 5 2.1c0 1.2.9 2.1 2.1 2.1z"/></svg>