<svg viewBox="0 0 16 16" fill="none" xmlns="http://www.w3.org/2000/svg"><path fill-rule="evenodd" clip-rule="evenodd" d="m15.99 1.324-2.716 13.06a.434.434 0 0 1-.68.263l-3.708-2.69a.613.613 0 0 0-.747.02l-2.055 1.675a.434.434 0 0 1-.69-.207l-1.426-4.59L.28 7.48a.435.435 0 0 1-.004-.813L15.407.83a.435.435 0 0 1 .582.494Zm-3.62 2.361L5.165 8.123a.726.726 0 0 0-.317.816l.779 2.738c.055.194.337.174.364-.027l.202-1.5a1.23 1.23 0 0 1 .382-.738l5.947-5.528c.11-.103-.022-.278-.152-.199Z" fill="currentColor"/></svg>
