<?xml version="1.0" encoding="utf-8"?>
<!-- Generator: Adobe Illustrator 22.0.1, SVG Export Plug-In . SVG Version: 6.00 Build 0)  -->
<svg version="1.1" id="icon" xmlns="http://www.w3.org/2000/svg" xmlns:xlink="http://www.w3.org/1999/xlink" x="0px" y="0px"
	 viewBox="0 0 20 20" enable-background="new 0 0 20 20" xml:space="preserve">
<path d="M18.5,2.7c-0.1-0.1,0-0.2-0.2-0.2c-0.1-0.1-1.7-1-6.9-0.8C12.7,2.3,14,3,15.3,3.5c-1.7-0.4-3.4-0.7-5.2-0.7
	c-1.8,0-3.6,0.2-5.4,0.6c0,0,3.9-1.8,4-1.8c-5.1-0.1-6.8,0.7-7,0.8C1.6,2.5,1.5,2.5,1.5,2.7C-0.2,6.4-0.1,13,0.2,15.4
	c0,0.1,0,0.2,0.2,0.3c2.1,1.5,4.5,2.4,7,2.7c0.2,0,0.2,0,0.3-0.1s1.2-2.8,1.2-3c0-0.2,0-0.2-0.2-0.3c-1.8-0.1-3.6-0.9-4.9-2.2
	c2,1.2,9.2,1.5,12.6,0c-1.4,1.2-3.1,1.9-4.9,2.1c-0.2,0-0.3,0.1-0.2,0.3s1,2.8,1.1,2.9c0.1,0.1,0.2,0.2,0.4,0.2
	c2.5-0.3,4.9-1.2,7-2.7c0.1-0.1,0.2-0.3,0.2-0.4C20.3,11,19.8,6.7,18.5,2.7z M5.9,11c-1.3,0-2.4-1-2.4-2.3s1.1-2.3,2.4-2.3
	s2.4,1,2.4,2.3S7.2,11,5.9,11z M14.1,11c-1.3,0-2.4-1-2.4-2.3s1.1-2.3,2.4-2.3s2.4,1,2.4,2.3S15.4,11,14.1,11z"/>
</svg>
