<?xml version="1.0" encoding="utf-8"?>
<!-- Generator: Adobe Illustrator 22.0.1, SVG Export Plug-In . SVG Version: 6.00 Build 0)  -->
<svg version="1.1" id="icon" xmlns="http://www.w3.org/2000/svg" xmlns:xlink="http://www.w3.org/1999/xlink" x="0px" y="0px"
	 viewBox="0 0 20 20" enable-background="new 0 0 20 20" xml:space="preserve">
<g transform="translate(-1501.908 -6926.171)">
	<path d="M1508.8,6937.4L1508.8,6937.4z"/>
	<path d="M1515,6937.4L1515,6937.4z"/>
	<path d="M1521.9,6935.6c0-1.4-1.1-2.5-2.5-2.5c-0.5,0-1,0.2-1.5,0.5c-1.5-1-3.3-1.6-5.1-1.7l1-2.4l3,0.7c0.1,1,1,1.8,2,1.6
		c1-0.1,1.8-1,1.6-2c-0.1-1-1-1.8-2-1.6c-0.6,0.1-1.1,0.4-1.4,0.8l-3.6-0.8c-0.3-0.1-0.6,0.1-0.7,0.4l-1.4,3.4c-2,0-3.9,0.6-5.6,1.7
		c-1.1-0.8-2.6-0.6-3.5,0.5c-0.8,1.1-0.6,2.6,0.5,3.5c0.1,0.1,0.2,0.1,0.2,0.2c0,0.1,0,0.2,0,0.3c0,3.4,3.9,6.2,8.7,6.2
		c4.8,0,8.7-2.8,8.7-6.2c0-0.1,0-0.2,0-0.3C1521.4,6937.3,1521.9,6936.5,1521.9,6935.6z M1518.7,6929.4c0.3,0,0.6,0.3,0.6,0.6
		c0,0.3-0.3,0.6-0.6,0.6c-0.3,0-0.6-0.3-0.6-0.6C1518.1,6929.7,1518.4,6929.4,1518.7,6929.4
		C1518.7,6929.4,1518.7,6929.4,1518.7,6929.4L1518.7,6929.4z M1507.5,6937.4c0-0.7,0.5-1.3,1.2-1.3c0.7,0,1.3,0.5,1.3,1.2
		c0,0.7-0.5,1.3-1.2,1.3c0,0,0,0,0,0C1508.1,6938.6,1507.5,6938.1,1507.5,6937.4L1507.5,6937.4z M1514.7,6941.5
		c-1.7,1.2-4,1.2-5.8,0c-0.3-0.2-0.3-0.6-0.1-0.9c0,0,0,0,0,0c0.2-0.3,0.6-0.3,0.9-0.1c1.3,0.9,3,0.9,4.3,0c0.3-0.2,0.7-0.1,0.9,0.1
		C1515.1,6940.9,1515,6941.3,1514.7,6941.5C1514.7,6941.5,1514.7,6941.5,1514.7,6941.5L1514.7,6941.5z M1515,6938.6
		c-0.7,0-1.2-0.6-1.2-1.2c0-0.7,0.6-1.2,1.2-1.2c0.7,0,1.2,0.6,1.2,1.2C1516.2,6938.1,1515.7,6938.6,1515,6938.6L1515,6938.6z"/>
</g>
</svg>
