<?xml version="1.0" encoding="utf-8"?>
<!-- Generator: Adobe Illustrator 22.0.1, SVG Export Plug-In . SVG Version: 6.00 Build 0)  -->
<svg version="1.1" id="icon" xmlns="http://www.w3.org/2000/svg" xmlns:xlink="http://www.w3.org/1999/xlink" x="0px" y="0px"
	 viewBox="0 0 20 20" enable-background="new 0 0 20 20" xml:space="preserve">
<path d="M19.7,3.6c-0.3-0.3-0.7-0.5-1.1-0.5c-0.1,0-0.2,0-0.3,0L1,7.3C0.5,7.4,0.1,7.9,0,8.4c-0.1,0.5,0.2,1.1,0.6,1.3l3.7,2.1v4.6
	c0,0.2,0.1,0.3,0.3,0.4c0.2,0.1,0.4,0.1,0.5-0.1l3.4-2.6l2.8,1.6c0.6,0.4,1.5,0.2,1.9-0.4l6.6-10.4C20.1,4.6,20.1,4,19.7,3.6z
	 M11.9,14.4L7.7,12L12,8.3c0.1,0,0.1-0.1,0-0.2c0-0.1-0.1-0.1-0.2-0.1l-6.6,2.5L2,8.7l16.1-3.9L11.9,14.4z"/>
</svg>
