<?xml version="1.0" encoding="utf-8"?>
<!-- Generator: Adobe Illustrator 22.0.1, SVG Export Plug-In . SVG Version: 6.00 Build 0)  -->
<svg version="1.1" id="icon" xmlns="http://www.w3.org/2000/svg" xmlns:xlink="http://www.w3.org/1999/xlink" x="0px" y="0px"
	 viewBox="0 0 20 20" enable-background="new 0 0 20 20" xml:space="preserve">
<path d="M20,4c-0.8,0.3-1.5,0.5-2.4,0.6c0.8-0.5,1.5-1.3,1.8-2.2c-0.8,0.5-1.7,0.8-2.6,1c-0.8-0.8-1.9-1.3-3-1.3
	c-2.2,0-4.1,1.7-4.1,3.9c0,0,0,0,0,0c0,0.3,0,0.6,0.1,0.9C6.6,6.9,3.5,5.4,1.4,2.9C1,3.5,0.8,4.2,0.8,4.9c0,1.3,0.7,2.6,1.8,3.3
	C2,8.1,1.4,8,0.8,7.7v0c0,1.9,1.4,3.5,3.3,3.9c-0.4,0.1-0.7,0.1-1.1,0.1c-0.3,0-0.5,0-0.8-0.1c0.6,1.6,2.1,2.7,3.8,2.8
	c-1.5,1.1-3.3,1.7-5.1,1.7c-0.3,0-0.7,0-1-0.1c1.9,1.2,4.1,1.8,6.3,1.8C12.6,18,17.8,13,18,6.8c0-0.1,0-0.1,0-0.2c0-0.2,0-0.3,0-0.5
	C18.7,5.5,19.4,4.8,20,4z"/>
</svg>
